<svg width="72" height="99" viewBox="0 0 72 99" fill="none" xmlns="http://www.w3.org/2000/svg">
<g clip-path="url(#clip0_304_173)">
<path d="M66.3825 3.75098H6.52963C3.9425 3.75098 1.84521 5.84826 1.84521 8.43539V82.9825C1.84521 85.5696 3.9425 87.6669 6.52963 87.6669H66.3825C68.9697 87.6669 71.0669 85.5696 71.0669 82.9825V8.43539C71.0669 5.84826 68.9697 3.75098 66.3825 3.75098Z" fill="#5DCBFD"/>
<path d="M71.1783 78.5039V83.4931C71.1777 84.7351 70.6839 85.926 69.8055 86.8041C68.927 87.6821 67.7359 88.1754 66.4938 88.1754H6.63886C5.39703 88.1754 4.20606 87.682 3.32796 86.8039C2.44986 85.9258 1.95654 84.7349 1.95654 83.4931V78.5039C1.95627 79.119 2.07718 79.7281 2.31236 80.2964C2.54754 80.8647 2.8924 81.3811 3.32722 81.8162C3.76204 82.2512 4.27831 82.5963 4.84653 82.8317C5.41475 83.0671 6.02379 83.1883 6.63886 83.1883H66.4938C67.7362 83.1883 68.9277 82.6948 69.8062 81.8163C70.6847 80.9378 71.1783 79.7463 71.1783 78.5039Z" fill="#4FAEFD"/>
<path d="M66.4203 89.2366H6.30476C4.82581 89.2344 3.4081 88.6458 2.36252 87.5998C1.31695 86.5538 0.72884 85.1359 0.727173 83.657V8.95224C0.72884 7.4733 1.31695 6.05537 2.36252 5.0094C3.4081 3.96342 4.82581 3.37478 6.30476 3.37256H66.4098C67.891 3.37144 69.3119 3.95861 70.3602 5.00494C71.4085 6.05128 71.9984 7.47111 72 8.95224V83.657C71.9984 85.1363 71.41 86.5545 70.3639 87.6005C69.3179 88.6466 67.8996 89.235 66.4203 89.2366ZM6.30476 5.26398C5.32727 5.26565 4.39033 5.65483 3.69934 6.34622C3.00836 7.0376 2.6197 7.97476 2.61859 8.95224V83.657C2.6197 84.6344 3.00836 85.5716 3.69934 86.263C4.39033 86.9544 5.32727 87.3436 6.30476 87.3452H66.4098C67.3877 87.3441 68.3251 86.9552 69.0166 86.2637C69.708 85.5723 70.097 84.6348 70.0981 83.657V8.95224C70.097 7.9744 69.708 7.03692 69.0166 6.34548C68.3251 5.65403 67.3877 5.26509 66.4098 5.26398H6.30476Z" fill="#25252D"/>
<path d="M36.5842 45.2805C36.4449 45.2805 36.3113 45.2251 36.2127 45.1266C36.1142 45.028 36.0588 44.8944 36.0588 44.7551V32.5176C36.0588 32.3782 36.1142 32.2446 36.2127 32.1461C36.3113 32.0475 36.4449 31.9922 36.5842 31.9922C36.7236 31.9922 36.8572 32.0475 36.9557 32.1461C37.0543 32.2446 37.1096 32.3782 37.1096 32.5176V44.7635C37.1074 44.9013 37.0511 45.0328 36.9528 45.1296C36.8545 45.2263 36.7221 45.2805 36.5842 45.2805Z" fill="white"/>
<path d="M36.5842 51.219C36.4449 51.219 36.3113 51.1637 36.2127 51.0651C36.1142 50.9666 36.0588 50.833 36.0588 50.6936V48.1255C36.0588 47.9861 36.1142 47.8525 36.2127 47.754C36.3113 47.6555 36.4449 47.6001 36.5842 47.6001C36.7236 47.6001 36.8572 47.6555 36.9557 47.754C37.0543 47.8525 37.1096 47.9861 37.1096 48.1255V50.6957C37.1091 50.8347 37.0535 50.9678 36.955 51.0659C36.8565 51.1639 36.7232 51.219 36.5842 51.219Z" fill="white"/>
<path d="M36.5842 54.9851C36.4449 54.9851 36.3113 54.9298 36.2127 54.8312C36.1142 54.7327 36.0588 54.5991 36.0588 54.4597V53.7095C36.0588 53.5701 36.1142 53.4365 36.2127 53.338C36.3113 53.2394 36.4449 53.1841 36.5842 53.1841C36.7236 53.1841 36.8572 53.2394 36.9557 53.338C37.0543 53.4365 37.1096 53.5701 37.1096 53.7095V54.4597C37.1096 54.5991 37.0543 54.7327 36.9557 54.8312C36.8572 54.9298 36.7236 54.9851 36.5842 54.9851Z" fill="white"/>
<path d="M36.6011 42.689C36.532 42.6893 36.4636 42.6759 36.3997 42.6496C36.3358 42.6233 36.2778 42.5846 36.229 42.5357C36.1801 42.4869 36.1414 42.4289 36.1151 42.365C36.0888 42.3011 36.0754 42.2327 36.0757 42.1636V29.9282C36.0757 29.7889 36.131 29.6552 36.2296 29.5567C36.3281 29.4582 36.4617 29.4028 36.6011 29.4028C36.7404 29.4028 36.8741 29.4582 36.9726 29.5567C37.0711 29.6552 37.1265 29.7889 37.1265 29.9282V42.1636C37.1268 42.2327 37.1134 42.3011 37.087 42.365C37.0607 42.4289 37.0221 42.4869 36.9732 42.5357C36.9244 42.5846 36.8663 42.6233 36.8025 42.6496C36.7386 42.6759 36.6702 42.6893 36.6011 42.689Z" fill="white"/>
<path d="M36.5674 46.7725C36.428 46.7725 36.2944 46.7171 36.1959 46.6186C36.0973 46.5201 36.042 46.3864 36.042 46.2471V44.6016C36.042 44.4622 36.0973 44.3286 36.1959 44.2301C36.2944 44.1315 36.428 44.0762 36.5674 44.0762C36.7067 44.0762 36.8404 44.1315 36.9389 44.2301C37.0374 44.3286 37.0928 44.4622 37.0928 44.6016V46.2471C37.0928 46.3864 37.0374 46.5201 36.9389 46.6186C36.8404 46.7171 36.7067 46.7725 36.5674 46.7725Z" fill="white"/>
<path d="M60.8553 79.0337H12.4518C10.4133 79.0337 8.75727 78.0964 8.75307 75.9402L8.61647 14.6204C8.61536 14.224 8.69241 13.8313 8.84321 13.4647C8.99401 13.0981 9.2156 12.7648 9.4953 12.4839C9.775 12.2031 10.1073 11.9801 10.4733 11.8278C10.8392 11.6754 11.2316 11.5967 11.628 11.5962H61.3975C62.1961 11.5967 62.9619 11.9138 63.5272 12.4779C64.0924 13.042 64.4111 13.8071 64.4133 14.6056L64.5541 75.1121C64.5583 77.2768 62.9023 79.0337 60.8553 79.0337Z" fill="white"/>
<path d="M63.9909 80.2084L8.96743 80.4059L8.80981 77.6592H64.6109L63.9909 80.2084Z" fill="#E1E4FE"/>
<path d="M64.3082 81.9258H7.59301L7.5783 80.9654L7.41858 10.6656L8.3811 10.6509H65.0921L65.1131 11.605L65.2687 80.957V81.9027L64.3082 81.9258ZM9.45711 80.0344H63.3751L63.2238 12.5423H9.3142L9.45711 80.0344Z" fill="#25252D"/>
<path d="M50.753 35.5674H29.8276V36.8283H50.753V35.5674Z" fill="#CDCDCF"/>
<path d="M43.1285 43.4731H29.8276V44.7341H43.1285V43.4731Z" fill="#CDCDCF"/>
<path d="M50.753 52.0581H29.8276V53.3191H50.753V52.0581Z" fill="#CDCDCF"/>
<path d="M43.1285 60.792H29.8276V62.0529H43.1285V60.792Z" fill="#CDCDCF"/>
<path d="M53.0522 8.68115H20.8204C17.6866 8.68115 15.1461 11.2216 15.1461 14.3554C15.1461 17.4892 17.6866 20.0297 20.8204 20.0297H53.0522C56.1861 20.0297 58.7265 17.4892 58.7265 14.3554C58.7265 11.2216 56.1861 8.68115 53.0522 8.68115Z" fill="#373635"/>
<path opacity="0.5" d="M58.7264 13.8828C58.7264 15.3877 58.1286 16.8309 57.0645 17.8951C56.0003 18.9592 54.5571 19.557 53.0522 19.557H20.8203C19.9641 19.5589 19.1186 19.3667 18.3475 18.9948C17.5763 18.6229 16.8994 18.081 16.3678 17.4098C15.8363 16.7387 15.4637 15.9557 15.2783 15.1198C15.0929 14.284 15.0994 13.417 15.2973 12.584C15.5905 13.8286 16.2954 14.9378 17.2979 15.7316C18.3004 16.5254 19.5416 16.9573 20.8203 16.9574H53.05C54.3291 16.9578 55.5708 16.5261 56.5737 15.7322C57.5766 14.9384 58.2819 13.829 58.5751 12.584C58.6757 13.0096 58.7264 13.4454 58.7264 13.8828Z" fill="#21201F"/>
<path d="M53.05 20.9779H20.8202C19.0934 20.9344 17.4519 20.2178 16.2459 18.9811C15.04 17.7443 14.365 16.0853 14.365 14.3579C14.365 12.6305 15.04 10.9715 16.2459 9.73475C17.4519 8.49801 19.0934 7.78146 20.8202 7.73794H53.05C53.9334 7.71568 54.8123 7.87045 55.6349 8.19313C56.4576 8.5158 57.2073 8.99986 57.84 9.61679C58.4726 10.2337 58.9754 10.971 59.3187 11.7853C59.662 12.5995 59.8389 13.4742 59.8389 14.3579C59.8389 15.2416 59.662 16.1163 59.3187 16.9305C58.9754 17.7448 58.4726 18.4821 57.84 19.099C57.2073 19.716 56.4576 20.2 55.6349 20.5227C54.8123 20.8454 53.9334 21.0001 53.05 20.9779ZM20.8202 9.62936C19.5906 9.66603 18.4235 10.1803 17.5667 11.0631C16.7098 11.9458 16.2306 13.1277 16.2306 14.3579C16.2306 15.5881 16.7098 16.77 17.5667 17.6528C18.4235 18.5355 19.5906 19.0498 20.8202 19.0865H53.05C53.6828 19.1053 54.313 18.997 54.9032 18.7678C55.4934 18.5387 56.0315 18.1934 56.4858 17.7525C56.9401 17.3115 57.3013 16.7839 57.5479 16.2008C57.7946 15.6177 57.9216 14.991 57.9216 14.3579C57.9216 13.7248 57.7946 13.0981 57.5479 12.515C57.3013 11.932 56.9401 11.4043 56.4858 10.9634C56.0315 10.5224 55.4934 10.1771 54.9032 9.94798C54.313 9.71884 53.6828 9.61049 53.05 9.62936H20.8202Z" fill="#25252D"/>
<path d="M23.2435 38.879C22.6616 38.879 22.0927 38.7065 21.6089 38.3832C21.125 38.0599 20.7479 37.6004 20.5252 37.0628C20.3025 36.5252 20.2443 35.9336 20.3578 35.3628C20.4713 34.7921 20.7515 34.2679 21.163 33.8564C21.5745 33.4449 22.0987 33.1647 22.6695 33.0512C23.2402 32.9376 23.8318 32.9959 24.3694 33.2186C24.907 33.4413 25.3665 33.8184 25.6898 34.3022C26.0131 34.7861 26.1857 35.3549 26.1857 35.9368C26.1824 36.7161 25.8713 37.4626 25.3203 38.0136C24.7692 38.5647 24.0228 38.8757 23.2435 38.879ZM23.2435 34.0307C22.8694 34.0307 22.5037 34.1416 22.1927 34.3495C21.8816 34.5573 21.6392 34.8527 21.496 35.1983C21.3529 35.5439 21.3154 35.9242 21.3884 36.2911C21.4614 36.658 21.6415 36.995 21.906 37.2596C22.1706 37.5241 22.5076 37.7042 22.8745 37.7772C23.2414 37.8502 23.6217 37.8127 23.9673 37.6696C24.3129 37.5264 24.6083 37.284 24.8161 36.9729C25.024 36.6619 25.1349 36.2962 25.1349 35.9221C25.1278 35.4241 24.9257 34.9486 24.5721 34.5978C24.2186 34.247 23.7416 34.0487 23.2435 34.0454V34.0307Z" fill="#CDCDCF"/>
<path d="M23.2435 47.3151C22.6616 47.3151 22.0927 47.1425 21.6089 46.8192C21.125 46.4959 20.7479 46.0364 20.5252 45.4988C20.3025 44.9612 20.2443 44.3696 20.3578 43.7989C20.4713 43.2281 20.7515 42.7039 21.163 42.2924C21.5745 41.8809 22.0987 41.6007 22.6695 41.4872C23.2402 41.3737 23.8318 41.4319 24.3694 41.6546C24.907 41.8773 25.3665 42.2544 25.6898 42.7383C26.0131 43.2221 26.1857 43.791 26.1857 44.3729C26.1857 44.7592 26.1096 45.1418 25.9617 45.4988C25.8139 45.8558 25.5971 46.1801 25.3239 46.4533C25.0507 46.7265 24.7264 46.9433 24.3694 47.0911C24.0124 47.239 23.6299 47.3151 23.2435 47.3151ZM23.2435 42.4688C22.8694 42.4688 22.5037 42.5798 22.1927 42.7876C21.8816 42.9954 21.6392 43.2908 21.496 43.6364C21.3529 43.9821 21.3154 44.3624 21.3884 44.7293C21.4614 45.0962 21.6415 45.4332 21.906 45.6977C22.1706 45.9622 22.5076 46.1424 22.8745 46.2153C23.2414 46.2883 23.6217 46.2509 23.9673 46.1077C24.3129 45.9645 24.6083 45.7221 24.8161 45.4111C25.024 45.1 25.1349 44.7343 25.1349 44.3603C25.1349 43.8586 24.9356 43.3775 24.5809 43.0228C24.2262 42.6681 23.7451 42.4688 23.2435 42.4688Z" fill="#CDCDCF"/>
<path d="M23.2435 55.7443C22.6616 55.7443 22.0927 55.5717 21.6089 55.2484C21.125 54.9251 20.7479 54.4656 20.5252 53.928C20.3025 53.3904 20.2443 52.7988 20.3578 52.2281C20.4713 51.6573 20.7515 51.1331 21.163 50.7216C21.5745 50.3101 22.0987 50.0299 22.6695 49.9164C23.2402 49.8029 23.8318 49.8611 24.3694 50.0838C24.907 50.3065 25.3665 50.6836 25.6898 51.1675C26.0131 51.6513 26.1857 52.2202 26.1857 52.8021C26.1857 53.5824 25.8757 54.3308 25.3239 54.8825C24.7722 55.4343 24.0238 55.7443 23.2435 55.7443ZM23.2435 50.898C22.8694 50.898 22.5037 51.009 22.1927 51.2168C21.8816 51.4246 21.6392 51.72 21.496 52.0656C21.3529 52.4113 21.3154 52.7916 21.3884 53.1585C21.4614 53.5254 21.6415 53.8624 21.906 54.1269C22.1706 54.3914 22.5076 54.5716 22.8745 54.6445C23.2414 54.7175 23.6217 54.6801 23.9673 54.5369C24.3129 54.3937 24.6083 54.1513 24.8161 53.8403C25.024 53.5292 25.1349 53.1635 25.1349 52.7895C25.1349 52.2878 24.9356 51.8067 24.5809 51.452C24.2262 51.0973 23.7451 50.898 23.2435 50.898Z" fill="#CDCDCF"/>
<path d="M23.2435 64.1759C22.6616 64.1759 22.0927 64.0034 21.6089 63.6801C21.125 63.3568 20.7479 62.8973 20.5252 62.3596C20.3025 61.822 20.2443 61.2304 20.3578 60.6597C20.4713 60.089 20.7515 59.5647 21.163 59.1533C21.5745 58.7418 22.0987 58.4616 22.6695 58.348C23.2402 58.2345 23.8318 58.2928 24.3694 58.5155C24.907 58.7382 25.3665 59.1153 25.6898 59.5991C26.0131 60.083 26.1857 60.6518 26.1857 61.2337C26.1824 62.013 25.8713 62.7594 25.3203 63.3105C24.7692 63.8616 24.0228 64.1726 23.2435 64.1759ZM23.2435 59.3276C22.8694 59.3276 22.5037 59.4385 22.1927 59.6463C21.8816 59.8542 21.6392 60.1496 21.496 60.4952C21.3529 60.8408 21.3154 61.2211 21.3884 61.588C21.4614 61.9549 21.6415 62.2919 21.906 62.5564C22.1706 62.821 22.5076 63.0011 22.8745 63.0741C23.2414 63.1471 23.6217 63.1096 23.9673 62.9664C24.3129 62.8233 24.6083 62.5809 24.8161 62.2698C25.024 61.9588 25.1349 61.5931 25.1349 61.219C25.1316 60.7184 24.9313 60.2392 24.5773 59.8852C24.2233 59.5312 23.7441 59.3309 23.2435 59.3276Z" fill="#CDCDCF"/>
<path d="M36.9205 12.1257C40.0079 12.1257 42.5107 9.62288 42.5107 6.53551C42.5107 3.44813 40.0079 0.945312 36.9205 0.945312C33.8331 0.945312 31.3303 3.44813 31.3303 6.53551C31.3303 9.62288 33.8331 12.1257 36.9205 12.1257Z" fill="white"/>
<path d="M42.3173 6.3822C42.3192 7.17617 42.1519 7.96141 41.8265 8.68567C41.5012 9.40993 41.0254 10.0566 40.4306 10.5826C39.8359 11.1086 39.1359 11.5019 38.3774 11.7362C37.6188 11.9706 36.819 12.0407 36.0312 11.9419C35.2434 11.843 34.4857 11.5775 33.8085 11.1629C33.1314 10.7484 32.5503 10.1944 32.1039 9.53777C31.6576 8.88114 31.3562 8.13696 31.2199 7.35478C31.0837 6.5726 31.1155 5.77036 31.3135 5.00146C31.6197 6.20605 32.3186 7.27423 33.2998 8.03718C34.281 8.80013 35.4884 9.21434 36.7313 9.21434C37.9742 9.21434 39.1817 8.80013 40.1629 8.03718C41.144 7.27423 41.843 6.20605 42.1492 5.00146C42.2631 5.45281 42.3196 5.91672 42.3173 6.3822Z" fill="#E1E4FE"/>
<path d="M36.9205 13.0718C35.6279 13.0718 34.3642 12.6885 33.2894 11.9703C32.2146 11.2521 31.3768 10.2314 30.8822 9.03709C30.3875 7.84281 30.258 6.52865 30.5102 5.26081C30.7624 3.99297 31.3849 2.82839 32.299 1.91432C33.213 1.00026 34.3776 0.377778 35.6455 0.125588C36.9133 -0.126601 38.2274 0.00283191 39.4217 0.497519C40.616 0.992206 41.6368 1.82993 42.355 2.90475C43.0731 3.97958 43.4564 5.24323 43.4564 6.5359C43.4548 8.26882 42.7656 9.93028 41.5403 11.1556C40.3149 12.381 38.6535 13.0701 36.9205 13.0718ZM36.9205 1.89142C36.002 1.89142 35.104 2.16382 34.3402 2.67416C33.5764 3.1845 32.9811 3.90987 32.6296 4.75854C32.2781 5.60721 32.1861 6.54106 32.3653 7.442C32.5445 8.34294 32.9869 9.17051 33.6364 9.82005C34.2859 10.4696 35.1135 10.9119 36.0145 11.0911C36.9154 11.2704 37.8492 11.1784 38.6979 10.8268C39.5466 10.4753 40.272 9.88002 40.7823 9.11624C41.2926 8.35246 41.565 7.4545 41.565 6.5359C41.5634 5.30462 41.0735 4.12425 40.2029 3.2536C39.3322 2.38295 38.1518 1.89309 36.9205 1.89142Z" fill="#25252D"/>
<path opacity="0.5" d="M68.2067 18.3359H66.7356V29.9829H68.2067V18.3359Z" fill="white"/>
<path opacity="0.5" d="M68.173 32.2695H66.7019V34.886H68.173V32.2695Z" fill="white"/>
<path d="M68.2067 37.7671H66.7356V41.5226H68.2067V37.7671Z" fill="white"/>
<path d="M43.946 96.2959H24.4392V98.1873H43.946V96.2959Z" fill="#25252D"/>
<path d="M21.8206 96.2959H19.5089V98.1873H21.8206V96.2959Z" fill="#25252D"/>
<path d="M49.2315 96.2959H46.5646V98.1873H49.2315V96.2959Z" fill="#25252D"/>
<path d="M2.61856 32.7783H0V35.3969H2.61856V32.7783Z" fill="white"/>
<path d="M2.61856 38.0093H0V40.6278H2.61856V38.0093Z" fill="white"/>
<path d="M2.61856 43.248H0V45.8666H2.61856V43.248Z" fill="white"/>
<path d="M2.61856 48.4873H0V51.1059H2.61856V48.4873Z" fill="white"/>
<path d="M57.1461 89.9452V87.3267H54.5276V89.9452H57.1461Z" fill="white"/>
<path d="M51.9153 89.9452V87.3267H49.2967V89.9452H51.9153Z" fill="white"/>
<path d="M49.6729 89.9472V87.3286H44.0595V89.9472H49.6729Z" fill="white"/>
<path d="M41.4388 89.9472V87.3286H38.8203V89.9472H41.4388Z" fill="white"/>
<path opacity="0.5" d="M5.86966 58.8018H4.39856V70.4592H5.86966V58.8018Z" fill="white"/>
<path opacity="0.5" d="M5.83182 72.7817H4.36072V75.1187H5.83182V72.7817Z" fill="white"/>
<path opacity="0.5" d="M31.7212 14.6543H20.0637V16.1254H31.7212V14.6543Z" fill="white"/>
<path opacity="0.5" d="M36.3783 14.6899H34.0414V16.161H36.3783V14.6899Z" fill="white"/>
</g>
<defs>
<clipPath id="clip0_304_173">
<rect width="72" height="98.1877" fill="white"/>
</clipPath>
</defs>
</svg>
