<svg width="108" height="131" viewBox="0 0 108 131" fill="none" xmlns="http://www.w3.org/2000/svg">
<path d="M95.787 10.8026L94.5575 11.6618L95.787 10.8026ZM95.0252 130.458C95.5889 131.065 96.5379 131.1 97.1451 130.536L107.039 121.352C107.646 120.788 107.682 119.839 107.118 119.232C106.554 118.625 105.605 118.589 104.998 119.153L96.2034 127.317L88.0392 118.523C87.4756 117.915 86.5265 117.88 85.9193 118.444C85.3122 119.007 85.2769 119.956 85.8405 120.564L95.0252 130.458ZM2.27932 11.7639C3.30569 11.0473 5.32771 10.2009 8.27894 9.32298C11.1813 8.45965 14.8368 7.60687 19.0117 6.82229C27.3596 5.25352 37.7045 3.97228 48.1003 3.41604C58.5059 2.85929 68.8999 3.03243 77.3676 4.3456C81.6022 5.0023 85.3038 5.93655 88.2657 7.17834C91.2423 8.42632 93.3498 9.93382 94.5575 11.6618L97.0165 9.94336C95.3567 7.56826 92.6744 5.77374 89.4257 4.41166C86.1621 3.0434 82.2028 2.05958 77.8274 1.38104C69.0751 0.0237518 58.4532 -0.142187 47.94 0.420327C37.4172 0.983355 26.9407 2.27974 18.4577 3.87391C14.2171 4.6708 10.4548 5.54582 7.4236 6.4475C4.44126 7.33463 2.01399 8.29035 0.561985 9.30407L2.27932 11.7639ZM94.5575 11.6618C95.8244 13.4748 96.8667 16.2541 97.667 19.9149C98.4619 23.5506 98.9934 27.9362 99.3114 32.8702C99.9473 42.7374 99.7208 54.6607 99.1048 66.8936C98.4891 79.1196 97.4867 91.6132 96.579 102.616C95.6732 113.597 94.8578 123.134 94.6256 129.381L97.6235 129.493C97.8526 123.333 98.6594 113.888 99.5689 102.863C100.477 91.8604 101.483 79.3237 102.101 67.0445C102.719 54.7722 102.952 42.7153 102.305 32.6772C101.982 27.6585 101.436 23.1102 100.598 19.2742C99.7647 15.4635 98.617 12.2335 97.0165 9.94336L94.5575 11.6618Z" fill="black"/>
</svg>
