<svg width="102" height="134" viewBox="0 0 102 134" fill="none" xmlns="http://www.w3.org/2000/svg">
<path d="M95.6534 120.503L96.9242 121.3L95.6534 120.503ZM88.9173 1.03525C89.4499 0.400716 90.396 0.31809 91.0306 0.85068L101.371 9.52984C102.005 10.0624 102.088 11.0086 101.555 11.6431C101.023 12.2776 100.077 12.3603 99.4422 11.8277L90.2508 4.11288L82.536 13.3043C82.0034 13.9388 81.0572 14.0214 80.4227 13.4889C79.7882 12.9563 79.7055 12.0101 80.2381 11.3756L88.9173 1.03525ZM2.21437 124.212C3.27524 124.877 5.33701 125.621 8.3284 126.351C11.2702 127.068 14.9638 127.737 19.1727 128.312C27.5885 129.462 37.9844 130.225 48.3951 130.262C58.8154 130.298 69.1878 129.606 77.5794 127.872C81.7759 127.004 85.4263 125.886 88.3225 124.498C91.233 123.103 93.2626 121.492 94.3825 119.706L96.9242 121.3C95.3851 123.755 92.7958 125.681 89.6191 127.204C86.428 128.733 82.5227 129.913 78.1866 130.81C69.5131 132.602 58.9127 133.298 48.3846 133.262C37.8468 133.225 27.3186 132.453 18.7665 131.285C14.4915 130.7 10.6902 130.014 7.61772 129.265C4.5948 128.528 2.12283 127.695 0.622014 126.755L2.21437 124.212ZM94.3825 119.706C95.5573 117.832 96.4595 115.004 97.076 111.308C97.6883 107.637 98.0002 103.231 98.0714 98.2869C98.2137 88.4002 97.3921 76.5031 96.166 64.3162C94.9406 52.1362 93.3155 39.7083 91.8595 28.7641C90.4064 17.8421 89.1158 8.35783 88.5719 2.13012L91.5605 1.86909C92.0969 8.0102 93.3743 17.4026 94.8333 28.3684C96.2892 39.312 97.9202 51.7829 99.1509 64.0159C100.381 76.242 101.216 88.2722 101.071 98.3301C100.999 103.359 100.681 107.929 100.035 111.802C99.3934 115.649 98.4084 118.932 96.9242 121.3L94.3825 119.706Z" fill="black"/>
</svg>
