<svg width="59" height="40" viewBox="0 0 59 40" fill="none" xmlns="http://www.w3.org/2000/svg">
<path d="M2.60485 5.54124C1.9388 5.55118 1.2827 5.56112 0.646484 5.581C0.855244 3.81152 1.17335 3.09577 1.82945 2.37008C4.04628 -0.115147 7.61507 -0.105205 13.9375 0.0637904C20.6675 0.242727 27.4074 0.193023 34.1474 0.441546C49.4564 0.988297 54.4567 0.103554 56.6735 3.6127C56.9817 4.10975 57.2203 4.68632 57.4191 5.39213C52.6276 5.40207 49.1482 5.68041 43.0545 5.85935C34.9427 6.10787 28.7793 5.99852 22.3475 5.88917C13.0031 5.72018 10.2196 5.42195 2.60485 5.54124Z" fill="#FFF200"/>
<path d="M57.2697 37.6602C55.4803 39.7478 50.0029 39.728 39.1176 39.5987C36.1055 39.559 36.195 39.4894 30.807 39.39C23.9676 39.2508 22.1882 39.3403 17.7844 39.2409C6.88911 39.0222 3.7776 39.9765 1.82918 37.6602C1.19296 36.9047 0.934493 36.1293 0.546797 32.2723C0.0895141 27.6299 -0.0397179 23.8125 0.00998676 19.7368C0.0298686 18.0965 0.0795732 16.4066 0.14916 14.6072C0.159101 14.3289 0.169042 14.0506 0.178982 13.7722C5.06992 13.9014 7.83349 13.5833 13.8676 13.3845C21.2537 13.136 20.2 13.5137 29.1767 13.3149C38.0937 13.1261 38.6802 12.7582 45.5394 12.7781C50.49 12.798 51.3946 12.9869 57.5878 13.0962C57.886 13.1062 58.1843 13.1062 58.4726 13.1161C58.5024 13.4442 58.5223 13.7722 58.5421 14.1201C58.6217 15.4423 58.6714 16.9931 58.7509 19.1701C58.7509 19.2 58.7509 19.2397 58.7509 19.2695C58.7907 20.3332 58.8702 22.5699 58.8801 24.1704C58.9298 31.8647 58.9497 35.7118 57.2697 37.6602Z" fill="#FFF200"/>
<path d="M58.4723 13.1165C58.184 13.1066 57.8858 13.1066 57.5875 13.0966C51.4043 12.9873 50.4897 12.7984 45.5391 12.7785C38.6799 12.7586 38.0934 13.1165 29.1764 13.3153C20.1997 13.5042 21.2435 13.1364 13.8674 13.3849C7.84316 13.5837 5.07959 13.9018 0.178711 13.7726C0.208534 13.0966 0.238356 12.4008 0.268179 11.6949C0.268179 11.685 0.268179 11.6751 0.268179 11.6651C0.357648 9.50795 0.437175 7.9174 0.536584 6.70461C0.566407 6.28709 0.606171 5.91927 0.645934 5.59122C1.28215 5.58128 1.93825 5.5614 2.6043 5.55146C10.219 5.43217 13.0025 5.73039 22.3569 5.89939C28.7787 6.00874 34.9521 6.11809 43.0639 5.86957C49.1477 5.68069 52.627 5.41228 57.4285 5.40234C57.5378 5.79004 57.6273 6.2175 57.7168 6.69466C57.9355 7.90746 58.1045 9.4483 58.3331 11.4564C58.3431 11.5061 58.3431 11.5558 58.353 11.6055C58.3928 12.0926 58.4325 12.5896 58.4723 13.1165Z" fill="#FF7300"/>
<path d="M48.6206 20.6416C47.6265 21.6357 44.7834 21.5264 43.8788 21.4965C38.5107 21.3375 14.0461 21.3077 7.88268 21.5065C6.88859 21.5363 3.8069 21.6655 2.7631 20.6018C2.31576 20.1446 2.42511 18.7926 2.41517 18.5938C2.39529 17.7886 2.4947 17.1523 2.52452 17.0231C2.99175 15.1343 14.9209 16.4962 25.5576 15.9296C32.228 15.5717 38.9282 15.9992 45.6085 16.1781C46.2845 16.198 47.9744 16.2577 48.72 16.9635C49.0977 17.3213 49.0977 17.7488 49.0878 18.5938C49.0679 19.6575 49.058 20.2142 48.6206 20.6416Z" fill="white"/>
<path d="M30.7572 28.9616C30.1608 29.2101 28.4609 29.1902 27.9141 29.1803C24.6933 29.1405 10.0105 29.1306 6.31252 29.1803C5.71606 29.1902 3.86705 29.22 3.24077 28.9516C2.97237 28.8323 3.03201 28.4943 3.03201 28.4446C3.02207 28.2359 3.08172 28.0768 3.1016 28.047C3.37995 27.5698 10.5374 27.9078 16.9294 27.7687C20.9356 27.6792 24.9518 27.7885 28.9579 27.8283C29.3655 27.8283 30.3795 27.8482 30.8268 28.0271C31.0555 28.1166 31.0555 28.2259 31.0455 28.4446C31.0157 28.713 31.0157 28.8522 30.7572 28.9616Z" fill="white"/>
<path d="M30.7572 31.4479C30.1608 31.6964 28.4609 31.6765 27.9141 31.6666C24.6933 31.6268 10.0105 31.6169 6.31252 31.6666C5.71606 31.6765 3.86705 31.7064 3.24077 31.438C2.97237 31.3187 3.03201 30.9807 3.03201 30.931C3.02207 30.7222 3.08172 30.5632 3.1016 30.5333C3.37995 30.0562 10.5374 30.3942 16.9294 30.255C20.9356 30.1655 24.9518 30.2749 28.9579 30.3146C29.3655 30.3146 30.3795 30.3345 30.8268 30.5135C31.0555 30.6029 31.0555 30.7123 31.0455 30.931C31.0157 31.1994 31.0157 31.3386 30.7572 31.4479Z" fill="white"/>
<path d="M22.1288 33.942C21.7212 34.1906 20.5382 34.1707 20.1704 34.1607C17.9536 34.121 7.83374 34.111 5.28887 34.1607C4.88129 34.1707 3.59891 34.2005 3.17145 33.9321C2.98257 33.8128 3.03228 33.4748 3.03228 33.4251C3.02234 33.2164 3.0621 33.0573 3.08198 33.0275C3.27086 32.5503 8.2115 32.8883 12.6054 32.7491C15.369 32.6597 18.1325 32.769 20.8961 32.8088C21.1745 32.8088 21.8703 32.8287 22.1785 33.0076C22.3376 33.0971 22.3376 33.2064 22.3276 33.4251C22.3177 33.6836 22.3077 33.8327 22.1288 33.942Z" fill="white"/>
<path d="M41.3541 20.0349C41.1752 20.2139 40.9366 20.2238 40.4396 20.2437C39.9425 20.2636 39.6741 20.2735 39.5051 20.0946C39.3958 19.9753 39.3858 19.856 39.4057 18.9911C39.4355 18.0865 39.4455 17.9374 39.5846 17.8082C39.7238 17.6789 39.9127 17.669 40.2904 17.6392C40.7775 17.6094 41.1255 17.5895 41.3442 17.8082C41.5132 17.9672 41.5132 18.2953 41.5132 18.9514C41.5231 19.5478 41.5231 19.8659 41.3541 20.0349Z" fill="#4E02C6"/>
<path d="M44.2076 20.0056C44.0287 20.1846 43.7901 20.1945 43.2931 20.2144C42.796 20.2343 42.5276 20.2442 42.3586 20.0653C42.2493 19.946 42.2393 19.8267 42.2592 18.9618C42.289 18.0572 42.299 17.9081 42.4382 17.7789C42.5773 17.6496 42.7662 17.6397 43.144 17.6099C43.6311 17.5801 43.979 17.5602 44.1977 17.7789C44.3667 17.9379 44.3667 18.266 44.3667 18.9221C44.3766 19.5285 44.3667 19.8466 44.2076 20.0056Z" fill="#4E02C6"/>
<path d="M47.0602 20.0056C46.8812 20.1846 46.6427 20.1945 46.1456 20.2144C45.6486 20.2343 45.3802 20.2442 45.2112 20.0653C45.1018 19.946 45.0919 19.8267 45.1118 18.9618C45.1416 18.0572 45.1515 17.9081 45.2907 17.7789C45.4299 17.6496 45.6187 17.6397 45.9965 17.6099C46.4836 17.5801 46.8315 17.5602 47.0502 17.7789C47.2192 17.9379 47.2192 18.266 47.2192 18.9221C47.2292 19.5285 47.2192 19.8466 47.0602 20.0056Z" fill="#4E02C6"/>
</svg>
