<svg width="87" height="90" viewBox="0 0 87 90" fill="none" xmlns="http://www.w3.org/2000/svg">
<g clip-path="url(#clip0_303_211)">
<path d="M43.3017 88.6888C66.6733 88.6888 85.6197 69.6898 85.6197 46.2533C85.6197 22.8169 66.6733 3.81787 43.3017 3.81787C19.9302 3.81787 0.983765 22.8169 0.983765 46.2533C0.983765 69.6898 19.9302 88.6888 43.3017 88.6888Z" fill="#FBD947"/>
<path d="M42.6997 3.83203C42.4501 19.0882 37.9129 52.7723 3.72959 61.2741C1.90273 56.4772 0.97203 51.3857 0.983763 46.2528C0.969091 44.3658 1.10165 42.4806 1.38022 40.6143C2.53075 31.9303 6.3433 23.8159 12.2936 17.387C18.2439 10.9582 26.0398 6.53055 34.6091 4.71304C37.2707 4.15573 39.9805 3.86064 42.6997 3.83203Z" fill="#FBE481"/>
<path opacity="0.5" d="M84.8708 45.7541C84.8864 56.9881 80.4407 67.7685 72.5109 75.7258C64.5811 83.6832 53.8161 88.1662 42.5822 88.1896C37.4263 88.1995 32.3133 87.2536 27.5022 85.3997C62.8014 72.346 70.9508 41.6281 69.1741 12.7749C74.0816 16.7558 78.0378 21.7828 80.7536 27.4887C83.4693 33.1945 84.876 39.435 84.8708 45.7541Z" fill="#F8A547"/>
<path d="M16.6805 38.2503H16.519C16.4649 38.2293 16.4155 38.1977 16.3736 38.1575C16.3318 38.1172 16.2983 38.0691 16.2751 38.0159C16.2519 37.9627 16.2395 37.9054 16.2385 37.8474C16.2375 37.7893 16.248 37.7317 16.2694 37.6777L18.6628 32.0098C18.6822 31.9581 18.7118 31.9108 18.7499 31.8708C18.788 31.8308 18.8338 31.7989 18.8845 31.7769C18.9352 31.755 18.9898 31.7435 19.0451 31.7432C19.1003 31.7428 19.1551 31.7536 19.2061 31.7749C19.3118 31.8175 19.3969 31.8995 19.4434 32.0035C19.49 32.1076 19.4944 32.2256 19.4557 32.3329L17.0623 38.0007C17.0321 38.0766 16.9792 38.1412 16.9109 38.1859C16.8425 38.2306 16.7621 38.2531 16.6805 38.2503Z" fill="#3E3126"/>
<path d="M19.8669 35.5191H19.7054C19.6513 35.4981 19.6019 35.4665 19.56 35.4263C19.5182 35.386 19.4847 35.3379 19.4615 35.2847C19.4383 35.2315 19.4259 35.1742 19.4249 35.1162C19.4239 35.0581 19.4344 35.0005 19.4558 34.9465L20.7332 31.907C20.7863 31.8072 20.8726 31.7291 20.9772 31.6862C21.0817 31.6433 21.198 31.6383 21.3059 31.672C21.4125 31.7174 21.4969 31.803 21.5409 31.9102C21.5849 32.0173 21.5848 32.1375 21.5408 32.2447L20.2634 35.2401C20.2335 35.3215 20.1795 35.3917 20.1087 35.4416C20.0379 35.4914 19.9535 35.5185 19.8669 35.5191Z" fill="#3E3126"/>
<path d="M43.3017 88.7912C34.8798 88.8231 26.6376 86.3569 19.6174 81.7045C12.5971 77.052 7.11407 70.4223 3.86166 62.6537C0.609261 54.8851 -0.266454 46.3266 1.34526 38.0603C2.95697 29.794 6.98373 22.1912 12.9163 16.2135C18.8489 10.2357 26.4209 6.15138 34.6747 4.477C42.9285 2.80263 51.4935 3.61339 59.2866 6.80677C67.0796 10.0001 73.7507 15.4327 78.4563 22.4175C83.1618 29.4023 85.6905 37.6255 85.7225 46.0474V46.2089C85.7226 57.4745 81.2584 68.2811 73.3076 76.2622C65.3568 84.2433 54.5672 88.7485 43.3017 88.7912ZM43.3017 7.09198C35.5565 7.06878 27.9783 9.34284 21.5254 13.6266C15.0726 17.9103 10.0349 24.0114 7.04947 31.1582C4.06404 38.305 3.26492 46.1766 4.75317 53.7775C6.24141 61.3785 9.95019 68.3675 15.4105 73.8606C20.8708 79.3538 27.8374 83.1044 35.4293 84.6383C43.0212 86.1721 50.8974 85.4202 58.062 82.4777C65.2266 79.5352 71.3578 74.5342 75.6802 68.1072C80.0025 61.6802 82.322 54.1157 82.3453 46.3705V46.253C82.3492 35.886 78.2407 25.9407 70.9211 18.5992C63.6016 11.2576 53.6687 7.1192 43.3017 7.09198Z" fill="#F8A547"/>
<path d="M0.983848 47.1052C0.757977 47.1052 0.541358 47.0155 0.381643 46.8558C0.221929 46.696 0.132202 46.4794 0.132202 46.2535C0.132172 43.324 0.427334 40.4019 1.01321 37.5315C1.01461 37.415 1.04031 37.3001 1.08867 37.1941C1.13704 37.0881 1.20699 36.9934 1.29407 36.916C1.38115 36.8386 1.48342 36.7802 1.59435 36.7446C1.70528 36.709 1.82242 36.697 1.93828 36.7092C2.16297 36.7316 2.37005 36.8408 2.51541 37.0136C2.66077 37.1864 2.73292 37.4091 2.71651 37.6343V37.8105C2.15493 40.5701 1.86964 43.3787 1.86486 46.1948C1.86881 46.3052 1.85046 46.4153 1.8109 46.5185C1.77135 46.6217 1.71141 46.7158 1.63465 46.7953C1.5579 46.8748 1.46592 46.938 1.36419 46.9812C1.26246 47.0243 1.15308 47.0465 1.04258 47.0465L0.983848 47.1052Z" fill="#3E3126"/>
<path d="M43.3017 89.5698C33.089 89.6032 23.1975 86.0025 15.3962 79.4118C7.59483 72.821 2.39245 63.6699 0.719426 53.5951C0.698198 53.488 0.698513 53.3778 0.720352 53.2708C0.74219 53.1638 0.785117 53.0623 0.846625 52.972C0.908133 52.8818 0.986992 52.8048 1.0786 52.7454C1.17021 52.686 1.27273 52.6454 1.38019 52.626H1.46829C1.68419 52.5872 1.90671 52.6347 2.08795 52.7582C2.2692 52.8818 2.39468 53.0716 2.4374 53.2868C4.1531 63.1508 9.37129 72.0642 17.1329 78.3887C24.8946 84.7133 34.6781 88.024 44.6854 87.7124C54.6926 87.4008 64.2512 83.4878 71.6044 76.6926C78.9575 69.8975 83.611 60.6767 84.7097 50.725C85.8084 40.7734 83.2784 30.7595 77.5847 22.5239C71.891 14.2884 63.4162 8.38446 53.7179 5.89733C44.0196 3.41019 33.7495 4.50694 24.7951 8.986C15.8408 13.4651 8.80382 21.0255 4.97765 30.2777C4.87875 30.4628 4.71496 30.6049 4.51772 30.6766C4.32048 30.7484 4.10368 30.7448 3.90893 30.6666C3.71418 30.5883 3.55518 30.4409 3.46246 30.2526C3.36974 30.0643 3.34981 29.8484 3.40651 29.6463C6.43064 22.4442 11.3509 16.1969 17.6437 11.5692C23.9365 6.94154 31.3664 4.10667 39.1424 3.36635C46.9184 2.62603 54.7497 4.00796 61.8027 7.36505C68.8557 10.7221 74.8665 15.9288 79.1953 22.4308C83.5241 28.9328 86.009 36.4868 86.3854 44.289C86.7619 52.0911 85.0158 59.8493 81.3331 66.7378C77.6504 73.6264 72.1688 79.3875 65.4718 83.4081C58.7747 87.4286 51.1129 89.5581 43.3017 89.5698Z" fill="#3E3126"/>
<path d="M0.881013 50.6434C1.36758 50.6434 1.76203 50.2489 1.76203 49.7624C1.76203 49.2758 1.36758 48.8813 0.881013 48.8813C0.394443 48.8813 0 49.2758 0 49.7624C0 50.2489 0.394443 50.6434 0.881013 50.6434Z" fill="#3E3126"/>
<path d="M43.3017 80.5977C36.509 80.6151 29.8636 78.6179 24.206 74.8585C18.5484 71.0991 14.1326 65.7465 11.5171 59.4775C8.9015 53.2085 8.20366 46.3047 9.51177 39.6391C10.8199 32.9735 14.0752 26.8455 18.8661 22.03C23.6569 17.2145 29.7682 13.9277 36.427 12.5854C43.0858 11.2432 49.9931 11.9056 56.2754 14.4889C62.5578 17.0723 67.933 21.4606 71.7213 27.0988C75.5096 32.7371 77.541 39.3721 77.5584 46.1648V46.2529C77.5584 55.3465 73.9521 64.0689 67.5302 70.5073C61.1084 76.9456 52.3952 80.5744 43.3017 80.5977ZM43.3017 15.2853C37.177 15.2592 31.1821 17.0499 26.075 20.431C20.968 23.812 16.9782 28.6315 14.6103 34.28C12.2423 39.9285 11.6025 46.1524 12.7718 52.1645C13.941 58.1767 16.8668 63.7071 21.1792 68.0564C25.4916 72.4057 30.9968 75.3786 36.9987 76.5991C43.0007 77.8196 49.2298 77.233 54.8983 74.9133C60.5668 72.5937 65.4202 68.6452 68.8447 63.5672C72.2692 58.4892 74.111 52.5098 74.1372 46.3851V46.2529C74.1372 38.0626 70.8927 30.2059 65.1137 24.4021C59.3347 18.5983 51.4919 15.3203 43.3017 15.2853Z" fill="#F8A547"/>
<path d="M19.6319 70.9805C19.457 70.9774 19.2895 70.9094 19.162 70.7897C15.8992 67.5919 13.309 63.7738 11.5438 59.56C9.7786 55.3463 8.87409 50.822 8.8835 46.2534C8.89627 39.2485 11.0317 32.4119 15.0082 26.645C18.9847 20.8782 24.6156 16.4518 31.1584 13.9497C31.328 13.8873 31.5152 13.8939 31.6799 13.968C31.8446 14.0421 31.9737 14.1779 32.0394 14.3461C32.1013 14.5136 32.0943 14.6987 32.02 14.8611C31.9457 15.0234 31.8101 15.1497 31.643 15.2124C25.3683 17.6218 19.9695 21.8734 16.1563 27.4084C12.3432 32.9434 10.2941 39.5027 10.2784 46.2241C10.2623 50.6088 11.123 54.9525 12.81 58.9997C14.497 63.0469 16.9761 66.716 20.1017 69.7912C20.2282 69.9178 20.2992 70.0894 20.2992 70.2684C20.2992 70.4473 20.2282 70.619 20.1017 70.7456C19.9737 70.8755 19.7995 70.9494 19.6172 70.9512L19.6319 70.9805Z" fill="#3E3126"/>
<path d="M43.3018 80.7597C37.0411 80.7651 30.8995 79.0481 25.5493 75.7966C25.4695 75.759 25.3979 75.7058 25.3389 75.64C25.28 75.5743 25.2348 75.4974 25.206 75.4139C25.1773 75.3304 25.1656 75.242 25.1716 75.1539C25.1776 75.0658 25.2012 74.9798 25.241 74.9009C25.2801 74.8205 25.3348 74.7487 25.4018 74.6896C25.4689 74.6304 25.5471 74.5852 25.6318 74.5566C25.7164 74.5279 25.806 74.5163 25.8952 74.5225C25.9844 74.5287 26.0715 74.5525 26.1514 74.5926H26.2542C30.6228 77.239 35.5449 78.8379 40.6348 79.264C45.7247 79.6901 50.8441 78.9318 55.592 77.0486C60.3399 75.1654 64.5872 72.2084 68.0011 68.4092C71.4151 64.6101 73.903 60.0721 75.27 55.1507C76.6369 50.2293 76.8457 45.0582 75.88 40.0426C74.9143 35.0271 72.8004 30.3032 69.7038 26.2412C66.6073 22.1792 62.6122 18.8894 58.0316 16.6295C53.4511 14.3696 48.4094 13.201 43.3018 13.2154C41.5322 13.227 39.7657 13.3644 38.0157 13.6265C37.9318 13.6537 37.8434 13.6638 37.7556 13.6562C37.6678 13.6487 37.5824 13.6237 37.5044 13.5826C37.4264 13.5416 37.3574 13.4853 37.3015 13.4172C37.2455 13.3491 37.2038 13.2705 37.1787 13.186C37.1514 13.1012 37.1411 13.0118 37.1485 12.9229C37.1558 12.8341 37.1807 12.7476 37.2216 12.6685C37.2626 12.5893 37.3188 12.519 37.387 12.4617C37.4553 12.4043 37.5342 12.3611 37.6192 12.3344H37.7954C46.7851 10.8894 55.9814 13.0607 63.3753 18.374C70.7693 23.6873 75.7602 31.7108 77.2577 40.6919C78.7552 49.673 76.6376 58.8818 71.3676 66.3067C66.0975 73.7316 58.1033 78.7692 49.1311 80.3192C47.2044 80.6342 45.254 80.7816 43.3018 80.7597Z" fill="#3E3126"/>
<path d="M34.7118 14.4046C35.1984 14.4046 35.5928 14.0102 35.5928 13.5236C35.5928 13.037 35.1984 12.6426 34.7118 12.6426C34.2253 12.6426 33.8308 13.037 33.8308 13.5236C33.8308 14.0102 34.2253 14.4046 34.7118 14.4046Z" fill="#3E3126"/>
<path d="M22.5392 73.9608C23.0258 73.9608 23.4202 73.5663 23.4202 73.0797C23.4202 72.5932 23.0258 72.1987 22.5392 72.1987C22.0526 72.1987 21.6582 72.5932 21.6582 73.0797C21.6582 73.5663 22.0526 73.9608 22.5392 73.9608Z" fill="#3E3126"/>
<path d="M43.3017 80.5977C36.509 80.6151 29.8636 78.6179 24.206 74.8585C18.5484 71.0991 14.1326 65.7465 11.5171 59.4775C8.9015 53.2085 8.20366 46.3047 9.51177 39.6391C10.8199 32.9735 14.0752 26.8455 18.8661 22.03C23.6569 17.2145 29.7682 13.9277 36.427 12.5854C43.0858 11.2432 49.9931 11.9056 56.2754 14.4889C62.5578 17.0723 67.933 21.4606 71.7213 27.0988C75.5096 32.7371 77.541 39.3721 77.5584 46.1648V46.2529C77.5584 55.3465 73.9521 64.0689 67.5302 70.5073C61.1084 76.9456 52.3952 80.5744 43.3017 80.5977ZM43.3017 15.2853C37.177 15.2592 31.1821 17.0499 26.075 20.431C20.968 23.812 16.9782 28.6315 14.6103 34.28C12.2423 39.9285 11.6025 46.1524 12.7718 52.1645C13.941 58.1767 16.8668 63.7071 21.1792 68.0564C25.4916 72.4057 30.9968 75.3786 36.9987 76.5991C43.0007 77.8196 49.2298 77.233 54.8983 74.9133C60.5668 72.5937 65.4202 68.6452 68.8447 63.5672C72.2692 58.4892 74.111 52.5098 74.1372 46.3851V46.2529C74.1372 38.0626 70.8927 30.2059 65.1137 24.4021C59.3347 18.5983 51.4919 15.3203 43.3017 15.2853Z" fill="#F8A547"/>
<path d="M19.6319 70.9805C19.457 70.9774 19.2895 70.9094 19.162 70.7897C15.8992 67.5919 13.309 63.7738 11.5438 59.56C9.7786 55.3463 8.87409 50.822 8.8835 46.2534C8.89627 39.2485 11.0317 32.4119 15.0082 26.645C18.9847 20.8782 24.6156 16.4518 31.1584 13.9497C31.328 13.8873 31.5152 13.8939 31.6799 13.968C31.8446 14.0421 31.9737 14.1779 32.0394 14.3461C32.1013 14.5136 32.0943 14.6987 32.02 14.8611C31.9457 15.0234 31.8101 15.1497 31.643 15.2124C25.3683 17.6218 19.9695 21.8734 16.1563 27.4084C12.3432 32.9434 10.2941 39.5027 10.2784 46.2241C10.2623 50.6088 11.123 54.9525 12.81 58.9997C14.497 63.0469 16.9761 66.716 20.1017 69.7912C20.2282 69.9178 20.2992 70.0894 20.2992 70.2684C20.2992 70.4473 20.2282 70.619 20.1017 70.7456C19.9737 70.8755 19.7995 70.9494 19.6172 70.9512L19.6319 70.9805Z" fill="#3E3126"/>
<path d="M43.3018 80.7597C37.0411 80.7651 30.8995 79.0481 25.5493 75.7966C25.4695 75.759 25.3979 75.7058 25.3389 75.64C25.28 75.5743 25.2348 75.4974 25.206 75.4139C25.1773 75.3304 25.1656 75.242 25.1716 75.1539C25.1776 75.0658 25.2012 74.9798 25.241 74.9009C25.2801 74.8205 25.3348 74.7487 25.4018 74.6896C25.4689 74.6304 25.5471 74.5852 25.6318 74.5566C25.7164 74.5279 25.806 74.5163 25.8952 74.5225C25.9844 74.5287 26.0715 74.5525 26.1514 74.5926H26.2542C30.6228 77.239 35.5449 78.8379 40.6348 79.264C45.7247 79.6901 50.8441 78.9318 55.592 77.0486C60.3399 75.1654 64.5872 72.2084 68.0011 68.4092C71.4151 64.6101 73.903 60.0721 75.27 55.1507C76.6369 50.2293 76.8457 45.0582 75.88 40.0426C74.9143 35.0271 72.8004 30.3032 69.7038 26.2412C66.6073 22.1792 62.6122 18.8894 58.0316 16.6295C53.4511 14.3696 48.4094 13.201 43.3018 13.2154C41.5322 13.227 39.7657 13.3644 38.0157 13.6265C37.9318 13.6537 37.8434 13.6638 37.7556 13.6562C37.6678 13.6487 37.5824 13.6237 37.5044 13.5826C37.4264 13.5416 37.3574 13.4853 37.3015 13.4172C37.2455 13.3491 37.2038 13.2705 37.1787 13.186C37.1514 13.1012 37.1411 13.0118 37.1485 12.9229C37.1558 12.8341 37.1807 12.7476 37.2216 12.6685C37.2626 12.5893 37.3188 12.519 37.387 12.4617C37.4553 12.4043 37.5342 12.3611 37.6192 12.3344H37.7954C46.7851 10.8894 55.9814 13.0607 63.3753 18.374C70.7693 23.6873 75.7602 31.7108 77.2577 40.6919C78.7552 49.673 76.6376 58.8818 71.3676 66.3067C66.0975 73.7316 58.1033 78.7692 49.1311 80.3192C47.2044 80.6342 45.254 80.7816 43.3018 80.7597Z" fill="#3E3126"/>
<path d="M34.7118 14.4046C35.1984 14.4046 35.5928 14.0102 35.5928 13.5236C35.5928 13.037 35.1984 12.6426 34.7118 12.6426C34.2253 12.6426 33.8308 13.037 33.8308 13.5236C33.8308 14.0102 34.2253 14.4046 34.7118 14.4046Z" fill="#3E3126"/>
<path d="M22.5392 73.9608C23.0258 73.9608 23.4202 73.5663 23.4202 73.0797C23.4202 72.5932 23.0258 72.1987 22.5392 72.1987C22.0526 72.1987 21.6582 72.5932 21.6582 73.0797C21.6582 73.5663 22.0526 73.9608 22.5392 73.9608Z" fill="#3E3126"/>
<path d="M2.86331 34.4622C3.34988 34.4622 3.74433 34.0678 3.74433 33.5812C3.74433 33.0946 3.34988 32.7002 2.86331 32.7002C2.37674 32.7002 1.9823 33.0946 1.9823 33.5812C1.9823 34.0678 2.37674 34.4622 2.86331 34.4622Z" fill="#3E3126"/>
<path d="M23.7716 16.2562C24.4834 15.6537 24.763 14.814 24.3963 14.3807C24.0295 13.9474 23.1551 14.0847 22.4433 14.6873C21.7316 15.2898 21.4519 16.1295 21.8187 16.5628C22.1854 16.9961 23.0598 16.8588 23.7716 16.2562Z" fill="white"/>
<path d="M12.5397 26.7537C12.3829 26.7551 12.2294 26.709 12.0992 26.6216C12.0023 26.572 11.9162 26.5036 11.8459 26.4205C11.7756 26.3373 11.7226 26.2411 11.6898 26.1373C11.657 26.0334 11.6452 25.9242 11.6549 25.8157C11.6647 25.7073 11.6959 25.6019 11.7468 25.5056C13.8523 22.3441 16.4327 19.526 19.3969 17.1507C19.5685 17.0111 19.7884 16.945 20.0085 16.967C20.2286 16.9891 20.4311 17.0973 20.5716 17.2682C20.7121 17.4421 20.7785 17.6644 20.7565 17.8869C20.7345 18.1094 20.6259 18.3144 20.4541 18.4575C17.628 20.7171 15.1537 23.3844 13.1124 26.372C13.0494 26.4726 12.9658 26.5586 12.8671 26.6244C12.7684 26.6903 12.6568 26.7343 12.5397 26.7537Z" fill="white"/>
<path opacity="0.4" d="M55.7974 65.0773C56.211 65.0773 56.5463 64.742 56.5463 64.3285C56.5463 63.9149 56.211 63.5796 55.7974 63.5796C55.3839 63.5796 55.0486 63.9149 55.0486 64.3285C55.0486 64.742 55.3839 65.0773 55.7974 65.0773Z" fill="#F8A547"/>
<path d="M56.2527 75.8108C57.6881 75.8108 58.8517 74.6472 58.8517 73.2118C58.8517 71.7764 57.6881 70.6128 56.2527 70.6128C54.8173 70.6128 53.6537 71.7764 53.6537 73.2118C53.6537 74.6472 54.8173 75.8108 56.2527 75.8108Z" fill="#F8A547"/>
<path d="M57.9853 68.5427C58.4638 68.5427 58.8517 68.1548 58.8517 67.6764C58.8517 67.1979 58.4638 66.8101 57.9853 66.8101C57.5069 66.8101 57.119 67.1979 57.119 67.6764C57.119 68.1548 57.5069 68.5427 57.9853 68.5427Z" fill="#F8A547"/>
<path d="M50.2471 75.2234C50.7255 75.2234 51.1134 74.8355 51.1134 74.3571C51.1134 73.8786 50.7255 73.4907 50.2471 73.4907C49.7686 73.4907 49.3807 73.8786 49.3807 74.3571C49.3807 74.8355 49.7686 75.2234 50.2471 75.2234Z" fill="#F8A547"/>
<path d="M62.7134 71.509C63.3054 71.509 63.7853 71.0291 63.7853 70.4371C63.7853 69.8451 63.3054 69.3652 62.7134 69.3652C62.1214 69.3652 61.6415 69.8451 61.6415 70.4371C61.6415 71.0291 62.1214 71.509 62.7134 71.509Z" fill="#F8A547"/>
<path opacity="0.4" d="M50.9372 71.8468C51.3508 71.8468 51.6861 71.5116 51.6861 71.098C51.6861 70.6844 51.3508 70.3491 50.9372 70.3491C50.5236 70.3491 50.1884 70.6844 50.1884 71.098C50.1884 71.5116 50.5236 71.8468 50.9372 71.8468Z" fill="#F8A547"/>
<path opacity="0.4" d="M53.2132 69.6878C53.643 69.6878 53.9914 69.3394 53.9914 68.9096C53.9914 68.4798 53.643 68.1313 53.2132 68.1313C52.7834 68.1313 52.4349 68.4798 52.4349 68.9096C52.4349 69.3394 52.7834 69.6878 53.2132 69.6878Z" fill="#F8A547"/>
<path opacity="0.4" d="M53.1251 65.9877C53.2873 65.9877 53.4188 65.8563 53.4188 65.6941C53.4188 65.5319 53.2873 65.4004 53.1251 65.4004C52.9629 65.4004 52.8314 65.5319 52.8314 65.6941C52.8314 65.8563 52.9629 65.9877 53.1251 65.9877Z" fill="#F8A547"/>
<path d="M54.1676 85.5313C55.0191 85.5313 55.7094 84.841 55.7094 83.9895C55.7094 83.138 55.0191 82.4478 54.1676 82.4478C53.3161 82.4478 52.6259 83.138 52.6259 83.9895C52.6259 84.841 53.3161 85.5313 54.1676 85.5313Z" fill="#F8A547"/>
<path d="M55.2249 81.8604C55.5087 81.8604 55.7388 81.6303 55.7388 81.3464C55.7388 81.0626 55.5087 80.8325 55.2249 80.8325C54.941 80.8325 54.7109 81.0626 54.7109 81.3464C54.7109 81.6303 54.941 81.8604 55.2249 81.8604Z" fill="#F8A547"/>
<path d="M50.6141 85.8399C50.898 85.8399 51.1281 85.6098 51.1281 85.3259C51.1281 85.0421 50.898 84.812 50.6141 84.812C50.3303 84.812 50.1002 85.0421 50.1002 85.3259C50.1002 85.6098 50.3303 85.8399 50.6141 85.8399Z" fill="#F8A547"/>
<path d="M58.044 83.6226C58.3927 83.6226 58.6754 83.34 58.6754 82.9913C58.6754 82.6425 58.3927 82.3599 58.044 82.3599C57.6953 82.3599 57.4126 82.6425 57.4126 82.9913C57.4126 83.34 57.6953 83.6226 58.044 83.6226Z" fill="#F8A547"/>
<path opacity="0.4" d="M51.04 83.8288C51.2833 83.8288 51.4805 83.6315 51.4805 83.3883C51.4805 83.145 51.2833 82.9478 51.04 82.9478C50.7967 82.9478 50.5995 83.145 50.5995 83.3883C50.5995 83.6315 50.7967 83.8288 51.04 83.8288Z" fill="#F8A547"/>
<path opacity="0.4" d="M52.3909 82.5511C52.6504 82.5511 52.8608 82.3407 52.8608 82.0812C52.8608 81.8217 52.6504 81.6113 52.3909 81.6113C52.1314 81.6113 51.921 81.8217 51.921 82.0812C51.921 82.3407 52.1314 82.5511 52.3909 82.5511Z" fill="#F8A547"/>
<path opacity="0.4" d="M52.3322 80.3338C52.4295 80.3338 52.5084 80.255 52.5084 80.1576C52.5084 80.0603 52.4295 79.9814 52.3322 79.9814C52.2349 79.9814 52.156 80.0603 52.156 80.1576C52.156 80.255 52.2349 80.3338 52.3322 80.3338Z" fill="#F8A547"/>
<path d="M44.8875 78.1164C45.4147 78.1164 45.842 77.6891 45.842 77.1619C45.842 76.6348 45.4147 76.2075 44.8875 76.2075C44.3604 76.2075 43.9331 76.6348 43.9331 77.1619C43.9331 77.6891 44.3604 78.1164 44.8875 78.1164Z" fill="#F8A547"/>
<path d="M28.3967 27.3014C29.9286 25.0972 29.9613 22.47 28.4697 21.4332C26.978 20.3965 24.5269 21.3429 22.995 23.5471C21.4631 25.7513 21.4304 28.3785 22.922 29.4152C24.4137 30.4519 26.8648 29.5055 28.3967 27.3014Z" fill="#FFEFAE"/>
<path d="M53.595 49.924C53.1327 48.8876 52.4746 47.9503 51.6567 47.1635C50.8567 46.4154 49.9634 45.7738 48.999 45.2546C48.0858 44.7539 47.1389 44.3172 46.1651 43.9478C44.8582 43.4633 43.6542 42.964 42.5089 42.4795C41.478 42.0783 40.5353 41.4797 39.7337 40.7174C39.3905 40.3908 39.1192 39.9962 38.9372 39.5588C38.7552 39.1214 38.6664 38.6508 38.6765 38.1772C38.6603 37.4572 38.827 36.7448 39.161 36.1068C39.4989 35.5225 40.0128 35.06 40.6294 34.7853C41.4764 34.4591 42.3798 34.3044 43.2871 34.3301C44.2389 34.3055 45.1789 34.5444 46.0036 35.0202C46.7827 35.5012 47.465 36.1238 48.0152 36.8557C48.5972 37.6415 49.1176 38.4711 49.5717 39.3372L53.8593 36.7088C53.3021 35.5072 52.5642 34.398 51.6714 33.4197C50.6842 32.3307 49.4916 31.4475 48.162 30.8207C47.2812 30.412 46.3468 30.1303 45.3869 29.9838V24.7271H40.9818L41.1139 29.881C39.9797 30.0278 38.8751 30.3498 37.8395 30.8354C36.4035 31.4949 35.1564 32.5047 34.2127 33.7721C33.3435 34.9714 32.8804 36.4171 32.8912 37.8982C32.849 39.2582 33.1361 40.6083 33.7281 41.8334C34.253 42.8784 34.9704 43.8149 35.8426 44.5939C36.6644 45.339 37.5891 45.9621 38.5884 46.444C39.451 46.8844 40.3441 47.2622 41.2608 47.5746C42.4795 48.0445 43.6542 48.5438 44.7408 49.043C45.7475 49.5129 46.6586 50.165 47.4279 50.9665C48.1299 51.78 48.4973 52.8295 48.4557 53.9032C48.4806 54.7278 48.2988 55.5455 47.9271 56.282C47.5688 56.9389 46.9999 57.4561 46.3119 57.7503C45.4444 58.1176 44.5077 58.2929 43.5661 58.2643C42.4008 58.2901 41.2482 58.0171 40.2182 57.4714C39.1858 56.9027 38.2812 56.1281 37.5605 55.1954C36.6391 54.0932 35.8597 52.8796 35.2405 51.5833L31.0851 54.3291C31.744 55.9593 32.6999 57.453 33.9043 58.7341C35.1086 60.0331 36.5617 61.0767 38.1772 61.803C39.1106 62.2408 40.0982 62.5519 41.1139 62.7281L41.0258 67.6617H45.4309L45.3428 62.8308C46.6978 62.7095 48.023 62.362 49.2633 61.803C50.7617 61.1009 52.0149 59.9654 52.8608 58.5433C53.7513 57.0434 54.2041 55.3241 54.1676 53.5802C54.2325 52.3349 54.0374 51.0898 53.595 49.924Z" fill="white"/>
<path d="M68.1464 37.3258C78.3401 37.3258 86.6036 29.036 86.6036 18.8099C86.6036 8.58382 78.3401 0.293945 68.1464 0.293945C57.9528 0.293945 49.6892 8.58382 49.6892 18.8099C49.6892 29.036 57.9528 37.3258 68.1464 37.3258Z" fill="#FBD947"/>
<path d="M67.8968 0.308105C67.7793 6.95975 65.8117 21.658 50.8933 25.3729C50.0973 23.2813 49.6892 21.062 49.6892 18.8241C49.7089 17.9972 49.7874 17.1729 49.9241 16.3572C50.4829 11.9653 52.6091 7.92297 55.9114 4.9741C59.2137 2.02523 63.4699 0.368258 67.8968 0.308105Z" fill="#FBE481"/>
<path opacity="0.5" d="M86.2952 18.5895C86.303 23.4824 84.3709 28.1787 80.9222 31.6494C77.4734 35.1202 72.7895 37.0822 67.8967 37.1055C65.6471 37.1135 63.4159 36.7001 61.3185 35.8868C76.7362 30.1895 80.2896 16.7982 79.5114 4.21436C81.6425 5.953 83.3577 8.14628 84.5315 10.6336C85.7053 13.1209 86.3079 15.8392 86.2952 18.5895Z" fill="#F8A547"/>
<path d="M56.5463 15.33C56.5241 15.3233 56.5035 15.3122 56.4856 15.2975C56.4676 15.2828 56.4528 15.2647 56.4419 15.2442C56.431 15.2238 56.4242 15.2014 56.422 15.1783C56.4197 15.1552 56.4221 15.1319 56.4289 15.1097L57.4714 12.6429C57.4936 12.5985 57.5311 12.5637 57.577 12.5448C57.6228 12.5259 57.674 12.5242 57.721 12.5401C57.7442 12.5497 57.7652 12.5639 57.7829 12.5816C57.8005 12.5994 57.8146 12.6204 57.8241 12.6436C57.8337 12.6668 57.8385 12.6916 57.8385 12.7167C57.8384 12.7418 57.8334 12.7666 57.8238 12.7897L56.7813 15.2566C56.7594 15.297 56.7226 15.3274 56.6787 15.3411C56.6349 15.3548 56.5873 15.3508 56.5463 15.33Z" fill="#3E3126"/>
<path d="M57.9412 14.1255H57.8531C57.8087 14.1033 57.7739 14.0658 57.755 14.0199C57.7361 13.974 57.7344 13.9229 57.7503 13.8759L58.3083 12.5544C58.3248 12.5122 58.3568 12.478 58.3979 12.4589C58.4389 12.4398 58.4856 12.4372 58.5285 12.4516C58.5709 12.4759 58.604 12.5136 58.6227 12.5588C58.6413 12.604 58.6443 12.6541 58.6313 12.7012L58.0733 14.0227C58.0616 14.0495 58.0433 14.0729 58.0203 14.0908C57.9972 14.1087 57.97 14.1207 57.9412 14.1255Z" fill="#3E3126"/>
<path d="M68.1463 37.3694C64.4743 37.3839 60.8805 36.3088 57.8196 34.2802C54.7588 32.2516 52.3684 29.3606 50.9511 25.9731C49.5338 22.5856 49.1532 18.8538 49.8575 15.2499C50.5618 11.646 52.3192 8.332 54.9075 5.72725C57.4959 3.1225 60.7986 1.34406 64.398 0.616981C67.9974 -0.110098 71.7315 0.246857 75.128 1.64268C78.5244 3.0385 81.4304 5.41045 83.4784 8.45839C85.5263 11.5063 86.6242 15.0933 86.6329 18.7653C86.6406 21.2007 86.1686 23.6138 85.2437 25.8668C84.3189 28.1198 82.9593 30.1685 81.2427 31.8961C79.526 33.6236 77.4859 34.9961 75.2388 35.9352C72.9918 36.8744 70.5817 37.3617 68.1463 37.3694ZM68.1463 1.73241C64.7647 1.7179 61.4548 2.70684 58.6354 4.5741C55.816 6.44136 53.6139 9.10301 52.3077 12.2222C51.0016 15.3414 50.65 18.778 51.2976 22.0971C51.9453 25.4161 53.5629 28.4685 55.9458 30.8679C58.3288 33.2673 61.3699 34.9059 64.6845 35.5763C67.999 36.2467 71.4379 35.9188 74.566 34.6342C77.6942 33.3495 80.3709 31.1657 82.2575 28.3593C84.1441 25.5528 85.1558 22.2497 85.1645 18.8681C85.1723 16.6255 84.7382 14.4034 83.8871 12.3286C83.0361 10.2537 81.7847 8.36684 80.2044 6.77564C78.6241 5.18444 76.7459 3.92009 74.6769 3.05477C72.608 2.18945 70.3889 1.74011 68.1463 1.73241Z" fill="#F8A547"/>
<path d="M49.6891 19.1916C49.5904 19.1878 49.497 19.1459 49.4286 19.0747C49.3601 19.0035 49.3219 18.9086 49.322 18.8098C49.3247 17.5327 49.4526 16.2589 49.7038 15.0068C49.7311 14.9149 49.7907 14.836 49.8717 14.7847C49.9527 14.7334 50.0496 14.7132 50.1443 14.7278C50.2357 14.7456 50.3163 14.7988 50.3686 14.8758C50.4209 14.9529 50.4405 15.0474 50.4233 15.1389C50.1842 16.3431 50.0612 17.5674 50.0562 18.7951C50.0582 18.8453 50.0502 18.8953 50.0328 18.9424C50.0154 18.9895 49.9889 19.0326 49.9548 19.0695C49.9208 19.1063 49.8797 19.136 49.8341 19.157C49.7885 19.1779 49.7393 19.1897 49.6891 19.1916Z" fill="#3E3126"/>
<path d="M68.1463 37.6926C63.6968 37.7079 59.3868 36.1403 55.9867 33.2702C52.5866 30.4 50.318 26.4142 49.5863 22.0252C49.578 21.9739 49.5803 21.9215 49.593 21.8711C49.6057 21.8207 49.6286 21.7735 49.6602 21.7322C49.6918 21.691 49.7315 21.6566 49.7769 21.6313C49.8223 21.6059 49.8723 21.5901 49.924 21.5847C50.0204 21.5753 50.1169 21.6014 50.1954 21.6582C50.2738 21.715 50.3288 21.7986 50.3498 21.8931C51.1266 26.1873 53.4269 30.0569 56.8282 32.7908C60.2295 35.5247 64.5032 36.9393 68.864 36.7746C73.2247 36.6099 77.3795 34.8769 80.5649 31.8942C83.7502 28.9114 85.7521 24.8793 86.2027 20.5388C86.6532 16.1983 85.5221 11.8409 83.0173 8.26754C80.5125 4.69416 76.8022 2.14479 72.5683 1.08793C68.3343 0.0310706 63.8612 0.53772 59.9709 2.51477C56.0806 4.49183 53.0345 7.80646 51.3924 11.8496C51.3749 11.8954 51.3481 11.937 51.3136 11.9719C51.2792 12.0067 51.2378 12.034 51.1922 12.052C51.1466 12.0699 51.0978 12.0782 51.0488 12.0762C50.9998 12.0742 50.9518 12.062 50.9078 12.0404C50.8626 12.0243 50.8211 11.999 50.786 11.9662C50.7509 11.9335 50.7229 11.8939 50.7036 11.8499C50.6844 11.8059 50.6743 11.7584 50.6741 11.7104C50.6738 11.6623 50.6834 11.6148 50.7022 11.5706C52.019 8.42641 54.1636 5.69807 56.9078 3.67589C59.6519 1.6537 62.893 0.413317 66.2861 0.0867355C69.6792 -0.239846 73.0973 0.35959 76.1768 1.82126C79.2563 3.28292 81.8818 5.55213 83.7742 8.38741C85.6665 11.2227 86.7547 14.518 86.923 17.9226C87.0914 21.3272 86.3336 24.7137 84.7302 27.7218C83.1268 30.73 80.7379 33.2471 77.8176 35.0055C74.8974 36.7638 71.555 37.6975 68.1463 37.7073V37.6926Z" fill="#3E3126"/>
<path d="M49.6451 20.7333C49.8559 20.7333 50.0269 20.5623 50.0269 20.3515C50.0269 20.1407 49.8559 19.9697 49.6451 19.9697C49.4342 19.9697 49.2633 20.1407 49.2633 20.3515C49.2633 20.5623 49.4342 20.7333 49.6451 20.7333Z" fill="#3E3126"/>
<path d="M68.1463 33.7723C65.1818 33.781 62.2813 32.9106 59.8114 31.2712C57.3415 29.6317 55.4131 27.2968 54.27 24.5616C53.1268 21.8264 52.8202 18.8137 53.389 15.9043C53.9577 12.9949 55.3762 10.3194 57.4652 8.21599C59.5543 6.11261 62.22 4.67578 65.1254 4.08712C68.0309 3.49846 71.0456 3.7844 73.7886 4.90879C76.5316 6.03317 78.8796 7.94554 80.536 10.4041C82.1923 12.8627 83.0825 15.7572 83.0942 18.7217C83.1038 20.6922 82.7245 22.6453 81.978 24.469C81.2315 26.2927 80.1325 27.9511 78.7438 29.3493C77.3552 30.7474 75.7044 31.8578 73.8858 32.6168C72.0673 33.3758 70.1169 33.7685 68.1463 33.7723ZM68.1463 5.27155C65.4745 5.26575 62.861 6.05236 60.6363 7.5319C58.4115 9.01144 56.6755 11.1175 55.6477 13.5837C54.6199 16.0499 54.3464 18.7654 54.862 21.387C55.3775 24.0086 56.6589 26.4185 58.544 28.3118C60.4292 30.2051 62.8334 31.497 65.4527 32.0239C68.072 32.5509 70.7888 32.2892 73.2594 31.2722C75.7301 30.2551 77.8436 28.5282 79.3328 26.3099C80.822 24.0916 81.62 21.4816 81.6258 18.8098C81.6142 15.2397 80.1898 11.8194 77.664 9.29639C75.1382 6.77334 71.7164 5.35271 68.1463 5.34497V5.27155Z" fill="#F8A547"/>
<path d="M57.8237 29.6017C57.7463 29.6006 57.6724 29.569 57.6182 29.5136C55.8305 27.7387 54.5164 25.5438 53.7963 23.1298C53.0761 20.7158 52.9727 18.1597 53.4957 15.6955C54.0186 13.2312 55.1512 10.9374 56.7897 9.02393C58.4282 7.11046 60.5204 5.63843 62.8749 4.7425C62.9469 4.71344 63.0276 4.71413 63.0991 4.7444C63.1707 4.77467 63.2273 4.83207 63.2566 4.90402C63.2888 4.97074 63.2946 5.04715 63.2728 5.11795C63.251 5.18875 63.2033 5.2487 63.1392 5.28579C60.8717 6.14302 58.8561 7.55639 57.2776 9.39602C55.699 11.2356 54.6082 13.4425 54.1053 15.8138C53.6024 18.1851 53.7035 20.6448 54.3994 22.9668C55.0954 25.2888 56.3638 27.3987 58.088 29.1025C58.1428 29.1599 58.1733 29.2361 58.1733 29.3154C58.1733 29.3947 58.1428 29.471 58.088 29.5283C58.0511 29.5576 58.0087 29.5792 57.9633 29.5918C57.9179 29.6044 57.8704 29.6078 57.8237 29.6017Z" fill="#3E3126"/>
<path d="M68.1463 33.8456C65.4164 33.8594 62.7367 33.112 60.4081 31.6871C60.3762 31.6689 60.3483 31.6445 60.3259 31.6154C60.3034 31.5863 60.287 31.5531 60.2774 31.5176C60.2679 31.4821 60.2654 31.4451 60.2702 31.4087C60.275 31.3723 60.2869 31.3372 60.3053 31.3054C60.3236 31.2735 60.348 31.2455 60.3771 31.2231C60.4062 31.2007 60.4394 31.1842 60.4749 31.1747C60.5103 31.1651 60.5473 31.1627 60.5838 31.1675C60.6202 31.1722 60.6553 31.1842 60.6871 31.2026C63.9681 33.1828 67.9013 33.7786 71.6215 32.8589C75.3418 31.9392 78.5443 29.5792 80.5246 26.2983C82.5048 23.0173 83.1006 19.0841 82.1809 15.3638C81.2612 11.6436 78.9012 8.44106 75.6203 6.4608C73.3601 5.11377 70.7775 4.40344 68.1463 4.40511C67.3794 4.4054 66.6136 4.4643 65.8557 4.58131C65.7876 4.60021 65.7148 4.59253 65.6521 4.55982C65.5894 4.52711 65.5415 4.47181 65.518 4.40511C65.5047 4.32748 65.5217 4.24772 65.5654 4.18219C65.6091 4.11666 65.6762 4.07033 65.7529 4.0527C66.5458 3.93748 67.3452 3.87372 68.1463 3.86182C72.1341 3.86182 75.9586 5.44596 78.7784 8.26574C81.5981 11.0855 83.1823 14.91 83.1823 18.8978C83.1823 22.8855 81.5981 26.71 78.7784 29.5298C75.9586 32.3496 72.1341 33.9337 68.1463 33.9337V33.8456Z" fill="#3E3126"/>
<path d="M59.1013 30.9086C59.3121 30.9086 59.483 30.7376 59.483 30.5268C59.483 30.3159 59.3121 30.145 59.1013 30.145C58.8904 30.145 58.7195 30.3159 58.7195 30.5268C58.7195 30.7376 58.8904 30.9086 59.1013 30.9086Z" fill="#3E3126"/>
<path d="M68.1463 33.7723C65.1818 33.781 62.2813 32.9106 59.8114 31.2712C57.3415 29.6317 55.4131 27.2968 54.27 24.5616C53.1268 21.8264 52.8202 18.8137 53.389 15.9043C53.9577 12.9949 55.3762 10.3194 57.4652 8.21599C59.5543 6.11261 62.22 4.67578 65.1254 4.08712C68.0309 3.49846 71.0456 3.7844 73.7886 4.90879C76.5316 6.03317 78.8796 7.94554 80.536 10.4041C82.1923 12.8627 83.0825 15.7572 83.0942 18.7217C83.1038 20.6922 82.7245 22.6453 81.978 24.469C81.2315 26.2927 80.1325 27.9511 78.7438 29.3493C77.3552 30.7474 75.7044 31.8578 73.8858 32.6168C72.0673 33.3758 70.1169 33.7685 68.1463 33.7723ZM68.1463 5.27155C65.4745 5.26575 62.861 6.05236 60.6363 7.5319C58.4115 9.01144 56.6755 11.1175 55.6477 13.5837C54.6199 16.0499 54.3464 18.7654 54.862 21.387C55.3775 24.0086 56.6589 26.4185 58.544 28.3118C60.4292 30.2051 62.8334 31.497 65.4527 32.0239C68.072 32.5509 70.7888 32.2892 73.2594 31.2722C75.7301 30.2551 77.8436 28.5282 79.3328 26.3099C80.822 24.0916 81.62 21.4816 81.6258 18.8098C81.6142 15.2397 80.1898 11.8194 77.664 9.29639C75.1382 6.77334 71.7164 5.35271 68.1463 5.34497V5.27155Z" fill="#F8A547"/>
<path d="M57.8237 29.6017C57.7463 29.6006 57.6724 29.569 57.6182 29.5136C55.8305 27.7387 54.5164 25.5438 53.7963 23.1298C53.0761 20.7158 52.9727 18.1597 53.4957 15.6955C54.0186 13.2312 55.1512 10.9374 56.7897 9.02393C58.4282 7.11046 60.5204 5.63843 62.8749 4.7425C62.9469 4.71344 63.0276 4.71413 63.0991 4.7444C63.1707 4.77467 63.2273 4.83207 63.2566 4.90402C63.2888 4.97074 63.2946 5.04715 63.2728 5.11795C63.251 5.18875 63.2033 5.2487 63.1392 5.28579C60.8717 6.14302 58.8561 7.55639 57.2776 9.39602C55.699 11.2356 54.6082 13.4425 54.1053 15.8138C53.6024 18.1851 53.7035 20.6448 54.3994 22.9668C55.0954 25.2888 56.3638 27.3987 58.088 29.1025C58.1428 29.1599 58.1733 29.2361 58.1733 29.3154C58.1733 29.3947 58.1428 29.471 58.088 29.5283C58.0511 29.5576 58.0087 29.5792 57.9633 29.5918C57.9179 29.6044 57.8704 29.6078 57.8237 29.6017Z" fill="#3E3126"/>
<path d="M68.1463 33.8456C65.4164 33.8594 62.7367 33.112 60.4081 31.6871C60.3762 31.6689 60.3483 31.6445 60.3259 31.6154C60.3034 31.5863 60.287 31.5531 60.2774 31.5176C60.2679 31.4821 60.2654 31.4451 60.2702 31.4087C60.275 31.3723 60.2869 31.3372 60.3053 31.3054C60.3236 31.2735 60.348 31.2455 60.3771 31.2231C60.4062 31.2007 60.4394 31.1842 60.4749 31.1747C60.5103 31.1651 60.5473 31.1627 60.5838 31.1675C60.6202 31.1722 60.6553 31.1842 60.6871 31.2026C63.9681 33.1828 67.9013 33.7786 71.6215 32.8589C75.3418 31.9392 78.5443 29.5792 80.5246 26.2983C82.5048 23.0173 83.1006 19.0841 82.1809 15.3638C81.2612 11.6436 78.9012 8.44106 75.6203 6.4608C73.3601 5.11377 70.7775 4.40344 68.1463 4.40511C67.3794 4.4054 66.6136 4.4643 65.8557 4.58131C65.7876 4.60021 65.7148 4.59253 65.6521 4.55982C65.5894 4.52711 65.5415 4.47181 65.518 4.40511C65.5047 4.32748 65.5217 4.24772 65.5654 4.18219C65.6091 4.11666 65.6762 4.07033 65.7529 4.0527C66.5458 3.93748 67.3452 3.87372 68.1463 3.86182C72.1341 3.86182 75.9586 5.44596 78.7784 8.26574C81.5981 11.0855 83.1823 14.91 83.1823 18.8978C83.1823 22.8855 81.5981 26.71 78.7784 29.5298C75.9586 32.3496 72.1341 33.9337 68.1463 33.9337V33.8456Z" fill="#3E3126"/>
<path d="M59.1013 30.9086C59.3121 30.9086 59.483 30.7376 59.483 30.5268C59.483 30.3159 59.3121 30.145 59.1013 30.145C58.8904 30.145 58.7195 30.3159 58.7195 30.5268C58.7195 30.7376 58.8904 30.9086 59.1013 30.9086Z" fill="#3E3126"/>
<path d="M50.5114 13.6703C50.7223 13.6703 50.8932 13.4994 50.8932 13.2885C50.8932 13.0777 50.7223 12.9067 50.5114 12.9067C50.3006 12.9067 50.1296 13.0777 50.1296 13.2885C50.1296 13.4994 50.3006 13.6703 50.5114 13.6703Z" fill="#3E3126"/>
<path d="M54.6815 10.2785C54.6492 10.2931 54.6142 10.3006 54.5787 10.3006C54.5433 10.3006 54.5083 10.2931 54.476 10.2785C54.431 10.254 54.3914 10.2208 54.3596 10.1807C54.3277 10.1407 54.3042 10.0946 54.2905 10.0453C54.2768 9.99597 54.2732 9.94441 54.2798 9.89366C54.2865 9.84291 54.3032 9.79401 54.3291 9.74987C55.2679 8.37513 56.4061 7.14783 57.7063 6.10835C57.775 6.04109 57.8672 6.00342 57.9633 6.00342C58.0594 6.00342 58.1517 6.04109 58.2203 6.10835C58.2554 6.14131 58.2834 6.18112 58.3025 6.22531C58.3216 6.26951 58.3315 6.31716 58.3315 6.36531C58.3315 6.41347 58.3216 6.46112 58.3025 6.50532C58.2834 6.54951 58.2554 6.58932 58.2203 6.62228C57.0009 7.61217 55.9325 8.77461 55.0486 10.0729C55.0177 10.1421 54.9652 10.1995 54.8991 10.2365C54.833 10.2735 54.7567 10.2882 54.6815 10.2785Z" fill="white"/>
<path opacity="0.4" d="M73.6086 27.0328C73.787 27.0328 73.9316 26.8882 73.9316 26.7098C73.9316 26.5313 73.787 26.3867 73.6086 26.3867C73.4302 26.3867 73.2855 26.5313 73.2855 26.7098C73.2855 26.8882 73.4302 27.0328 73.6086 27.0328Z" fill="#F8A547"/>
<path d="M73.7995 31.7017C74.4239 31.7017 74.9301 31.1955 74.9301 30.5711C74.9301 29.9466 74.4239 29.4404 73.7995 29.4404C73.175 29.4404 72.6688 29.9466 72.6688 30.5711C72.6688 31.1955 73.175 31.7017 73.7995 31.7017Z" fill="#F8A547"/>
<path d="M74.563 28.5448C74.7739 28.5448 74.9448 28.3739 74.9448 28.163C74.9448 27.9522 74.7739 27.7812 74.563 27.7812C74.3522 27.7812 74.1813 27.9522 74.1813 28.163C74.1813 28.3739 74.3522 28.5448 74.563 28.5448Z" fill="#F8A547"/>
<path d="M71.1857 31.4672C71.3966 31.4672 71.5675 31.2962 71.5675 31.0854C71.5675 30.8745 71.3966 30.7036 71.1857 30.7036C70.9749 30.7036 70.804 30.8745 70.804 31.0854C70.804 31.2962 70.9749 31.4672 71.1857 31.4672Z" fill="#F8A547"/>
<path d="M76.6334 29.8372C76.893 29.8372 77.1033 29.6268 77.1033 29.3673C77.1033 29.1078 76.893 28.8975 76.6334 28.8975C76.3739 28.8975 76.1636 29.1078 76.1636 29.3673C76.1636 29.6268 76.3739 29.8372 76.6334 29.8372Z" fill="#F8A547"/>
<path opacity="0.4" d="M71.4942 29.984C71.6726 29.984 71.8172 29.8393 71.8172 29.6609C71.8172 29.4825 71.6726 29.3379 71.4942 29.3379C71.3158 29.3379 71.1711 29.4825 71.1711 29.6609C71.1711 29.8393 71.3158 29.984 71.4942 29.984Z" fill="#F8A547"/>
<path opacity="0.4" d="M72.478 29.0436C72.6645 29.0436 72.8157 28.8924 72.8157 28.7059C72.8157 28.5194 72.6645 28.3682 72.478 28.3682C72.2915 28.3682 72.1403 28.5194 72.1403 28.7059C72.1403 28.8924 72.2915 29.0436 72.478 29.0436Z" fill="#F8A547"/>
<path opacity="0.4" d="M72.4486 27.4289C72.5215 27.4289 72.5807 27.3697 72.5807 27.2967C72.5807 27.2237 72.5215 27.1646 72.4486 27.1646C72.3756 27.1646 72.3164 27.2237 72.3164 27.2967C72.3164 27.3697 72.3756 27.4289 72.4486 27.4289Z" fill="#F8A547"/>
<path d="M72.8891 35.9598C73.2621 35.9598 73.5645 35.6574 73.5645 35.2843C73.5645 34.9113 73.2621 34.6089 72.8891 34.6089C72.516 34.6089 72.2136 34.9113 72.2136 35.2843C72.2136 35.6574 72.516 35.9598 72.8891 35.9598Z" fill="#F8A547"/>
<path d="M73.3589 34.3448C73.4806 34.3448 73.5792 34.2462 73.5792 34.1245C73.5792 34.0029 73.4806 33.9043 73.3589 33.9043C73.2373 33.9043 73.1387 34.0029 73.1387 34.1245C73.1387 34.2462 73.2373 34.3448 73.3589 34.3448Z" fill="#F8A547"/>
<path d="M71.3473 36.0777C71.469 36.0777 71.5676 35.9791 71.5676 35.8575C71.5676 35.7358 71.469 35.6372 71.3473 35.6372C71.2257 35.6372 71.1271 35.7358 71.1271 35.8575C71.1271 35.9791 71.2257 36.0777 71.3473 36.0777Z" fill="#F8A547"/>
<path d="M74.5923 35.1229C74.7464 35.1229 74.8713 34.998 74.8713 34.8439C74.8713 34.6898 74.7464 34.5649 74.5923 34.5649C74.4383 34.5649 74.3134 34.6898 74.3134 34.8439C74.3134 34.998 74.4383 35.1229 74.5923 35.1229Z" fill="#F8A547"/>
<path opacity="0.4" d="M71.5235 35.2114C71.6289 35.2114 71.7144 35.1259 71.7144 35.0205C71.7144 34.9151 71.6289 34.8296 71.5235 34.8296C71.4181 34.8296 71.3326 34.9151 71.3326 35.0205C71.3326 35.1259 71.4181 35.2114 71.5235 35.2114Z" fill="#F8A547"/>
<path opacity="0.4" d="M72.1255 34.6528C72.239 34.6528 72.3311 34.5608 72.3311 34.4473C72.3311 34.3337 72.239 34.2417 72.1255 34.2417C72.012 34.2417 71.9199 34.3337 71.9199 34.4473C71.9199 34.5608 72.012 34.6528 72.1255 34.6528Z" fill="#F8A547"/>
<path opacity="0.4" d="M72.0961 33.6839C72.1367 33.6839 72.1695 33.6511 72.1695 33.6105C72.1695 33.57 72.1367 33.5371 72.0961 33.5371C72.0556 33.5371 72.0227 33.57 72.0227 33.6105C72.0227 33.6511 72.0556 33.6839 72.0961 33.6839Z" fill="#F8A547"/>
<path d="M68.8511 32.7153C69.0781 32.7153 69.2622 32.5313 69.2622 32.3042C69.2622 32.0771 69.0781 31.8931 68.8511 31.8931C68.624 31.8931 68.4399 32.0771 68.4399 32.3042C68.4399 32.5313 68.624 32.7153 68.8511 32.7153Z" fill="#F8A547"/>
<path d="M61.9438 10.8449C62.6167 9.88062 62.6339 8.73021 61.9822 8.27539C61.3305 7.82058 60.2566 8.23358 59.5837 9.19786C58.9108 10.1621 58.8936 11.3125 59.5453 11.7674C60.197 12.2222 61.2709 11.8092 61.9438 10.8449Z" fill="#FFEFAE"/>
<path d="M72.6541 20.4102C72.4422 19.9625 72.154 19.5551 71.8025 19.2061C71.4507 18.8817 71.0613 18.6007 70.6425 18.3691C70.2424 18.1596 69.8306 17.9733 69.4091 17.8112C68.8364 17.5909 68.3078 17.3707 67.8086 17.1504C67.3618 16.9757 66.953 16.7164 66.6045 16.3869C66.4494 16.2433 66.3272 16.068 66.2461 15.8729C66.165 15.6777 66.127 15.4674 66.1346 15.2562C66.1272 14.9434 66.2032 14.6342 66.3549 14.3605C66.5038 14.1002 66.7368 13.8983 67.0156 13.7879C67.3838 13.6393 67.7789 13.5693 68.1756 13.5823C68.5899 13.5835 68.9978 13.6842 69.365 13.876C69.7053 14.0894 70.0039 14.3631 70.246 14.6836C70.4954 15.0301 70.7211 15.3931 70.9215 15.7702L72.7863 14.6836C72.547 14.1472 72.2249 13.6517 71.8318 13.2152C71.4126 12.755 70.9155 12.3723 70.3635 12.0846C69.975 11.9095 69.5653 11.7861 69.1448 11.7175V9.38281H67.2506V11.6294C66.7425 11.6969 66.2475 11.8404 65.7822 12.0552C65.1535 12.346 64.6082 12.7904 64.1964 13.3474C63.8198 13.8739 63.6194 14.5061 63.6237 15.1534C63.6058 15.7457 63.7264 16.334 63.9761 16.8714C64.2077 17.322 64.5215 17.7254 64.9012 18.0608C65.2653 18.3858 65.67 18.6622 66.1053 18.8831C66.4799 19.072 66.8675 19.2339 67.2653 19.3676C67.7666 19.5549 68.2568 19.7706 68.7336 20.0137C69.1662 20.2228 69.5588 20.506 69.8936 20.8507C70.2 21.2102 70.3622 21.6706 70.3488 22.1428C70.3584 22.5028 70.2829 22.86 70.1285 23.1853C69.9712 23.4813 69.7173 23.7144 69.4091 23.8461C69.0338 24.0065 68.6276 24.0818 68.2197 24.0664C67.7079 24.0789 67.2017 23.9574 66.7513 23.714C66.2982 23.4736 65.9025 23.138 65.5913 22.7302C65.2019 22.2423 64.8717 21.71 64.6075 21.1443L62.7721 22.3484C63.074 23.0578 63.4907 23.7127 64.0055 24.2866C64.528 24.8433 65.1507 25.2966 65.841 25.6228C66.2488 25.8234 66.6843 25.962 67.1331 26.034V28.1924H69.0126V26.078C69.6029 26.0288 70.1797 25.8747 70.7159 25.6228C71.395 25.3149 71.9601 24.8013 72.3311 24.1545C72.7297 23.5163 72.9385 22.7778 72.9331 22.0253C72.9471 21.4738 72.8523 20.925 72.6541 20.4102Z" fill="white"/>
</g>
<defs>
<clipPath id="clip0_303_211">
<rect width="87" height="89.5549" fill="white"/>
</clipPath>
</defs>
</svg>
