<svg width="444" height="285" viewBox="0 0 444 285" fill="none" xmlns="http://www.w3.org/2000/svg">
<g clip-path="url(#clip0_1172_57653)">
<path d="M19.6392 284.186C2.12579 284.186 -10.5855 267.585 -6.08891 250.658C1.09032 223.632 17.3048 182.068 62.2753 170.209C139.329 149.889 134.344 55.373 195.325 55.373C256.306 55.373 256.628 102.099 274.809 106.85C292.991 111.602 353.938 97.4907 367.553 139.144C392.72 216.141 430.899 179.808 443.449 249.722C446.615 267.358 435.907 284.185 417.99 284.185L19.6392 284.186Z" fill="#F3F5FD"/>
<path d="M385.622 32.6328H260.328V195.17H385.622V32.6328Z" fill="#DEE8F5"/>
<path d="M374.165 87.3418H271.784V112.196H374.165V87.3418Z" fill="white"/>
<path d="M374.165 120.896H271.784V125.735H374.165V120.896Z" fill="white"/>
<path d="M374.165 132.83H271.784V137.669H374.165V132.83Z" fill="white"/>
<path d="M374.165 144.762H271.784V149.6H374.165V144.762Z" fill="white"/>
<path d="M374.165 155.459H271.784V160.297H374.165V155.459Z" fill="white"/>
<path d="M306.59 61.7758C306.59 65.2178 305.569 68.5824 303.657 71.4442C301.744 74.3061 299.027 76.5367 295.847 77.8538C292.667 79.171 289.168 79.5156 285.792 78.8441C282.416 78.1726 279.315 76.5152 276.881 74.0814C274.448 71.6476 272.79 68.5467 272.119 65.1709C271.447 61.7951 271.792 58.296 273.109 55.1161C274.426 51.9362 276.657 49.2182 279.518 47.306C282.38 45.3938 285.745 44.3731 289.187 44.3731C291.474 44.3661 293.74 44.8115 295.855 45.6836C297.969 46.5556 299.891 47.8373 301.508 49.4546C303.125 51.072 304.407 52.9933 305.279 55.1078C306.151 57.2224 306.597 59.4885 306.59 61.7758Z" fill="white"/>
<path d="M289.187 63.5684C292.992 63.5684 296.076 60.4838 296.076 56.6787C296.076 52.8737 292.992 49.7891 289.187 49.7891C285.382 49.7891 282.297 52.8737 282.297 56.6787C282.297 60.4838 285.382 63.5684 289.187 63.5684Z" fill="white"/>
<path d="M301.728 73.8436C300.104 75.5308 298.156 76.8731 296.001 77.7899C293.846 78.7067 291.529 79.1792 289.187 79.1792C286.845 79.1792 284.528 78.7067 282.373 77.7899C280.218 76.8731 278.27 75.5308 276.646 73.8436C278.993 68.5996 283.73 65.0156 289.187 65.0156C294.644 65.0156 299.381 68.6015 301.728 73.8436Z" fill="white"/>
<path d="M348.815 44.4805H313.681V55.0981H348.815V44.4805Z" fill="white"/>
<path d="M374.165 61.666H313.681V65.5289H374.165V61.666Z" fill="white"/>
<path d="M374.165 72.0977H313.681V75.9605H374.165V72.0977Z" fill="white"/>
<path d="M309.621 169.666H271.784V183.749H309.621V169.666Z" fill="white"/>
<path d="M346.457 16.6055H196.454V211.195H346.457V16.6055Z" fill="#DEE8F5"/>
<path d="M332.741 82.1016H210.17V111.857H332.741V82.1016Z" fill="white"/>
<path d="M332.741 122.273H210.17V128.066H332.741V122.273Z" fill="white"/>
<path d="M332.741 136.559H210.17V142.351H332.741V136.559Z" fill="white"/>
<path d="M332.741 150.846H210.17V156.639H332.741V150.846Z" fill="white"/>
<path d="M332.741 163.65H210.17V169.443H332.741V163.65Z" fill="white"/>
<path d="M251.839 51.4949C251.839 55.6156 250.617 59.6437 248.328 63.07C246.039 66.4962 242.785 69.1666 238.978 70.7436C235.171 72.3205 230.982 72.7331 226.94 71.9292C222.899 71.1254 219.186 69.1411 216.272 66.2273C213.359 63.3136 211.374 59.6013 210.57 55.5598C209.766 51.5183 210.179 47.3291 211.756 43.5221C213.333 39.715 216.003 36.4611 219.429 34.1717C222.855 31.8823 226.884 30.6603 231.004 30.6602C233.743 30.6521 236.455 31.1855 238.987 32.2297C241.518 33.2738 243.818 34.8082 245.755 36.7445C247.691 38.6808 249.225 40.9808 250.27 43.5122C251.314 46.0437 251.847 48.7566 251.839 51.4949Z" fill="white"/>
<path d="M231.004 53.6414C235.56 53.6414 239.253 49.9484 239.253 45.393C239.253 40.8375 235.56 37.1445 231.004 37.1445C226.449 37.1445 222.756 40.8375 222.756 45.393C222.756 49.9484 226.449 53.6414 231.004 53.6414Z" fill="white"/>
<path d="M246.019 65.9422C244.075 67.962 241.743 69.5688 239.163 70.6664C236.583 71.7639 233.809 72.3296 231.005 72.3296C228.201 72.3296 225.427 71.7639 222.847 70.6664C220.267 69.5688 217.935 67.962 215.991 65.9422C218.8 59.6638 224.472 55.373 231.005 55.373C237.538 55.373 243.21 59.6638 246.019 65.9422Z" fill="white"/>
<path d="M302.392 30.7891H260.329V43.5004H302.392V30.7891Z" fill="white"/>
<path d="M332.742 51.3633H260.329V55.988H332.742V51.3633Z" fill="white"/>
<path d="M332.742 63.8516H260.329V68.4763H332.742V63.8516Z" fill="white"/>
<path d="M255.469 180.662H210.17V197.522H255.469V180.662Z" fill="white"/>
<path d="M274.438 0H98.833V227.802H274.438V0Z" fill="#C1D8ED"/>
<path d="M258.38 76.6777H114.889V111.512H258.38V76.6777Z" fill="white"/>
<path d="M258.38 123.705H114.889V130.486H258.38V123.705Z" fill="white"/>
<path d="M258.38 140.43H114.889V147.211H258.38V140.43Z" fill="white"/>
<path d="M258.38 157.154H114.889V163.936H258.38V157.154Z" fill="white"/>
<path d="M258.38 172.145H114.889V178.926H258.38V172.145Z" fill="white"/>
<path d="M163.671 40.8457C163.671 45.6698 162.24 50.3856 159.56 54.3967C156.88 58.4078 153.071 61.5341 148.614 63.3803C144.157 65.2264 139.253 65.7095 134.521 64.7684C129.79 63.8273 125.444 61.5043 122.033 58.0932C118.622 54.6821 116.299 50.3361 115.357 45.6047C114.416 40.8733 114.899 35.9691 116.745 31.5122C118.591 27.0553 121.718 23.2459 125.729 20.5658C129.74 17.8857 134.456 16.4552 139.28 16.4552C142.485 16.4456 145.661 17.07 148.625 18.2923C151.588 19.5147 154.281 21.3109 156.548 23.5777C158.815 25.8444 160.611 28.537 161.833 31.5005C163.056 34.4641 163.68 37.64 163.671 40.8457V40.8457Z" fill="white"/>
<path d="M139.279 43.359C144.612 43.359 148.935 39.0359 148.935 33.703C148.935 28.37 144.612 24.0469 139.279 24.0469C133.946 24.0469 129.623 28.37 129.623 33.703C129.623 39.0359 133.946 43.359 139.279 43.359Z" fill="#DEE8F5"/>
<path d="M156.857 57.758C154.581 60.1227 151.851 62.0038 148.831 63.2887C145.811 64.5737 142.562 65.236 139.28 65.236C135.998 65.236 132.75 64.5737 129.73 63.2887C126.71 62.0038 123.98 60.1227 121.704 57.758C124.993 50.4082 131.632 45.3848 139.28 45.3848C146.928 45.3848 153.568 50.4082 156.857 57.758Z" fill="#DEE8F5"/>
<path d="M222.852 16.6074H173.609V31.4886H222.852V16.6074Z" fill="white"/>
<path d="M258.381 40.6914H173.609V46.1056H258.381V40.6914Z" fill="white"/>
<path d="M258.381 55.3105H173.609V60.7247H258.381V55.3105Z" fill="white"/>
<path d="M167.919 192.061H114.889V211.799H167.919V192.061Z" fill="white"/>
<path d="M132.895 281.037L124.936 281.011C124.936 281.011 124.962 272.792 124.962 272.064H132.921C132.921 272.795 132.895 281.037 132.895 281.037Z" fill="#E98862"/>
<path d="M164.609 280.087L156.705 279.147C157.061 276.155 157.463 272.562 157.49 271.973C157.49 272.011 157.49 272.042 157.49 272.066H165.45C165.45 272.304 165.45 273.03 164.609 280.087Z" fill="#E98862"/>
<path d="M167.546 277.334C166.887 260.654 166.847 243.135 166.641 226.411C163.904 208.373 162.465 188.588 159.086 170.678L158.984 170.708L158.688 168.688L129.854 166.906L128.733 185.745H128.84C127.389 210.98 124.583 251.548 122.885 277.121L136.859 278.302C139.354 253.151 143.424 213.083 145.679 188.294C148.154 200.925 150.487 215.15 152.685 227.931C153.166 244.258 153.568 261.272 153.524 277.573L167.546 277.334Z" fill="#262626"/>
<path d="M142.57 284.117C142.784 284.116 142.996 284.071 143.192 283.984C143.387 283.898 143.563 283.772 143.708 283.614C143.853 283.457 143.964 283.271 144.034 283.069C144.104 282.866 144.132 282.652 144.115 282.438V282.438C144.092 282.143 143.985 281.86 143.806 281.623C143.628 281.386 143.386 281.205 143.108 281.101L133.843 277.998C133.664 277.939 133.474 277.919 133.286 277.94C133.098 277.961 132.917 278.022 132.755 278.119C131.481 279.003 129.958 279.455 128.408 279.408C127.202 279.322 126.043 278.899 125.066 278.187C124.98 278.116 124.875 278.072 124.765 278.058C124.655 278.045 124.543 278.063 124.442 278.11C124.342 278.158 124.257 278.233 124.198 278.327C124.138 278.421 124.107 278.53 124.107 278.642V283.172C124.107 283.305 124.134 283.437 124.185 283.561C124.236 283.684 124.311 283.796 124.406 283.891C124.501 283.985 124.613 284.06 124.737 284.11C124.861 284.161 124.993 284.187 125.127 284.186L142.57 284.117Z" fill="#C1D8ED"/>
<path d="M174.307 284.117C174.521 284.116 174.732 284.071 174.928 283.984C175.124 283.898 175.3 283.772 175.445 283.614C175.59 283.457 175.701 283.271 175.771 283.069C175.841 282.866 175.868 282.652 175.852 282.439V282.439C175.829 282.143 175.721 281.86 175.543 281.623C175.364 281.386 175.122 281.205 174.844 281.101L165.58 277.998C165.4 277.939 165.21 277.919 165.022 277.94C164.834 277.961 164.653 278.022 164.491 278.119C163.217 279.003 161.693 279.455 160.144 279.408C158.937 279.322 157.779 278.899 156.801 278.187C156.715 278.116 156.61 278.072 156.5 278.058C156.39 278.045 156.278 278.063 156.177 278.11C156.077 278.158 155.992 278.233 155.933 278.327C155.874 278.421 155.842 278.53 155.843 278.642V283.172C155.843 283.305 155.869 283.438 155.92 283.561C155.972 283.684 156.047 283.797 156.141 283.891C156.236 283.985 156.349 284.06 156.472 284.111C156.596 284.161 156.728 284.187 156.862 284.187L174.307 284.117Z" fill="#C1D8ED"/>
<path d="M138.865 128.232C138.865 128.232 141.796 126.678 141.142 118.697L147.197 117.574C147.197 117.574 146.516 124.73 149.58 127.001L138.865 128.232Z" fill="#E98862"/>
<path d="M137.706 115.602C138.125 118.023 139.446 120.316 141.582 121.098C144.118 122.026 145.996 122.089 148.919 122.089C152.908 122.089 152.776 117.929 152.888 113.736C153.002 109.527 152.666 105.012 151.089 103.545C147.944 100.618 138.706 102.472 137.582 107.368C137.001 109.901 137.307 113.297 137.706 115.602Z" fill="#E98862"/>
<path d="M155.353 103.499C154.686 101.052 152.606 99.8564 149.167 100.755C146.72 101.395 146.411 100.82 144.339 99.8227C143.153 99.2515 139.26 99.5123 138.297 102.147C137.265 104.969 134.071 102.683 133.774 107.281C133.526 111.129 134.827 116.63 137.44 119.725C138.345 120.796 139.822 122.081 140.965 122.399C142.088 122.711 146.943 122.438 147.415 122.158C149.734 120.782 149.496 114.468 149.128 110.418C149.067 109.752 149.19 108.644 150.9 108.644C152.075 108.644 152.726 108.616 153.333 108.179C153.332 108.179 156.021 105.946 155.353 103.499Z" fill="#0F1011"/>
<path d="M151.425 114.532C151.471 115.145 151.273 115.752 150.873 116.22C150.474 116.687 149.905 116.978 149.292 117.028C148.679 117.078 148.072 116.883 147.602 116.487C147.131 116.09 146.837 115.524 146.784 114.911C146.753 114.605 146.785 114.297 146.876 114.004C146.968 113.71 147.118 113.438 147.316 113.204C147.515 112.97 147.759 112.778 148.034 112.64C148.308 112.502 148.607 112.421 148.914 112.401C150.573 112.348 151.319 113.25 151.425 114.532Z" fill="#E98862"/>
<path d="M121.368 180.566C121.368 181.696 121.964 185.472 121.006 185.742C120.43 185.904 119.751 183.089 119.751 183.089" fill="#E98862"/>
<path d="M116.84 179.973C116.84 179.973 113.707 187.596 117.28 191.976C117.371 192.087 117.494 192.168 117.632 192.209C117.77 192.25 117.917 192.248 118.054 192.203C118.191 192.159 118.311 192.075 118.399 191.961C118.488 191.847 118.539 191.71 118.548 191.566C118.722 188.613 119.317 182.545 121.264 183.256V178.494" fill="#E98862"/>
<path d="M187.465 139.356C187.465 139.356 191.84 135.881 192.149 134.633C192.458 133.385 189.378 130.93 189.378 130.93C189.378 130.93 193.474 126.799 192.657 126.202C191.693 125.496 186.94 131.502 186.94 131.502C186.94 131.502 187.612 129.341 186.775 129.199C186.431 129.141 186.158 129.479 185.62 131.008C185.007 132.751 183.781 135.372 183.781 135.372L187.465 139.356Z" fill="#E98862"/>
<path d="M182.86 134.736L169.922 149.293L159.803 131.179C158.845 128.317 156.663 126.4 152.214 126.209C150.692 126.143 143.267 126.133 137.83 126.133C134.178 126.133 131.18 127.254 129.448 128.985C128.576 129.845 127.923 130.902 127.545 132.066L127.493 132.047L118.794 155.702C118.696 155.967 118.626 156.242 118.585 156.521L115.073 180.177L123.248 181.39L126.697 158.156L130.211 148.603C130.576 150.071 130.776 151.576 130.806 153.089C130.806 161.048 127.206 164.618 127.471 168.704C127.888 175.127 159.092 173.609 160.682 169.961C162.319 166.199 158.996 163.881 159.142 151.575C159.157 150.236 159.261 148.835 159.403 147.409L165.543 158.4C165.865 158.976 166.319 159.466 166.869 159.831C167.419 160.195 168.047 160.422 168.703 160.493C169.358 160.565 170.021 160.478 170.637 160.241C171.252 160.004 171.801 159.623 172.239 159.13L189.251 139.232L182.86 134.736Z" fill="#367CFF"/>
<path d="M375.025 281.074H413.458V239.97H375.025V281.074Z" fill="#D7E8F4"/>
<path d="M363.12 281.074H401.553V239.97H363.12V281.074Z" fill="white"/>
<path d="M374.316 249.77V257.791V282.619H416.383V257.791V249.77H374.316Z" fill="#C1D8ED"/>
<path d="M403.62 249.77H361.555V282.62H403.62V249.77Z" fill="#DEE8F5"/>
<path d="M403.62 249.77H361.555V252.232H403.62V249.77Z" fill="#C1D8ED"/>
<path d="M386.998 256.367H378.178C377.504 256.367 376.957 256.914 376.957 257.588V260.078C376.957 260.753 377.504 261.3 378.178 261.3H386.998C387.673 261.3 388.219 260.753 388.219 260.078V257.588C388.219 256.914 387.673 256.367 386.998 256.367Z" fill="white"/>
<path d="M374.232 242.686L416.019 247.525L416.941 239.557L375.155 234.718L374.232 242.686Z" fill="#C1D8ED"/>
<path d="M361.554 241.217L403.341 246.057L404.264 238.088L362.477 233.249L361.554 241.217Z" fill="#DEE8F5"/>
<path d="M376.92 246.197H363.119C362.38 246.814 361.837 247.633 361.555 248.553C361.555 248.553 366.317 247.1 376.92 246.197Z" fill="#DEE8F5"/>
<path d="M66.7498 191.209L62.8438 190.285L57.9467 210.998L61.8527 211.921L66.7498 191.209Z" fill="#F0F6FF"/>
<path d="M58.5484 188.676L56.3799 189.076L59.7337 207.256L61.9022 206.856L58.5484 188.676Z" fill="#C1D8ED"/>
<path d="M58.5471 188.67L56.3809 189.082L56.7625 191.087L58.9287 190.675L58.5471 188.67Z" fill="#DEE8F5"/>
<path d="M65.2606 193.299L58.2334 211.137L59.4376 211.611L66.4648 193.773L65.2606 193.299Z" fill="#0CBC8B"/>
<path d="M66.7996 201.104H56.207V214.642H66.7996V201.104Z" fill="#C1D8ED"/>
<path d="M79.3435 284.188H83.6836V241.491H79.3435V284.188Z" fill="#C1D8ED"/>
<path d="M82.9158 284.188H87.2559V241.491H82.9158V284.188Z" fill="#DEE8F5"/>
<path d="M25.283 284.188H29.623L29.623 241.491H25.283L25.283 284.188Z" fill="#C1D8ED"/>
<path d="M28.8543 284.188H33.1943L33.1943 241.491H28.8543L28.8543 284.188Z" fill="#DEE8F5"/>
<path d="M67.4392 284.188H71.7793V241.491H67.4392V284.188Z" fill="#C1D8ED"/>
<path d="M71.0115 284.188H75.3516V241.491H71.0115V284.188Z" fill="#DEE8F5"/>
<path d="M13.3787 284.188H17.7188L17.7188 241.491H13.3787L13.3787 284.188Z" fill="#C1D8ED"/>
<path d="M16.951 284.188H21.291L21.291 241.491H16.951L16.951 284.188Z" fill="#DEE8F5"/>
<path d="M71.7528 214.16H13.3789V242.514H71.7528V214.16Z" fill="#C1D8ED"/>
<path d="M87.2557 214.16H28.8818V242.514H87.2557V214.16Z" fill="#DEE8F5"/>
<g opacity="0.53">
<path d="M84.1153 218.191H32.0225V238.359H84.1153V218.191Z" fill="#F3F5FD"/>
</g>
<path d="M58.0693 230.588C59.3471 230.588 60.3828 229.552 60.3828 228.274C60.3828 226.997 59.3471 225.961 58.0693 225.961C56.7916 225.961 55.7559 226.997 55.7559 228.274C55.7559 229.552 56.7916 230.588 58.0693 230.588Z" fill="white"/>
</g>
<defs>
<clipPath id="clip0_1172_57653">
<rect width="451" height="284.187" fill="white" transform="translate(-7)"/>
</clipPath>
</defs>
</svg>
