<svg width="65" height="68" viewBox="0 0 65 68" fill="none" xmlns="http://www.w3.org/2000/svg">
<path d="M28.32 5.7822C26.6439 6.31812 24.8537 6.95666 23.4055 7.60661C23.2003 7.69783 22.7442 7.92588 22.2311 8.31356C21.889 8.57582 21.6838 8.79247 21.6153 8.86088C21.6153 8.86088 21.2277 9.27138 20.9312 9.79589C20.8742 9.87571 20.8058 9.95553 20.7488 10.0467C17.8297 14.3797 21.1935 20.7651 26.5868 40.5485C27.2596 43 27.8411 45.2349 28.3656 47.276C26.6553 48.097 25.1159 48.7127 24.2493 49.0548C23.1661 49.4881 14.2379 52.9886 12.9038 50.8906C12.4021 50.0924 13.1661 48.7583 14.2493 46.8541C16.6895 42.6009 19.4033 41.2897 18.9472 40.0468C18.8445 39.7731 18.5481 39.3968 14.6028 38.7355C11.5127 38.2224 10.5777 38.268 8.7077 37.9259C7.51043 37.7093 2.26527 36.7857 2.21966 35.4516C2.17405 34.0262 8.08056 32.7378 8.54806 32.6351C13.0293 31.6773 15.9141 32.2817 16.0851 31.5747C16.2334 30.9248 13.873 30.2292 9.59709 27.6066C7.3622 26.2383 5.40097 24.8244 3.53095 23.0798C1.54691 21.2212 -0.380111 19.431 0.0645873 18.496C0.30404 17.9943 1.20484 17.8461 8.89014 18.6556C15.1387 19.3056 16.6781 19.0433 17.1 18.211C17.3964 17.618 16.9745 17.0251 15.6404 14.7332C15.0931 13.7982 12.4591 9.27138 10.783 5.00683C9.82514 2.5895 9.35764 1.36943 9.85935 0.69668C11.1022 -1.0251 16.393 0.833511 19.9734 2.08779C22.2881 2.89737 25.1501 4.06042 28.32 5.7822Z" fill="#4E02C6"/>
<path d="M48.8558 1.08385C47.4076 0.365487 46.5981 0.593538 33.4852 4.26515C33.4852 4.26515 31.0678 4.89229 28.3312 5.78169C26.655 6.3176 24.8648 6.95614 23.4167 7.60609C23.2115 7.69731 22.7554 7.92536 22.2423 8.31305C21.9002 8.5753 21.6949 8.79195 21.6265 8.86037C21.6265 8.86037 21.2388 9.27086 20.9424 9.79537C21.6379 8.92878 22.744 8.5753 29.8021 6.60267C30.2582 6.47724 30.7371 6.34041 31.2389 6.20358C42.4133 3.07929 44.6596 2.45215 45.9709 2.78282C46.1534 2.82843 46.3358 2.90825 46.6095 3.03368C51.2731 5.08613 51.1591 10.3541 55.1613 23.2503C56.0279 26.0326 56.3358 26.7623 57.4647 30.5024C58.1944 32.9311 58.947 35.5195 60.0074 39.4647C63.8045 53.5354 64.1465 57.036 62.0257 59.7954C61.752 60.1489 61.5354 60.4112 61.3073 60.5936C61.2161 60.662 61.1135 60.7304 61.0108 60.7989C62.516 60.1261 63.4624 58.9973 63.4624 58.9973C63.5764 58.8604 64.0667 58.2789 64.4202 57.4351C65.1043 55.8502 64.9675 54.2538 64.1237 49.6472C63.6562 47.1158 63.5422 46.6597 63.5422 46.6597C61.8546 39.5103 61.0222 35.9414 58.8216 27.7886C54.3632 11.1979 54.2149 3.74063 48.8558 1.08385Z" fill="#FF7300"/>
<path d="M46.6098 3.02268C46.3361 2.89725 46.1537 2.81743 45.9713 2.77182C44.6486 2.45255 42.4023 3.07969 31.2278 6.20398C30.7261 6.34081 30.2472 6.47764 29.7911 6.60307C22.7329 8.5757 21.6269 8.92918 20.9313 9.79577C20.8743 9.87559 20.8059 9.95541 20.7489 10.0466C17.8298 14.3796 21.1936 20.765 26.587 40.5484C27.2597 42.9999 27.8413 45.2348 28.3658 47.2759C31.6497 60.0809 32.4593 65.041 36.1765 66.8198C38.1377 67.7548 38.8789 66.8312 48.2518 64.2086C56.9747 61.7571 59.6315 61.6316 61.0112 60.8106C61.1138 60.7422 61.2164 60.6852 61.3077 60.6054C61.5357 60.423 61.7409 60.1607 62.026 59.8072C64.1583 57.0478 63.8048 53.5472 60.0078 39.4765C58.9359 35.5199 58.1948 32.9315 57.465 30.5142C56.3248 26.7627 56.0169 26.033 55.1617 23.2621C51.1594 10.3431 51.2734 5.07513 46.6098 3.02268Z" fill="#FFF200"/>
<path d="M38.7984 23.7867C38.2055 25.9988 35.4917 25.4515 29.015 27.6065C28.4905 27.7776 27.3047 28.1881 26.4381 27.5153C25.7083 26.9566 25.5373 25.9646 25.4689 25.5655C24.5795 20.0923 21.7972 14.7445 23.462 13.6156C23.5988 13.5244 24.6251 13.2166 26.6889 12.6122C26.7687 12.5894 26.8144 12.578 26.8828 12.5552C27.4073 12.3956 28.4905 12.0991 30.6228 11.586C32.9033 11.0387 34.055 10.765 34.3172 10.879C35.6627 11.4606 35.6741 13.2394 37.7038 19.5336C38.7642 22.7947 38.9922 23.0569 38.7984 23.7867Z" fill="#FFF200"/>
<path d="M38.0007 23.3411C37.4762 25.3251 35.036 24.8348 29.2321 26.7619C28.7532 26.9215 27.7042 27.275 26.9174 26.682C26.2675 26.1803 26.1079 25.2909 26.0508 24.9261C25.2527 20.023 22.7555 15.2225 24.2492 14.2191C24.3747 14.1393 25.2983 13.8656 27.1455 13.3183C27.2139 13.2955 27.2595 13.2841 27.3165 13.2613C27.7954 13.1244 28.7532 12.8508 30.6689 12.3947C32.7099 11.9044 33.7475 11.6649 33.9756 11.7675C35.1843 12.2921 35.1843 13.877 37.0087 19.5213C37.9665 22.4517 38.1831 22.6912 38.0007 23.3411Z" fill="#FF7300"/>
<path d="M30.3037 16.3415C30.5317 17.7782 29.5055 19.5912 27.9776 19.7052C27.0426 19.7736 26.176 19.1921 25.6971 18.4737C25.1611 17.6756 24.9787 16.5467 25.4576 15.6117C25.9707 14.5855 26.9855 14.3346 27.2706 14.2776C27.4645 14.2434 28.5363 14.0268 29.4257 14.7793C29.5055 14.8363 30.1554 15.4065 30.3037 16.3415Z" fill="white"/>
<path d="M31.6271 24.4029C30.7948 25.5431 28.8107 25.9992 27.6477 24.916C26.9407 24.2546 26.7241 23.217 26.8723 22.3618C27.0433 21.4154 27.6933 20.526 28.6739 20.241C29.7457 19.9445 30.6465 20.526 30.886 20.7085C31.057 20.8339 31.9578 21.4838 32.0718 22.6697C32.0946 22.7837 32.1631 23.6503 31.6271 24.4029Z" fill="white"/>
<path d="M30.4405 24.6185C29.5283 25.0974 28.046 24.7325 27.5899 23.6264C27.3162 22.9537 27.4872 22.1897 27.8521 21.688C28.2512 21.1179 28.9696 20.7416 29.7221 20.8898C30.5431 21.0495 30.965 21.745 31.079 21.9389C31.1588 22.0757 31.5693 22.8169 31.2843 23.6379C31.2501 23.7063 31.022 24.3106 30.4405 24.6185Z" fill="#FFF200"/>
<path d="M29.5744 17.9029C29.0499 18.8151 27.6132 19.2941 26.6782 18.5871C26.108 18.1538 25.88 17.4012 25.9256 16.7627C25.9826 16.0557 26.4045 15.3374 27.1114 15.0523C27.8754 14.7444 28.5824 15.1207 28.7762 15.2234C28.913 15.3032 29.62 15.7137 29.791 16.5917C29.8024 16.6715 29.9165 17.31 29.5744 17.9029Z" fill="#FFF200"/>
<path d="M34.078 19.8302C33.3596 19.9557 32.4132 19.3741 32.322 18.5304C32.265 18.0172 32.5386 17.5383 32.8921 17.2761C33.2798 16.9796 33.8499 16.8884 34.3402 17.1506C34.8762 17.4357 35.0244 18.0058 35.0586 18.1655C35.0814 18.2795 35.2182 18.861 34.8534 19.3627C34.8191 19.3969 34.5455 19.7504 34.078 19.8302Z" fill="white"/>
<path d="M40.7035 37.1054C40.5553 37.151 40.407 36.4783 39.8141 35.9994C38.9931 35.338 37.9099 35.5433 37.8529 35.5547C37.7046 35.5889 36.6784 35.8055 36.2109 36.7177C35.8688 37.4019 36.0171 38.086 36.1311 38.5535C36.6328 40.5946 38.4002 41.769 38.8563 42.0655C39.2212 42.305 38.9817 42.0883 40.9544 43.0689C41.7753 43.4794 42.0832 43.6505 42.5165 43.5706C42.9384 43.5022 43.2121 43.24 43.8392 42.5216C44.8882 41.3243 45.4127 40.7314 45.6066 40.3551C46.3021 39.0096 46.3021 37.7782 46.3021 37.2194C46.3021 36.102 46.0399 35.5661 45.846 35.2696C45.7776 35.1556 45.5952 34.9047 45.3101 34.6425C45.1391 34.4942 43.9418 33.5022 42.5279 33.9811C41.5815 34.3004 40.9544 35.167 40.7947 35.9424C40.6807 36.5239 40.8403 37.0598 40.7035 37.1054Z" fill="#4E02C6"/>
</svg>
