<svg width="54" height="56" viewBox="0 0 54 56" fill="none" xmlns="http://www.w3.org/2000/svg">
<path d="M51.4508 52.3643C50.7002 53.0871 49.5789 53.847 40.2471 54.4308C31.184 54.9961 28.5059 54.5235 18.1547 54.9868C18.1547 54.9868 16.1808 55.0795 13.3822 55.0887C3.25347 55.1536 1.67809 54.1435 0.918197 53.152C0.325113 52.3735 0.288046 51.1132 0.232444 48.6297C0.0656392 41.6054 -0.00849627 38.0932 0.000770663 37.6947C0.278779 31.282 0.593854 27.0377 0.853329 23.2661C0.983066 21.283 1.09427 19.55 1.17767 18.021C9.13797 17.9932 23.4183 17.9561 24.7713 18.0395C26.671 18.16 42.8881 17.9191 44.5469 18.0395C45.6775 18.1229 49.9217 18.0673 52.4887 18.021C52.674 24.5079 53.193 30.9854 53.2208 37.4723C53.2764 48.4258 53.332 50.5294 51.4508 52.3643Z" fill="white"/>
<path d="M52.4887 18.0313C49.9218 18.0777 45.6868 18.1333 44.547 18.0499C42.8882 17.9294 26.6711 18.1703 24.7714 18.0499C23.4091 17.9665 9.13803 18.0035 1.17773 18.0313C1.73375 8.56053 1.62255 7.34656 3.08672 5.96579C4.41189 4.70548 5.62586 4.63135 10.8895 4.73328C10.9451 5.2337 11.0285 5.73411 11.1582 7.28169C11.2787 8.681 11.2972 9.22775 11.7235 9.50575C12.0571 9.72816 12.3073 9.54282 13.4935 9.52429C15.1801 9.49649 15.3654 9.68183 15.662 9.45942C16.1624 9.07948 15.8658 8.33812 15.7083 5.4839C15.6898 5.22443 15.6805 5.01129 15.6712 4.82595C16.6628 4.84449 17.7377 4.86302 18.9146 4.87229C25.4293 4.94642 31.944 5.2893 38.4493 5.11323C38.4401 5.22443 38.4401 5.3449 38.4308 5.4839C38.2733 8.33812 37.9767 9.07948 38.4771 9.45942C38.5049 9.48722 38.542 9.49649 38.6069 9.53356C39.237 9.86717 39.8579 9.8023 40.5159 9.72816C42.3693 9.53356 42.3971 9.53356 42.4897 9.45015C42.7585 9.20921 42.8326 8.56053 42.9809 7.27242C43.055 6.58667 43.0457 6.494 43.1384 5.65998C43.1755 5.3727 43.2033 5.1503 43.2218 4.95569C47.1139 4.85375 49.2453 5.02982 50.83 6.69787C52.4702 8.42152 52.3868 10.5622 52.4424 15.0937C52.4424 16.0853 52.4609 17.0583 52.4887 18.0313Z" fill="#FF7300"/>
<path d="M15.6988 5.49247C15.6803 5.233 15.671 5.01986 15.6617 4.83452C15.6432 4.31557 15.6247 3.9449 15.5691 3.15721C15.3837 0.766336 15.1984 0.432727 14.9204 0.238121C14.6702 0.0713163 14.0122 0.108384 12.6963 0.191786C11.4453 0.275189 11.3155 0.358591 11.2229 0.42346C10.9263 0.645866 10.7317 1.05361 10.8058 3.45375C10.8244 4.07463 10.8522 4.40824 10.8892 4.73258C10.9448 5.233 11.0283 5.73341 11.158 7.28099C11.2785 8.6803 11.297 9.22705 11.7233 9.50506C12.0569 9.72746 12.3071 9.54212 13.4933 9.52359C15.1798 9.49579 15.3652 9.68113 15.6617 9.45872C16.1621 9.09731 15.8656 8.34669 15.6988 5.49247Z" fill="white"/>
<path d="M42.907 0.423587C42.6012 0.164113 42.1656 0.136312 41.2852 0.0621764C40.1639 -0.021226 39.6079 -0.0675607 39.2002 0.238248C38.8851 0.469922 38.7276 0.849866 38.5515 3.15733C38.4774 4.07476 38.4774 4.43617 38.4496 5.12192C38.4403 5.23313 38.4403 5.3536 38.431 5.4926C38.2735 8.34682 37.9769 9.08817 38.4774 9.46812C38.5052 9.49592 38.5422 9.50518 38.6071 9.54225C39.2373 9.87586 39.8581 9.81099 40.5161 9.73686C42.3695 9.54225 42.3973 9.54225 42.4899 9.45885C42.7587 9.21791 42.8328 8.56922 42.9811 7.28112C43.0552 6.59537 43.046 6.5027 43.1386 5.66867C43.1757 5.3814 43.2035 5.15899 43.222 4.96439C43.2776 4.53811 43.3054 4.22303 43.3332 3.44461C43.3981 1.03521 43.1757 0.65526 42.907 0.423587Z" fill="white"/>
<path d="M7.87793 24.9157C8.70269 24.1465 11.2696 21.9595 14.8837 21.9688C15.8104 21.9688 17.4599 21.978 18.9797 23.0808C20.9906 24.5265 22.2139 27.4548 21.3243 30.2071C20.3883 33.0798 17.4136 34.961 14.2165 34.5811C15.3934 34.7201 17.2561 35.0908 19.2114 36.2306C20.6478 37.0739 23.5576 38.7697 23.9653 41.6888C24.3731 44.6172 22.0285 46.9988 21.5003 47.527C16.9317 52.1512 8.90656 49.8808 8.32274 49.7047C8.31348 49.436 8.30421 49.0375 8.30421 48.5463C8.30421 47.8606 8.32274 47.4529 8.33201 47.008C8.34128 46.5076 8.35054 45.7755 8.31348 44.8581C12.0851 46.3872 15.4676 45.4883 16.2923 43.7183C17.2005 41.7722 14.9208 38.8809 14.8003 38.7327C13.7439 37.426 12.4651 36.7866 11.7515 36.4993C11.594 35.2205 11.4364 33.9417 11.2696 32.6628C15.0042 32.4126 17.4877 30.7724 17.6175 29.0765C17.7009 27.9552 16.7279 27.0934 16.6445 27.0193C15.1247 25.7126 12.1222 26.074 9.32357 28.1684C9.0363 27.6679 8.74902 27.1027 8.48028 26.4725C8.23007 25.9258 8.03547 25.4068 7.87793 24.9157Z" fill="#FFF200"/>
<path d="M47.1418 34.8326C47.1325 33.7113 47.0584 30.7551 44.9548 28.0028C42.36 24.6111 38.5421 23.9625 37.1427 23.8142C36.0771 23.703 32.6297 23.3416 29.618 25.6212C25.5498 28.6979 25.7537 33.9615 25.7815 34.8326C25.8278 35.9631 25.9668 38.7525 27.9963 41.236C30.8598 44.7389 35.2708 44.8965 36.7535 44.9521C38.505 45.0169 41.4982 45.1189 43.991 43.0431C47.1881 40.3742 47.151 36.1114 47.1418 34.8326ZM42.5732 34.9716C42.221 37.1956 40.831 38.5301 40.451 38.873C39.9692 39.3085 38.6625 40.4576 36.6331 40.5688C33.7603 40.7171 31.944 38.6227 31.7957 38.4467C30.4613 36.8435 30.4057 35.0179 30.4428 34.2951C30.5169 32.5714 31.3046 31.3853 31.6289 30.9034C31.9625 30.4122 33.7603 27.7619 36.8833 27.7619C39.2 27.7619 40.7198 29.2261 40.9515 29.4577C43.0273 31.515 42.6844 34.3136 42.5732 34.9716Z" fill="#FFF200"/>
</svg>
