<svg width="109" height="121" viewBox="0 0 109 121" fill="none" xmlns="http://www.w3.org/2000/svg">
<g clip-path="url(#clip0_303_333)">
<g opacity="0.12">
<path d="M4.80804 29.5908C5.0698 22.5097 8.08686 15.3872 13.6939 11.0476C19.301 6.70801 27.5531 5.74365 33.5597 9.55976C35.3644 10.7032 36.9074 12.2324 38.7121 13.3621C44.4294 16.9578 51.8687 16.2 58.3024 14.1611C64.736 12.1222 70.839 8.8847 77.4931 7.79636C84.1471 6.70801 91.9309 8.34742 95.5817 14.0096C99.2325 19.6717 97.2211 28.0617 91.986 32.4701C87.5362 36.2036 80.9648 37.9808 78.5676 43.2159C77.6706 45.5703 77.2628 48.0828 77.3691 50.6001C77.1487 57.7363 77.1487 65.4374 81.3781 71.1822C83.4839 73.6873 85.843 75.9679 88.4179 77.9878C93.9285 82.9061 98.461 89.2846 98.6538 96.9444C98.7449 99.3837 98.2735 101.811 97.2762 104.039C93.405 112.305 84.588 113.325 76.7767 112.732C70.7839 112.291 64.6533 111.148 58.8672 112.732C54.6516 113.848 50.9181 116.314 46.8678 117.967C40.8385 120.403 34.2213 120.993 27.8562 119.662C23.9613 118.977 20.3485 117.178 17.4549 114.482C11.6274 108.627 11.7239 99.1899 13.1429 91.0618C14.5618 82.9336 16.9176 74.4335 14.3414 66.5946C13.6909 64.7051 12.8411 62.8902 11.8065 61.1805C6.29488 52.0113 3.80789 41.3404 4.69783 30.6792L4.80804 29.5908Z" fill="#AAAAAA"/>
</g>
<path d="M96.3256 38.0212V84.5446C96.3055 87.3036 95.5524 90.0077 94.1435 92.38C92.7347 94.7523 90.7206 96.7076 88.3076 98.0456C86.0215 99.3229 83.4457 99.9918 80.827 99.9881H27.8424C25.6321 100.002 23.4457 99.5313 21.4363 98.6104C18.7331 97.381 16.4388 95.4028 14.8249 92.91C13.2111 90.4172 12.3453 87.5141 12.33 84.5446V38.0212C12.3409 33.9104 13.9788 29.9711 16.8855 27.0643C19.7923 24.1575 23.7316 22.5197 27.8424 22.5088H80.827C84.9354 22.5233 88.8711 24.1628 91.7749 27.0692C94.6787 29.9755 96.3147 33.9128 96.3256 38.0212Z" fill="#EBF0F9"/>
<path d="M6.17192 82.4787C6.28879 82.428 6.3907 82.3482 6.46789 82.2469C6.54508 82.1456 6.59497 82.0262 6.61277 81.9001L7.03984 78.8417C7.06725 78.6389 7.01297 78.4335 6.88896 78.2708C6.76495 78.108 6.58135 78.0012 6.37857 77.9737C6.17579 77.9463 5.97042 78.0006 5.80765 78.1246C5.64489 78.2486 5.53805 78.4322 5.51065 78.635L5.08357 81.6934C5.06528 81.8243 5.0822 81.9577 5.13257 82.0799C5.18295 82.2021 5.26498 82.3087 5.37021 82.3887C5.47544 82.4686 5.60008 82.5191 5.7313 82.535C5.86252 82.5508 5.99559 82.5314 6.11682 82.4787H6.17192Z" fill="#C2D0E1"/>
<path d="M7.92147 81.1698C8.05381 81.0972 8.16094 80.986 8.22862 80.8511C8.2963 80.7162 8.32134 80.5639 8.30042 80.4144C8.27949 80.2649 8.21358 80.1253 8.11145 80.0142C8.00932 79.903 7.87579 79.8256 7.7286 79.7921L4.67021 79.3099C4.47473 79.2825 4.27638 79.3339 4.11878 79.4528C3.96118 79.5716 3.85725 79.7482 3.82984 79.9437C3.80244 80.1391 3.85381 80.3375 3.97266 80.4951C4.0915 80.6527 4.26809 80.7566 4.46356 80.784L7.52196 81.2111C7.6564 81.2342 7.79461 81.2199 7.92147 81.1698Z" fill="#C2D0E1"/>
<path d="M0.165316 63.9493C0.0105135 63.5775 -0.0315372 63.1685 0.044399 62.773C0.120335 62.3776 0.310904 62.0132 0.592383 61.7252C0.873861 61.4373 1.23382 61.2385 1.62744 61.1536C2.02106 61.0687 2.43096 61.1014 2.80611 61.2477C3.18127 61.394 3.5051 61.6474 3.73731 61.9764C3.96951 62.3054 4.09983 62.6954 4.11204 63.0979C4.12424 63.5004 4.0178 63.8976 3.80595 64.24C3.59411 64.5825 3.28622 64.8551 2.92062 65.0238C2.66994 65.1396 2.39848 65.2035 2.12249 65.2119C1.84651 65.2203 1.57167 65.1729 1.31443 65.0725C1.05719 64.9722 0.822837 64.821 0.62539 64.628C0.427943 64.435 0.271463 64.2042 0.165316 63.9493ZM1.19856 63.5084C1.2795 63.6721 1.40651 63.8085 1.56396 63.9009C1.72141 63.9934 1.90244 64.0378 2.08479 64.0287C2.26715 64.0197 2.44288 63.9575 2.59038 63.8499C2.73788 63.7423 2.85073 63.5939 2.91504 63.4231C2.97934 63.2522 2.99232 63.0662 2.95236 62.8881C2.9124 62.7099 2.82126 62.5473 2.69013 62.4203C2.559 62.2932 2.3936 62.2073 2.21427 62.173C2.03494 62.1387 1.8495 62.1575 1.68074 62.2272C1.56209 62.2762 1.45477 62.349 1.36545 62.4412C1.27613 62.5334 1.20671 62.643 1.1615 62.7631C1.11628 62.8833 1.09624 63.0114 1.10262 63.1396C1.10899 63.2678 1.14165 63.3934 1.19856 63.5084Z" fill="#C2D0E1"/>
<path d="M5.19597 91.9331C5.76132 91.6878 6.02073 91.0306 5.77538 90.4652C5.53002 89.8999 4.87282 89.6405 4.30747 89.8858C3.74212 90.1312 3.48271 90.7884 3.72806 91.3537C3.97341 91.9191 4.63062 92.1785 5.19597 91.9331Z" fill="#C2D0E1"/>
<path d="M64.9288 115.639C65.0041 115.51 65.1118 115.404 65.2411 115.329C65.3704 115.255 65.5168 115.216 65.6659 115.216C65.8149 115.216 65.9613 115.255 66.0906 115.329C66.2199 115.404 66.3276 115.51 66.4029 115.639L66.8713 116.452L67.3397 117.264C67.4143 117.394 67.4537 117.54 67.4542 117.689C67.4546 117.838 67.416 117.985 67.3421 118.114C67.2683 118.244 67.1618 118.352 67.0333 118.428C66.9048 118.503 66.7587 118.544 66.6095 118.546H64.7497C64.6006 118.544 64.4545 118.503 64.326 118.428C64.1975 118.352 64.091 118.244 64.0171 118.114C63.9433 117.985 63.9047 117.838 63.9051 117.689C63.9055 117.54 63.945 117.394 64.0196 117.264L64.488 116.452L64.9288 115.639Z" fill="#C2D0E1"/>
<path d="M102.25 57.5708C102.377 57.5704 102.502 57.5372 102.613 57.4745C102.724 57.4118 102.817 57.3216 102.883 57.2126L104.495 54.5813C104.597 54.4114 104.628 54.2078 104.58 54.0153C104.532 53.8228 104.41 53.6572 104.24 53.5549C104.07 53.4526 103.867 53.422 103.674 53.4698C103.482 53.5176 103.316 53.6399 103.214 53.8098L101.602 56.4411C101.534 56.5538 101.497 56.6825 101.494 56.8143C101.492 56.946 101.525 57.0759 101.589 57.1908C101.654 57.3057 101.748 57.4015 101.861 57.4682C101.975 57.535 102.104 57.5704 102.236 57.5708H102.25Z" fill="#C2D0E1"/>
<path d="M104.371 57.0469C104.533 57.046 104.69 56.9925 104.818 56.8945C104.947 56.7965 105.04 56.6592 105.084 56.5035C105.127 56.3479 105.119 56.1822 105.06 56.0317C105.001 55.8811 104.895 55.7539 104.757 55.6692L102.125 54.0574C102.041 54.0067 101.948 53.9731 101.851 53.9585C101.754 53.9439 101.655 53.9486 101.56 53.9722C101.464 53.9959 101.374 54.0381 101.295 54.0964C101.217 54.1548 101.15 54.2281 101.099 54.3122C101.048 54.3964 101.015 54.4896 101 54.5867C100.986 54.6839 100.99 54.7829 101.014 54.8782C101.038 54.9735 101.08 55.0632 101.138 55.1422C101.197 55.2212 101.27 55.2879 101.354 55.3386L103.985 56.9504C104.103 57.017 104.236 57.0503 104.371 57.0469Z" fill="#C2D0E1"/>
<path d="M99.632 41.1762C99.632 40.7703 99.7524 40.3734 99.9779 40.0358C100.203 39.6983 100.524 39.4352 100.899 39.2798C101.274 39.1244 101.687 39.0838 102.085 39.163C102.483 39.2422 102.849 39.4377 103.136 39.7248C103.423 40.0118 103.619 40.3776 103.698 40.7758C103.777 41.174 103.736 41.5867 103.581 41.9618C103.426 42.3369 103.163 42.6574 102.825 42.883C102.488 43.1086 102.091 43.2289 101.685 43.2289C101.14 43.2289 100.618 43.0127 100.233 42.6277C99.8482 42.2428 99.632 41.7207 99.632 41.1762ZM100.748 41.1762C100.748 41.3615 100.803 41.5426 100.906 41.6967C101.009 41.8508 101.155 41.9708 101.326 42.0417C101.497 42.1126 101.686 42.1312 101.867 42.095C102.049 42.0589 102.216 41.9697 102.347 41.8387C102.478 41.7076 102.567 41.5407 102.603 41.359C102.64 41.1773 102.621 40.9889 102.55 40.8177C102.479 40.6466 102.359 40.5003 102.205 40.3973C102.051 40.2944 101.87 40.2394 101.685 40.2394C101.436 40.2394 101.198 40.3381 101.022 40.5138C100.847 40.6895 100.748 40.9278 100.748 41.1762Z" fill="#C2D0E1"/>
<path d="M103.558 71.8158C104.175 71.8158 104.674 71.3162 104.674 70.6999C104.674 70.0836 104.175 69.584 103.558 69.584C102.942 69.584 102.442 70.0836 102.442 70.6999C102.442 71.3162 102.942 71.8158 103.558 71.8158Z" fill="#C2D0E1"/>
<path d="M107.953 80.8947C107.878 80.7661 107.77 80.6594 107.641 80.5853C107.511 80.5112 107.365 80.4722 107.216 80.4722C107.067 80.4722 106.92 80.5112 106.791 80.5853C106.662 80.6594 106.554 80.7661 106.479 80.8947L106.01 81.7075L105.542 82.5203C105.468 82.6494 105.428 82.7959 105.428 82.945C105.427 83.0941 105.466 83.2408 105.54 83.3703C105.613 83.4999 105.72 83.6079 105.849 83.6835C105.977 83.7592 106.123 83.7998 106.272 83.8015H108.146C108.295 83.7998 108.441 83.7592 108.57 83.6835C108.698 83.6079 108.805 83.4999 108.878 83.3703C108.952 83.2408 108.991 83.0941 108.99 82.945C108.99 82.7959 108.951 82.6494 108.876 82.5203L108.408 81.7075L107.953 80.8947Z" fill="#C2D0E1"/>
<path d="M49.0996 4.54449C49.0992 4.67196 49.066 4.79718 49.0033 4.90815C48.9406 5.01912 48.8504 5.11211 48.7414 5.17821L46.1101 6.77629C45.9402 6.87859 45.7366 6.90922 45.5441 6.86142C45.3517 6.81362 45.186 6.69132 45.0837 6.52142C44.9814 6.35152 44.9508 6.14794 44.9986 5.95546C45.0464 5.76298 45.1687 5.59737 45.3386 5.49507L47.9699 3.88321C48.0826 3.8149 48.2113 3.77773 48.3431 3.7755C48.4748 3.77327 48.6047 3.80605 48.7196 3.87051C48.8345 3.93496 48.9303 4.02877 48.997 4.14235C49.0638 4.25593 49.0992 4.38519 49.0996 4.51693V4.54449Z" fill="#C2D0E1"/>
<path d="M48.5899 6.65227C48.589 6.81394 48.5355 6.97093 48.4375 7.09949C48.3394 7.22804 48.2022 7.32116 48.0465 7.36475C47.8908 7.40834 47.7252 7.40003 47.5746 7.34108C47.4241 7.28212 47.2969 7.17574 47.2122 7.03801L45.6003 4.36537C45.5195 4.28521 45.4582 4.18757 45.421 4.07998C45.3839 3.97239 45.3719 3.85771 45.3861 3.74477C45.4002 3.63182 45.4401 3.52363 45.5026 3.42852C45.5651 3.33341 45.6487 3.25392 45.7467 3.19616C45.8448 3.1384 45.9549 3.10392 46.0684 3.09536C46.1819 3.08681 46.2958 3.10442 46.4014 3.14683C46.5071 3.18924 46.6016 3.25533 46.6776 3.34C46.7537 3.42466 46.8093 3.52566 46.8402 3.63521L48.4521 6.26653C48.5332 6.37969 48.5809 6.51333 48.5899 6.65227Z" fill="#C2D0E1"/>
<path d="M24.288 5.46774C24.288 5.87373 24.1676 6.2706 23.9421 6.60817C23.7165 6.94573 23.3959 7.20883 23.0209 7.3642C22.6458 7.51956 22.233 7.56021 21.8349 7.48101C21.4367 7.4018 21.0709 7.2063 20.7838 6.91923C20.4968 6.63215 20.3013 6.26639 20.2221 5.86821C20.1429 5.47002 20.1835 5.05729 20.3389 4.68221C20.4942 4.30712 20.7573 3.98654 21.0949 3.76098C21.4325 3.53543 21.8293 3.41504 22.2353 3.41504C22.7797 3.41504 23.3018 3.63131 23.6868 4.01626C24.0718 4.40122 24.288 4.92333 24.288 5.46774ZM21.2985 5.46774C21.2985 5.65303 21.3535 5.83415 21.4564 5.9882C21.5593 6.14226 21.7056 6.26233 21.8768 6.33324C22.048 6.40414 22.2364 6.4227 22.4181 6.38655C22.5998 6.3504 22.7667 6.26118 22.8977 6.13017C23.0288 5.99915 23.118 5.83223 23.1541 5.65051C23.1903 5.46878 23.1717 5.28042 23.1008 5.10924C23.0299 4.93807 22.9098 4.79176 22.7558 4.68882C22.6017 4.58588 22.4206 4.53094 22.2353 4.53094C21.9869 4.53094 21.7486 4.62964 21.5729 4.80532C21.3972 4.98101 21.2985 5.21929 21.2985 5.46774Z" fill="#C2D0E1"/>
<path d="M71.2109 6.95592C71.8272 6.95592 72.3268 6.45632 72.3268 5.84002C72.3268 5.22373 71.8272 4.72412 71.2109 4.72412C70.5946 4.72412 70.095 5.22373 70.095 5.84002C70.095 6.45632 70.5946 6.95592 71.2109 6.95592Z" fill="#C2D0E1"/>
<path d="M88.8725 2.75387C88.7439 2.67856 88.6372 2.5709 88.5631 2.4416C88.489 2.3123 88.45 2.16586 88.45 2.01683C88.45 1.8678 88.489 1.72135 88.5631 1.59206C88.6372 1.46276 88.7439 1.3551 88.8725 1.27978L89.6853 0.811382L90.4981 0.34298C90.6273 0.268405 90.7737 0.228943 90.9228 0.228519C91.072 0.228095 91.2186 0.266725 91.3482 0.340565C91.4777 0.414405 91.5857 0.520881 91.6614 0.649404C91.737 0.777926 91.7777 0.924014 91.7794 1.07314V2.98808C91.7777 3.1372 91.737 3.28329 91.6614 3.41181C91.5857 3.54033 91.4777 3.64681 91.3482 3.72065C91.2186 3.79449 91.072 3.83312 90.9228 3.83269C90.7737 3.83227 90.6273 3.79281 90.4981 3.71823L89.6853 3.24983L88.8725 2.75387Z" fill="#C2D0E1"/>
<path d="M95.251 32.3732V32.8003C86.2136 30.3481 76.6802 28.5571 67.1331 29.673C61.2367 30.3619 55.8363 32.1253 50.1191 33.2274C38.0819 35.39 25.7008 34.6197 14.0245 30.9818C15.1267 26.5733 21.395 23.1567 28.8756 23.1567H80.2208C88.4867 23.1567 95.251 27.3035 95.251 32.3732Z" fill="#C2D0E1"/>
<path d="M34.524 69.6802C38.0924 69.6802 40.9852 66.7874 40.9852 63.219C40.9852 59.6506 38.0924 56.7578 34.524 56.7578C30.9556 56.7578 28.0628 59.6506 28.0628 63.219C28.0628 66.7874 30.9556 69.6802 34.524 69.6802Z" fill="white"/>
<path d="M53.9076 69.6802C57.476 69.6802 60.3688 66.7874 60.3688 63.219C60.3688 59.6506 57.476 56.7578 53.9076 56.7578C50.3392 56.7578 47.4464 59.6506 47.4464 63.219C47.4464 66.7874 50.3392 69.6802 53.9076 69.6802Z" fill="white"/>
<path d="M73.2912 69.6802C76.8596 69.6802 79.7524 66.7874 79.7524 63.219C79.7524 59.6506 76.8596 56.7578 73.2912 56.7578C69.7228 56.7578 66.83 59.6506 66.83 63.219C66.83 66.7874 69.7228 69.6802 73.2912 69.6802Z" fill="white"/>
<path d="M34.524 89.0635C38.0924 89.0635 40.9852 86.1707 40.9852 82.6023C40.9852 79.0339 38.0924 76.1411 34.524 76.1411C30.9556 76.1411 28.0628 79.0339 28.0628 82.6023C28.0628 86.1707 30.9556 89.0635 34.524 89.0635Z" fill="white"/>
<path d="M53.9076 89.0635C57.476 89.0635 60.3688 86.1707 60.3688 82.6023C60.3688 79.0339 57.476 76.1411 53.9076 76.1411C50.3392 76.1411 47.4464 79.0339 47.4464 82.6023C47.4464 86.1707 50.3392 89.0635 53.9076 89.0635Z" fill="white"/>
<path d="M73.2912 89.0635C76.8596 89.0635 79.7524 86.1707 79.7524 82.6023C79.7524 79.0339 76.8596 76.1411 73.2912 76.1411C69.7228 76.1411 66.83 79.0339 66.83 82.6023C66.83 86.1707 69.7228 89.0635 73.2912 89.0635Z" fill="white"/>
<path d="M40.6959 61.2764C40.8846 61.9067 40.982 62.5609 40.9852 63.2189C40.9852 64.9325 40.3045 66.5759 39.0928 67.7876C37.8811 68.9993 36.2376 69.6801 34.524 69.6801C32.8104 69.6801 31.167 68.9993 29.9552 67.7876C28.7435 66.5759 28.0628 64.9325 28.0628 63.2189C28.066 62.5609 28.1634 61.9067 28.3521 61.2764C28.7536 62.6082 29.5733 63.7754 30.6899 64.605C31.8064 65.4346 33.1605 65.8826 34.5516 65.8826C35.9426 65.8826 37.2967 65.4346 38.4132 64.605C39.5298 63.7754 40.3495 62.6082 40.751 61.2764H40.6959Z" fill="#C2D0E1"/>
<path d="M66.83 63.2189C66.8332 62.5609 66.9306 61.9067 67.1193 61.2764C67.5208 62.6082 68.3405 63.7754 69.4571 64.605C70.5737 65.4346 71.9277 65.8826 73.3188 65.8826C74.7098 65.8826 76.0639 65.4346 77.1805 64.605C78.297 63.7754 79.1167 62.6082 79.5182 61.2764C79.7069 61.9067 79.8044 62.5609 79.8075 63.2189C79.8075 64.9325 79.1268 66.5759 77.9151 67.7876C76.7034 68.9993 75.0599 69.6801 73.3463 69.6801C71.6327 69.6801 69.9893 68.9993 68.7776 67.7876C67.5659 66.5759 66.8851 64.9325 66.8851 63.2189H66.83Z" fill="#C2D0E1"/>
<path d="M40.6959 80.6602C40.8846 81.2905 40.982 81.9447 40.9852 82.6026C40.9852 84.3163 40.3045 85.9597 39.0928 87.1714C37.8811 88.3831 36.2376 89.0638 34.524 89.0638C32.8104 89.0638 31.167 88.3831 29.9552 87.1714C28.7435 85.9597 28.0628 84.3163 28.0628 82.6026C28.066 81.9447 28.1634 81.2905 28.3521 80.6602C28.7536 81.992 29.5733 83.1592 30.6899 83.9888C31.8064 84.8184 33.1605 85.2664 34.5516 85.2664C35.9426 85.2664 37.2967 84.8184 38.4132 83.9888C39.5298 83.1592 40.3495 81.992 40.751 80.6602H40.6959Z" fill="#C2D0E1"/>
<path d="M79.4631 80.6602C79.6518 81.2905 79.7493 81.9447 79.7524 82.6026C79.7524 84.3163 79.0717 85.9597 77.86 87.1714C76.6483 88.3831 75.0048 89.0638 73.2912 89.0638C71.5776 89.0638 69.9342 88.3831 68.7225 87.1714C67.5108 85.9597 66.83 84.3163 66.83 82.6026C66.8332 81.9447 66.9306 81.2905 67.1193 80.6602C67.5208 81.992 68.3405 83.1592 69.4571 83.9888C70.5737 84.8184 71.9277 85.2664 73.3188 85.2664C74.7098 85.2664 76.0639 84.8184 77.1805 83.9888C78.297 83.1592 79.1167 81.992 79.5182 80.6602H79.4631Z" fill="#C2D0E1"/>
<path d="M60.0795 61.2764C60.2682 61.9067 60.3656 62.5609 60.3688 63.2189C60.3688 64.9325 59.6881 66.5759 58.4764 67.7876C57.2647 68.9993 55.6212 69.6801 53.9076 69.6801C52.194 69.6801 50.5506 68.9993 49.3389 67.7876C48.1271 66.5759 47.4464 64.9325 47.4464 63.2189C47.4496 62.5609 47.547 61.9067 47.7357 61.2764C48.1372 62.6082 48.9569 63.7754 50.0735 64.605C51.1901 65.4346 52.5441 65.8826 53.9352 65.8826C55.3262 65.8826 56.6803 65.4346 57.7968 64.605C58.9134 63.7754 59.7331 62.6082 60.1346 61.2764H60.0795Z" fill="#C2D0E1"/>
<path d="M60.0795 80.6602C60.2682 81.2905 60.3656 81.9447 60.3688 82.6026C60.3688 84.3163 59.6881 85.9597 58.4764 87.1714C57.2647 88.3831 55.6212 89.0638 53.9076 89.0638C52.194 89.0638 50.5506 88.3831 49.3389 87.1714C48.1271 85.9597 47.4464 84.3163 47.4464 82.6026C47.4496 81.9447 47.547 81.2905 47.7357 80.6602C48.1372 81.992 48.9569 83.1592 50.0735 83.9888C51.1901 84.8184 52.5441 85.2664 53.9352 85.2664C55.3262 85.2664 56.6803 84.8184 57.7968 83.9888C58.9134 83.1592 59.7331 81.992 60.1346 80.6602H60.0795Z" fill="#C2D0E1"/>
<path opacity="0.5" d="M88.3076 98.0459C86.9497 100.401 84.9963 102.357 82.6435 103.718C80.2908 105.08 77.6213 105.798 74.903 105.802H34.524C31.9113 105.797 29.3421 105.133 27.0543 103.871C24.7665 102.609 22.8342 100.79 21.4363 98.5832C23.4456 99.5041 25.6321 99.9743 27.8424 99.9608H80.8269C83.4433 99.973 86.0189 99.3136 88.3076 98.0459Z" fill="#AAAAAA"/>
<path d="M40.7648 51.6743H27.8424C27.477 51.6743 27.1266 51.5291 26.8682 51.2707C26.6099 51.0124 26.4647 50.662 26.4647 50.2966C26.4647 49.9312 26.6099 49.5808 26.8682 49.3224C27.1266 49.0641 27.477 48.9189 27.8424 48.9189H40.7648C41.1301 48.9189 41.4806 49.0641 41.7389 49.3224C41.9973 49.5808 42.1424 49.9312 42.1424 50.2966C42.1424 50.662 41.9973 51.0124 41.7389 51.2707C41.4806 51.5291 41.1301 51.6743 40.7648 51.6743Z" fill="#606060"/>
<path d="M60.7959 51.6743H47.8735C47.5081 51.6743 47.1577 51.5291 46.8994 51.2707C46.641 51.0124 46.4958 50.662 46.4958 50.2966C46.4958 49.9312 46.641 49.5808 46.8994 49.3224C47.1577 49.0641 47.5081 48.9189 47.8735 48.9189H60.7959C61.1613 48.9189 61.5117 49.0641 61.7701 49.3224C62.0284 49.5808 62.1736 49.9312 62.1736 50.2966C62.1736 50.662 62.0284 51.0124 61.7701 51.2707C61.5117 51.5291 61.1613 51.6743 60.7959 51.6743Z" fill="#606060"/>
<path d="M80.827 51.6743H67.9046C67.5392 51.6743 67.1888 51.5291 66.9304 51.2707C66.6721 51.0124 66.5269 50.662 66.5269 50.2966C66.5269 49.9312 66.6721 49.5808 66.9304 49.3224C67.1888 49.0641 67.5392 48.9189 67.9046 48.9189H80.827C81.1923 48.9189 81.5428 49.0641 81.8011 49.3224C82.0595 49.5808 82.2046 49.9312 82.2046 50.2966C82.2046 50.662 82.0595 51.0124 81.8011 51.2707C81.5428 51.5291 81.1923 51.6743 80.827 51.6743Z" fill="#606060"/>
<path d="M34.9511 71.0581C33.4007 71.0581 31.8852 70.5983 30.5961 69.737C29.307 68.8756 28.3022 67.6514 27.7089 66.219C27.1156 64.7867 26.9604 63.2105 27.2629 61.6899C27.5653 60.1694 28.3119 58.7726 29.4082 57.6763C30.5045 56.58 31.9012 55.8335 33.4218 55.531C34.9424 55.2285 36.5185 55.3838 37.9509 55.9771C39.3833 56.5704 40.6075 57.5751 41.4689 58.8642C42.3302 60.1533 42.7899 61.6688 42.7899 63.2192C42.7863 65.2971 41.9593 67.2888 40.49 68.7581C39.0207 70.2274 37.029 71.0544 34.9511 71.0581ZM34.9511 58.1357C33.9457 58.1357 32.9628 58.4338 32.1268 58.9924C31.2909 59.551 30.6393 60.3449 30.2545 61.2738C29.8698 62.2027 29.7691 63.2249 29.9652 64.211C30.1614 65.1971 30.6455 66.1029 31.3565 66.8138C32.0674 67.5248 32.9732 68.0089 33.9593 68.2051C34.9455 68.4012 35.9676 68.3006 36.8965 67.9158C37.8254 67.531 38.6193 66.8795 39.1779 66.0435C39.7365 65.2075 40.0346 64.2247 40.0346 63.2192C40.0401 62.5482 39.9126 61.8827 39.6596 61.2611C39.4066 60.6396 39.033 60.0743 38.5604 59.5979C38.0878 59.1214 37.5256 58.7433 36.9061 58.4852C36.2866 58.2272 35.6222 58.0943 34.9511 58.0944V58.1357Z" fill="#606060"/>
<path d="M54.3347 71.0581C52.7843 71.0581 51.2688 70.5983 49.9797 69.737C48.6906 68.8756 47.6859 67.6514 47.0925 66.219C46.4992 64.7867 46.344 63.2105 46.6465 61.6899C46.9489 60.1694 47.6955 58.7726 48.7918 57.6763C49.8881 56.58 51.2848 55.8335 52.8054 55.531C54.326 55.2285 55.9021 55.3838 57.3345 55.9771C58.7669 56.5704 59.9911 57.5751 60.8525 58.8642C61.7138 60.1533 62.1736 61.6688 62.1736 63.2192C62.1699 65.2971 61.3429 67.2888 59.8736 68.7581C58.4043 70.2274 56.4126 71.0544 54.3347 71.0581ZM54.3347 58.1357C53.3293 58.1357 52.3464 58.4338 51.5104 58.9924C50.6745 59.551 50.0229 60.3449 49.6381 61.2738C49.2534 62.2027 49.1527 63.2249 49.3488 64.211C49.545 65.1971 50.0292 66.1029 50.7401 66.8138C51.451 67.5248 52.3568 68.0089 53.343 68.2051C54.3291 68.4012 55.3512 68.3006 56.2801 67.9158C57.209 67.531 58.0029 66.8795 58.5615 66.0435C59.1201 65.2075 59.4183 64.2247 59.4183 63.2192C59.4237 62.5482 59.2962 61.8827 59.0432 61.2611C58.7902 60.6396 58.4166 60.0743 57.944 59.5979C57.4714 59.1214 56.9092 58.7433 56.2897 58.4852C55.6702 58.2272 55.0058 58.0943 54.3347 58.0944V58.1357Z" fill="#606060"/>
<path d="M73.7183 71.0581C72.1679 71.0581 70.6524 70.5983 69.3633 69.737C68.0742 68.8756 67.0695 67.6514 66.4762 66.219C65.8828 64.7867 65.7276 63.2105 66.0301 61.6899C66.3325 60.1694 67.0791 58.7726 68.1754 57.6763C69.2717 56.58 70.6684 55.8335 72.189 55.531C73.7096 55.2285 75.2857 55.3838 76.7181 55.9771C78.1505 56.5704 79.3747 57.5751 80.2361 58.8642C81.0974 60.1533 81.5572 61.6688 81.5572 63.2192C81.5535 65.2971 80.7265 67.2888 79.2572 68.7581C77.7879 70.2274 75.7962 71.0544 73.7183 71.0581ZM73.7183 58.1357C72.7129 58.1357 71.73 58.4338 70.894 58.9924C70.0581 59.551 69.4065 60.3449 69.0217 61.2738C68.637 62.2027 68.5363 63.2249 68.7324 64.211C68.9286 65.1971 69.4128 66.1029 70.1237 66.8138C70.8346 67.5248 71.7404 68.0089 72.7266 68.2051C73.7127 68.4012 74.7348 68.3006 75.6637 67.9158C76.5926 67.531 77.3865 66.8795 77.9451 66.0435C78.5037 65.2075 78.8019 64.2247 78.8019 63.2192C78.8073 62.5482 78.6798 61.8827 78.4268 61.2611C78.1738 60.6396 77.8002 60.0743 77.3276 59.5979C76.855 59.1214 76.2928 58.7433 75.6733 58.4852C75.0538 58.2272 74.3894 58.0943 73.7183 58.0944V58.1357Z" fill="#606060"/>
<path d="M34.9511 90.4414C33.4007 90.4414 31.8852 89.9816 30.5961 89.1203C29.307 88.259 28.3022 87.0347 27.7089 85.6023C27.1156 84.17 26.9604 82.5938 27.2629 81.0732C27.5653 79.5527 28.3119 78.1559 29.4082 77.0596C30.5045 75.9633 31.9012 75.2168 33.4218 74.9143C34.9424 74.6118 36.5185 74.7671 37.9509 75.3604C39.3833 75.9537 40.6075 76.9584 41.4689 78.2475C42.3302 79.5366 42.7899 81.0522 42.7899 82.6025C42.7863 84.6804 41.9593 86.6721 40.49 88.1414C39.0207 89.6107 37.029 90.4377 34.9511 90.4414ZM34.9511 77.519C33.9457 77.519 32.9628 77.8171 32.1268 78.3757C31.2909 78.9343 30.6393 79.7282 30.2545 80.6571C29.8698 81.586 29.7691 82.6082 29.9652 83.5943C30.1614 84.5804 30.6455 85.4862 31.3565 86.1971C32.0674 86.9081 32.9732 87.3922 33.9593 87.5884C34.9455 87.7845 35.9676 87.6839 36.8965 87.2991C37.8254 86.9143 38.6193 86.2628 39.1779 85.4268C39.7365 84.5908 40.0346 83.608 40.0346 82.6025C40.0346 81.2543 39.4991 79.9613 38.5457 79.0079C37.5924 78.0546 36.2993 77.519 34.9511 77.519Z" fill="#606060"/>
<path d="M54.3347 90.4414C52.7843 90.4414 51.2688 89.9816 49.9797 89.1203C48.6906 88.259 47.6859 87.0347 47.0925 85.6023C46.4992 84.17 46.344 82.5938 46.6465 81.0732C46.9489 79.5527 47.6955 78.1559 48.7918 77.0596C49.8881 75.9633 51.2848 75.2168 52.8054 74.9143C54.326 74.6118 55.9021 74.7671 57.3345 75.3604C58.7669 75.9537 59.9911 76.9584 60.8525 78.2475C61.7138 79.5366 62.1736 81.0522 62.1736 82.6025C62.1699 84.6804 61.3429 86.6721 59.8736 88.1414C58.4043 89.6107 56.4126 90.4377 54.3347 90.4414ZM54.3347 77.519C53.3293 77.519 52.3464 77.8171 51.5104 78.3757C50.6745 78.9343 50.0229 79.7282 49.6381 80.6571C49.2534 81.586 49.1527 82.6082 49.3488 83.5943C49.545 84.5804 50.0292 85.4862 50.7401 86.1971C51.451 86.9081 52.3568 87.3922 53.343 87.5884C54.3291 87.7845 55.3512 87.6839 56.2801 87.2991C57.209 86.9143 58.0029 86.2628 58.5615 85.4268C59.1201 84.5908 59.4183 83.608 59.4183 82.6025C59.4183 81.2543 58.8827 79.9613 57.9293 79.0079C56.976 78.0546 55.6829 77.519 54.3347 77.519Z" fill="#606060"/>
<path d="M73.7183 90.4414C72.1679 90.4414 70.6524 89.9816 69.3633 89.1203C68.0742 88.259 67.0695 87.0347 66.4762 85.6023C65.8828 84.17 65.7276 82.5938 66.0301 81.0732C66.3325 79.5527 67.0791 78.1559 68.1754 77.0596C69.2717 75.9633 70.6684 75.2168 72.189 74.9143C73.7096 74.6118 75.2857 74.7671 76.7181 75.3604C78.1505 75.9537 79.3747 76.9584 80.2361 78.2475C81.0974 79.5366 81.5572 81.0522 81.5572 82.6025C81.5535 84.6804 80.7265 86.6721 79.2572 88.1414C77.7879 89.6107 75.7962 90.4377 73.7183 90.4414ZM73.7183 77.519C72.7129 77.519 71.73 77.8171 70.894 78.3757C70.0581 78.9343 69.4065 79.7282 69.0217 80.6571C68.637 81.586 68.5363 82.6082 68.7324 83.5943C68.9286 84.5804 69.4128 85.4862 70.1237 86.1971C70.8346 86.9081 71.7404 87.3922 72.7266 87.5884C73.7127 87.7845 74.7348 87.6839 75.6637 87.2991C76.5926 86.9143 77.3865 86.2628 77.9451 85.4268C78.5037 84.5908 78.8019 83.608 78.8019 82.6025C78.8019 81.2543 78.2663 79.9613 77.3129 79.0079C76.3596 78.0546 75.0665 77.519 73.7183 77.519Z" fill="#606060"/>
<path d="M19.7969 44.1382H17.0416V96.489H19.7969V44.1382Z" fill="white"/>
<path d="M23.241 44.1382H21.8633V97.8667H23.241V44.1382Z" fill="white"/>
<path d="M80.827 101.435H27.8424C25.4295 101.436 23.0455 100.91 20.8577 99.8918C17.9122 98.5484 15.4136 96.3887 13.658 93.6686C11.9024 90.9485 10.9634 87.7822 10.9524 84.5448V38.0214C10.956 33.543 12.7367 29.2491 15.9034 26.0824C19.0701 22.9156 23.364 21.135 27.8424 21.1313H80.827C85.303 21.1386 89.5934 22.9209 92.7571 26.0872C95.9209 29.2535 97.6996 33.5454 97.7033 38.0214V84.5448C97.696 89.0197 95.9161 93.3094 92.7531 96.4749C89.5902 99.6404 85.3019 101.424 80.827 101.435ZM27.8424 23.8867C24.0948 23.8903 20.5017 25.3807 17.8517 28.0307C15.2017 30.6806 13.7113 34.2737 13.7077 38.0214V84.5448C13.7164 87.2507 14.4994 89.8975 15.9641 92.1727C17.4288 94.4479 19.5141 96.2564 21.9736 97.3845C23.8034 98.2341 25.7975 98.6715 27.8149 98.6657H80.827C83.2099 98.6764 85.5548 98.0688 87.6326 96.9023C89.848 95.6771 91.6949 93.881 92.9813 91.7006C94.2678 89.5202 94.9468 87.035 94.948 84.5034V38.0214C94.9443 34.2761 93.4559 30.6851 90.8089 28.0355C88.1618 25.3859 84.5723 23.8939 80.827 23.8867H27.8424Z" fill="#606060"/>
<path d="M94.3969 45.2133H14.2725C13.9071 45.2133 13.5567 45.0682 13.2983 44.8098C13.04 44.5514 12.8948 44.201 12.8948 43.8357C12.8948 43.4703 13.04 43.1199 13.2983 42.8615C13.5567 42.6032 13.9071 42.458 14.2725 42.458H94.3969C94.7622 42.458 95.1126 42.6032 95.371 42.8615C95.6294 43.1199 95.7745 43.4703 95.7745 43.8357C95.7745 44.201 95.6294 44.5514 95.371 44.8098C95.1126 45.0682 94.7622 45.2133 94.3969 45.2133Z" fill="#606060"/>
<path d="M35.1577 12.0117H34.648C33.0045 12.0117 31.6722 13.344 31.6722 14.9875V24.5484C31.6722 26.1918 33.0045 27.5241 34.648 27.5241H35.1577C36.8012 27.5241 38.1334 26.1918 38.1334 24.5484V14.9875C38.1334 13.344 36.8012 12.0117 35.1577 12.0117Z" fill="white"/>
<path d="M35.3643 28.8882H34.8546C33.7 28.8882 32.5927 28.4295 31.7763 27.6131C30.9599 26.7967 30.5012 25.6894 30.5012 24.5348V14.9877C30.5012 13.8331 30.9599 12.7258 31.7763 11.9094C32.5927 11.0929 33.7 10.6343 34.8546 10.6343H35.3643C36.5189 10.6343 37.6262 11.0929 38.4426 11.9094C39.2591 12.7258 39.7177 13.8331 39.7177 14.9877V24.5486C39.7141 25.7008 39.2538 26.8046 38.4378 27.618C37.6218 28.4314 36.5165 28.8882 35.3643 28.8882ZM34.8546 13.3896C34.4308 13.3896 34.0243 13.558 33.7246 13.8577C33.4249 14.1573 33.2565 14.5638 33.2565 14.9877V24.5486C33.2602 24.97 33.4301 25.373 33.7294 25.6697C34.0287 25.9664 34.4331 26.1329 34.8546 26.1329H35.3643C35.7882 26.1329 36.1947 25.9645 36.4944 25.6648C36.7941 25.3651 36.9624 24.9586 36.9624 24.5348V14.9877C36.9624 14.5638 36.7941 14.1573 36.4944 13.8577C36.1947 13.558 35.7882 13.3896 35.3643 13.3896H34.8546Z" fill="#606060"/>
<path d="M71.0456 12.0117H70.5359C68.8925 12.0117 67.5602 13.344 67.5602 14.9875V24.5484C67.5602 26.1918 68.8925 27.5241 70.5359 27.5241H71.0456C72.6891 27.5241 74.0214 26.1918 74.0214 24.5484V14.9875C74.0214 13.344 72.6891 12.0117 71.0456 12.0117Z" fill="white"/>
<path d="M71.2523 28.8882H70.7425C69.588 28.8882 68.4807 28.4295 67.6642 27.6131C66.8478 26.7967 66.3892 25.6894 66.3892 24.5348V14.9877C66.3892 13.8331 66.8478 12.7258 67.6642 11.9094C68.4807 11.0929 69.588 10.6343 70.7425 10.6343H71.2523C72.4069 10.6343 73.5142 11.0929 74.3306 11.9094C75.147 12.7258 75.6057 13.8331 75.6057 14.9877V24.5486C75.602 25.7008 75.1418 26.8046 74.3257 27.618C73.5097 28.4314 72.4045 28.8882 71.2523 28.8882ZM70.7425 13.3896C70.3187 13.3896 69.9122 13.558 69.6125 13.8577C69.3128 14.1573 69.1445 14.5638 69.1445 14.9877V24.5486C69.1445 24.9724 69.3128 25.3789 69.6125 25.6786C69.9122 25.9783 70.3187 26.1467 70.7425 26.1467H71.2523C71.6761 26.1467 72.0826 25.9783 72.3823 25.6786C72.682 25.3789 72.8504 24.9724 72.8504 24.5486V14.9877C72.8504 14.5638 72.682 14.1573 72.3823 13.8577C72.0826 13.558 71.6761 13.3896 71.2523 13.3896H70.7425Z" fill="#606060"/>
<path d="M35.0062 34.178C37.5018 34.178 39.5249 32.1549 39.5249 29.6593C39.5249 27.1637 37.5018 25.1406 35.0062 25.1406C32.5106 25.1406 30.4875 27.1637 30.4875 29.6593C30.4875 32.1549 32.5106 34.178 35.0062 34.178Z" fill="#ED4245"/>
<path d="M70.8941 34.178C73.3897 34.178 75.4128 32.1549 75.4128 29.6593C75.4128 27.1637 73.3897 25.1406 70.8941 25.1406C68.3985 25.1406 66.3754 27.1637 66.3754 29.6593C66.3754 32.1549 68.3985 34.178 70.8941 34.178Z" fill="#ED4245"/>
<path d="M75.4128 29.6452C75.4128 30.8437 74.9367 31.993 74.0893 32.8404C73.2419 33.6879 72.0925 34.1639 70.8941 34.1639C69.6956 34.1639 68.5463 33.6879 67.6989 32.8404C66.8514 31.993 66.3754 30.8437 66.3754 29.6452C66.3702 29.1768 66.4448 28.711 66.5958 28.2676C66.883 29.1827 67.4547 29.9823 68.2278 30.55C69.0009 31.1176 69.935 31.4237 70.8941 31.4237C71.8532 31.4237 72.7873 31.1176 73.5604 30.55C74.3335 29.9823 74.9052 29.1827 75.1924 28.2676C75.3434 28.711 75.4179 29.1768 75.4128 29.6452Z" fill="#C13038"/>
<path d="M39.3045 28.2817C39.4555 28.7251 39.53 29.191 39.5249 29.6594C39.5249 30.8578 39.0488 32.0072 38.2014 32.8546C37.354 33.702 36.2046 34.1781 35.0062 34.1781C33.8078 34.1781 32.6584 33.702 31.811 32.8546C30.9636 32.0072 30.4875 30.8578 30.4875 29.6594C30.4824 29.191 30.5569 28.7251 30.7079 28.2817C30.9951 29.1969 31.5668 29.9965 32.3399 30.5641C33.113 31.1318 34.0471 31.4379 35.0062 31.4379C35.9653 31.4379 36.8994 31.1318 37.6725 30.5641C38.4456 29.9965 39.0173 29.1969 39.3045 28.2817Z" fill="#C13038"/>
<path d="M35.0062 35.5554C33.84 35.5554 32.7 35.2096 31.7304 34.5617C30.7607 33.9138 30.005 32.9929 29.5587 31.9155C29.1124 30.8381 28.9957 29.6525 29.2232 28.5087C29.4507 27.365 30.0122 26.3143 30.8369 25.4897C31.6615 24.6651 32.7121 24.1035 33.8559 23.876C34.9997 23.6485 36.1852 23.7653 37.2627 24.2115C38.3401 24.6578 39.261 25.4136 39.9089 26.3832C40.5568 27.3529 40.9026 28.4929 40.9026 29.6591C40.8989 31.2218 40.2766 32.7194 39.1716 33.8244C38.0666 34.9294 36.5689 35.5518 35.0062 35.5554ZM35.0062 26.5042C34.385 26.5042 33.7777 26.6884 33.2612 27.0336C32.7446 27.3787 32.342 27.8693 32.1043 28.4433C31.8665 29.0172 31.8043 29.6488 31.9255 30.2581C32.0467 30.8674 32.3459 31.4271 32.7852 31.8663C33.2245 32.3056 33.7841 32.6048 34.3934 32.726C35.0027 32.8472 35.6343 32.785 36.2083 32.5472C36.7822 32.3095 37.2728 31.9069 37.6179 31.3904C37.9631 30.8738 38.1473 30.2665 38.1473 29.6453C38.14 28.8157 37.8064 28.0224 37.2185 27.4371C36.6306 26.8518 35.8358 26.5216 35.0062 26.518V26.5042Z" fill="#606060"/>
<path d="M70.894 35.5554C69.7279 35.5554 68.5879 35.2096 67.6182 34.5617C66.6486 33.9138 65.8928 32.9929 65.4465 31.9155C65.0002 30.8381 64.8835 29.6525 65.111 28.5087C65.3385 27.365 65.9001 26.3143 66.7247 25.4897C67.5493 24.6651 68.5999 24.1035 69.7437 23.876C70.8875 23.6485 72.0731 23.7653 73.1505 24.2115C74.2279 24.6578 75.1488 25.4136 75.7967 26.3832C76.4446 27.3529 76.7904 28.4929 76.7904 29.6591C76.7868 31.2218 76.1644 32.7194 75.0594 33.8244C73.9544 34.9294 72.4567 35.5518 70.894 35.5554ZM70.894 26.5042C70.2728 26.5042 69.6655 26.6884 69.149 27.0336C68.6324 27.3787 68.2298 27.8693 67.9921 28.4433C67.7544 29.0172 67.6921 29.6488 67.8133 30.2581C67.9345 30.8674 68.2337 31.4271 68.673 31.8663C69.1123 32.3056 69.672 32.6048 70.2813 32.726C70.8906 32.8472 71.5221 32.785 72.0961 32.5472C72.67 32.3095 73.1606 31.9069 73.5057 31.3904C73.8509 30.8738 74.0351 30.2665 74.0351 29.6453C74.0279 28.8157 73.6942 28.0224 73.1063 27.4371C72.5184 26.8518 71.7236 26.5216 70.894 26.518V26.5042Z" fill="#606060"/>
</g>
<defs>
<clipPath id="clip0_303_333">
<rect width="109" height="120.09" fill="white" transform="translate(0 0.232422)"/>
</clipPath>
</defs>
</svg>
