<svg width="115" height="80" viewBox="0 0 115 80" fill="none" xmlns="http://www.w3.org/2000/svg">
<g clip-path="url(#clip0_303_311)">
<path d="M112.306 19.1061V61.326C112.311 62.0845 112.165 62.8365 111.878 63.5386C111.591 64.2408 111.168 64.8792 110.634 65.4173C110.099 65.9553 109.463 66.3823 108.763 66.6736C108.063 66.965 107.311 67.115 106.553 67.115H95.838L90.3367 75.7445C90.2757 75.8605 90.1841 75.9575 90.072 76.0253C89.9598 76.093 89.8313 76.1288 89.7002 76.1288C89.5692 76.1288 89.4407 76.093 89.3285 76.0253C89.2163 75.9575 89.1248 75.8605 89.0638 75.7445L83.922 67.115H37.3946C35.8688 67.115 34.4055 66.5089 33.3266 65.43C32.2477 64.3511 31.6415 62.8878 31.6415 61.362V19.1061C31.6415 17.5803 32.2477 16.117 33.3266 15.0381C34.4055 13.9592 35.8688 13.3531 37.3946 13.3531H106.531C107.289 13.3502 108.039 13.4969 108.74 13.7848C109.44 14.0726 110.077 14.4959 110.613 15.0304C111.15 15.5649 111.576 16.2001 111.866 16.8995C112.156 17.5989 112.306 18.3488 112.306 19.1061Z" fill="white"/>
<path d="M86.6188 46.1165V14.0003L81.8797 13.4754L79.4635 54.7532L76.4144 56.3281L73.8974 56.7524L68.5687 56.5942L69.9207 56.8818L60.7734 54.9762L37.9195 55.6953C37.2112 55.6934 36.5322 55.4122 36.03 54.9127C35.5277 54.4131 35.2429 53.7356 35.2372 53.0273V7.72236C35.2351 7.10618 35.3347 6.4939 35.532 5.91016C34.3425 6.26551 33.2999 6.99608 32.5599 7.99278C31.8198 8.98948 31.422 10.1988 31.4258 11.4402V53.6602C31.4258 55.186 32.0319 56.6493 33.1108 57.7282C34.1897 58.8071 35.653 59.4132 37.1788 59.4132H48.4979L65.3182 59.3772L71.2007 59.4347H78.1618C80.8945 59.4347 85.2596 59.4347 86.6188 57.0401C87.9779 54.6454 86.6188 50.0861 86.6188 46.1165Z" fill="#DBCEC8"/>
<path d="M39.178 58.622C41.2353 58.622 42.903 56.9543 42.903 54.897C42.903 52.8396 41.2353 51.1719 39.178 51.1719C37.1207 51.1719 35.4529 52.8396 35.4529 54.897C35.4529 56.9543 37.1207 58.622 39.178 58.622Z" fill="#DBCEC8"/>
<path d="M45.8155 53.4371C46.733 53.4371 47.4767 52.6934 47.4767 51.7759C47.4767 50.8585 46.733 50.1147 45.8155 50.1147C44.8981 50.1147 44.1544 50.8585 44.1544 51.7759C44.1544 52.6934 44.8981 53.4371 45.8155 53.4371Z" fill="#DBCEC8"/>
<path d="M79.9812 55.5442C80.6921 55.5442 81.2684 54.9679 81.2684 54.257C81.2684 53.546 80.6921 52.9697 79.9812 52.9697C79.2703 52.9697 78.694 53.546 78.694 54.257C78.694 54.9679 79.2703 55.5442 79.9812 55.5442Z" fill="#DBCEC8"/>
<path d="M105.136 28.5986H43.9458" stroke="#3E3127" stroke-width="2.15738" stroke-miterlimit="10" stroke-linecap="round"/>
<path d="M105.136 38.3857H82.0595" stroke="#3E3127" stroke-width="2.15738" stroke-miterlimit="10" stroke-linecap="round"/>
<path d="M105.136 48.1729H70.5535" stroke="#3E3127" stroke-width="2.15738" stroke-miterlimit="10" stroke-linecap="round"/>
<path d="M112.73 16.5168V63.0947C112.73 64.0483 112.351 64.9628 111.677 65.6372C111.003 66.3115 110.088 66.6903 109.135 66.6903H96.255L90.1065 76.3553L84.3535 66.6903H35.6255C34.6719 66.6903 33.7573 66.3115 33.083 65.6372C32.4087 64.9628 32.0298 64.0483 32.0298 63.0947V18.7102C32.0298 17.1844 32.636 15.7211 33.7149 14.6422C34.7938 13.5633 36.2571 12.9571 37.7829 12.9571H109.106C110.058 12.9495 110.975 13.32 111.654 13.9874C112.334 14.6547 112.721 15.5644 112.73 16.5168Z" stroke="#3E3127" stroke-width="3.59563" stroke-miterlimit="10"/>
<path d="M2.2149 8.40556V50.6111C2.2244 52.1402 2.8385 53.6034 3.92311 54.6813C5.00773 55.7592 6.47475 56.3641 8.00387 56.3641H18.6973L24.1914 64.9936C24.2593 65.1021 24.3537 65.1915 24.4656 65.2535C24.5776 65.3155 24.7035 65.3481 24.8314 65.3481C24.9594 65.3481 25.0853 65.3155 25.1972 65.2535C25.3092 65.1915 25.4036 65.1021 25.4715 64.9936L30.6132 56.3641H77.1479C78.6737 56.3641 80.137 55.758 81.2159 54.6791C82.2948 53.6002 82.9009 52.1369 82.9009 50.6111V8.41275C82.9009 6.88696 82.2948 5.42366 81.2159 4.34476C80.137 3.26586 78.6737 2.65974 77.1479 2.65974H7.99668C7.23937 2.65595 6.48877 2.80173 5.78793 3.0887C5.08709 3.37567 4.4498 3.79819 3.91263 4.33202C3.37545 4.86585 2.94897 5.50049 2.65763 6.19953C2.36629 6.89856 2.21584 7.64824 2.2149 8.40556Z" fill="white"/>
<path d="M39.142 51.4091H75.1343C75.8476 51.4091 76.5317 51.1257 77.0361 50.6213C77.5405 50.117 77.8239 49.4329 77.8239 48.7196V3.41459C77.8123 3.22677 77.8547 3.03956 77.9461 2.8751C78.0376 2.71063 78.1742 2.5758 78.3399 2.48654C78.5055 2.39728 78.6933 2.35733 78.8809 2.37142C79.0686 2.3855 79.2483 2.45303 79.3988 2.56602C80.0956 3.10418 80.6595 3.79508 81.0473 4.58553C81.435 5.37597 81.6362 6.24486 81.6352 7.12528V54.1418C81.6352 54.405 81.5307 54.6574 81.3446 54.8435C81.1585 55.0296 80.906 55.1342 80.6428 55.1342H64.556L47.7356 55.0623L41.8532 55.1198H31.1669" fill="#DBCEC8"/>
<path d="M75.3501 52.2148C77.4074 52.2148 79.0752 50.547 79.0752 48.4897C79.0752 46.4324 77.4074 44.7646 75.3501 44.7646C73.2928 44.7646 71.625 46.4324 71.625 48.4897C71.625 50.547 73.2928 52.2148 75.3501 52.2148Z" fill="#DBCEC8"/>
<path d="M68.7053 47.0372C69.6228 47.0372 70.3665 46.2935 70.3665 45.376C70.3665 44.4586 69.6228 43.7148 68.7053 43.7148C67.7879 43.7148 67.0442 44.4586 67.0442 45.376C67.0442 46.2935 67.7879 47.0372 68.7053 47.0372Z" fill="#DBCEC8"/>
<path d="M39.6814 53.1566C41.274 53.1566 42.5651 51.8655 42.5651 50.2729C42.5651 48.6802 41.274 47.3892 39.6814 47.3892C38.0887 47.3892 36.7977 48.6802 36.7977 50.2729C36.7977 51.8655 38.0887 53.1566 39.6814 53.1566Z" fill="#DBCEC8"/>
<path d="M34.5396 49.1438C35.2505 49.1438 35.8269 48.5675 35.8269 47.8566C35.8269 47.1457 35.2505 46.5693 34.5396 46.5693C33.8287 46.5693 33.2524 47.1457 33.2524 47.8566C33.2524 48.5675 33.8287 49.1438 34.5396 49.1438Z" fill="#DBCEC8"/>
<path d="M9.39178 17.8833H70.5823" stroke="#3E3127" stroke-width="2.15738" stroke-miterlimit="10" stroke-linecap="round"/>
<path d="M9.39178 27.6709H32.4686" stroke="#3E3127" stroke-width="2.15738" stroke-miterlimit="10" stroke-linecap="round"/>
<path d="M9.39178 37.458H43.9746" stroke="#3E3127" stroke-width="2.15738" stroke-miterlimit="10" stroke-linecap="round"/>
<path d="M1.79779 3.19872V54.9758C1.79779 55.1058 1.82351 55.2345 1.87347 55.3545C1.92343 55.4745 1.99664 55.5835 2.08889 55.675C2.18114 55.7666 2.29059 55.839 2.41096 55.8881C2.53132 55.9372 2.6602 55.962 2.79019 55.961H17.7264C17.8931 55.961 18.057 56.0031 18.2029 56.0836C18.3488 56.1641 18.4718 56.2803 18.5606 56.4213L24.4503 65.6405L29.9228 56.4572C30.0113 56.3111 30.1358 56.1901 30.2843 56.1057C30.4329 56.0214 30.6006 55.9765 30.7714 55.9754H81.5345C81.6645 55.9764 81.7934 55.9516 81.9138 55.9025C82.0341 55.8534 82.1436 55.781 82.2358 55.6894C82.3281 55.5978 82.4013 55.4889 82.4513 55.3689C82.5012 55.2489 82.5269 55.1202 82.5269 54.9902V3.2131C82.5269 2.9499 82.4224 2.69748 82.2363 2.51137C82.0502 2.32526 81.7977 2.2207 81.5345 2.2207H2.79019C2.52946 2.22068 2.27919 2.32325 2.09349 2.50627C1.90779 2.68928 1.80157 2.93802 1.79779 3.19872V3.19872Z" stroke="#3E3127" stroke-width="3.59563" stroke-miterlimit="10"/>
</g>
<defs>
<clipPath id="clip0_303_311">
<rect width="114.528" height="79.37" fill="white" transform="translate(0 0.408691)"/>
</clipPath>
</defs>
</svg>
