<svg width="560" height="325" viewBox="0 0 560 325" fill="none" xmlns="http://www.w3.org/2000/svg">
<path d="M530.451 195.787C510.66 247.049 473.451 291.959 421.768 311.697C415.046 314.26 408.182 316.434 401.211 318.209C364.337 327.614 323.997 324.342 290.007 307.206C275.58 299.927 262.425 290.308 247.947 283.134C233.468 275.96 216.934 271.264 201.176 274.805C187.607 277.855 176.159 286.593 164.633 294.377C137.461 312.729 104.79 327.252 72.6148 320.949C57.8097 318.052 43.231 310.028 36.3553 296.616C21.1583 266.964 49.8193 231.711 44.0148 198.919C40.3004 177.931 23.3355 162.215 12.789 143.693C-5.26019 112.011 -3.12651 69.9275 18.0361 40.2411C39.1988 10.5547 78.2669 -5.19242 114.087 1.54202C157.766 9.75752 190.79 46.736 233.264 59.8215C259.826 67.9978 288.665 65.5584 314.034 54.7903C355.023 37.3879 411.335 10.6984 457.461 15.0458C481.99 17.3588 506.048 28.2489 522.238 46.8449C542.704 70.3196 548.839 103.648 545.426 134.602C543.082 155.556 538.049 176.12 530.451 195.787Z" fill="url(#paint0_linear_294_308)"/>
<path d="M543.619 236.333C542.709 236.332 541.803 236.222 540.919 236.006C538.124 235.319 535.697 233.591 534.133 231.174C532.569 228.757 531.987 225.835 532.504 223.003C533.021 220.171 534.599 217.643 536.917 215.936C539.234 214.228 542.115 213.47 544.972 213.816C547.829 214.161 550.446 215.585 552.29 217.796C554.133 220.007 555.063 222.838 554.89 225.712C554.718 228.585 553.455 231.285 551.36 233.259C549.265 235.233 546.496 236.332 543.619 236.333ZM543.619 218.83C542.122 218.836 540.678 219.389 539.561 220.386C538.443 221.382 537.728 222.752 537.55 224.24C537.372 225.727 537.744 227.227 538.596 228.459C539.447 229.691 540.719 230.569 542.173 230.927C543.014 231.13 543.889 231.151 544.74 230.991C545.59 230.831 546.397 230.493 547.108 229.998C547.818 229.504 548.416 228.864 548.862 228.122C549.307 227.38 549.591 226.552 549.694 225.692C549.796 224.832 549.716 223.96 549.458 223.134C549.2 222.308 548.769 221.545 548.196 220.897C547.622 220.249 546.917 219.73 546.128 219.374C545.339 219.017 544.484 218.832 543.619 218.83Z" fill="#E7F6FF"/>
<path d="M533.31 248.317C533.952 245.668 532.326 243 529.678 242.357C527.03 241.715 524.362 243.342 523.72 245.991C523.078 248.64 524.704 251.308 527.352 251.95C530 252.592 532.667 250.966 533.31 248.317Z" fill="#E7F6FF"/>
<path d="M24.0322 235.257C21.0414 235.192 18.197 233.949 16.1166 231.798C14.0362 229.648 12.8877 226.763 12.9204 223.771C12.953 220.778 14.1643 217.919 16.2912 215.815C18.418 213.71 21.2889 212.53 24.2804 212.53C27.272 212.53 30.1428 213.71 32.2697 215.815C34.3966 217.919 35.6079 220.778 35.6405 223.771C35.6732 226.763 34.5247 229.648 32.4443 231.798C30.3639 233.949 27.5195 235.192 24.5286 235.257H24.0322ZM24.0322 217.759H23.7753C22.16 217.794 20.6237 218.465 19.4999 219.626C18.3761 220.787 17.7556 222.345 17.7731 223.961C17.7906 225.578 18.4446 227.122 19.5933 228.258C20.7419 229.395 22.2924 230.033 23.9081 230.033C25.5239 230.033 27.0743 229.395 28.223 228.258C29.3716 227.122 30.0257 225.578 30.0432 223.961C30.0607 222.345 29.4402 220.787 28.3164 219.626C27.1926 218.465 25.6563 217.794 24.0409 217.759H24.0322Z" fill="#E7F6FF"/>
<path d="M15.9326 254.329C18.6548 254.211 20.7664 251.908 20.6489 249.185C20.5315 246.462 18.2295 244.35 15.5073 244.467C12.7851 244.584 10.6735 246.887 10.7909 249.61C10.9084 252.334 13.2103 254.446 15.9326 254.329Z" fill="#E7F6FF"/>
<path d="M308.765 51.5147C306.054 51.5172 303.432 50.5486 301.373 48.7844C299.314 47.0202 297.955 44.5769 297.541 41.8967C297.127 39.2166 297.685 36.4767 299.116 34.173C300.546 31.8693 302.754 30.154 305.339 29.3376C307.924 28.5212 310.716 28.6576 313.21 29.7222C315.703 30.7868 317.733 32.7091 318.932 35.1413C320.132 37.5735 320.421 40.3548 319.748 42.9818C319.074 45.6088 317.483 47.9079 315.262 49.463C313.358 50.7962 311.09 51.5124 308.765 51.5147ZM308.731 34.0209C307.144 34.0192 305.619 34.63 304.472 35.726C303.325 36.8219 302.645 38.3184 302.573 39.9036C302.502 41.4888 303.045 43.0403 304.089 44.2349C305.133 45.4294 306.598 46.1747 308.178 46.3155C309.758 46.4562 311.331 45.9816 312.57 44.9905C313.809 43.9994 314.617 42.5683 314.827 40.9955C315.037 39.4226 314.632 37.8294 313.697 36.5479C312.761 35.2664 311.368 34.3955 309.806 34.1167C309.451 34.0534 309.091 34.0213 308.731 34.0209Z" fill="#E7F6FF"/>
<path d="M285.602 50.8936C287.833 49.3286 288.373 46.2508 286.809 44.0191C285.244 41.7874 282.168 41.2469 279.937 42.8119C277.706 44.3768 277.166 47.4547 278.73 49.6864C280.294 51.9181 283.371 52.4586 285.602 50.8936Z" fill="#E7F6FF"/>
<path d="M559.983 110.06C559.983 105.27 558.081 100.676 554.695 97.2893C551.309 93.9024 546.717 91.9996 541.929 91.9996C541.528 91.9996 541.132 91.9996 540.74 92.0388C540.766 91.6468 540.779 91.2504 540.779 90.8496C540.779 88.2828 540.232 85.7455 539.174 83.407C538.116 81.0684 536.572 78.9824 534.644 77.2878C532.717 75.5933 530.451 74.3292 527.997 73.5798C525.542 72.8304 522.957 72.6129 520.412 72.9419C517.867 73.2709 515.422 74.1387 513.239 75.4876C511.056 76.8365 509.185 78.6354 507.752 80.7644C506.318 82.8934 505.355 85.3036 504.926 87.8344C504.497 90.3651 504.613 92.9582 505.265 95.4409C503.083 93.8579 500.574 92.7838 497.923 92.2973C495.272 91.8109 492.546 91.9244 489.944 92.6296C487.343 93.3347 484.932 94.6137 482.889 96.3725C480.846 98.1314 479.223 100.325 478.138 102.794C477.054 105.262 476.535 107.942 476.621 110.637C476.707 113.332 477.395 115.974 478.635 118.368C479.875 120.762 481.635 122.848 483.785 124.473C485.936 126.098 488.423 127.221 491.065 127.758C492.143 130.619 493.93 133.16 496.258 135.141C498.586 137.122 501.378 138.48 504.374 139.087C507.37 139.694 510.47 139.53 513.386 138.611C516.301 137.691 518.935 136.047 521.041 133.831C523.196 135.458 525.688 136.581 528.334 137.117C530.981 137.653 533.713 137.588 536.331 136.928C538.949 136.268 541.386 135.028 543.462 133.301C545.538 131.574 547.2 129.403 548.326 126.948C551.752 125.649 554.702 123.337 556.784 120.321C558.866 117.304 559.982 113.725 559.983 110.06Z" fill="white"/>
<path d="M83.366 66.6475C83.3683 64.2747 82.9031 61.9247 81.9972 59.7318C81.0912 57.5389 79.7621 55.5461 78.0859 53.8673C76.4097 52.1885 74.4193 50.8565 72.2283 49.9476C70.0373 49.0386 67.6887 48.5705 65.3168 48.5699C64.9162 48.5699 64.5199 48.5699 64.128 48.6091C64.1541 48.2171 64.1672 47.8207 64.1672 47.4199C64.1667 44.8531 63.6192 42.3158 62.5613 39.9773C61.5034 37.6388 59.9593 35.5527 58.032 33.8581C56.1047 32.1636 53.8385 30.8995 51.3843 30.1501C48.9302 29.4007 46.3446 29.1832 43.7998 29.5122C41.2551 29.8412 38.8096 30.7091 36.6266 32.0579C34.4435 33.4068 32.5729 35.2057 31.1396 37.3347C29.7062 39.4637 28.743 41.8739 28.3141 44.4047C27.8852 46.9354 28.0005 49.5285 28.6523 52.0112C26.4704 50.4283 23.9618 49.3541 21.3107 48.8677C18.6596 48.3812 15.9333 48.4947 13.3318 49.1999C10.7303 49.9051 8.31965 51.184 6.27675 52.9428C4.23385 54.7017 2.61056 56.8958 1.52599 59.3642C0.441415 61.8326 -0.0769044 64.5125 0.00906439 67.2075C0.0950332 69.9024 0.783109 72.5439 2.0228 74.938C3.26248 77.3322 5.02232 79.4183 7.17316 81.0433C9.324 82.6683 11.8113 83.7909 14.4524 84.3287C15.5318 87.1871 17.3185 89.7249 19.6453 91.7044C21.9721 93.684 24.763 95.0406 27.7566 95.6473C30.7503 96.254 33.8489 96.0909 36.7624 95.1734C39.6759 94.2558 42.309 92.6138 44.4154 90.401C46.5704 92.0282 49.0628 93.1512 51.709 93.6872C54.3553 94.2232 57.088 94.1587 59.706 93.4983C62.324 92.8379 64.7607 91.5985 66.8364 89.8713C68.9122 88.1442 70.5744 85.9733 71.7004 83.5184C75.1257 82.2215 78.0758 79.9133 80.1593 76.9001C82.2428 73.887 83.3611 70.3113 83.366 66.6475Z" fill="white"/>
<path d="M415.493 323.624H155.75V317.961H415.493C416.244 317.961 416.964 318.259 417.495 318.79C418.025 319.321 418.324 320.041 418.324 320.792C418.324 321.543 418.025 322.263 417.495 322.794C416.964 323.325 416.244 323.624 415.493 323.624Z" fill="#426572"/>
<path d="M144.132 323.624H128.252C127.501 323.624 126.781 323.325 126.25 322.794C125.72 322.263 125.421 321.543 125.421 320.792C125.421 320.041 125.72 319.321 126.25 318.79C126.781 318.259 127.501 317.961 128.252 317.961H144.132C144.883 317.961 145.603 318.259 146.134 318.79C146.665 319.321 146.963 320.041 146.963 320.792C146.963 321.543 146.665 322.263 146.134 322.794C145.603 323.325 144.883 323.624 144.132 323.624Z" fill="#426572"/>
<path d="M117.945 323.624H112.885C112.134 323.624 111.414 323.325 110.883 322.794C110.353 322.263 110.054 321.543 110.054 320.792C110.054 320.041 110.353 319.321 110.883 318.79C111.414 318.259 112.134 317.961 112.885 317.961H117.945C118.695 317.961 119.415 318.259 119.946 318.79C120.477 319.321 120.775 320.041 120.775 320.792C120.775 321.543 120.477 322.263 119.946 322.794C119.415 323.325 118.695 323.624 117.945 323.624Z" fill="#426572"/>
<path d="M506.571 323.624H426.736V317.961H506.571C507.321 317.961 508.041 318.259 508.572 318.79C509.103 319.321 509.401 320.041 509.401 320.792C509.401 321.543 509.103 322.263 508.572 322.794C508.041 323.325 507.321 323.624 506.571 323.624Z" fill="#426572"/>
<path d="M98.4107 323.624H18.5718V317.961H98.4107C99.1613 317.961 99.8813 318.259 100.412 318.79C100.943 319.321 101.241 320.041 101.241 320.792C101.241 321.543 100.943 322.263 100.412 322.794C99.8813 323.325 99.1613 323.624 98.4107 323.624Z" fill="#426572"/>
<path d="M110.721 102.559H428.914C429.678 102.559 430.434 102.709 431.14 103.002C431.846 103.294 432.487 103.723 433.027 104.263C433.567 104.804 433.996 105.445 434.288 106.151C434.581 106.857 434.731 107.614 434.731 108.378V310.285H104.903V108.378C104.903 107.614 105.054 106.857 105.346 106.151C105.638 105.445 106.067 104.804 106.607 104.263C107.147 103.723 107.789 103.294 108.494 103.002C109.2 102.709 109.957 102.559 110.721 102.559Z" fill="#EBF0F9"/>
<path d="M423.257 116.973H117.675V291.607H423.257V116.973Z" fill="#637F91"/>
<path d="M115.393 291.28H424.559C424.559 292.666 424.009 293.996 423.029 294.976C422.049 295.956 420.72 296.507 419.334 296.507H120.618C119.233 296.507 117.903 295.956 116.923 294.976C115.944 293.996 115.393 292.666 115.393 291.28Z" fill="white"/>
<g opacity="0.5">
<path d="M208.988 116.319L163.301 292.591H140.292L185.979 116.319H208.988Z" fill="#A7BCD5"/>
<path d="M267.638 116.319L221.946 292.591H173.699L219.386 116.319H267.638Z" fill="#A7BCD5"/>
</g>
<path d="M437.331 312.899H102.29V122.362C102.297 116.418 104.66 110.721 108.861 106.519C113.062 102.316 118.758 99.9522 124.698 99.9453H250.15V105.173H124.698C120.143 105.178 115.776 106.991 112.555 110.213C109.334 113.436 107.522 117.804 107.516 122.362V307.672H432.105V109.934C432.104 108.671 431.602 107.461 430.71 106.568C429.818 105.676 428.608 105.174 427.346 105.173H308.06V99.9453H427.346C429.992 99.9534 432.527 101.008 434.397 102.88C436.268 104.751 437.323 107.287 437.331 109.934V312.899Z" fill="#426572"/>
<path d="M63.3051 304.052H485.156V305.411C485.156 309.916 483.366 314.238 480.182 317.424C476.997 320.61 472.677 322.399 468.173 322.399H80.2874C75.7834 322.399 71.4639 320.61 68.2791 317.424C65.0943 314.238 63.3051 309.916 63.3051 305.411V304.052Z" fill="#EBF0F9"/>
<path opacity="0.5" d="M483 312.908C482.072 315.319 480.436 317.392 478.307 318.854C476.178 320.316 473.656 321.098 471.073 321.097H74.7703C72.1878 321.098 69.6658 320.316 67.5366 318.854C65.4075 317.392 63.7712 315.319 62.8434 312.908H483Z" fill="#A7BCD5"/>
<path d="M466.209 324.368H78.3236C73.1284 324.363 68.1477 322.296 64.4741 318.621C60.8006 314.946 58.7343 309.963 58.7285 304.766V300.793H485.805V304.766C485.799 309.963 483.732 314.946 480.059 318.621C476.385 322.296 471.405 324.363 466.209 324.368ZM64.0105 306.016C64.3242 309.598 65.9684 312.933 68.6189 315.362C71.2693 317.79 74.7335 319.137 78.3279 319.137H466.214C469.808 319.137 473.272 317.79 475.923 315.362C478.573 312.933 480.218 309.598 480.531 306.016H64.0105Z" fill="#426572"/>
<path d="M425.212 293.24H114.409V114.359H425.212V293.24ZM119.63 288.013H419.987V119.587H119.634L119.63 288.013Z" fill="#426572"/>
<path d="M477.296 158.913V207.078C477.289 208.115 476.874 209.109 476.14 209.842C475.407 210.576 474.414 210.991 473.377 210.998H387.882C387.332 211 386.789 210.884 386.288 210.658C385.592 210.352 385 209.849 384.585 209.212C384.17 208.574 383.949 207.83 383.949 207.069V158.913C383.948 158.119 384.188 157.342 384.637 156.687C385.087 156.032 385.725 155.53 386.466 155.245C386.913 155.072 387.389 154.983 387.868 154.984H473.351C474.298 154.987 475.212 155.33 475.927 155.952C476.641 156.573 477.109 157.431 477.244 158.369C477.274 158.549 477.292 158.731 477.296 158.913Z" fill="white"/>
<path d="M476.643 157.602V205.766C476.636 206.804 476.221 207.797 475.487 208.531C474.754 209.265 473.761 209.68 472.724 209.687H387.228C386.679 209.688 386.136 209.572 385.635 209.347C384.939 209.04 384.347 208.537 383.932 207.9C383.517 207.263 383.296 206.518 383.296 205.758V205.104H467.472C468.51 205.097 469.502 204.682 470.236 203.948C470.969 203.215 471.384 202.221 471.391 201.184V153.672H472.698C473.645 153.675 474.559 154.019 475.273 154.64C475.988 155.262 476.456 156.119 476.59 157.057C476.621 157.237 476.639 157.419 476.643 157.602Z" fill="#D6DEE9"/>
<path d="M472.711 212.967H387.228C386.31 212.969 385.401 212.774 384.563 212.396C383.408 211.883 382.426 211.045 381.737 209.984C381.049 208.923 380.683 207.685 380.684 206.42V158.26C380.69 156.965 381.078 155.701 381.798 154.626C382.518 153.551 383.539 152.712 384.733 152.213L385.169 151.978H385.378C385.973 151.803 386.59 151.715 387.211 151.717H472.693C474.269 151.723 475.79 152.294 476.979 153.328C478.169 154.362 478.947 155.789 479.173 157.349C479.216 157.651 479.238 157.955 479.238 158.26V206.424C479.24 207.785 478.815 209.112 478.023 210.218C477.419 211.065 476.622 211.756 475.698 212.234C474.775 212.712 473.751 212.963 472.711 212.967ZM386.445 157.21C386.279 157.331 386.144 157.49 386.051 157.673C385.958 157.856 385.909 158.058 385.909 158.264V206.424C385.908 206.68 385.983 206.93 386.123 207.144C386.263 207.357 386.463 207.525 386.697 207.627C386.864 207.702 387.045 207.741 387.228 207.74H472.711C472.921 207.74 473.129 207.688 473.315 207.59C473.502 207.493 473.662 207.351 473.782 207.178C473.94 206.957 474.025 206.692 474.026 206.42V158.26C474.03 158.204 474.03 158.149 474.026 158.094C473.984 157.776 473.828 157.485 473.588 157.273C473.348 157.06 473.04 156.942 472.719 156.94H387.228C387.106 156.939 386.984 156.957 386.867 156.992L386.445 157.21Z" fill="#426572"/>
<path d="M408.012 180.258C406.718 179.482 405.306 178.922 403.832 178.598C404.584 178.13 405.203 177.476 405.63 176.699C406.057 175.923 406.278 175.05 406.27 174.164C406.262 173.264 406.019 172.381 405.567 171.604C405.114 170.826 404.467 170.179 403.69 169.726C402.912 169.274 402.03 169.031 401.13 169.023C400.231 169.014 399.344 169.239 398.558 169.677C397.772 170.114 397.112 170.748 396.645 171.517C396.178 172.286 395.918 173.164 395.892 174.063C395.866 174.963 396.073 175.854 396.495 176.649C396.917 177.444 397.538 178.115 398.297 178.598C396.762 178.906 395.29 179.471 393.943 180.271C393.612 180.486 393.337 180.776 393.138 181.117C392.939 181.458 392.823 181.841 392.798 182.235V188.46C392.798 188.807 392.935 189.139 393.18 189.384C393.425 189.629 393.758 189.767 394.104 189.767H407.86C408.206 189.767 408.539 189.629 408.783 189.384C409.028 189.139 409.166 188.807 409.166 188.46V182.227C409.148 181.829 409.034 181.442 408.833 181.099C408.631 180.756 408.35 180.467 408.012 180.258Z" fill="#426572"/>
<path d="M462.887 163.129H417.035V168.357H462.887V163.129Z" fill="#426572"/>
<path d="M446.51 172.303H417.035V177.53H446.51V172.303Z" fill="#426572"/>
<path d="M462.234 190.324H417.035V195.551H462.234V190.324Z" fill="#426572"/>
<path opacity="0.2" d="M155.018 150.283C158.062 144.569 159.93 138.302 160.514 131.853C161.097 125.405 160.383 118.904 158.414 112.736C156.445 106.568 153.261 100.856 149.05 95.939C144.839 91.0216 139.686 86.9979 133.895 84.1052C128.104 81.2124 121.793 79.5093 115.333 79.0963C108.873 78.6833 102.397 79.5687 96.2846 81.7004C90.1727 83.8321 84.5495 87.1669 79.7468 91.5079C74.9441 95.8489 71.0592 101.108 68.3213 106.976C64.5405 114.078 62.5857 122.01 62.6332 130.057C62.6808 138.104 64.7291 146.012 68.5936 153.069C72.4582 160.126 78.0174 166.111 84.7703 170.483C91.5233 174.855 99.2576 177.478 107.276 178.114C105.877 178.445 104.456 178.714 103.013 178.92C110.604 180.015 118.346 179.292 125.603 176.811C132.861 174.331 139.426 170.163 144.759 164.65C149.027 160.528 152.504 155.659 155.018 150.283Z" fill="#606060"/>
<path d="M105.709 166.793C132.475 166.793 154.174 145.087 154.174 118.31C154.174 91.5341 132.475 69.8276 105.709 69.8276C78.9422 69.8276 57.2437 91.5341 57.2437 118.31C57.2437 145.087 78.9422 166.793 105.709 166.793Z" fill="#A8EF9E"/>
<path d="M151.862 121.773C151.86 128.724 150.365 135.594 147.477 141.917C144.589 148.239 140.376 153.866 135.123 158.417C129.87 162.967 123.701 166.335 117.033 168.291C110.365 170.248 103.355 170.747 96.4772 169.755C108.01 168.087 118.556 162.319 126.183 153.507C133.81 144.694 138.008 133.428 138.008 121.771C138.008 110.114 133.81 98.8481 126.183 90.0357C118.556 81.2232 108.01 75.4549 96.4772 73.7871C103.356 72.7947 110.367 73.2935 117.035 75.2497C123.704 77.206 129.874 80.5739 135.127 85.1251C140.381 89.6762 144.594 95.3043 147.482 101.628C150.37 107.951 151.865 114.821 151.866 121.773H151.862Z" fill="#A7E59C"/>
<path d="M104.555 171.711C94.4522 171.712 84.5762 168.716 76.1759 163.101C67.7755 157.487 61.2281 149.507 57.3616 140.17C53.4951 130.833 52.4832 120.559 54.4539 110.647C56.4246 100.735 61.2894 91.6301 68.433 84.4839C75.5766 77.3377 84.6782 72.4711 94.5867 70.4997C104.495 68.5283 114.766 69.5405 124.099 73.4084C133.432 77.2763 141.41 83.8261 147.022 92.2296C152.634 100.633 155.629 110.513 155.628 120.619C155.612 134.164 150.226 147.15 140.651 156.729C131.077 166.307 118.095 171.695 104.555 171.711ZM104.555 74.7497C95.4858 74.7488 86.6203 77.4383 79.0794 82.4779C71.5384 87.5176 65.6607 94.681 62.1896 103.062C58.7185 111.444 57.8098 120.667 59.5785 129.565C61.3473 138.463 65.7139 146.636 72.1263 153.052C78.5387 159.467 86.7088 163.836 95.6034 165.606C104.498 167.377 113.718 166.468 122.096 162.997C130.475 159.525 137.636 153.646 142.675 146.103C147.713 138.56 150.403 129.691 150.403 120.619C150.39 108.458 145.556 96.7993 136.96 88.2C128.365 79.6007 116.711 74.7635 104.555 74.7497Z" fill="#426572"/>
<path d="M301.459 100.176H291.661V105.404H301.459V100.176Z" fill="#426572"/>
<path d="M285.343 100.176H258.929V105.404H285.343V100.176Z" fill="#426572"/>
<path d="M123.605 147.121C109.384 149.138 91.8528 143.919 91.8528 143.919L83.2092 145.64C82.8303 145.713 82.4398 145.7 82.0669 145.601C81.6939 145.502 81.348 145.32 81.055 145.069C80.7621 144.817 80.5295 144.503 80.3747 144.15C80.22 143.796 80.147 143.412 80.1611 143.026C80.336 136.843 80.1776 130.654 79.6865 124.487C79.6429 124.041 79.717 123.592 79.9014 123.184C80.0858 122.776 80.3741 122.424 80.7373 122.162C81.1006 121.901 81.5261 121.739 81.9714 121.694C82.4167 121.649 82.866 121.721 83.2746 121.904C85.2221 122.865 87.3563 123.389 89.5276 123.437C94.7747 123.394 99.3555 119.369 101.698 114.59C104.041 109.812 104.572 106.714 105.064 101.4C105.278 99.0782 105.617 96.5038 107.381 95.014C110.429 92.4309 115.445 95.4497 116.434 99.3483C117.422 103.247 115.828 104.981 114.483 108.77C113.612 111.245 113.804 111.384 113.098 113.932C113.008 114.139 112.964 114.363 112.969 114.589C112.973 114.814 113.026 115.036 113.124 115.239C113.251 115.381 113.405 115.495 113.577 115.574C113.749 115.654 113.936 115.697 114.126 115.701C116.974 116.067 118.842 117.13 121.694 117.443C123.005 117.585 124.25 118.09 125.291 118.9C126.331 119.71 127.126 120.794 127.585 122.03V143.414C127.59 143.924 127.488 144.43 127.288 144.899C127.087 145.368 126.79 145.79 126.418 146.138C126.045 146.486 125.605 146.754 125.124 146.923C124.642 147.092 124.131 147.16 123.623 147.121H123.605Z" fill="#85D175"/>
<defs>
<linearGradient id="paint0_linear_294_308" x1="0.574773" y1="161.692" x2="546.31" y2="161.692" gradientUnits="userSpaceOnUse">
<stop stop-color="#568095"/>
<stop offset="1" stop-color="#C4F4EA"/>
</linearGradient>
</defs>
</svg>
