<svg width="410" height="259" viewBox="0 0 410 259" fill="none" xmlns="http://www.w3.org/2000/svg">
<g clip-path="url(#clip0_1385_46608)">
<path d="M130.062 18.3655C130.062 18.3655 106.075 16.5502 86.2133 16.5502C67.9607 16.5502 43.269 18.3655 43.269 18.3655C40.2718 18.3655 37.3973 19.5608 35.2779 21.6885C33.1585 23.8163 31.9679 26.7021 31.9679 29.7111V63.7481C31.9679 66.7571 33.1585 69.643 35.2779 71.7707C37.3973 73.8984 40.2718 75.0938 43.269 75.0938C43.269 75.0938 78.1708 73.7323 83.9531 73.7323C95.1225 73.7323 130.062 75.0938 130.062 75.0938C133.059 75.0938 135.933 73.8984 138.053 71.7707C140.172 69.643 141.363 66.7571 141.363 63.7481V29.7111C141.363 26.7021 140.172 23.8163 138.053 21.6885C135.933 19.5608 133.059 18.3655 130.062 18.3655Z" fill="#FFB400"/>
<path d="M40.5568 28.123C40.5568 28.123 51.8899 11.2806 39.4493 2.3911C39.2381 2.23987 39.0866 2.01875 39.0216 1.76658C38.9565 1.5144 38.982 1.24728 39.0936 1.01212C39.2052 0.776945 39.3958 0.588758 39.6318 0.480585C39.8679 0.372412 40.1343 0.351166 40.3844 0.420582C49.9481 3.05096 62.8583 12.4225 65.6454 28.123H40.5568Z" fill="#FFB400"/>
</g>
<g clip-path="url(#clip1_1385_46608)">
<path d="M54.9391 59.5583C56.7666 59.5583 58.2482 61.0355 58.2482 62.8577C58.2482 64.68 56.7666 66.1572 54.9391 66.1572C53.1115 66.1572 51.63 64.68 51.63 62.8577C51.63 61.0355 53.1115 59.5583 54.9391 59.5583Z" fill="#04294F"/>
<path d="M54.9391 43.7311C56.7666 43.7311 58.2482 45.2083 58.2482 47.0306C58.2482 48.8529 56.7666 50.3301 54.9391 50.3301C53.1115 50.3301 51.63 48.8529 51.63 47.0306C51.63 45.2083 53.1115 43.7311 54.9391 43.7311Z" fill="#04294F"/>
<path d="M54.9391 27.904C56.7666 27.904 58.2482 29.3812 58.2482 31.2034C58.2482 33.0257 56.7666 34.5029 54.9391 34.5029C53.1115 34.5029 51.63 33.0257 51.63 31.2034C51.63 29.3812 53.1115 27.904 54.9391 27.904Z" fill="#04294F"/>
<path d="M84.2163 60.6896H64.6006C63.4025 60.6896 62.4313 61.658 62.4313 62.8526C62.4313 64.0472 63.4025 65.0156 64.6006 65.0156H84.2163C85.4144 65.0156 86.3857 64.0472 86.3857 62.8526C86.3857 61.658 85.4144 60.6896 84.2163 60.6896Z" fill="#04294F"/>
<path d="M97.4165 44.8663H64.6008C63.4027 44.8663 62.4315 45.8347 62.4315 47.0293C62.4315 48.224 63.4027 49.1924 64.6008 49.1924H97.4165C98.6145 49.1924 99.5858 48.224 99.5858 47.0293C99.5858 45.8347 98.6145 44.8663 97.4165 44.8663Z" fill="#04294F"/>
<path d="M104.516 60.6896H91.4212C90.2231 60.6896 89.2518 61.658 89.2518 62.8526C89.2518 64.0472 90.2231 65.0156 91.4212 65.0156H104.516C105.714 65.0156 106.685 64.0472 106.685 62.8526C106.685 61.658 105.714 60.6896 104.516 60.6896Z" fill="#04294F"/>
<path d="M77.6955 29.0401H64.6008C63.4027 29.0401 62.4315 30.0085 62.4315 31.2032C62.4315 32.3978 63.4027 33.3662 64.6008 33.3662H77.6955C78.8936 33.3662 79.8648 32.3978 79.8648 31.2032C79.8648 30.0085 78.8936 29.0401 77.6955 29.0401Z" fill="#04294F"/>
</g>
<g clip-path="url(#clip2_1385_46608)">
<path d="M259.933 42.8605C259.933 42.8605 273.337 43.8767 284.436 43.8767C294.636 43.8767 308.435 42.8605 308.435 42.8605C310.11 42.8605 311.716 42.1913 312.9 41.0002C314.085 39.8091 314.75 38.1936 314.75 36.5091V17.4549C314.75 15.7704 314.085 14.1549 312.9 12.9638C311.716 11.7727 310.11 11.1035 308.435 11.1035C308.435 11.1035 288.931 11.8657 285.699 11.8657C279.458 11.8657 259.933 11.1035 259.933 11.1035C258.258 11.1035 256.652 11.7727 255.467 12.9638C254.283 14.1549 253.618 15.7704 253.618 17.4549V36.5091C253.618 38.1936 254.283 39.8091 255.467 41.0002C256.652 42.1913 258.258 42.8605 259.933 42.8605Z" fill="#04294F"/>
<path d="M309.95 37.3984C309.95 37.3984 303.617 46.827 310.569 51.8034C310.687 51.8881 310.772 52.0118 310.808 52.153C310.845 52.2941 310.83 52.4436 310.768 52.5753C310.706 52.7069 310.599 52.8122 310.467 52.8728C310.335 52.9334 310.187 52.9453 310.047 52.9065C304.702 51.434 297.488 46.1878 295.93 37.3984H309.95Z" fill="#04294F"/>
</g>
<g clip-path="url(#clip3_1385_46608)">
<path d="M318.437 183.904L101.105 176.964C100.048 176.964 99.0011 176.756 98.0246 176.352C97.0481 175.948 96.1609 175.355 95.4135 174.608C93.9042 173.1 93.0562 171.054 93.0562 168.92L89.1678 53.8781C89.1678 49.0495 91.087 44.4187 94.5032 41.0043C97.9194 37.59 102.553 35.6719 107.384 35.6719H325.803C328.086 35.6719 330.276 36.5785 331.891 38.1923C333.506 39.8061 334.413 41.9949 334.413 44.2771V167.937C334.413 170.033 334 172.11 333.197 174.047C332.394 175.984 331.217 177.745 329.734 179.227C328.25 180.71 326.489 181.886 324.551 182.689C322.612 183.491 320.535 183.904 318.437 183.904Z" fill="#00AEE0"/>
<path d="M187.627 22.9023H240.62C241.629 22.9023 242.597 23.303 243.311 24.0162C244.024 24.7294 244.425 25.6967 244.425 26.7053V43.7215H178.045V32.4791C178.045 29.9392 179.055 27.5033 180.852 25.7073C182.649 23.9113 185.086 22.9023 187.627 22.9023V22.9023Z" fill="#00AEE0"/>
<path d="M273.238 200.836H149.448C147.604 200.836 145.835 201.569 144.531 202.872C143.227 204.176 142.494 205.944 142.494 207.788L147.771 207.22C147.771 208.245 152.578 209.164 153.604 209.164L271.952 211.662C273.417 211.662 274.822 211.08 275.858 210.045C276.894 209.009 277.476 207.605 277.476 206.14V205.072C277.476 203.949 277.029 202.871 276.235 202.077C275.44 201.282 274.362 200.836 273.238 200.836Z" fill="#00AEE0"/>
<path d="M233.871 178.074H245.536V207.221H233.871V178.074Z" fill="#00AEE0"/>
<path d="M319.421 41.2236H97.2163C92.7713 41.2236 89.168 44.825 89.168 49.2676V175.86C89.168 180.303 92.7713 183.904 97.2163 183.904H319.421C323.866 183.904 327.469 180.303 327.469 175.86V49.2676C327.469 44.825 323.866 41.2236 319.421 41.2236Z" fill="#04294F"/>
<path d="M236.975 26.5107H182.163C179.889 26.5107 178.045 28.3533 178.045 30.6263V44.8799C178.045 47.1528 179.889 48.9954 182.163 48.9954H236.975C239.249 48.9954 241.092 47.1528 241.092 44.8799V30.6263C241.092 28.3533 239.249 26.5107 236.975 26.5107Z" fill="#04294F"/>
<path d="M178.045 180.019H241.092V206.112H178.045V180.019Z" fill="#04294F"/>
<path d="M272.054 204.723H144.028C143.181 204.723 142.494 205.409 142.494 206.255V210.13C142.494 210.976 143.181 211.662 144.028 211.662H272.054C272.901 211.662 273.588 210.976 273.588 210.13V206.255C273.588 205.409 272.901 204.723 272.054 204.723Z" fill="#04294F"/>
<path d="M209.707 37.0601C211.395 37.0601 212.763 35.693 212.763 34.0066C212.763 32.3202 211.395 30.9531 209.707 30.9531C208.02 30.9531 206.652 32.3202 206.652 34.0066C206.652 35.693 208.02 37.0601 209.707 37.0601Z" fill="#04294F"/>
<path d="M209.707 37.6148C208.993 37.6148 208.295 37.4031 207.701 37.0066C207.108 36.6101 206.645 36.0465 206.372 35.3871C206.098 34.7277 206.027 34.0021 206.166 33.3021C206.305 32.6021 206.649 31.9591 207.154 31.4544C207.659 30.9497 208.303 30.606 209.003 30.4668C209.703 30.3276 210.429 30.399 211.089 30.6722C211.749 30.9453 212.313 31.4078 212.71 32.0013C213.106 32.5947 213.318 33.2924 213.318 34.0061C213.317 34.9628 212.936 35.8801 212.259 36.5566C211.582 37.2331 210.665 37.6137 209.707 37.6148ZM209.707 31.5078C209.213 31.5078 208.73 31.6543 208.319 31.9289C207.908 32.2034 207.587 32.5936 207.398 33.0501C207.209 33.5066 207.159 34.0089 207.256 34.4935C207.352 34.9781 207.59 35.4233 207.94 35.7727C208.289 36.1221 208.735 36.36 209.22 36.4564C209.705 36.5528 210.207 36.5033 210.664 36.3142C211.121 36.1251 211.511 35.8049 211.786 35.3941C212.06 34.9832 212.207 34.5002 212.207 34.0061C212.206 33.3437 211.943 32.7087 211.474 32.2404C211.006 31.772 210.37 31.5086 209.707 31.5078Z" fill="white"/>
<path d="M187.072 35.1165C187.762 35.1165 188.321 34.5572 188.321 33.8673C188.321 33.1774 187.762 32.6182 187.072 32.6182C186.381 32.6182 185.822 33.1774 185.822 33.8673C185.822 34.5572 186.381 35.1165 187.072 35.1165Z" fill="white"/>
<path d="M197.626 35.1165C198.316 35.1165 198.876 34.5572 198.876 33.8673C198.876 33.1774 198.316 32.6182 197.626 32.6182C196.935 32.6182 196.376 33.1774 196.376 33.8673C196.376 34.5572 196.935 35.1165 197.626 35.1165Z" fill="white"/>
<path d="M222.622 35.1165C223.313 35.1165 223.872 34.5572 223.872 33.8673C223.872 33.1774 223.313 32.6182 222.622 32.6182C221.932 32.6182 221.373 33.1774 221.373 33.8673C221.373 34.5572 221.932 35.1165 222.622 35.1165Z" fill="white"/>
<path d="M235.03 33.5237C235.03 33.9187 233.7 34.2387 232.058 34.2387C230.417 34.2387 229.088 33.9187 229.088 33.5237C229.088 33.1287 230.418 32.8086 232.058 32.8086C233.699 32.8086 235.03 33.1287 235.03 33.5237Z" fill="white"/>
<path d="M309.647 53.4375H107.03C104.531 53.4375 102.505 55.462 102.505 57.9594V167.446C102.505 169.943 104.531 171.968 107.03 171.968H309.647C312.146 171.968 314.171 169.943 314.171 167.446V57.9594C314.171 55.462 312.146 53.4375 309.647 53.4375Z" fill="#00AEE0"/>
</g>
<g clip-path="url(#clip4_1385_46608)">
<path d="M297.649 163.391C298.717 145.412 294.418 129.091 289.377 122.994C320.618 121.086 350.035 103.262 363.589 77.3726C376.781 89.685 383.271 105.779 383.23 114.167C364.179 144.816 334.672 157.355 297.649 163.391Z" fill="#04294F"/>
<path d="M364.073 84.3819C364.238 84.4087 364.329 84.7701 364.356 85.4364C364.382 86.398 364.331 87.3605 364.201 88.3143C363.752 91.8131 362.969 95.2623 361.864 98.6152C360.251 103.593 358.22 108.428 355.792 113.068C352.841 118.734 349.495 124.189 345.779 129.391L344.703 130.905L343.982 131.92L343.622 132.426C343.574 132.556 343.473 132.488 343.387 132.477L343.123 132.418L341.02 131.956L339.974 131.726L339.385 131.606C337.821 131.282 336.275 130.99 334.747 130.73C331.693 130.209 328.727 129.791 325.888 129.48C320.209 128.856 315.053 128.582 310.71 128.46C302.023 128.24 296.583 128.47 296.498 127.773C296.419 127.167 301.76 125.738 310.65 125.085C315.862 124.734 321.091 124.739 326.3 125.1C329.244 125.295 332.33 125.637 335.513 126.114C337.104 126.352 338.717 126.633 340.351 126.957L341.433 127.171C341.506 127.186 341.503 127.185 341.498 127.183C341.504 127.173 341.484 127.201 341.514 127.159L341.872 126.654C345.709 121.261 349.087 115.953 351.918 110.997C354.43 106.614 356.692 102.094 358.693 97.4577C360.403 93.4976 361.562 90.194 362.387 87.9004C362.816 86.7565 363.131 85.8591 363.412 85.2578C363.693 84.6565 363.908 84.355 364.073 84.3819Z" fill="#04294F"/>
</g>
<g clip-path="url(#clip5_1385_46608)">
<path d="M297.649 163.391C298.717 145.412 294.418 129.091 289.377 122.994C320.618 121.086 350.035 103.262 363.589 77.3726C376.781 89.685 383.271 105.779 383.23 114.167C364.179 144.816 334.672 157.355 297.649 163.391Z" fill="#04294F"/>
<path d="M364.073 84.3819C364.238 84.4087 364.329 84.7701 364.356 85.4364C364.382 86.398 364.331 87.3605 364.201 88.3143C363.752 91.8131 362.969 95.2623 361.864 98.6152C360.251 103.593 358.22 108.428 355.792 113.068C352.841 118.734 349.495 124.189 345.779 129.391L344.703 130.905L343.982 131.92L343.622 132.426C343.574 132.556 343.473 132.488 343.387 132.477L343.123 132.418L341.02 131.956L339.974 131.726L339.385 131.606C337.821 131.282 336.275 130.99 334.747 130.73C331.693 130.209 328.727 129.791 325.888 129.48C320.209 128.856 315.053 128.582 310.71 128.46C302.023 128.24 296.583 128.47 296.498 127.773C296.419 127.167 301.76 125.738 310.65 125.085C315.862 124.734 321.091 124.739 326.3 125.1C329.244 125.295 332.33 125.637 335.513 126.114C337.104 126.352 338.717 126.633 340.351 126.957L341.433 127.171C341.506 127.186 341.503 127.185 341.498 127.183C341.504 127.173 341.484 127.201 341.514 127.159L341.872 126.654C345.709 121.261 349.087 115.953 351.918 110.997C354.43 106.614 356.692 102.094 358.693 97.4577C360.403 93.4976 361.562 90.194 362.387 87.9004C362.816 86.7565 363.131 85.8591 363.412 85.2578C363.693 84.6565 363.908 84.355 364.073 84.3819Z" fill="#04294F"/>
</g>
<g clip-path="url(#clip6_1385_46608)">
<path d="M82.6149 232.839C83.8789 239.34 77.7895 244.269 72.6058 246.761C70.2589 247.89 67.5372 248.448 65.0217 247.762C64.2503 247.553 63.5732 247.232 62.9787 246.826C60.5982 245.2 59.503 242.2 58.7749 239.39C57.425 234.186 55.7494 229.276 53.7154 224.29C50.9849 217.599 47.9991 211.011 44.7679 204.545C44.1735 203.353 43.5701 202.165 42.9583 200.983C41.0284 197.252 35.6869 190.974 36.9425 186.425C38.9991 178.962 47.0532 180.728 50.5006 185.607C54.114 190.721 57.726 195.835 61.3394 200.949L61.3401 200.95C61.9264 201.779 62.512 202.607 63.0983 203.436C68.489 211.069 73.8827 218.7 79.2749 226.332C80.6929 228.34 82.1458 230.427 82.6149 232.839Z" fill="#F04E23"/>
<path d="M132.323 180.069C133.109 183.969 133.73 187.98 133.134 191.912C132.537 195.843 135.252 197.643 132.336 200.341C127.14 205.149 121.04 204.282 107.513 200.468C95.925 197.2 83.6437 196.214 71.8157 198.421C64.4058 199.803 57.2422 202.3 49.8393 203.725C48.1354 204.053 46.4065 204.32 44.6671 204.502C38.8516 205.113 32.9369 204.769 27.5825 202.521C20.6267 199.598 14.8918 192.866 14.9401 185.318C14.9769 179.258 18.6329 173.71 23.2498 169.798C25.681 167.738 28.3728 166.044 31.1553 164.486C33.6609 163.085 36.2374 161.792 38.7641 160.439C45.6186 156.77 52.2013 152.592 58.447 147.959C69.5798 139.698 77.6914 125.108 89.3307 117.694C95.5436 113.737 107.724 124.288 112.395 131.438C122.035 146.192 128.837 162.794 132.323 180.069Z" fill="#F04E23"/>
<path d="M132.066 201.727C146.439 195.024 149.124 170.361 138.062 146.641C127.001 122.92 106.382 109.125 92.0092 115.827C77.6361 122.529 74.9513 147.192 86.0126 170.913C97.0739 194.633 117.693 208.429 132.066 201.727Z" fill="#FFB400"/>
<path d="M133.85 148.604C136.718 154.753 138.592 161.074 139.396 167.147C139.449 167.55 139.497 167.953 139.542 168.354C139.948 172.064 139.948 175.669 139.522 179.073C138.461 187.56 134.892 193.627 129.469 196.156C124.046 198.685 117.103 197.52 109.92 192.877C106.649 190.764 103.532 188.063 100.66 184.889C99.5007 183.608 98.382 182.249 97.3073 180.821C94.6301 177.259 92.2377 173.264 90.2246 168.947C88.9211 166.152 87.823 163.322 86.9392 160.496C86.4573 158.959 86.0384 157.425 85.6831 155.897C84.2765 149.841 83.8746 143.905 84.5532 138.479C85.6129 129.991 89.1833 123.925 94.6064 121.396C100.029 118.867 106.971 120.031 114.155 124.675C122.035 129.768 129.029 138.266 133.85 148.604Z" fill="#10294C"/>
<path d="M30.4187 168.405C29.0878 176.199 30.3109 184.406 33.8175 191.494C36.2972 196.505 39.9859 201.305 44.6672 204.502C38.8517 205.114 32.937 204.77 27.5826 202.521C20.6268 199.599 14.8918 192.866 14.9401 185.319C14.9769 179.259 18.633 173.711 23.2499 169.798C25.681 167.738 28.3729 166.045 31.1553 164.487C30.9119 165.811 30.6363 167.128 30.4187 168.405Z" fill="#FFB400"/>
<path d="M116.589 166.719C116.015 170.189 114.12 173.438 111.037 175.644L100.66 184.889C99.5006 183.608 98.3819 182.25 97.3072 180.821C94.63 177.26 92.2376 173.264 90.2244 168.947C88.921 166.152 87.8229 163.322 86.9391 160.496L95.0463 153.272C101.212 148.86 109.79 150.292 114.205 156.469C116.413 159.558 117.163 163.248 116.589 166.719Z" fill="#F04E23"/>
<path d="M112.078 168.59C112.103 168.665 112.054 168.757 111.927 168.867C111.8 168.972 111.598 169.118 111.31 169.213C110.744 169.441 109.838 169.581 108.765 169.438C106.618 169.16 103.859 167.883 101.641 165.468C101.071 164.851 100.612 164.165 100.239 163.475C99.8665 162.784 99.5866 162.082 99.3951 161.399C99.2866 161.06 99.2247 160.721 99.1495 160.396C99.1229 160.232 99.0966 160.071 99.0707 159.911C99.0439 159.752 99.0225 159.596 99.0101 159.441C98.9958 159.287 98.9817 159.136 98.9679 158.987C98.956 158.838 98.955 158.692 98.9492 158.549C98.9459 158.407 98.9388 158.267 98.9408 158.13C98.9449 157.994 98.9488 157.861 98.9528 157.73C98.9967 156.69 99.1663 155.871 99.3478 155.321C99.5366 154.772 99.7265 154.49 99.8804 154.511C100.213 154.554 100.258 155.79 100.563 157.637C100.583 157.752 100.603 157.869 100.623 157.99C100.645 158.109 100.674 158.23 100.698 158.354C100.725 158.477 100.747 158.604 100.778 158.731C100.809 158.857 100.841 158.986 100.873 159.117C100.902 159.248 100.939 159.379 100.98 159.511C101.018 159.644 101.057 159.778 101.096 159.915C101.193 160.181 101.271 160.461 101.388 160.732C101.597 161.285 101.864 161.84 102.186 162.379C102.51 162.918 102.88 163.451 103.33 163.935C103.785 164.434 104.281 164.896 104.778 165.318C105.283 165.732 105.79 166.108 106.292 166.439C107.299 167.096 108.272 167.563 109.114 167.861C110.803 168.478 111.96 168.259 112.078 168.59Z" fill="#FFB400"/>
<path d="M139.656 169.515C139.943 172.817 139.902 176.025 139.522 179.073C138.461 187.56 134.892 193.628 129.469 196.156C124.932 198.272 119.33 197.802 113.414 194.872L139.656 169.515Z" fill="white"/>
<path d="M63.098 203.437C60.9337 203.956 57.5543 204.584 56.1354 203.862C53.9683 202.761 52.6203 204.684 49.457 204.127C46.5646 203.618 60.9901 200.974 61.3324 200.951C61.3376 200.95 61.3391 200.949 61.3391 200.949L61.3398 200.951C61.9261 201.78 62.5117 202.608 63.098 203.437Z" fill="#10294C"/>
<path fill-rule="evenodd" clip-rule="evenodd" d="M111.044 122.872L84.467 148.552C84.1289 145.07 84.1531 141.685 84.5534 138.479C85.6131 129.99 89.1835 123.925 94.6066 121.396C99.2415 119.234 104.985 119.77 111.044 122.872Z" fill="white"/>
<path fill-rule="evenodd" clip-rule="evenodd" d="M138.778 163.435C139.189 165.485 139.482 167.516 139.656 169.516L113.414 194.873C112.26 194.301 111.093 193.637 109.92 192.877C109.6 192.671 109.281 192.458 108.965 192.24L138.778 163.435Z" fill="#00AEE0"/>
<path d="M100.78 134.737C100.489 134.872 100.143 134.746 100.007 134.455L95.4168 124.61C95.281 124.319 95.4066 123.973 95.6973 123.838C95.9881 123.702 96.3341 123.828 96.4698 124.119L101.06 133.964C101.196 134.255 101.071 134.601 100.78 134.737Z" fill="#04294F"/>
<path d="M95.0542 142.909C94.7634 143.045 94.4176 142.919 94.2818 142.628L89.6912 132.783C89.5554 132.492 89.681 132.146 89.9718 132.01C90.2626 131.875 90.6085 132.001 90.7442 132.292L95.3349 142.137C95.4706 142.428 95.345 142.774 95.0542 142.909Z" fill="#04294F"/>
<path d="M89.7605 149.23C89.4697 149.365 89.1238 149.239 88.988 148.948L86.0135 142.569C85.8777 142.278 86.0032 141.932 86.2942 141.796C86.5851 141.661 86.9307 141.787 87.0665 142.078L90.041 148.457C90.1768 148.748 90.0513 149.094 89.7605 149.23Z" fill="#04294F"/>
<path d="M109.395 133.471C109.104 133.607 108.758 133.48 108.622 133.189L104.032 123.345C103.896 123.054 104.021 122.707 104.312 122.572C104.603 122.436 104.949 122.563 105.085 122.854L109.675 132.698C109.811 132.989 109.685 133.335 109.395 133.471Z" fill="#04294F"/>
<path d="M127.861 193.989C127.57 194.125 127.224 193.999 127.088 193.707L123.256 185.489L116.452 184.17C116.137 184.109 115.931 183.804 115.991 183.489C116.052 183.173 116.356 182.967 116.672 183.028L123.767 184.403C123.95 184.439 124.105 184.56 124.184 184.729L128.142 193.217C128.277 193.508 128.152 193.854 127.861 193.989Z" fill="#04294F"/>
<path d="M118.823 195.059C118.532 195.194 118.186 195.068 118.05 194.777L116.72 191.923L109.946 190.413C109.633 190.343 109.435 190.032 109.505 189.719C109.574 189.405 109.885 189.208 110.198 189.277L117.25 190.849C117.427 190.889 117.575 191.008 117.651 191.172L119.103 194.286C119.239 194.577 119.114 194.923 118.823 195.059Z" fill="#04294F"/>
<path d="M134.122 187.675C133.831 187.811 133.485 187.684 133.349 187.393L129.604 179.361L122.448 178.063C122.132 178.006 121.922 177.703 121.978 177.387C122.035 177.071 122.338 176.861 122.653 176.918L130.106 178.27C130.291 178.303 130.449 178.425 130.529 178.597L134.402 186.902C134.538 187.193 134.412 187.54 134.122 187.675Z" fill="#04294F"/>
<path d="M137.947 177.813C137.656 177.949 137.311 177.823 137.175 177.531L135.412 173.751L128.424 172.514C128.108 172.458 127.896 172.156 127.952 171.84C128.007 171.523 128.309 171.312 128.625 171.368L135.911 172.658C136.098 172.691 136.257 172.813 136.337 172.985L138.228 177.04C138.364 177.332 138.238 177.678 137.947 177.813Z" fill="#04294F"/>
<path d="M139.396 167.147C139.449 167.55 139.497 167.953 139.541 168.354L134.084 167.388C133.769 167.333 133.558 167.029 133.612 166.714C133.668 166.398 133.97 166.186 134.286 166.242L139.396 167.147Z" fill="#04294F"/>
</g>
<g clip-path="url(#clip7_1385_46608)">
<path d="M300.251 189.091H119.063C118.515 189.091 117.988 188.879 117.593 188.499C117.197 188.119 116.965 187.6 116.943 187.051C115.231 142.669 115.231 96.9414 116.943 51.1393C116.964 50.6024 117.186 50.0933 117.567 49.7145C117.948 49.3356 118.458 49.1154 118.994 49.0982C171.778 47.4009 231.085 47.4009 300.301 49.0982C300.831 49.1112 301.337 49.3223 301.719 49.69C302.101 50.0577 302.331 50.5553 302.365 51.0846C305.005 92.7086 305.005 137.194 302.365 187.084C302.336 187.625 302.1 188.135 301.707 188.508C301.314 188.882 300.793 189.09 300.251 189.091ZM121.107 184.848H298.239C300.724 136.711 300.73 93.6332 298.256 53.2922C230.817 51.6649 172.818 51.6596 121.109 53.2763C119.499 97.6113 119.498 141.849 121.105 184.848H121.107Z" fill="#F04E23"/>
<path d="M260.946 88.3105H155.869C153.445 88.3105 151.479 90.2776 151.479 92.704V139.081C151.479 141.507 153.445 143.474 155.869 143.474H260.946C263.371 143.474 265.336 141.507 265.336 139.081V92.704C265.336 90.2776 263.371 88.3105 260.946 88.3105Z" fill="white"/>
<path d="M260.366 92.8332C260.69 93.3721 255.205 97.3418 246.074 103.321C241.508 106.311 236.031 109.803 229.913 113.622L220.29 119.573L215.181 122.69L213.877 123.481L213.221 123.878L213.015 123.998L212.776 124.132C212.617 124.219 212.447 124.291 212.281 124.372C210.916 124.969 209.406 125.15 207.939 124.892C207.207 124.765 206.498 124.527 205.836 124.189L205.592 124.059L205.389 123.945L205.054 123.752L204.386 123.365L201.739 121.827L196.573 118.807L186.838 113.042C180.65 109.339 175.107 105.951 170.486 103.048C161.243 97.2415 155.684 93.378 155.997 92.8332C156.31 92.2885 162.439 95.1671 172.093 100.259C176.92 102.805 182.628 105.905 188.932 109.407L198.799 114.944L204 117.904L206.656 119.426L207.326 119.81L207.661 120.003L207.744 120.051L207.797 120.078L207.895 120.131C208.158 120.266 208.44 120.36 208.731 120.409C209.315 120.511 209.916 120.441 210.46 120.206C210.525 120.173 210.594 120.147 210.658 120.112L210.754 120.059C210.782 120.044 210.817 120.026 210.88 119.986L211.538 119.593L212.847 118.81L217.992 115.753L227.752 110.03C233.988 106.408 239.637 103.201 244.415 100.564C253.97 95.2869 260.042 92.2943 260.366 92.8332Z" fill="#04294F"/>
</g>
<g clip-path="url(#clip8_1385_46608)">
<path d="M300.613 158.997C301.49 143.697 297.816 129.798 293.531 124.601C320.028 123.028 344.952 107.905 356.407 85.8921C367.617 96.3929 373.149 110.102 373.127 117.24C357.017 143.296 332.008 153.92 300.613 158.997Z" fill="#00AEE0"/>
<path d="M356.829 91.8593C356.969 91.8824 357.047 92.1902 357.071 92.7573C357.095 93.5758 357.052 94.3949 356.944 95.2065C356.569 98.1836 355.91 101.118 354.978 103.97C353.618 108.204 351.903 112.316 349.852 116.261C347.357 121.079 344.528 125.716 341.384 130.138L340.474 131.425L339.864 132.287L339.559 132.718C339.519 132.828 339.433 132.77 339.36 132.76L339.136 132.71L337.351 132.313L336.464 132.115L335.964 132.013C334.637 131.734 333.325 131.483 332.028 131.259C329.437 130.811 326.921 130.451 324.512 130.181C319.694 129.641 315.32 129.399 311.636 129.288C304.267 129.087 299.653 129.274 299.579 128.68C299.511 128.164 304.039 126.957 311.579 126.416C315.999 126.125 320.435 126.138 324.854 126.454C327.352 126.625 329.97 126.921 332.671 127.332C334.021 127.537 335.389 127.779 336.776 128.057L337.694 128.241C337.756 128.254 337.753 128.253 337.749 128.252C337.755 128.243 337.737 128.267 337.763 128.231L338.066 127.802C341.312 123.218 344.169 118.706 346.562 114.492C348.686 110.766 350.597 106.922 352.286 102.98C353.731 99.612 354.708 96.8021 355.404 94.8513C355.767 93.8784 356.033 93.1151 356.27 92.6038C356.507 92.0925 356.689 91.8362 356.829 91.8593Z" fill="#04294F"/>
</g>
<g clip-path="url(#clip9_1385_46608)">
<path d="M381.384 68.8343C382.217 65.5058 382.218 58.5522 381.388 50.2915C390.781 48.9073 393.671 41.4872 393.94 40.7441L393.959 40.6841C393.959 40.6841 393.903 40.516 393.78 40.1946C393.12 38.46 390.537 32.29 384.628 24.4701C384.628 24.4701 397.221 22.0457 404.037 22.5197C403.969 42.3762 401.193 54.5825 394.213 61.76L394.211 61.7625C390.921 65.1433 386.698 67.4103 381.384 68.8343Z" fill="#00AEE0"/>
<path d="M381.385 68.8338C382.217 65.5052 382.218 58.5517 381.388 50.291C390.781 48.9067 393.672 41.4867 393.94 40.7435C394.448 42.5444 395.995 48.4199 395.898 53.005C395.833 56.0942 395.083 59.178 394.213 61.7594L394.211 61.762C390.921 65.1428 386.698 67.4098 381.385 68.8338Z" fill="#04294F"/>
</g>
<g clip-path="url(#clip10_1385_46608)">
<path d="M268.989 161.466C268.989 161.466 268.99 158.313 268.99 156.886L266.258 157.872C263.013 154.348 259.648 150.944 256.16 147.665C258.187 147.016 260.098 146.34 261.83 145.608C262.144 145.475 262.304 145.101 262.308 144.721L262.308 144.722C262.308 144.046 262.308 140.092 262.308 140.092H258.701C258.701 140.092 257.375 140.708 257.365 140.866C257.365 140.866 257.365 140.867 257.365 140.868C251.559 137.582 244.622 135.295 237.887 133.499L234.75 129.385C234.571 130.315 234.75 133.927 234.75 133.927C234.744 134.088 234.774 134.26 234.848 134.435C237.253 143.27 240.291 153.061 245.599 160.231C245.912 160.834 247.107 160.829 247.388 160.217C248.163 158.516 248.882 156.641 249.571 154.652C253.578 158.93 257.767 163.024 262.14 166.935C262.602 167.349 263.266 167.444 263.828 167.182C266.112 166.119 267.784 164.441 268.845 162.15C268.946 161.932 268.993 161.698 268.989 161.466Z" fill="#10294C"/>
<path d="M261.861 139.207C254.962 133.949 245.3 130.793 236.217 128.461C235.295 128.066 234.454 128.909 234.848 129.834C237.253 138.669 240.291 148.46 245.599 155.63C245.912 156.233 247.107 156.228 247.388 155.616C248.163 153.915 248.882 152.04 249.571 150.051C253.578 154.329 257.767 158.423 262.14 162.334C262.602 162.748 263.266 162.843 263.827 162.581C266.112 161.518 267.784 159.84 268.845 157.549C269.106 156.985 269.011 156.318 268.598 155.854C264.64 151.401 260.494 147.138 256.16 143.064C258.187 142.415 260.098 141.739 261.83 141.007C262.455 140.742 262.47 139.525 261.861 139.207Z" fill="#FFB400"/>
</g>
<g clip-path="url(#clip11_1385_46608)">
<path d="M339.478 63.6174C339.478 63.6174 322.155 64.9202 307.81 64.9202C294.627 64.9202 276.795 63.6174 276.795 63.6174C274.63 63.6174 272.554 62.7595 271.023 61.2324C269.493 59.7053 268.633 57.6342 268.633 55.4746V31.0461C268.633 28.8865 269.493 26.8154 271.023 25.2883C272.554 23.7612 274.63 22.9033 276.795 22.9033C276.795 22.9033 302.001 23.8805 306.178 23.8805C314.244 23.8805 339.478 22.9033 339.478 22.9033C341.643 22.9033 343.719 23.7612 345.25 25.2883C346.78 26.8154 347.64 28.8865 347.64 31.0461V55.4746C347.64 57.6342 346.78 59.7053 345.25 61.2324C343.719 62.7595 341.643 63.6174 339.478 63.6174Z" fill="#FFB400"/>
<path d="M274.836 56.6143C274.836 56.6143 283.021 68.7021 274.036 75.0822C273.883 75.1907 273.774 75.3494 273.727 75.5303C273.68 75.7113 273.698 75.903 273.779 76.0717C273.86 76.2405 273.997 76.3755 274.168 76.4532C274.338 76.5309 274.53 76.5462 274.711 76.4964C281.618 74.6086 290.942 67.8826 292.955 56.6143H274.836Z" fill="#FFB400"/>
</g>
<g clip-path="url(#clip12_1385_46608)">
<path d="M138.824 62.5873C139.532 62.2268 140.744 63.049 142.182 64.6004C142.901 65.3776 143.683 66.3346 144.489 67.4269C145.3 68.5171 146.137 69.7412 146.971 71.0539C147.808 72.3648 148.564 73.6406 149.209 74.8358C149.859 76.0283 150.395 77.1418 150.796 78.1212C151.595 80.0803 151.827 81.5268 151.202 82.0161C150.583 82.5 149.212 81.9217 147.537 80.5179C146.698 79.8174 145.792 78.9072 144.87 77.8301C143.953 76.7505 143.023 75.5025 142.146 74.1287C141.272 72.753 140.533 71.3829 139.943 70.0951C139.356 68.8047 138.914 67.5982 138.633 66.5425C138.069 64.4304 138.124 62.9437 138.824 62.5873Z" fill="#F04E23"/>
<path d="M167.286 75.6449C169.26 71.365 169.695 67.3534 168.258 66.6846C166.822 66.0159 164.058 68.9433 162.085 73.2232C160.112 77.5031 159.676 81.5148 161.113 82.1835C162.549 82.8523 165.313 79.9248 167.286 75.6449Z" fill="#F04E23"/>
<path d="M144.426 92.4778C144.616 90.9054 140.977 89.1571 136.299 88.5731C131.621 87.989 127.674 88.7903 127.484 90.3627C127.294 91.9352 130.933 93.6834 135.611 94.2675C140.289 94.8516 144.236 94.0503 144.426 92.4778Z" fill="#F04E23"/>
<path d="M139.333 81.9101C139.047 82.2485 138.3 82.1269 137.311 81.7291C136.816 81.5288 136.256 81.2637 135.657 80.9453C135.055 80.6301 134.414 80.2632 133.751 79.8608C133.087 79.4609 132.464 79.0634 131.905 78.6771C131.345 78.2944 130.85 77.9211 130.442 77.5759C129.629 76.8839 129.173 76.2779 129.337 75.8665C129.499 75.4619 130.266 75.3338 131.379 75.5301C131.936 75.6269 132.575 75.8106 133.258 76.076C133.94 76.3448 134.665 76.6974 135.388 77.133C136.11 77.571 136.76 78.0497 137.315 78.5289C137.868 79.0114 138.329 79.4923 138.674 79.9409C139.368 80.8374 139.613 81.5776 139.333 81.9101Z" fill="#F04E23"/>
<path d="M156.389 59.0961C156.823 59.1836 157.069 59.9544 157.188 61.1082C157.246 61.6857 157.278 62.3614 157.283 63.103C157.291 63.8452 157.274 64.6538 157.238 65.5015C157.204 66.3493 157.154 67.1564 157.084 67.8951C157.018 68.6334 156.929 69.3036 156.823 69.8737C156.61 71.0125 156.3 71.7581 155.86 71.8059C155.427 71.853 154.943 71.1784 154.578 70.0105C154.394 69.4275 154.248 68.7224 154.152 67.9333C154.06 67.1442 154.022 66.2711 154.058 65.3573C154.098 64.4437 154.209 63.5773 154.365 62.7995C154.526 62.022 154.731 61.3328 154.962 60.7686C155.423 59.6381 155.961 59.0099 156.389 59.0961Z" fill="#F04E23"/>
</g>
<g clip-path="url(#clip13_1385_46608)">
<path d="M325.333 40.8743H285.711C284.967 40.8743 284.363 40.2681 284.363 39.5202C284.363 38.7723 284.967 38.166 285.711 38.166H325.333C326.078 38.166 326.681 38.7723 326.681 39.5202C326.681 40.2681 326.078 40.8743 325.333 40.8743Z" fill="#04294F"/>
<path d="M301.522 50.7825H285.711C284.967 50.7825 284.363 50.1763 284.363 49.4284C284.363 48.6805 284.967 48.0742 285.711 48.0742H301.522C302.267 48.0742 302.87 48.6805 302.87 49.4284C302.87 50.1763 302.266 50.7825 301.522 50.7825Z" fill="#04294F"/>
<path d="M331.748 50.7825H307.183C306.439 50.7825 305.835 50.1763 305.835 49.4284C305.835 48.6805 306.439 48.0742 307.183 48.0742H331.748C332.492 48.0742 333.096 48.6805 333.096 49.4284C333.096 50.1763 332.492 50.7825 331.748 50.7825Z" fill="#04294F"/>
</g>
<g clip-path="url(#clip14_1385_46608)">
<path d="M375.093 99.278C374.975 99.1267 375.228 98.6881 375.776 98.0315C375.913 97.8673 376.069 97.6892 376.242 97.4987L376.795 96.8686C377.192 96.4193 377.667 95.9365 378.16 95.3712L378.95 94.5058C379.225 94.2062 379.497 93.8794 379.788 93.5533C380.378 92.9067 380.968 92.1817 381.606 91.4367C381.924 91.0633 382.228 90.6628 382.555 90.266L383.045 89.6629L383.525 89.0318C383.844 88.6051 384.192 88.1869 384.507 87.7363L385.491 86.3835L386.438 85.0029C386.757 84.5543 387.035 84.0885 387.331 83.6455C387.477 83.4226 387.622 83.2017 387.766 82.9829L388.17 82.3196C388.435 81.8805 388.711 81.4595 388.957 81.0352C389.446 80.1853 389.932 79.3867 390.345 78.6154C390.555 78.232 390.772 77.8672 390.962 77.5078L391.514 76.4739C391.882 75.821 392.179 75.2125 392.47 74.6882L392.878 73.9575C393 73.7307 393.115 73.5249 393.224 73.3404C393.661 72.6045 393.99 72.2201 394.173 72.28C394.355 72.3399 394.372 72.8401 394.245 73.7049C394.213 73.9207 394.172 74.1587 394.121 74.419C394.066 74.678 393.995 74.9537 393.918 75.2516C393.759 75.8451 393.582 76.5253 393.319 77.252L392.914 78.398C392.768 78.7951 392.592 79.1976 392.419 79.6194C392.081 80.4666 391.652 81.3412 391.204 82.2639C390.976 82.7236 390.717 83.1797 390.464 83.6532L390.072 84.3675L389.645 85.0799C389.349 85.5548 389.07 86.0509 388.744 86.5269L387.763 87.9829L386.718 89.3938C386.378 89.8607 386.004 90.2902 385.654 90.7264C385.477 90.942 385.301 91.1557 385.127 91.3675C384.944 91.5721 384.763 91.7746 384.584 91.9752C384.221 92.3709 383.878 92.7707 383.518 93.1368C382.797 93.8689 382.116 94.5647 381.43 95.1671C381.09 95.4713 380.769 95.772 380.444 96.0417L379.498 96.8074C378.901 97.2989 378.317 97.6938 377.811 98.0421C377.556 98.2134 377.319 98.3746 377.093 98.5113C376.865 98.6452 376.654 98.7641 376.461 98.8667C375.689 99.2778 375.211 99.4292 375.093 99.278Z" fill="#04294F"/>
<path d="M396.344 87.5487C396.049 87.2991 396.327 86.4444 396.953 85.2429C397.267 84.6425 397.664 83.9517 398.124 83.2001C398.35 82.8231 398.6 82.4361 398.854 82.0318C399.112 81.632 399.377 81.2153 399.658 80.7945C399.933 80.371 400.211 79.9633 400.478 79.5683C400.75 79.1761 401.008 78.7946 401.265 78.4381C401.773 77.7198 402.253 77.0821 402.681 76.5582C403.542 75.5108 404.219 74.9182 404.565 75.0912C404.906 75.2607 404.846 76.1719 404.408 77.4994C404.147 78.2692 403.832 79.02 403.467 79.7465C403.261 80.1545 403.039 80.5812 402.788 81.0103C402.541 81.4426 402.268 81.8792 401.98 82.3214C401.686 82.7597 401.393 83.1829 401.092 83.5798C400.796 83.9798 400.491 84.3507 400.197 84.7015C399.672 85.3236 399.105 85.9087 398.5 86.4525C397.45 87.3789 396.635 87.7935 396.344 87.5487Z" fill="#04294F"/>
</g>
<defs>
<clipPath id="clip0_1385_46608">
<rect width="109.395" height="74.7175" fill="white" transform="matrix(1 0 0 -1 31.9677 75.0947)"/>
</clipPath>
<clipPath id="clip1_1385_46608">
<rect width="54.6975" height="38.2525" fill="white" transform="matrix(1 0 0 -1 51.6301 66.1572)"/>
</clipPath>
<clipPath id="clip2_1385_46608">
<rect width="61.1325" height="41.8275" fill="white" transform="matrix(-1 0 0 1 314.75 11.1025)"/>
</clipPath>
<clipPath id="clip3_1385_46608">
<rect width="245.245" height="188.76" fill="white" transform="translate(89.1677 22.9014)"/>
</clipPath>
<clipPath id="clip4_1385_46608">
<rect width="27.5275" height="57.915" fill="white" transform="translate(276.558 116.6) rotate(-24.2624)"/>
</clipPath>
<clipPath id="clip5_1385_46608">
<rect width="38.2525" height="25.3825" fill="white" transform="translate(276.558 116.6) rotate(-24.2624)"/>
</clipPath>
<clipPath id="clip6_1385_46608">
<rect width="129.415" height="110.467" fill="white" transform="translate(0.744507 158.384) rotate(-25.0005)"/>
</clipPath>
<clipPath id="clip7_1385_46608">
<rect width="151.938" height="113.327" fill="white" transform="translate(136.357 56.8613)"/>
</clipPath>
<clipPath id="clip8_1385_46608">
<rect width="85.4425" height="49.335" fill="white" transform="translate(282.647 119.139) rotate(-24.2624)"/>
</clipPath>
<clipPath id="clip9_1385_46608">
<rect width="44.33" height="27.17" fill="white" transform="translate(403.986 22.0098) rotate(84.2615)"/>
</clipPath>
<clipPath id="clip10_1385_46608">
<rect width="34.32" height="38.9675" fill="white" transform="translate(234.67 128.361)"/>
</clipPath>
<clipPath id="clip11_1385_46608">
<rect width="79.0075" height="53.625" fill="white" transform="translate(268.633 22.9014)"/>
</clipPath>
<clipPath id="clip12_1385_46608">
<rect width="47.5475" height="28.9575" fill="white" transform="translate(117.996 75.4316) rotate(-31.6641)"/>
</clipPath>
<clipPath id="clip13_1385_46608">
<rect width="76.505" height="14.3" fill="white" transform="translate(284.363 36.4824)"/>
</clipPath>
<clipPath id="clip14_1385_46608">
<rect width="19.6625" height="35.75" fill="white" transform="translate(402.73 69.3652) rotate(71.3731)"/>
</clipPath>
</defs>
</svg>
