<svg width="695" height="267" viewBox="0 0 695 267" fill="none" xmlns="http://www.w3.org/2000/svg">
<path d="M107.84 53.2022L89.4189 44.3659L92.5604 28.2842L99.1241 29.5675L96.9719 40.5694L110.741 47.1732L107.84 53.2022Z" fill="#F9B117"/>
<path d="M107.84 53.2022L89.4189 44.3659L92.5604 28.2842L99.1241 29.5675L96.9719 40.5694L110.741 47.1732L107.84 53.2022Z" stroke="#141414" stroke-width="2" stroke-miterlimit="10"/>
<path d="M95.8488 32.3079C100.448 32.3079 104.177 28.5792 104.177 23.9796C104.177 19.3801 100.448 15.6514 95.8488 15.6514C91.2492 15.6514 87.5205 19.3801 87.5205 23.9796C87.5205 28.5792 91.2492 32.3079 95.8488 32.3079Z" fill="#0E394F"/>
<path d="M95.8488 32.3079C100.448 32.3079 104.177 28.5792 104.177 23.9796C104.177 19.3801 100.448 15.6514 95.8488 15.6514C91.2492 15.6514 87.5205 19.3801 87.5205 23.9796C87.5205 28.5792 91.2492 32.3079 95.8488 32.3079Z" stroke="#141414" stroke-width="2" stroke-miterlimit="10"/>
<path d="M85.7963 69.9791C86.9304 64.9341 89.3747 60.2773 92.8826 56.4783C96.3906 52.6792 100.838 49.8722 105.777 48.3403C110.716 46.8084 115.971 46.6057 121.013 47.7526C126.055 48.8996 130.706 51.3557 134.496 54.8732L149.883 69.177L202.713 118.024L133.988 139.413L65.2764 160.801L81.1709 90.4322L85.7963 69.9791Z" fill="#FACA3F"/>
<path d="M151.981 70.9009L83.938 92.0224L84.9807 87.4104C92.1185 86.1135 98.996 83.6569 105.34 80.1382C116.698 74.074 125.922 64.6724 131.769 53.2017C133.695 54.3351 135.489 55.6802 137.116 57.2121L151.981 70.9009Z" fill="#F99F00"/>
<path d="M481.864 239.807H510.017C514.234 239.817 518.412 238.996 522.311 237.39C526.211 235.784 529.755 233.426 532.742 230.449V230.449C538.759 224.433 546.919 221.053 555.428 221.053C563.937 221.053 572.097 224.433 578.114 230.449L584.129 236.465C587.116 239.441 590.661 241.8 594.56 243.406C598.46 245.011 602.638 245.833 606.855 245.822H650.381" stroke="#141414" stroke-width="2" stroke-miterlimit="10"/>
<path d="M682.678 233.416C676.181 220.971 664.551 211.64 649.539 211.64C641.15 211.652 632.989 214.372 626.271 219.397C619.553 224.422 614.637 231.481 612.256 239.525C611.887 240.817 611.823 242.176 612.07 243.496C612.316 244.816 612.867 246.061 613.677 247.132C614.487 248.203 615.536 249.071 616.739 249.667C617.942 250.263 619.268 250.571 620.611 250.567H668.348L683.935 249.231" fill="#2C6E9B"/>
<path opacity="0.3" d="M624.434 239.525C624.062 240.816 623.996 242.175 624.241 243.495C624.486 244.815 625.035 246.06 625.844 247.132C626.653 248.203 627.701 249.071 628.904 249.668C630.107 250.264 631.433 250.572 632.775 250.567H620.557C619.214 250.571 617.888 250.263 616.685 249.667C615.482 249.071 614.434 248.203 613.623 247.132C612.813 246.061 612.263 244.816 612.016 243.496C611.769 242.176 611.833 240.817 612.202 239.525C614.586 231.473 619.51 224.406 626.239 219.381C632.967 214.356 641.141 211.64 649.539 211.64C651.589 211.637 653.637 211.798 655.661 212.121C648.401 213.278 641.616 216.465 636.091 221.314C630.565 226.163 626.524 232.477 624.434 239.525Z" fill="#0E3964"/>
<path d="M684.041 245.047C684.097 238.202 682.02 231.509 678.099 225.898C674.177 220.288 668.605 216.038 662.158 213.739C657.2 212.043 651.951 211.366 646.726 211.747C641.5 212.127 636.405 213.559 631.746 215.955C627.087 218.352 622.959 221.664 619.61 225.693C616.261 229.723 613.759 234.386 612.255 239.405C611.87 240.701 611.793 242.068 612.029 243.398C612.266 244.729 612.809 245.986 613.616 247.069C614.424 248.153 615.472 249.033 616.679 249.641C617.887 250.248 619.219 250.565 620.57 250.568H678.547C679.271 250.568 679.989 250.425 680.658 250.147C681.327 249.869 681.935 249.463 682.446 248.95C682.958 248.437 683.363 247.828 683.639 247.158C683.915 246.489 684.056 245.771 684.055 245.047H684.041Z" stroke="#141414" stroke-width="2" stroke-miterlimit="10"/>
<path d="M92.9944 190.953L115.428 183.996L128.638 226.591C129.562 229.571 129.264 232.796 127.811 235.556C126.357 238.317 123.866 240.387 120.886 241.311C117.906 242.235 114.681 241.938 111.921 240.484C109.16 239.03 107.09 236.54 106.166 233.56L92.9561 190.965L92.9944 190.953Z" fill="#FBD766"/>
<path d="M174.721 164.461L197.193 157.492L210.402 200.087C211.326 203.067 211.029 206.292 209.575 209.052C208.122 211.813 205.631 213.883 202.651 214.807C199.671 215.731 196.446 215.434 193.685 213.98C190.925 212.527 188.854 210.036 187.93 207.056L174.721 164.461Z" fill="#FBD766"/>
<path d="M92.9944 190.953L115.428 183.996L128.638 226.591C129.562 229.571 129.264 232.796 127.811 235.556C126.357 238.317 123.866 240.387 120.886 241.311C117.906 242.235 114.681 241.938 111.921 240.484C109.16 239.03 107.09 236.54 106.166 233.56L92.9561 190.965L92.9944 190.953Z" stroke="#141414" stroke-width="2" stroke-miterlimit="10"/>
<path d="M174.721 164.461L197.193 157.492L210.402 200.087C211.326 203.067 211.029 206.292 209.575 209.052C208.122 211.813 205.631 213.883 202.651 214.807C199.671 215.731 196.446 215.434 193.685 213.98C190.925 212.527 188.854 210.036 187.93 207.056L174.721 164.461V164.461Z" stroke="#141414" stroke-width="2" stroke-miterlimit="10"/>
<path opacity="0.7" d="M101.396 201.347L105.821 215.624" stroke="white" stroke-width="2.8" stroke-linecap="round" stroke-linejoin="round"/>
<path d="M99.8315 172.217L180.832 147.097L197.067 199.446C198.003 202.464 198.336 205.637 198.045 208.783C197.755 211.93 196.848 214.989 195.376 217.785C193.903 220.58 191.895 223.059 189.465 225.079C187.034 227.099 184.23 228.62 181.212 229.556L146.1 240.445C140.004 242.335 133.408 241.727 127.761 238.754C122.114 235.78 117.88 230.685 115.99 224.59L99.7549 172.241L99.8315 172.217Z" fill="#FACA3F"/>
<path d="M187.94 170.101L106.939 195.221L110.02 205.155L191.021 180.034L187.94 170.101Z" fill="#F7B000"/>
<path d="M99.8315 172.217L180.832 147.097L197.067 199.446C198.003 202.464 198.336 205.637 198.045 208.783C197.755 211.93 196.848 214.989 195.376 217.785C193.903 220.58 191.895 223.059 189.465 225.079C187.034 227.099 184.23 228.62 181.212 229.556L146.1 240.445C140.004 242.335 133.408 241.727 127.761 238.754C122.114 235.78 117.88 230.685 115.99 224.59L99.7549 172.241L99.8315 172.217Z" stroke="#141414" stroke-width="2" stroke-miterlimit="10"/>
<path d="M85.7959 69.9791C86.9301 64.9341 89.3743 60.2773 92.8823 56.4783C96.3902 52.6792 100.838 49.8722 105.777 48.3403C110.715 46.8084 115.971 46.6057 121.013 47.7526C126.055 48.8996 130.705 51.3557 134.496 54.8732L149.882 69.177L201.376 118.024L133.988 139.413L66.6128 160.801L81.1706 90.4322L85.7959 69.9791Z" stroke="#141414" stroke-width="2" stroke-miterlimit="10"/>
<path d="M168.313 62.8152L64.2349 95.3396C54.9784 98.2322 49.8196 108.081 52.7122 117.337L74.7373 187.818C77.63 197.074 87.4788 202.233 96.7352 199.341L200.813 166.816C210.07 163.924 215.229 154.075 212.336 144.818L190.311 74.3379C187.418 65.0814 177.569 59.9225 168.313 62.8152Z" fill="#F9B117"/>
<path opacity="0.5" d="M209.063 139.399L210.72 144.746C212.091 149.167 211.65 153.952 209.494 158.048C207.338 162.144 203.644 165.216 199.224 166.589L95.675 198.673C91.2521 200.044 86.4657 199.603 82.3674 197.448C78.2692 195.292 75.1943 191.598 73.8183 187.176L72.1606 181.829C73.5337 186.249 76.6061 189.944 80.7022 192.1C84.7983 194.255 89.5828 194.696 94.004 193.326L197.566 161.242C199.761 160.572 201.801 159.473 203.569 158.01C205.337 156.546 206.797 154.747 207.866 152.716C208.935 150.685 209.591 148.463 209.796 146.177C210.002 143.892 209.752 141.588 209.063 139.399Z" fill="#E59303"/>
<path d="M168.611 72.5125L69.512 103.481C63.9553 105.217 60.8584 111.13 62.5948 116.686L83.2244 182.701C84.9608 188.257 90.8731 191.354 96.4298 189.618L195.529 158.65C201.085 156.913 204.182 151.001 202.446 145.444L181.816 79.4296C180.08 73.8729 174.167 70.776 168.611 72.5125Z" fill="#0E394F"/>
<path d="M197.967 136.017L200.895 145.375C201.302 146.69 201.446 148.072 201.32 149.443C201.193 150.813 200.797 152.146 200.155 153.363C199.514 154.581 198.638 155.661 197.579 156.54C196.52 157.419 195.298 158.082 193.983 158.489L95.3942 189.061C92.7369 189.885 89.8614 189.619 87.3998 188.323C84.9382 187.027 83.0919 184.807 82.2668 182.15L79.3525 172.793C80.1775 175.446 82.0224 177.663 84.4815 178.956C86.9407 180.25 89.8128 180.514 92.4666 179.69L191.069 149.104C193.718 148.282 195.933 146.442 197.226 143.988C198.52 141.534 198.786 138.667 197.967 136.017Z" fill="#062538"/>
<path d="M117.735 124.78C117.064 122.615 114.764 121.404 112.599 122.076C110.435 122.747 109.224 125.046 109.895 127.211L114.92 143.414C115.592 145.579 117.891 146.79 120.056 146.118C122.22 145.447 123.431 143.148 122.76 140.983L117.735 124.78Z" fill="#4CF58C"/>
<path d="M147.006 115.703C146.335 113.539 144.036 112.328 141.871 112.999C139.706 113.671 138.495 115.97 139.167 118.135L144.192 134.337C144.863 136.502 147.162 137.713 149.327 137.042C151.492 136.37 152.703 134.071 152.031 131.906L147.006 115.703Z" fill="#4CF58C"/>
<path d="M86.9994 113.27C88.8186 112.705 89.8357 110.773 89.2712 108.954C88.7067 107.134 86.7743 106.117 84.955 106.682L71.7918 110.767C69.9726 111.331 68.9555 113.264 69.52 115.083C70.0846 116.902 72.017 117.919 73.8362 117.355L86.9994 113.27Z" fill="#185472"/>
<path d="M94.9526 110.631C96.7688 110.631 98.2411 109.158 98.2411 107.342C98.2411 105.526 96.7688 104.054 94.9526 104.054C93.1364 104.054 91.6641 105.526 91.6641 107.342C91.6641 109.158 93.1364 110.631 94.9526 110.631Z" fill="#185472"/>
<path d="M96.6421 87.303L75.5747 93.8365C74.2984 94.2323 73.5837 95.585 73.9784 96.8579C74.3731 98.1307 75.7278 98.8416 77.0042 98.4458L98.0715 91.9123C99.3479 91.5164 100.063 90.1637 99.6678 88.8909C99.2731 87.6181 97.9184 86.9072 96.6421 87.303Z" fill="#FFCB6E"/>
<path d="M103.334 90.1377C104.722 90.1377 105.848 89.0125 105.848 87.6245C105.848 86.2365 104.722 85.1113 103.334 85.1113C101.946 85.1113 100.821 86.2365 100.821 87.6245C100.821 89.0125 101.946 90.1377 103.334 90.1377Z" fill="#FFCB6E"/>
<path d="M115.584 60.9182L103.914 64.5374C103.11 64.7867 102.66 65.6404 102.909 66.4443C103.159 67.2482 104.013 67.6978 104.816 67.4485L116.486 63.8293C117.29 63.58 117.74 62.7262 117.491 61.9223C117.241 61.1185 116.388 60.6689 115.584 60.9182Z" fill="#F7B40D"/>
<path d="M114.133 56.2527L102.463 59.8718C101.659 60.1211 101.209 60.9749 101.459 61.7788C101.708 62.5827 102.562 63.0323 103.366 62.783L115.036 59.1638C115.84 58.9145 116.289 58.0607 116.04 57.2568C115.791 56.4529 114.937 56.0033 114.133 56.2527Z" fill="#F7B40D"/>
<path d="M164.067 206.372L146.23 211.904C144.996 212.287 144.304 213.595 144.686 214.825C145.068 216.056 146.377 216.743 147.611 216.36L165.449 210.829C166.683 210.446 167.374 209.138 166.992 207.908C166.61 206.677 165.301 205.99 164.067 206.372Z" fill="#F7B40D"/>
<path d="M163.426 199.587L145.498 205.189C144.257 205.577 143.565 206.894 143.952 208.131C144.338 209.367 145.657 210.056 146.897 209.668L164.826 204.066C166.066 203.678 166.758 202.361 166.372 201.124C165.985 199.888 164.666 199.199 163.426 199.587Z" fill="#F7B40D"/>
<path d="M168.313 62.8152L64.2349 95.3396C54.9784 98.2322 49.8196 108.081 52.7122 117.337L74.7373 187.818C77.63 197.074 87.4788 202.233 96.7352 199.341L200.813 166.816C210.07 163.924 215.229 154.075 212.336 144.818L190.311 74.3379C187.418 65.0814 177.569 59.9225 168.313 62.8152Z" stroke="#141414" stroke-width="2.01157" stroke-miterlimit="10"/>
<path opacity="0.2" d="M546.752 252.894C546.752 260.647 388.047 266.93 249.982 266.93C111.917 266.93 0 260.647 0 252.894C0 245.14 111.917 238.857 249.982 238.857C388.047 238.857 546.752 245.14 546.752 252.894Z" fill="#0E394F"/>
<path opacity="0.2" d="M694.054 252.893C694.054 256.035 668.655 258.588 646.557 258.588C624.46 258.588 606.547 256.035 606.547 252.893C606.547 249.752 624.46 247.199 646.557 247.199C668.655 247.199 694.054 249.752 694.054 252.893Z" fill="#0E394F"/>
<path d="M498.306 1H223.714C221.774 1.0026 219.897 1.68888 218.413 2.93821C216.929 4.18755 215.933 5.91999 215.599 7.83106L183.73 217.201C183.528 218.383 183.586 219.594 183.9 220.751C184.215 221.908 184.778 222.982 185.551 223.899C186.323 224.816 187.287 225.552 188.374 226.058C189.461 226.564 190.646 226.826 191.844 226.826H476.931C478.835 226.813 480.676 226.14 482.138 224.921C483.601 223.702 484.596 222.013 484.952 220.142L517.931 24.755C518.473 21.8655 518.374 18.892 517.64 16.0451C516.906 13.1982 515.555 10.5475 513.683 8.28087C511.81 6.01424 509.462 4.1871 506.805 2.92888C504.148 1.67066 501.246 1.01215 498.306 1Z" fill="#0E3964"/>
<path d="M498.306 1H223.714C221.774 1.0026 219.897 1.68888 218.413 2.93821C216.929 4.18755 215.933 5.91999 215.599 7.83106L183.73 217.201C183.528 218.383 183.586 219.594 183.9 220.751C184.215 221.908 184.778 222.982 185.551 223.899C186.323 224.816 187.287 225.552 188.374 226.058C189.461 226.564 190.646 226.826 191.844 226.826H476.931C478.835 226.813 480.676 226.14 482.138 224.921C483.601 223.702 484.596 222.013 484.952 220.142L517.931 24.755C518.473 21.8655 518.374 18.892 517.64 16.0451C516.906 13.1982 515.555 10.5475 513.683 8.28087C511.81 6.01424 509.462 4.1871 506.805 2.92888C504.148 1.67066 501.246 1.01215 498.306 1V1Z" stroke="#141414" stroke-width="2" stroke-miterlimit="10"/>
<path d="M498.627 1H212.231C209.258 0.998375 206.381 2.04826 204.108 3.96389C201.836 5.87952 200.314 8.53738 199.812 11.4672L166.9 226.826H469.218L505.712 9.54217C505.909 8.50067 505.873 7.42862 505.608 6.40244C505.343 5.37626 504.855 4.42122 504.178 3.60542C503.501 2.78962 502.653 2.13314 501.694 1.68279C500.734 1.23243 499.687 0.999299 498.627 1Z" fill="#2C6E9B"/>
<path d="M498.627 1H212.231C209.258 0.998375 206.381 2.04826 204.108 3.96389C201.836 5.87952 200.314 8.53738 199.812 11.4672L166.9 226.826H469.218L505.712 9.54217C505.909 8.50067 505.873 7.42862 505.608 6.40244C505.343 5.37626 504.855 4.42122 504.178 3.60542C503.501 2.78962 502.653 2.13314 501.694 1.68279C500.734 1.23243 499.687 0.999299 498.627 1V1Z" stroke="#141414" stroke-width="2" stroke-miterlimit="10"/>
<path d="M490.793 17.0415H214.222L185.04 210.784H458.777L490.793 17.0415Z" fill="#0E394F"/>
<path d="M491.582 17.3359L490.071 25.3567H213.621L214.998 17.3359H491.582Z" fill="#062538"/>
<path d="M222.11 17.0415L192.914 210.784H184.893L214.089 17.0415H222.11Z" fill="#062538"/>
<path d="M36.8557 225.489H342.021V253.562H47.1758C44.7732 253.564 42.3937 253.092 40.1734 252.174C37.9531 251.256 35.9356 249.909 34.236 248.211C32.5364 246.512 31.1882 244.496 30.2683 242.276C29.3485 240.056 28.875 237.677 28.875 235.275V233.47C28.8855 231.357 29.7297 229.333 31.2241 227.838C32.7185 226.344 34.7423 225.5 36.8557 225.489Z" fill="#19517F"/>
<path opacity="0.3" d="M342.021 242.868V253.562H47.1625C42.3135 253.558 37.6641 251.631 34.2353 248.202C30.8065 244.773 28.8786 240.124 28.8751 235.275V233.47C28.8692 232.265 29.1438 231.075 29.6772 229.994C30.8432 233.721 33.1675 236.979 36.3121 239.294C39.4566 241.609 43.2576 242.861 47.1625 242.868H342.021Z" fill="#0E3964"/>
<path opacity="0.3" d="M473.04 217.469V225.49H167.14L168.25 217.469H473.04Z" fill="#0E3964"/>
<path d="M121.449 225.489H229.73C229.73 229.389 228.18 233.129 225.423 235.887C222.665 238.645 218.925 240.194 215.025 240.194H136.154C134.222 240.194 132.31 239.814 130.526 239.075C128.742 238.336 127.121 237.253 125.756 235.887C124.39 234.522 123.307 232.901 122.568 231.117C121.829 229.332 121.449 227.42 121.449 225.489Z" fill="#0E3964"/>
<path d="M121.449 225.489H229.73C229.73 229.389 228.18 233.129 225.423 235.887C222.665 238.645 218.925 240.194 215.025 240.194H136.154C134.222 240.194 132.31 239.814 130.526 239.075C128.742 238.336 127.121 237.253 125.756 235.887C124.39 234.522 123.307 232.901 122.568 231.117C121.829 229.332 121.449 227.42 121.449 225.489Z" stroke="#141414" stroke-width="2" stroke-miterlimit="10"/>
<path d="M490.673 17.0415L458.657 210.784H184.974L486.917 17.0415H490.673Z" fill="#062538"/>
<path d="M501.543 90.6133L504.002 74.8155C504.202 73.5316 503.323 72.3287 502.039 72.1288C500.756 71.9288 499.553 72.8076 499.353 74.0916L496.893 89.8893C496.693 91.1733 497.572 92.3762 498.856 92.5761C500.14 92.776 501.343 91.8972 501.543 90.6133Z" fill="#062C4C"/>
<path d="M506.169 60.8721L508.629 45.0743C508.829 43.7904 507.95 42.5875 506.666 42.3875C505.383 42.1876 504.18 43.0664 503.98 44.3503L501.52 60.1481C501.32 61.4321 502.199 62.635 503.483 62.8349C504.767 63.0348 505.97 62.156 506.169 60.8721Z" fill="#062C4C"/>
<path d="M178.557 230.489H162.569C161.269 230.489 160.216 231.542 160.216 232.842C160.216 234.141 161.269 235.194 162.569 235.194H178.557C179.856 235.194 180.91 234.141 180.91 232.842C180.91 231.542 179.856 230.489 178.557 230.489Z" fill="#141414"/>
<path d="M83.4032 225.57H50.9055C48.9416 225.57 47.3496 227.162 47.3496 229.126C47.3496 231.09 48.9416 232.682 50.9055 232.682H83.4032C85.367 232.682 86.9591 231.09 86.9591 229.126C86.9591 227.162 85.367 225.57 83.4032 225.57Z" fill="#2C6E9B"/>
<path d="M93.5627 232.682C95.5266 232.682 97.1186 231.09 97.1186 229.126C97.1186 227.162 95.5266 225.57 93.5627 225.57C91.5989 225.57 90.0068 227.162 90.0068 229.126C90.0068 231.09 91.5989 232.682 93.5627 232.682Z" fill="#2C6E9B"/>
<path d="M186.722 119.939L181.705 152.047C181.402 153.987 182.729 155.806 184.67 156.109C186.61 156.412 188.429 155.085 188.732 153.145L193.748 121.036C194.051 119.096 192.724 117.277 190.784 116.974C188.844 116.671 187.025 117.998 186.722 119.939Z" fill="#4D9AC4"/>
<path d="M191.791 114C193.755 114 195.347 112.408 195.347 110.444C195.347 108.48 193.755 106.888 191.791 106.888C189.827 106.888 188.235 108.48 188.235 110.444C188.235 112.408 189.827 114 191.791 114Z" fill="#4D9AC4"/>
<path d="M253.177 4.99756H220.679C218.715 4.99756 217.123 6.58959 217.123 8.55345C217.123 10.5173 218.715 12.1093 220.679 12.1093H253.177C255.14 12.1093 256.732 10.5173 256.732 8.55345C256.732 6.58959 255.14 4.99756 253.177 4.99756Z" fill="#4D9AC4"/>
<path d="M263.337 12.1093C265.301 12.1093 266.893 10.5173 266.893 8.55345C266.893 6.58959 265.301 4.99756 263.337 4.99756C261.373 4.99756 259.781 6.58959 259.781 8.55345C259.781 10.5173 261.373 12.1093 263.337 12.1093Z" fill="#4D9AC4"/>
<path d="M328.653 12.9378C330.868 12.9378 332.663 11.1423 332.663 8.9274C332.663 6.71251 330.868 4.91699 328.653 4.91699C326.438 4.91699 324.643 6.71251 324.643 8.9274C324.643 11.1423 326.438 12.9378 328.653 12.9378Z" fill="#F95D5D"/>
<path d="M126.421 218.805H95.6748V225.489H126.421V218.805Z" fill="#033156"/>
<path d="M80.0077 218.805H49.2612V225.489H80.0077V218.805Z" fill="#033156"/>
<path d="M172.822 218.805H142.075V225.489H172.822V218.805Z" fill="#033156"/>
<path d="M219.236 218.805H188.489V225.489H219.236V218.805Z" fill="#033156"/>
<path d="M265.636 218.805H234.89V225.489H265.636V218.805Z" fill="#033156"/>
<path d="M312.05 218.805H281.304V225.489H312.05V218.805Z" fill="#033156"/>
<path d="M358.45 218.805H327.704V225.489H358.45V218.805Z" fill="#033156"/>
<path d="M451.639 218.805H420.892V225.489H451.639V218.805Z" fill="#033156"/>
<path d="M405.038 219.006H374.292V225.69H405.038V219.006Z" fill="#033156"/>
<path d="M126.421 218.805H95.6748V225.489H126.421V218.805Z" stroke="#141414" stroke-width="2" stroke-miterlimit="10"/>
<path d="M80.0077 218.805H49.2612V225.489H80.0077V218.805Z" stroke="#141414" stroke-width="2" stroke-miterlimit="10"/>
<path d="M172.822 218.805H142.075V225.489H172.822V218.805Z" stroke="#141414" stroke-width="2" stroke-miterlimit="10"/>
<path d="M219.236 218.805H188.489V225.489H219.236V218.805Z" stroke="#141414" stroke-width="2" stroke-miterlimit="10"/>
<path d="M265.636 218.805H234.89V225.489H265.636V218.805Z" stroke="#141414" stroke-width="2" stroke-miterlimit="10"/>
<path d="M312.05 218.805H281.304V225.489H312.05V218.805Z" stroke="#141414" stroke-width="2" stroke-miterlimit="10"/>
<path d="M358.45 218.805H327.704V225.489H358.45V218.805Z" stroke="#141414" stroke-width="2" stroke-miterlimit="10"/>
<path d="M451.639 218.805H420.892V225.489H451.639V218.805Z" stroke="#141414" stroke-width="2" stroke-miterlimit="10"/>
<path d="M405.038 219.006H374.292V225.69H405.038V219.006Z" stroke="#141414" stroke-width="2" stroke-miterlimit="10"/>
<path d="M490.66 17.0415H214.089L184.906 210.784H458.643L490.66 17.0415Z" stroke="#141414" stroke-width="2" stroke-miterlimit="10"/>
<path d="M36.8557 225.489H342.021V253.562H47.1758C44.7732 253.564 42.3937 253.092 40.1734 252.174C37.9531 251.256 35.9356 249.909 34.236 248.211C32.5364 246.512 31.1882 244.496 30.2683 242.276C29.3485 240.056 28.875 237.677 28.875 235.275V233.47C28.8855 231.357 29.7297 229.333 31.2241 227.838C32.7185 226.344 34.7423 225.5 36.8557 225.489Z" stroke="#141414" stroke-width="2" stroke-miterlimit="10"/>
<path d="M483.054 225.489H327.985C320.233 225.489 313.948 231.774 313.948 239.526C313.948 247.278 320.233 253.562 327.985 253.562H483.054C490.806 253.562 497.09 247.278 497.09 239.526C497.09 231.774 490.806 225.489 483.054 225.489Z" fill="#0E3964"/>
<path d="M478.695 237.173H462.707C461.408 237.173 460.354 238.226 460.354 239.526C460.354 240.825 461.408 241.878 462.707 241.878H478.695C479.995 241.878 481.048 240.825 481.048 239.526C481.048 238.226 479.995 237.173 478.695 237.173Z" fill="#141414"/>
<path d="M448.591 237.173H432.603C431.303 237.173 430.25 238.226 430.25 239.526C430.25 240.825 431.303 241.878 432.603 241.878H448.591C449.89 241.878 450.944 240.825 450.944 239.526C450.944 238.226 449.89 237.173 448.591 237.173Z" fill="#141414"/>
<path d="M483.054 225.489H327.985C320.233 225.489 313.948 231.774 313.948 239.526C313.948 247.278 320.233 253.562 327.985 253.562H483.054C490.806 253.562 497.09 247.278 497.09 239.526C497.09 231.774 490.806 225.489 483.054 225.489Z" stroke="#141414" stroke-width="2" stroke-miterlimit="10"/>
<path d="M87.4136 78.7882L88.5766 72.8662" stroke="white" stroke-linecap="round" stroke-linejoin="round"/>
<path d="M88.9508 71.4762C89.4233 71.4762 89.8063 71.0932 89.8063 70.6207C89.8063 70.1482 89.4233 69.7651 88.9508 69.7651C88.4783 69.7651 88.0952 70.1482 88.0952 70.6207C88.0952 71.0932 88.4783 71.4762 88.9508 71.4762Z" fill="white"/>
<path d="M144.375 79.9377L167.448 72.7724C170.091 71.9816 172.939 72.2634 175.376 73.5569C177.813 74.8504 179.642 77.0514 180.468 79.6837L186.083 97.8107" stroke="#141414" stroke-width="2" stroke-linecap="round" stroke-linejoin="round"/>
<path d="M119.537 87.6246L134.816 82.8789" stroke="#141414" stroke-width="2" stroke-linecap="round" stroke-linejoin="round"/>
<path d="M175.589 164.184L95.3808 189.062C92.7235 189.885 89.8481 189.619 87.3865 188.323C84.9249 187.027 83.0786 184.807 82.2534 182.15L61.8939 116.487C61.0706 113.829 61.3361 110.954 62.6321 108.492C63.9281 106.031 66.1485 104.184 68.8052 103.359L111.436 90.1382" stroke="#141414" stroke-width="2" stroke-linecap="round" stroke-linejoin="round"/>
</svg>
