<svg width="400" height="429" viewBox="0 0 400 429" fill="none" xmlns="http://www.w3.org/2000/svg">
<path d="M71.4409 331.838H50.7993V410.018H71.4409V331.838Z" fill="#F4CEAE"/>
<path d="M71.4403 331.838V410.018H61.3775C61.372 409.048 61.5891 408.089 62.0123 407.216C63.3075 404.563 64.2932 400.992 65.0517 397.53C68.0241 383.968 69.4639 369.194 70.3102 354.425C70.7437 346.917 71.0223 339.382 71.2029 331.838H71.4403Z" fill="#FFB594"/>
<path opacity="0.3" d="M218.248 84.5878C218.199 79.8287 217.172 75.1305 215.23 70.785C213.289 66.4396 210.475 62.5398 206.962 59.3277C203.072 55.8843 198.445 53.3765 193.436 51.9964C188.428 50.6163 183.169 50.4004 178.064 51.3652C175.495 45.2896 171.206 40.097 165.726 36.4257C160.245 32.7545 153.811 30.7645 147.215 30.7003C140.618 30.6362 134.147 32.5007 128.596 36.0647C123.045 39.6287 118.656 44.7369 115.969 50.7615C107.601 51.112 99.6588 54.5517 93.6782 60.416C87.6976 66.2803 84.1026 74.1531 83.5879 82.5133V82.792V83.0707C83.5879 83.1635 83.5879 83.2564 83.5879 83.3493C83.5879 83.4422 83.5879 83.5351 83.5879 83.628C83.5879 83.7209 83.5879 83.8138 83.5879 83.9066C83.5879 83.9995 83.5879 84.0924 83.5879 84.1853V84.7426C83.5879 84.8355 83.5879 84.9284 83.5879 85.0213C83.5879 85.1142 83.5879 85.2071 83.5879 85.2999C83.5879 85.3928 83.5879 85.4857 83.5879 85.5786C83.5879 85.6715 83.5879 85.7644 83.5879 85.8573V86.1359C83.5879 86.2288 83.5879 86.3217 83.5879 86.4146C83.5879 86.5075 83.5879 86.6004 83.5879 86.6933V86.9719C83.5879 87.0648 83.5879 87.1577 83.6137 87.2506C83.6395 87.3435 83.6137 87.4312 83.6137 87.5241C83.6137 87.617 83.6137 87.7099 83.6395 87.8027L83.6705 88.0814L83.7014 88.3601L83.7324 88.6336C83.7324 88.7265 83.7324 88.8193 83.7685 88.9122C83.8046 89.0051 83.7943 89.098 83.8046 89.1909C83.8149 89.2838 83.8304 89.3715 83.8459 89.4644C83.8614 89.5573 83.8459 89.6502 83.8872 89.7379L83.9336 90.0165L83.9801 90.29L84.0265 90.5635C84.0265 90.6564 84.0626 90.7493 84.0781 90.837C84.0936 90.9248 84.1142 91.0228 84.1349 91.1157C84.1555 91.2086 84.171 91.2963 84.1865 91.384C84.202 91.4718 84.2278 91.5698 84.2433 91.6576L84.3052 91.9311L84.3671 92.2046C84.3671 92.2923 84.4084 92.3852 84.4342 92.4729L84.4961 92.7464C84.5219 92.8341 84.5426 92.927 84.5684 93.0147C84.5942 93.1025 84.6148 93.1953 84.6354 93.2882L84.7129 93.5566C84.7129 93.6443 84.7593 93.7372 84.7851 93.8249L84.8625 94.0933C84.8625 94.181 84.9141 94.2687 84.9451 94.3616L85.0225 94.6248C85.0534 94.7177 85.0792 94.8054 85.1102 94.8931C85.1412 94.9808 85.167 95.0686 85.1928 95.1563C85.2186 95.244 85.2547 95.3369 85.2805 95.4246L85.3734 95.6878L85.4663 95.951L85.5592 96.2142C85.5901 96.3019 85.6262 96.3845 85.6572 96.4722L85.7553 96.7354C85.7862 96.8231 85.8223 96.9108 85.8585 96.9934L85.9565 97.2566L86.0649 97.5146L86.1732 97.7726L86.2816 98.0255L86.39 98.2835C86.4313 98.3661 86.4674 98.4538 86.5035 98.5363L86.6222 98.7944C86.6583 98.8769 86.6996 98.9595 86.7357 99.0472C86.7718 99.1349 86.8183 99.2123 86.8544 99.2949L86.9783 99.5478L87.1021 99.7955L87.226 100.048L87.355 100.296L87.484 100.544L87.6182 100.786C87.6594 100.869 87.7059 100.951 87.7523 101.034L87.8865 101.277L88.0258 101.519L88.1652 101.762L88.3045 101.999L88.449 102.242C88.4954 102.319 88.547 102.396 88.5935 102.479L88.7431 102.711C88.7896 102.794 88.8412 102.871 88.8928 102.948C88.9444 103.026 88.9908 103.103 89.0424 103.181L89.1972 103.418L89.352 103.645L89.5069 103.877L89.6668 104.104C89.7236 104.182 89.7752 104.259 89.832 104.331L89.9919 104.559L90.1571 104.786L90.3274 105.007C90.379 105.085 90.4357 105.157 90.4925 105.229L90.6628 105.451L90.7505 105.56C90.7741 105.597 90.8037 105.63 90.8382 105.658C90.8664 105.673 90.8924 105.692 90.9156 105.714L90.9982 105.818C91.0498 105.89 91.1066 105.957 91.1633 106.024L91.3285 106.23L91.4936 106.432L91.6639 106.633L91.8342 106.834L92.0096 107.03L92.1799 107.226C92.2419 107.294 92.2986 107.361 92.3606 107.423C92.4225 107.484 92.4741 107.557 92.536 107.619L92.7166 107.81C92.7734 107.877 92.8353 107.939 92.8921 108.001L93.0778 108.191L93.2585 108.382L93.4442 108.568L93.63 108.754L93.8209 108.935L94.0067 109.12C94.0738 109.177 94.1357 109.239 94.1976 109.301L94.3937 109.476L94.5847 109.657L94.7808 109.832L94.9769 110.008L95.1781 110.178C95.24 110.24 95.3071 110.297 95.3742 110.354L95.5755 110.524L95.7767 110.689L95.9831 110.859L96.1844 111.024L96.3908 111.184L96.5972 111.35L96.8088 111.51L97.0152 111.664L97.2268 111.824L97.4384 111.979L97.6551 112.134L97.8667 112.284L98.0834 112.433L98.3002 112.583L98.5169 112.733L98.7388 112.877L98.9607 113.022L99.1826 113.161L99.4045 113.3L99.6264 113.44L99.8534 113.574L100.075 113.713L100.302 113.842L100.535 113.976L100.762 114.105C100.839 114.147 100.916 114.188 100.989 114.234L101.221 114.358L101.453 114.482L101.685 114.606L101.923 114.724L102.155 114.843L102.392 114.962L102.63 115.075L102.867 115.189L103.104 115.302L103.342 115.411L103.584 115.519L103.822 115.622L104.064 115.726L104.307 115.829L104.549 115.932L104.792 116.03L105.04 116.123L105.282 116.216L105.53 116.309L105.778 116.402L106.025 116.489L106.273 116.577L106.521 116.66L106.774 116.742L107.021 116.825L107.274 116.902L107.527 116.98L107.775 117.052L108.027 117.124L108.286 117.196L108.538 117.263L108.791 117.33L109.044 117.392L109.302 117.454L109.56 117.516L109.813 117.573L110.071 117.63L110.329 117.687L110.587 117.738L110.845 117.785L111.103 117.831L111.361 117.877L111.619 117.924L111.882 117.965H112.063C115.279 118.361 118.52 118.52 121.759 118.44H132.978H187.941C189.311 118.476 190.681 118.404 192.039 118.223C193.294 118.005 194.523 117.659 195.708 117.191C198.378 116.193 200.914 114.867 203.257 113.243C207.505 110.258 211.043 106.372 213.618 101.863C216.193 97.3547 217.742 92.3336 218.155 87.1577C218.222 86.3011 218.253 85.4444 218.248 84.5878Z" fill="#CFD2E8"/>
<path opacity="0.3" d="M134.65 244.044C134.601 239.285 133.573 234.587 131.632 230.241C129.69 225.896 126.876 221.996 123.364 218.784C119.474 215.34 114.847 212.833 109.838 211.452C104.829 210.072 99.5712 209.856 94.4661 210.821C91.8967 204.746 87.6081 199.553 82.1274 195.882C76.6468 192.211 70.2129 190.221 63.6166 190.156C57.0203 190.092 50.5489 191.957 44.9979 195.521C39.447 199.085 35.0582 204.193 32.3711 210.218C24.0042 210.571 16.0649 214.011 10.0865 219.875C4.108 225.739 0.514517 233.611 0 241.969L0 242.248L0 242.527C0 242.62 0 242.712 0 242.805C0 242.898 0 242.991 0 243.084C0 243.177 0 243.27 0 243.363C0 243.456 0 243.548 0 243.641L0 244.199C0 244.292 0 244.384 0 244.477C0 244.57 0 244.663 0 244.756C0 244.849 0 244.942 0 245.035C0 245.128 0 245.22 0 245.313L0 245.592C0 245.685 0 245.778 0 245.871C0 245.964 0 246.056 0 246.149L0 246.428C0 246.521 0 246.614 0 246.707C0 246.8 0 246.887 0 246.98C0 247.073 0 247.166 0 247.259L0.0309623 247.537L0.0619247 247.816L0.092887 248.09C0.092887 248.182 0.118689 248.275 0.12901 248.368C0.139331 248.461 0.12901 248.554 0.165132 248.647C0.201255 248.74 0.190934 248.828 0.206416 248.92C0.221897 249.013 0.232218 249.106 0.247699 249.194L0.294142 249.473L0.340586 249.746L0.387029 250.02C0.387029 250.112 0.423152 250.205 0.438633 250.293C0.454114 250.381 0.474756 250.479 0.495397 250.572C0.516039 250.665 0.53152 250.752 0.547001 250.84C0.562482 250.928 0.588284 251.026 0.603766 251.114L0.66569 251.387L0.727615 251.661C0.727615 251.748 0.768898 251.841 0.7947 251.929L0.856625 252.202C0.882427 252.29 0.903068 252.383 0.92887 252.471C0.954672 252.559 0.975314 252.651 0.995955 252.744L1.07336 253.013C1.07336 253.1 1.1198 253.193 1.14561 253.281L1.22301 253.549C1.22301 253.637 1.27462 253.725 1.30558 253.818L1.38298 254.081C1.41395 254.174 1.43975 254.261 1.47071 254.349C1.50167 254.437 1.52748 254.525 1.55328 254.612C1.57908 254.7 1.6152 254.793 1.641 254.881L1.73389 255.144L1.82678 255.407L1.91966 255.67C1.95063 255.758 1.98675 255.841 2.01771 255.928L2.11576 256.191C2.14672 256.279 2.18284 256.367 2.21897 256.449L2.31701 256.713L2.42538 256.971L2.53375 257.229L2.64212 257.482L2.75049 257.74C2.79177 257.822 2.82789 257.91 2.86402 257.992L2.98271 258.25C3.01883 258.333 3.06011 258.416 3.09623 258.503C3.13236 258.591 3.1788 258.668 3.21492 258.751L3.33877 259.004L3.46262 259.252L3.58647 259.504L3.71548 259.752L3.84449 260L3.97866 260.242C4.01994 260.325 4.06639 260.407 4.11283 260.49L4.247 260.733L4.38633 260.975L4.52566 261.218L4.66499 261.455L4.80948 261.698C4.85593 261.775 4.90753 261.852 4.95397 261.935L5.10363 262.167C5.15007 262.25 5.20167 262.327 5.25328 262.405C5.30488 262.482 5.35132 262.559 5.40293 262.637L5.55774 262.874L5.71255 263.101L5.86736 263.333L6.02734 263.56C6.0841 263.638 6.1357 263.715 6.19247 263.788L6.35244 264.015L6.51757 264.242L6.68786 264.464C6.73947 264.541 6.79623 264.613 6.853 264.685L7.02329 264.907L7.11102 265.016C7.13461 265.053 7.16426 265.086 7.19874 265.114C7.22689 265.129 7.25291 265.148 7.27615 265.17L7.35872 265.274C7.41032 265.346 7.46708 265.413 7.52385 265.48L7.68898 265.687L7.85411 265.888L8.02441 266.089L8.1947 266.29L8.37015 266.486L8.54044 266.682C8.60237 266.75 8.65913 266.817 8.72106 266.879C8.78298 266.941 8.83459 267.013 8.89651 267.075L9.07712 267.266C9.13389 267.333 9.19581 267.395 9.25258 267.457L9.43835 267.647L9.74282 267.849L9.92859 268.035L10.1144 268.22L10.3053 268.401L10.4911 268.587C10.5582 268.643 10.6201 268.705 10.682 268.767L10.8781 268.943L11.069 269.123L11.2651 269.299L11.4612 269.474L11.6625 269.645C11.7244 269.706 11.7915 269.763 11.8586 269.82L12.0598 269.99L12.2611 270.155L12.4675 270.326L12.6688 270.491L12.8752 270.651L13.0816 270.816L13.2932 270.976L13.4996 271.131L13.7112 271.291L13.9227 271.446L14.1395 271.6L14.351 271.75L14.5678 271.9L14.7845 272.049L15.0013 272.199L15.2231 272.343L15.4192 272.493L15.6411 272.632L15.863 272.772L16.0849 272.911L16.312 273.045L16.5339 273.185L16.7609 273.314L16.9932 273.448L17.2202 273.577C17.2976 273.618 17.375 273.659 17.4473 273.706L17.6795 273.83L17.9117 273.953L18.1439 274.077L18.3813 274.196L18.6135 274.315L18.8509 274.433L19.0883 274.547L19.3257 274.66L19.563 274.774L19.8004 274.882L20.043 274.991L20.2803 275.094L20.5229 275.197L20.7654 275.3L21.0079 275.404L21.2505 275.502L21.4982 275.594L21.7407 275.687L21.9884 275.78L22.2361 275.873L22.4838 275.961L22.7315 276.049L22.9792 276.131L23.2321 276.214L23.4798 276.296L23.7326 276.374L23.9855 276.451L24.2332 276.523L24.486 276.596L24.7441 276.668L24.9969 276.735L25.2498 276.802L25.5026 276.864L25.7607 276.926L26.0187 276.988L26.2715 277.045L26.5296 277.101L26.7876 277.158L27.0456 277.21L27.3036 277.256L27.5616 277.303L27.8197 277.349L28.0777 277.395L28.3409 277.437L28.5215 277.463C31.7376 277.858 34.9785 278.017 38.2178 277.937H49.4365H104.4C105.769 277.974 107.139 277.901 108.497 277.721C109.752 277.503 110.982 277.157 112.166 276.688C114.819 275.673 117.336 274.333 119.659 272.7C123.907 269.714 127.445 265.828 130.02 261.32C132.595 256.811 134.144 251.79 134.557 246.614C134.624 245.757 134.655 244.9 134.65 244.044Z" fill="#CFD2E8"/>
<path opacity="0.3" d="M399.12 226.498C399.074 221.735 398.048 217.032 396.106 212.682C394.165 208.332 391.349 204.428 387.834 201.212C383.944 197.769 379.317 195.261 374.308 193.881C369.299 192.501 364.041 192.285 358.936 193.25C356.366 187.174 352.078 181.982 346.597 178.311C341.117 174.639 334.683 172.649 328.086 172.585C321.49 172.521 315.019 174.385 309.468 177.949C303.917 181.513 299.528 186.622 296.841 192.646C288.472 192.997 280.53 196.436 274.55 202.301C268.569 208.165 264.974 216.038 264.459 224.398V224.677V224.955C264.459 225.048 264.459 225.141 264.459 225.234C264.459 225.327 264.459 225.42 264.459 225.513C264.459 225.606 264.459 225.699 264.459 225.791C264.459 225.884 264.459 225.977 264.459 226.07V226.627C264.459 226.72 264.459 226.813 264.459 226.906C264.459 226.999 264.459 227.092 264.459 227.185C264.459 227.278 264.459 227.37 264.459 227.463C264.459 227.556 264.459 227.649 264.459 227.742V228.021C264.459 228.114 264.459 228.206 264.459 228.299C264.459 228.392 264.459 228.485 264.459 228.578V228.857C264.459 228.95 264.459 229.042 264.485 229.135C264.511 229.228 264.485 229.321 264.485 229.414C264.485 229.507 264.485 229.595 264.485 229.688L264.516 229.966L264.547 230.245L264.578 230.523C264.578 230.611 264.578 230.704 264.614 230.797C264.65 230.89 264.64 230.983 264.65 231.076C264.661 231.169 264.65 231.256 264.692 231.349C264.733 231.442 264.692 231.535 264.733 231.628L264.779 231.901L264.826 232.175L264.872 232.448C264.872 232.541 264.908 232.634 264.924 232.727C264.939 232.82 264.96 232.908 264.981 233C265.001 233.093 265.017 233.181 265.032 233.274C265.048 233.367 265.074 233.455 265.089 233.547L265.151 233.816L265.213 234.089C265.213 234.182 265.254 234.27 265.28 234.363L265.342 234.631L265.414 234.905C265.414 234.992 265.461 235.08 265.481 235.173L265.559 235.441C265.559 235.529 265.605 235.622 265.631 235.71L265.708 235.978C265.734 236.066 265.76 236.159 265.791 236.246L265.868 236.515L265.956 236.778C265.982 236.866 266.013 236.953 266.039 237.041C266.064 237.129 266.1 237.222 266.126 237.309L266.219 237.573L266.312 237.836L266.405 238.099L266.503 238.362C266.534 238.445 266.57 238.532 266.601 238.62C266.632 238.708 266.668 238.796 266.704 238.883C266.74 238.971 266.771 239.054 266.802 239.141L266.911 239.399L267.019 239.657L267.127 239.915L267.236 240.168L267.349 240.421L267.468 240.679C267.504 240.762 267.545 240.844 267.582 240.932C267.618 241.02 267.664 241.097 267.7 241.185L267.824 241.433L267.948 241.685L268.072 241.933L268.201 242.181L268.33 242.428C268.376 242.511 268.417 242.594 268.464 242.671C268.51 242.748 268.552 242.836 268.598 242.919C268.645 243.001 268.686 243.079 268.732 243.161L268.872 243.404L269.011 243.646L269.15 243.884L269.295 244.126C269.341 244.204 269.393 244.281 269.439 244.364L269.589 244.601C269.635 244.678 269.687 244.756 269.739 244.833L269.888 245.071L270.043 245.303L270.198 245.535L270.353 245.762L270.513 245.994C270.569 246.067 270.621 246.144 270.678 246.221L270.838 246.443C270.895 246.521 270.946 246.598 271.003 246.67L271.173 246.892C271.225 246.97 271.282 247.042 271.338 247.114L271.509 247.336L271.596 247.444C271.62 247.482 271.65 247.515 271.684 247.542L271.761 247.599L271.844 247.708L272.009 247.909C272.061 247.981 272.117 248.048 272.174 248.115L272.339 248.317L272.51 248.518L272.68 248.719L272.855 248.915L273.026 249.116C273.088 249.178 273.144 249.245 273.206 249.312C273.268 249.38 273.32 249.441 273.382 249.503C273.444 249.565 273.5 249.632 273.562 249.699C273.624 249.767 273.681 249.823 273.738 249.89L273.924 250.076L274.104 250.267L274.29 250.453L274.476 250.639L274.667 250.824L274.853 251.005L275.043 251.186L275.24 251.366L275.43 251.542L275.627 251.717L275.823 251.893L276.024 252.068L276.22 252.238L276.421 252.409L276.623 252.574L276.829 252.744L277.03 252.909L277.237 253.069L277.443 253.234L277.655 253.394L277.861 253.554L278.073 253.709L278.284 253.864L278.501 254.019L278.712 254.168L278.929 254.318L279.146 254.468L279.363 254.617L279.585 254.762L279.806 254.906L280.028 255.046L280.25 255.185L280.472 255.324L280.699 255.464L280.921 255.598L281.148 255.732L281.38 255.861L281.607 255.99L281.835 256.119L282.067 256.243L282.299 256.367L282.531 256.491L282.769 256.609L283.001 256.728L283.238 256.847L283.476 256.96L283.713 257.074L283.95 257.187L284.188 257.296L284.43 257.404L284.668 257.507L284.91 257.616L285.153 257.714L285.395 257.817L285.638 257.915L285.885 258.008L286.128 258.106L286.376 258.193L286.623 258.286L286.871 258.374L287.119 258.462L287.366 258.544L287.619 258.627L287.867 258.71L288.12 258.787L288.373 258.864L288.62 258.937L288.873 259.009L289.131 259.081L289.384 259.148L289.637 259.215L289.89 259.282L290.148 259.344L290.406 259.401L290.659 259.458L290.917 259.515L291.175 259.571L291.433 259.623L291.691 259.669L291.949 259.721L292.207 259.762L292.465 259.809L292.728 259.85H292.909C296.125 260.246 299.366 260.404 302.605 260.325H313.824H368.787C370.156 260.361 371.527 260.289 372.884 260.108C374.139 259.89 375.369 259.544 376.553 259.076C379.208 258.073 381.728 256.745 384.057 255.123C388.305 252.137 391.842 248.252 394.417 243.743C396.992 239.234 398.542 234.213 398.955 229.037C399.099 228.206 399.125 227.35 399.12 226.498Z" fill="#CFD2E8"/>
<path opacity="0.2" d="M395.25 358.605C395.204 353.841 394.178 349.138 392.237 344.788C390.295 340.438 387.479 336.534 383.964 333.319C380.073 329.875 375.447 327.368 370.438 325.988C365.429 324.607 360.171 324.392 355.066 325.356C352.496 319.281 348.208 314.088 342.727 310.417C337.246 306.746 330.813 304.756 324.216 304.692C317.62 304.627 311.149 306.492 305.598 310.056C300.047 313.62 295.658 318.728 292.971 324.753C284.602 325.103 276.66 328.543 270.68 334.407C264.699 340.272 261.104 348.144 260.589 356.505V356.783V357.062C260.589 357.155 260.589 357.248 260.589 357.341C260.589 357.433 260.589 357.526 260.589 357.619C260.589 357.712 260.589 357.805 260.589 357.898C260.589 357.991 260.589 358.084 260.589 358.177V358.734C260.589 358.827 260.589 358.92 260.589 359.012C260.589 359.105 260.589 359.198 260.589 359.291C260.589 359.384 260.589 359.477 260.589 359.57C260.589 359.663 260.589 359.756 260.589 359.848V360.127C260.589 360.22 260.589 360.313 260.589 360.406C260.589 360.499 260.589 360.592 260.589 360.684V360.963C260.589 361.056 260.589 361.149 260.615 361.242C260.641 361.335 260.615 361.422 260.615 361.515C260.615 361.608 260.615 361.701 260.641 361.794L260.672 362.073L260.703 362.351L260.734 362.625C260.734 362.718 260.76 362.811 260.77 362.903C260.78 362.996 260.796 363.089 260.806 363.182C260.816 363.275 260.832 363.363 260.847 363.456C260.863 363.548 260.873 363.641 260.889 363.729L260.935 364.008L260.982 364.281L261.028 364.555C261.028 364.648 261.064 364.741 261.08 364.828C261.095 364.916 261.116 365.014 261.136 365.107C261.157 365.2 261.172 365.288 261.188 365.375C261.203 365.463 261.229 365.561 261.245 365.649L261.307 365.922L261.369 366.196C261.369 366.283 261.41 366.376 261.436 366.464L261.498 366.738C261.498 366.825 261.544 366.918 261.57 367.006C261.596 367.094 261.616 367.187 261.637 367.279L261.714 367.548C261.714 367.636 261.761 367.728 261.787 367.816L261.864 368.084C261.89 368.172 261.916 368.26 261.947 368.353L262.024 368.616C262.055 368.709 262.081 368.797 262.112 368.884C262.143 368.972 262.168 369.06 262.194 369.147C262.22 369.235 262.256 369.328 262.282 369.416L262.375 369.679L262.468 369.942L262.561 370.205C262.592 370.293 262.628 370.376 262.659 370.463L262.757 370.727C262.788 370.814 262.824 370.902 262.86 370.985L262.958 371.248L263.066 371.506L263.175 371.764L263.283 372.017L263.391 372.275C263.433 372.357 263.469 372.445 263.505 372.528L263.624 372.786C263.66 372.868 263.701 372.951 263.737 373.038C263.773 373.126 263.82 373.204 263.856 373.286L263.98 373.539L264.104 373.787L264.227 374.04L264.356 374.287L264.485 374.535L264.62 374.777C264.661 374.86 264.707 374.943 264.754 375.025L264.888 375.268L265.027 375.51L265.167 375.753L265.306 375.99L265.45 376.233C265.497 376.31 265.548 376.388 265.595 376.47L265.745 376.702C265.791 376.785 265.843 376.862 265.894 376.94C265.946 377.017 265.992 377.094 266.044 377.172L266.199 377.409L266.354 377.636L266.508 377.869L266.668 378.096C266.725 378.173 266.777 378.25 266.833 378.323L266.993 378.55L267.159 378.777L267.329 378.999C267.38 379.076 267.437 379.148 267.494 379.221L267.664 379.442L267.752 379.551C267.776 379.588 267.805 379.621 267.84 379.649C267.868 379.664 267.894 379.683 267.917 379.706L268 379.809C268.051 379.881 268.108 379.948 268.165 380.015L268.33 380.222L268.495 380.423L268.665 380.624L268.836 380.825L269.011 381.022L269.181 381.218C269.243 381.285 269.3 381.352 269.362 381.414C269.424 381.476 269.476 381.548 269.537 381.61L269.718 381.801C269.775 381.868 269.837 381.93 269.894 381.992L270.079 382.183L270.26 382.374L270.446 382.559L270.631 382.745L270.822 382.926L271.008 383.112C271.075 383.168 271.137 383.23 271.199 383.292L271.395 383.468L271.586 383.648L271.782 383.824L271.978 383.999L272.18 384.169C272.242 384.231 272.309 384.288 272.376 384.345L272.577 384.515L272.778 384.68L272.985 384.851L273.186 385.016L273.392 385.176L273.599 385.341L273.81 385.501L274.017 385.656L274.228 385.816L274.44 385.97L274.657 386.125L274.868 386.275L275.085 386.424L275.302 386.574L275.518 386.724L275.74 386.868L275.962 387.013L276.184 387.152L276.406 387.291L276.628 387.431L276.855 387.565L277.077 387.704L277.304 387.833L277.536 387.967L277.763 388.096C277.841 388.138 277.918 388.179 277.99 388.225L278.222 388.349L278.455 388.473L278.687 388.597L278.924 388.716L279.156 388.834L279.394 388.953L279.631 389.067L279.869 389.18L280.106 389.294L280.343 389.402L280.586 389.51L280.823 389.614L281.066 389.717L281.308 389.82L281.551 389.923L281.793 390.021L282.041 390.114L282.284 390.207L282.531 390.3L282.779 390.393L283.027 390.481L283.274 390.568L283.522 390.651L283.775 390.733L284.023 390.816L284.276 390.893L284.528 390.971L284.776 391.043L285.029 391.115L285.287 391.188L285.54 391.255L285.793 391.322L286.046 391.384L286.304 391.446L286.562 391.507L286.814 391.564L287.072 391.621L287.33 391.678L287.589 391.729L287.847 391.776L288.105 391.822L288.363 391.869L288.621 391.915L288.884 391.956L289.064 391.982C292.281 392.378 295.521 392.537 298.761 392.457H309.979H364.943C366.312 392.493 367.682 392.421 369.04 392.24C370.295 392.022 371.525 391.676 372.709 391.208C375.38 390.21 377.915 388.884 380.259 387.26C384.507 384.275 388.044 380.389 390.62 375.881C393.195 371.372 394.744 366.351 395.157 361.175C395.224 360.318 395.255 359.461 395.25 358.605Z" fill="#CFD2E8"/>
<path opacity="0.2" d="M399.12 53.8839C399.07 49.1248 398.043 44.4266 396.102 40.0812C394.16 35.7357 391.346 31.8359 387.834 28.6238C383.944 25.1828 379.319 22.6769 374.312 21.2977C369.305 19.9185 364.049 19.7026 358.946 20.6665C356.377 14.5908 352.088 9.39827 346.607 5.727C341.127 2.05573 334.693 0.0657385 328.097 0.00160074C321.5 -0.062537 315.029 1.80198 309.478 5.36598C303.927 8.92999 299.538 14.0382 296.851 20.0627C288.482 20.4132 280.541 23.8529 274.56 29.7173C268.579 35.5816 264.984 43.4544 264.47 51.8146V52.0933V52.3719C264.47 52.4648 264.47 52.5577 264.47 52.6506C264.47 52.7435 264.47 52.8364 264.47 52.9292C264.47 53.0221 264.47 53.115 264.47 53.2079C264.47 53.3008 264.47 53.3937 264.47 53.4866V54.0439C264.47 54.1368 264.47 54.2297 264.47 54.3226C264.47 54.4154 264.47 54.5083 264.47 54.6012C264.47 54.6941 264.47 54.787 264.47 54.8799C264.47 54.9728 264.47 55.0657 264.47 55.1585V55.4372C264.47 55.5301 264.47 55.623 264.47 55.7159C264.47 55.8087 264.47 55.9016 264.47 55.9945V56.2732C264.47 56.3661 264.47 56.459 264.496 56.5518C264.521 56.6447 264.496 56.7325 264.496 56.8253C264.496 56.9182 264.496 57.0111 264.496 57.104L264.526 57.3827L264.557 57.6613L264.588 57.9348C264.588 58.0277 264.588 58.1206 264.625 58.2135C264.661 58.3064 264.65 58.3993 264.661 58.4922C264.671 58.585 264.661 58.6728 264.702 58.7657C264.743 58.8585 264.702 58.9514 264.743 59.0392L264.79 59.3178L264.836 59.5913L264.883 59.8648C264.883 59.9577 264.919 60.0506 264.934 60.1383C264.95 60.226 264.97 60.3241 264.991 60.417C265.012 60.5099 265.027 60.5976 265.043 60.6853C265.058 60.773 265.084 60.8711 265.099 60.9588L265.161 61.2323L265.223 61.5058C265.223 61.5935 265.264 61.6864 265.29 61.7742L265.352 62.0477C265.352 62.1354 265.399 62.2283 265.424 62.316C265.45 62.4037 265.471 62.4966 265.491 62.5895L265.569 62.8578C265.569 62.9456 265.615 63.0385 265.641 63.1262L265.719 63.3945C265.744 63.4823 265.77 63.57 265.801 63.6629L265.879 63.926C265.909 64.0189 265.935 64.1067 265.966 64.1944C265.997 64.2821 266.023 64.3698 266.049 64.4576C266.075 64.5453 266.111 64.6382 266.137 64.7259L266.229 64.9891L266.322 65.2523L266.415 65.5154C266.446 65.6032 266.482 65.6857 266.513 65.7735L266.611 66.0366C266.642 66.1244 266.678 66.2121 266.714 66.2947L266.813 66.5578L266.921 66.8159L267.029 67.0739L267.138 67.3267L267.246 67.5848C267.287 67.6673 267.323 67.7551 267.36 67.8376L267.478 68.0956C267.514 68.1782 267.556 68.2608 267.592 68.3485C267.628 68.4362 267.674 68.5136 267.71 68.5962L267.834 68.8491L267.958 69.0968L268.082 69.3496L268.211 69.5973L268.34 69.845L268.474 70.0875C268.515 70.1701 268.562 70.2527 268.608 70.3352L268.743 70.5778L268.882 70.8203L269.021 71.0629L269.161 71.3002L269.305 71.5428C269.351 71.6202 269.403 71.6976 269.45 71.7802L269.599 72.0124C269.646 72.0949 269.697 72.1723 269.749 72.2498C269.8 72.3272 269.847 72.4046 269.898 72.482L270.053 72.7193L270.208 72.9464L270.363 73.1786L270.523 73.4057C270.58 73.4831 270.631 73.5605 270.688 73.6327L270.848 73.8598L271.013 74.0869L271.183 74.3087C271.235 74.3861 271.292 74.4584 271.349 74.5306L271.519 74.7525L271.607 74.8609C271.63 74.8982 271.66 74.9314 271.694 74.959C271.722 74.9744 271.748 74.9935 271.772 75.0157L271.854 75.1189C271.906 75.1912 271.963 75.2583 272.019 75.3253L272.185 75.5318L272.35 75.733L272.52 75.9343L272.69 76.1355L272.866 76.3316L273.036 76.5277C273.098 76.5948 273.155 76.6619 273.217 76.7238C273.279 76.7857 273.33 76.858 273.392 76.9199L273.573 77.1108C273.629 77.1779 273.691 77.2398 273.748 77.3018L273.934 77.4927L274.114 77.6836L274.3 77.8694L274.486 78.0552L274.677 78.2358L274.863 78.4216C274.93 78.4783 274.992 78.5403 275.054 78.6022L275.25 78.7776L275.441 78.9583L275.637 79.1337L275.833 79.3092L276.034 79.4795C276.096 79.5414 276.163 79.5981 276.23 79.6549L276.432 79.8252L276.633 79.9903L276.839 80.1606L277.04 80.3258L277.247 80.4857L277.453 80.6509L277.665 80.8108L277.871 80.9657L278.083 81.1256L278.294 81.2804L278.511 81.4352L278.723 81.5849L278.939 81.7345L279.156 81.8842L279.373 82.0338L279.595 82.1783L279.817 82.3228L280.039 82.4622L280.261 82.6015L280.482 82.7408L280.709 82.875L280.931 83.0143L281.158 83.1433L281.391 83.2775L281.618 83.4065C281.695 83.4478 281.773 83.4891 281.845 83.5355L282.077 83.6594L282.309 83.7832L282.541 83.9071L282.779 84.0258L283.011 84.1444L283.248 84.2631L283.486 84.3767L283.723 84.4902L283.961 84.6037L284.198 84.7121L284.44 84.8205L284.678 84.9237L284.92 85.0269L285.163 85.1301L285.405 85.2333L285.648 85.3313L285.896 85.4242L286.138 85.5171L286.386 85.61L286.634 85.7029L286.881 85.7906L287.129 85.8783L287.377 85.9609L287.63 86.0435L287.877 86.126L288.13 86.2034L288.383 86.2808L288.631 86.3531L288.884 86.4253L289.142 86.4976L289.394 86.5647L289.647 86.6318L289.9 86.6937L290.158 86.7556L290.416 86.8175L290.669 86.8743L290.927 86.9311L291.185 86.9878L291.443 87.0394L291.701 87.0859L291.959 87.1323L292.217 87.1788L292.475 87.2252L292.738 87.2665H292.919C296.135 87.6622 299.376 87.8209 302.615 87.7412H313.834H368.797C370.167 87.7777 371.537 87.7052 372.895 87.5245C374.15 87.3065 375.379 86.9607 376.564 86.4924C379.218 85.4892 381.738 84.1615 384.067 82.5396C388.315 79.554 391.853 75.6684 394.428 71.1596C397.003 66.6508 398.552 61.6297 398.965 56.4538C399.099 55.5972 399.125 54.7251 399.12 53.8839Z" fill="#CFD2E8"/>
<path d="M322.183 30.729H180.376C169.66 30.729 160.973 39.4161 160.973 50.1321V359.652C160.973 370.368 169.66 379.055 180.376 379.055H322.183C332.899 379.055 341.586 370.368 341.586 359.652V50.1321C341.586 39.4161 332.899 30.729 322.183 30.729Z" fill="#516582"/>
<path opacity="0.3" d="M342.103 49.616V53.7443C342.104 51.196 341.602 48.6726 340.627 46.3182C339.652 43.9638 338.223 41.8246 336.421 40.0227C334.62 38.2208 332.48 36.7916 330.126 35.8168C327.771 34.8419 325.248 34.3405 322.7 34.3412H180.892C178.344 34.3405 175.821 34.8419 173.466 35.8168C171.112 36.7916 168.973 38.2208 167.171 40.0227C165.369 41.8246 163.94 43.9638 162.965 46.3182C161.99 48.6726 161.489 51.196 161.489 53.7443V49.616C161.489 47.0677 161.99 44.5443 162.965 42.1899C163.94 39.8355 165.369 37.6963 167.171 35.8944C168.973 34.0925 171.112 32.6633 173.466 31.6885C175.821 30.7136 178.344 30.2122 180.892 30.2129H322.7C325.248 30.2122 327.771 30.7136 330.126 31.6885C332.48 32.6633 334.62 34.0925 336.421 35.8944C338.223 37.6963 339.652 39.8355 340.627 42.1899C341.602 44.5443 342.104 47.0677 342.103 49.616Z" fill="#233449"/>
<path d="M321.322 39.4346H181.558C174.196 39.4346 168.229 45.4023 168.229 52.7639V356.628C168.229 363.99 174.196 369.958 181.558 369.958H321.322C328.683 369.958 334.651 363.99 334.651 356.628V52.7639C334.651 45.4023 328.683 39.4346 321.322 39.4346Z" fill="white"/>
<path d="M179.675 367.826C179.675 367.826 175.691 346.152 195.156 306.258C195.156 306.258 206.075 302.459 203.702 290.591L208.315 284.197L218.662 269.851L229.498 254.798C235.763 246.118 241.966 237.573 246.486 227.814C248.101 224.331 249.532 220.765 250.775 217.132C251.322 215.527 251.249 213.774 250.568 212.22L247.431 205.057L172.843 313.379L165.721 356.091L166.237 359.869C166.237 359.869 177.776 367.351 179.675 367.826Z" fill="#CFD2E8"/>
<path d="M322.349 380.665H180.552C174.93 380.66 169.539 378.424 165.563 374.449C161.586 370.474 159.35 365.084 159.343 359.461V49.9358C159.35 44.3128 161.586 38.9222 165.562 34.9461C169.538 30.9701 174.929 28.7334 180.552 28.7266H322.349C327.972 28.7334 333.362 30.9703 337.337 34.9464C341.312 38.9226 343.548 44.3133 343.553 49.9358V359.461C343.548 365.083 341.312 370.473 337.337 374.449C333.361 378.424 327.971 380.66 322.349 380.665ZM180.552 32.3388C175.887 32.3443 171.414 34.2 168.115 37.4989C164.816 40.7978 162.961 45.2704 162.955 49.9358V359.461C162.961 364.126 164.816 368.598 168.115 371.896C171.414 375.194 175.887 377.049 180.552 377.053H322.349C327.013 377.047 331.484 375.192 334.782 371.894C338.08 368.596 339.935 364.125 339.941 359.461V49.9358C339.937 45.2709 338.082 40.7982 334.784 37.4992C331.486 34.2002 327.014 32.3443 322.349 32.3388H180.552Z" fill="#1B3C47"/>
<path d="M334.135 51.3453V358.048C334.136 359.799 333.791 361.532 333.122 363.15C332.452 364.767 331.47 366.237 330.232 367.475C328.994 368.713 327.525 369.694 325.907 370.364C324.29 371.034 322.556 371.378 320.806 371.377H181.067C178.595 371.379 176.171 370.692 174.067 369.393C171.964 368.094 170.264 366.235 169.157 364.024C171.01 364.96 173.057 365.446 175.133 365.443H314.871C316.622 365.443 318.355 365.099 319.973 364.43C321.59 363.76 323.06 362.778 324.298 361.54C325.536 360.302 326.518 358.833 327.187 357.215C327.857 355.598 328.201 353.864 328.2 352.113V45.4367C328.203 43.3609 327.717 41.3137 326.781 39.4609C328.988 40.5653 330.845 42.2615 332.144 44.3602C333.442 46.4589 334.132 48.8774 334.135 51.3453Z" fill="#CFD2E8"/>
<path d="M320.615 371.248H182.265C178.386 371.243 174.668 369.698 171.928 366.953C169.188 364.208 167.65 360.487 167.651 356.608V52.7644C167.655 48.8892 169.196 45.1739 171.935 42.4333C174.675 39.6927 178.39 38.1505 182.265 38.145H320.615C324.491 38.1491 328.207 39.6907 330.948 42.4315C333.689 45.1722 335.23 48.8884 335.235 52.7644V356.608C335.236 360.488 333.697 364.209 330.955 366.954C328.214 369.7 324.495 371.244 320.615 371.248ZM182.265 40.7252C179.074 40.7293 176.015 41.9992 173.758 44.2562C171.502 46.5133 170.234 49.5731 170.231 52.7644V356.608C170.234 359.799 171.502 362.859 173.758 365.116C176.015 367.373 179.074 368.643 182.265 368.647H320.615C323.807 368.643 326.867 367.374 329.124 365.117C331.381 362.86 332.65 359.8 332.654 356.608V52.7644C332.65 49.5727 331.381 46.5128 329.124 44.2559C326.867 41.999 323.807 40.7293 320.615 40.7252H182.265Z" fill="#1B3C47"/>
<path d="M200.192 40.0181H303.4C303.4 45.7663 301.117 51.279 297.052 55.3436C292.988 59.4082 287.475 61.6917 281.727 61.6917H221.866C216.118 61.6917 210.605 59.4082 206.54 55.3436C202.476 51.279 200.192 45.7663 200.192 40.0181Z" fill="#516582"/>
<path opacity="0.3" d="M204.32 53.2856C204.878 54.0128 205.483 54.7023 206.132 55.3498C208.142 57.3653 210.531 58.9636 213.161 60.0529C215.792 61.1422 218.611 61.7009 221.458 61.6971H281.318C287.067 61.6971 292.579 59.4136 296.644 55.349C300.709 51.2844 302.992 45.7716 302.992 40.0234H298.776C297.868 45.0182 295.236 49.5359 291.338 52.7886C287.441 56.0412 282.525 57.8225 277.448 57.8216H217.588C212.783 57.8297 208.114 56.2333 204.32 53.2856Z" fill="#213144"/>
<path d="M281.371 62.724H221.51C215.422 62.7172 209.585 60.2956 205.28 55.9906C200.975 51.6855 198.553 45.8486 198.546 39.7603V38.4702H304.334V39.7603C304.328 45.8486 301.906 51.6855 297.601 55.9906C293.296 60.2956 287.459 62.7172 281.371 62.724ZM201.194 41.0504C201.528 46.2205 203.815 51.07 207.593 54.6157C211.371 58.1613 216.355 60.1376 221.536 60.1439H281.396C286.577 60.1376 291.562 58.1613 295.339 54.6157C299.117 51.07 301.405 46.2205 301.739 41.0504H201.194Z" fill="#1B3C47"/>
<path d="M263.309 50.339H232.863C232.521 50.339 232.193 50.2031 231.951 49.9611C231.709 49.7192 231.573 49.391 231.573 49.0489C231.573 48.7067 231.709 48.3786 231.951 48.1366C232.193 47.8947 232.521 47.7588 232.863 47.7588H263.309C263.651 47.7588 263.979 47.8947 264.221 48.1366C264.463 48.3786 264.599 48.7067 264.599 49.0489C264.599 49.391 264.463 49.7192 264.221 49.9611C263.979 50.2031 263.651 50.339 263.309 50.339Z" fill="#1B3C47"/>
<path d="M268.474 50.3384C268.39 50.3462 268.306 50.3462 268.221 50.3384C268.138 50.3222 268.057 50.298 267.979 50.2661C267.902 50.2328 267.827 50.1931 267.757 50.1474C267.686 50.1011 267.62 50.0475 267.561 49.9875C267.44 49.868 267.344 49.7257 267.279 49.5689C267.213 49.4122 267.18 49.244 267.18 49.0741C267.18 48.9042 267.213 48.736 267.279 48.5792C267.344 48.4224 267.44 48.2802 267.561 48.1607C267.62 48.1006 267.686 48.047 267.757 48.0007C267.826 47.9531 267.901 47.9133 267.979 47.882C268.057 47.8502 268.138 47.826 268.221 47.8098C268.493 47.7566 268.774 47.7919 269.023 47.9105C269.273 48.0292 269.478 48.2249 269.608 48.4688C269.738 48.7127 269.786 48.9919 269.746 49.2653C269.705 49.5387 269.578 49.7919 269.382 49.9875C269.323 50.0475 269.257 50.1011 269.186 50.1474C269.116 50.1931 269.042 50.2328 268.965 50.2661C268.886 50.298 268.805 50.3222 268.722 50.3384C268.64 50.346 268.557 50.346 268.474 50.3384Z" fill="#1B3C47"/>
<path d="M83.8257 270.429C76.4979 270.945 68.7831 271.978 61.925 274.702C40.3133 283.299 45.8039 309.746 43.0586 329.258L70.9247 326.162L72.8702 421.386C72.9025 422.964 73.5506 424.466 74.6759 425.572C75.8012 426.678 77.3145 427.3 78.8923 427.305H165.509C167.112 427.305 168.649 426.669 169.782 425.535C170.916 424.402 171.552 422.865 171.552 421.262V405.632C171.552 331.322 192.194 298.997 192.194 298.997V270.171L83.8257 270.429Z" fill="white"/>
<path d="M192.72 269.139V297.965C192.72 297.965 172.078 330.29 172.078 404.599V420.23C172.078 421.025 171.922 421.811 171.617 422.545C171.313 423.279 170.867 423.945 170.305 424.507C169.742 425.068 169.075 425.513 168.341 425.816C167.606 426.119 166.819 426.274 166.025 426.273H79.4079C78.1681 426.274 76.958 425.894 75.9423 425.183C74.9266 424.472 74.1546 423.465 73.7314 422.3C74.3932 422.539 75.0918 422.662 75.7956 422.661H162.413C164.015 422.661 165.552 422.024 166.686 420.891C167.819 419.758 168.456 418.221 168.456 416.618V400.987C168.456 326.678 189.097 294.353 189.097 294.353V269.149L192.72 269.139Z" fill="#CFD2E8"/>
<path d="M169.715 270.13C158.584 283.149 142.365 291.587 124.303 291.587C105.865 291.587 118.828 279.047 107.713 265.728C107.713 265.728 102.666 270.176 104.73 263.395C107.367 254.726 139.562 253.405 139.562 253.405C139.562 253.405 153.784 275.713 169.715 270.13Z" fill="#CFD2E8"/>
<path d="M164.384 428.079H78.9898C76.9145 428.068 74.9251 427.249 73.4428 425.797C71.9605 424.344 71.1016 422.372 71.048 420.297L69.149 327.085L41.0352 330.207L41.2622 328.561C41.8969 324.056 42.0827 319.272 42.2943 314.153C42.9445 297.305 43.6154 279.883 60.9491 272.989C66.8681 270.631 73.9533 269.248 83.2368 268.628H83.2936C83.7838 268.628 95.3792 268.112 98.2587 254.974C98.295 254.808 98.3635 254.651 98.4604 254.512C98.5573 254.373 98.6807 254.254 98.8235 254.163C98.9663 254.071 99.1257 254.009 99.2927 253.979C99.4596 253.949 99.6308 253.952 99.7965 253.988C99.9622 254.025 100.119 254.093 100.258 254.19C100.398 254.287 100.516 254.41 100.608 254.553C100.699 254.696 100.762 254.855 100.792 255.022C100.822 255.189 100.818 255.36 100.782 255.526C97.5621 270.254 84.2689 271.162 83.4123 271.209C74.4074 271.807 67.575 273.139 61.9141 275.388C46.1388 281.664 45.5041 298.234 44.8848 314.262C44.7145 318.617 44.5442 323.101 44.054 327.281L71.6672 324.206L73.6282 420.246C73.6656 421.646 74.2459 422.977 75.2464 423.957C76.2468 424.937 77.5892 425.49 78.9898 425.499H164.384C165.806 425.498 167.168 424.932 168.174 423.927C169.179 422.922 169.744 421.559 169.746 420.137V405.116C169.746 366.573 175.391 339.496 180.128 323.581C185.289 306.237 190.387 298.141 190.604 297.779C190.794 297.506 191.083 297.317 191.41 297.252C191.737 297.187 192.076 297.25 192.357 297.43C192.638 297.609 192.838 297.89 192.917 298.214C192.995 298.538 192.944 298.88 192.776 299.168C192.575 299.488 172.326 332.127 172.326 405.105V420.127C172.326 421.171 172.122 422.204 171.723 423.169C171.324 424.133 170.739 425.01 170.002 425.748C169.264 426.486 168.389 427.072 167.425 427.472C166.461 427.872 165.428 428.079 164.384 428.079Z" fill="#1B3C47"/>
<path d="M169.406 272.607C156.107 272.607 145.446 261.125 145.312 260.976C145.081 260.723 144.961 260.388 144.977 260.046C144.992 259.704 145.144 259.382 145.397 259.152C145.65 258.921 145.985 258.8 146.327 258.816C146.669 258.832 146.99 258.984 147.221 259.237C147.371 259.407 162.764 275.946 178.699 267.736C179.001 267.596 179.346 267.577 179.661 267.685C179.976 267.793 180.237 268.019 180.39 268.314C180.542 268.61 180.575 268.954 180.48 269.273C180.385 269.592 180.171 269.862 179.881 270.027C176.648 271.719 173.054 272.604 169.406 272.607Z" fill="#1B3C47"/>
<path d="M159.033 111.969C149.39 104.011 137.551 99.1816 125.093 98.1238C124.428 98.0619 123.752 98.0051 123.076 97.9638C122.224 97.9122 121.362 97.8761 120.495 97.8555C119.979 97.8555 119.463 97.8555 118.916 97.8555C118.369 97.8555 117.858 97.8555 117.337 97.8555C116.816 97.8555 116.403 97.8555 115.939 97.9019H115.51C115.041 97.9019 114.571 97.9535 114.102 97.9845H113.89C113.426 98.0206 112.961 98.0567 112.497 98.1032H112.363C112.022 98.1341 111.681 98.1703 111.331 98.2115C110.691 98.2838 110.056 98.3612 109.426 98.4489L108.988 98.516C108.637 98.5676 108.286 98.6192 107.956 98.6811L107.3 98.7895L106.237 98.9856L105.685 99.094C105.37 99.1559 105.061 99.2178 104.751 99.2901L103.946 99.4707C103.678 99.5274 103.43 99.5894 103.146 99.6616L102.496 99.8216C102.377 99.8474 102.253 99.8783 102.135 99.9145C80.5695 105.544 64.1646 121.836 57.1877 142.152C57.1413 142.281 57.0948 142.41 57.0587 142.539C55.5287 147.103 54.4907 151.817 53.9625 156.601C53.0971 164.325 53.5437 172.14 55.2835 179.715C55.3506 180.03 55.428 180.339 55.5054 180.654C55.6035 181.077 55.7119 181.505 55.8254 181.929C55.9596 182.445 56.0989 182.961 56.2434 183.477L58.4211 193.539L59.03 196.316L60.8619 204.66L62.2191 204.619L63.2512 204.583L67.8955 204.438L112.208 203.055H112.45L125 202.663L176.419 201.058L179.639 186.774L180.248 184.075L180.965 180.891C181.047 180.52 181.13 180.143 181.207 179.771C181.379 178.966 181.534 178.161 181.672 177.356C184.252 162.649 184.943 147.209 179.458 134.778C175.392 125.484 166.727 118.337 159.033 111.969ZM107.723 188.08L107.61 188.126C107.777 187.042 107.86 185.946 107.858 184.849C107.866 183.133 107.655 181.423 107.228 179.761C107.04 179.034 106.801 178.322 106.511 177.63C107.695 177.808 108.787 178.37 109.619 179.231C110.452 180.091 110.977 181.202 111.115 182.391C111.253 183.58 110.996 184.782 110.383 185.81C109.77 186.838 108.835 187.636 107.723 188.08Z" fill="#B0D7E9"/>
<path d="M65.4751 215.626L57.3269 192.27C57.2391 192.028 57.1462 191.754 57.0585 191.512L56.9502 191.213C55.9373 188.283 55.0761 185.303 54.37 182.285C54.2719 181.867 54.1739 181.449 54.0861 181.021C54.0139 180.716 53.9416 180.391 53.8797 180.061C52.0911 171.658 51.73 163.014 52.8115 154.491V154.393C53.3556 150.233 54.278 146.13 55.5672 142.137C55.6136 141.982 55.6652 141.828 55.722 141.678C59.143 131.194 65.1487 121.741 73.1852 114.19C81.2217 106.639 91.0302 101.232 101.706 98.4701C101.847 98.4288 101.987 98.3926 102.124 98.3617L102.78 98.2017C103.027 98.1346 103.321 98.0675 103.616 98.0056L104.421 97.8198C104.715 97.7528 105.04 97.6857 105.375 97.6238L105.933 97.5102L107.027 97.309L107.248 97.2728L107.723 97.1954C108.033 97.1387 108.399 97.0871 108.755 97.0303H108.936L109.204 96.989C109.844 96.9013 110.494 96.8187 111.145 96.7465C111.485 96.7052 111.841 96.6639 112.177 96.633H112.347L113.725 96.5194H113.941C114.458 96.4833 114.917 96.4523 115.397 96.4317H115.841C116.3 96.4317 116.775 96.3956 117.26 96.3853C118.323 96.3853 119.417 96.3853 120.48 96.3853C121.367 96.3853 122.255 96.442 123.122 96.4988C142.948 97.7476 160.751 108.368 171.98 125.64C172.873 127.007 174.437 128.039 176.109 129.128C178.348 130.599 180.665 132.121 181.754 134.742C186.688 146.611 185.366 162.366 183.209 177.646C183.111 178.379 182.988 179.194 182.828 180.107C182.606 181.367 182.363 182.6 182.095 183.782L181.584 202.431L179.865 202.633L65.4751 215.626ZM55.9026 154.698V154.801C54.8557 163.016 55.2047 171.348 56.9347 179.447C56.9966 179.762 57.0585 180.056 57.1256 180.355C57.2185 180.778 57.3062 181.176 57.4043 181.578C58.0904 184.491 58.9275 187.365 59.9122 190.191L60.0154 190.485L60.2786 191.233L67.5909 212.272L178.539 199.665L179.019 183.307L179.055 183.157C179.318 181.986 179.571 180.752 179.783 179.498C179.938 178.616 180.056 177.842 180.154 177.14C182.25 162.283 183.55 147.009 178.906 135.857C178.183 134.113 176.356 132.916 174.421 131.641C172.569 130.423 170.649 129.169 169.411 127.26C158.574 110.576 142.06 100.725 122.967 99.5176C122.141 99.4712 121.29 99.435 120.449 99.4144C119.417 99.4144 118.385 99.4144 117.353 99.4144C116.898 99.4144 116.444 99.4299 115.99 99.4608H115.608L114.189 99.5434H113.993C113.539 99.5795 113.09 99.6157 112.636 99.6621H112.486C112.161 99.6931 111.841 99.724 111.521 99.7653C110.876 99.8376 110.257 99.915 109.638 99.9975L109.204 100.065L108.213 100.219L107.77 100.292L107.537 100.333C107.202 100.39 106.856 100.457 106.505 100.524L105.964 100.627C105.664 100.689 105.37 100.746 105.081 100.813L104.271 100.993C104.003 101.05 103.755 101.107 103.523 101.174L102.862 101.334H102.805C102.723 101.349 102.642 101.37 102.563 101.396H102.496C92.3097 104.029 82.9513 109.187 75.285 116.392C67.6187 123.598 61.8915 132.619 58.6324 142.622C58.586 142.757 58.5499 142.849 58.5241 142.942V142.999C57.2992 146.812 56.4218 150.727 55.9026 154.698ZM105.613 190.681L106.082 187.884C106.235 186.88 106.311 185.866 106.309 184.85C106.317 183.266 106.123 181.688 105.731 180.154C105.562 179.499 105.347 178.858 105.086 178.234L104.008 175.695L106.738 176.098C108.26 176.32 109.667 177.037 110.74 178.139C111.814 179.241 112.494 180.666 112.676 182.194C112.858 183.721 112.532 185.266 111.748 186.59C110.963 187.913 109.765 188.941 108.337 189.515L108.193 189.577L105.613 190.681ZM109.096 181.088C109.274 182.146 109.376 183.215 109.4 184.287C109.537 183.88 109.607 183.453 109.607 183.023C109.608 182.344 109.432 181.677 109.096 181.088Z" fill="#1B3C47"/>
<path d="M92.1333 267.23L92.381 266.941C92.3053 267.137 92.2331 267.333 92.1643 267.529C92.1385 267.333 92.1333 267.23 92.1333 267.23Z" fill="#C0E5F2"/>
<path d="M65.15 171.593C64.8078 171.593 64.4797 171.457 64.2377 171.215C63.9958 170.973 63.8599 170.645 63.8599 170.303V154.837C63.8599 154.495 63.9958 154.167 64.2377 153.925C64.4797 153.683 64.8078 153.547 65.15 153.547C65.4921 153.547 65.8203 153.683 66.0622 153.925C66.3041 154.167 66.4401 154.495 66.4401 154.837V170.318C66.436 170.658 66.2983 170.982 66.0568 171.22C65.8153 171.459 65.4895 171.593 65.15 171.593Z" fill="#1B3C47"/>
<path d="M65.15 149.057C64.8078 149.057 64.4797 148.921 64.2377 148.679C63.9958 148.437 63.8599 148.109 63.8599 147.767V141.982C63.8599 141.64 63.9958 141.312 64.2377 141.07C64.4797 140.828 64.8078 140.692 65.15 140.692C65.4921 140.692 65.8203 140.828 66.0622 141.07C66.3041 141.312 66.4401 141.64 66.4401 141.982V147.767C66.4401 148.109 66.3041 148.437 66.0622 148.679C65.8203 148.921 65.4921 149.057 65.15 149.057Z" fill="#1B3C47"/>
<path d="M126.837 128.782C133.787 130.27 140.313 133.303 145.93 137.658C147.509 138.875 149.052 136.187 147.478 134.985C141.632 130.478 134.85 127.338 127.632 125.794C125.686 125.381 124.86 128.374 126.806 128.782H126.837Z" fill="white"/>
<path d="M195.212 190.598V194.391C195.212 197.265 194.071 200.021 192.038 202.054C190.006 204.086 187.25 205.228 184.376 205.228H52.058C51.9566 205.233 51.855 205.233 51.7536 205.228C49.7049 205.179 47.7134 204.543 46.0152 203.396C44.5383 202.404 43.3284 201.063 42.4923 199.493C41.6562 197.922 41.2197 196.17 41.2212 194.391V190.598C41.2212 187.724 42.3629 184.968 44.3952 182.935C46.4275 180.903 49.1839 179.761 52.058 179.761H107.228C107.654 181.423 107.866 183.133 107.857 184.849C107.86 185.946 107.777 187.042 107.61 188.126L107.723 188.08C108.5 187.771 109.195 187.287 109.754 186.666C110.314 186.046 110.723 185.304 110.95 184.5C111.177 183.696 111.216 182.85 111.064 182.028C110.911 181.206 110.572 180.431 110.071 179.761H184.381C187.254 179.763 190.009 180.905 192.04 182.937C194.071 184.969 195.212 187.725 195.212 190.598Z" fill="#F4CEAE"/>
<path opacity="0.5" d="M194 193.209C194.002 194.881 193.673 196.538 193.034 198.083C192.395 199.628 191.457 201.032 190.274 202.214C189.793 202.694 189.275 203.136 188.726 203.535C189.233 201.004 189.235 198.397 188.731 195.865C188.226 193.334 187.225 190.927 185.786 188.783C184.347 186.64 182.498 184.803 180.346 183.377C178.193 181.952 175.78 180.967 173.245 180.479H181.285C184.658 180.483 187.892 181.826 190.276 184.213C192.661 186.6 194 189.835 194 193.209Z" fill="#CC6F65"/>
<path d="M52.7552 184.349C49.88 187.219 48.2442 191.102 48.1989 195.164C48.1536 199.227 49.7022 203.145 52.5126 206.079C49.2835 205.709 46.318 204.119 44.2239 201.633C42.1299 199.147 41.0659 195.955 41.2499 192.71C41.434 189.465 42.8523 186.413 45.2141 184.18C47.5758 181.947 50.7022 180.702 53.9524 180.7H58.4935C56.3354 181.479 54.376 182.725 52.7552 184.349Z" fill="#FCDFCA"/>
<path d="M182.481 206.776H53.9516C53.053 206.775 52.1564 206.69 51.2734 206.523C48.1035 205.905 45.2345 204.237 43.1296 201.787C41.0248 199.338 39.807 196.25 39.6729 193.024C39.6729 192.848 39.6729 192.668 39.6729 192.508C39.6742 188.72 41.1796 185.087 43.858 182.409C46.5365 179.73 50.1689 178.225 53.9568 178.224H182.481C186.268 178.229 189.897 179.736 192.574 182.414C195.251 185.091 196.756 188.721 196.76 192.508C196.758 196.294 195.252 199.924 192.575 202.601C189.898 205.278 186.268 206.784 182.481 206.786V206.776ZM53.9516 181.31C52.482 181.31 51.0269 181.6 49.6695 182.164C48.3121 182.727 47.0789 183.552 46.0404 184.592C45.002 185.632 44.1785 186.866 43.6172 188.224C43.0559 189.582 42.7677 191.038 42.7691 192.508C42.7691 192.647 42.7691 192.786 42.7691 192.926C42.8746 195.451 43.8283 197.867 45.4763 199.784C47.1242 201.701 49.3702 203.006 51.8514 203.489C52.5417 203.623 53.2433 203.69 53.9465 203.69H182.481C185.406 203.627 188.19 202.421 190.237 200.331C192.283 198.24 193.429 195.431 193.429 192.505C193.429 189.579 192.283 186.77 190.237 184.68C188.19 182.589 185.406 181.383 182.481 181.32H112.491C112.903 182.956 112.709 184.686 111.945 186.191C111.182 187.696 109.9 188.875 108.337 189.509L108.193 189.571L105.612 190.691L106.082 187.894C106.235 186.89 106.311 185.876 106.309 184.86C106.312 183.673 106.205 182.487 105.989 181.32L53.9516 181.31ZM109.096 181.088C109.274 182.145 109.376 183.215 109.4 184.287C109.537 183.88 109.607 183.453 109.606 183.023C109.608 182.344 109.432 181.677 109.096 181.088Z" fill="#1B3C47"/>
<path d="M162.526 126.522C156.903 120.884 150.221 116.413 142.865 113.366C135.508 110.318 127.622 108.755 119.659 108.765H119.36C103.33 108.836 87.9825 115.255 76.6761 126.618C65.3698 137.98 59.0263 153.36 59.0347 169.389V211.828C59.0561 226.031 63.9322 239.8 72.8542 250.851L72.88 250.882C84.0006 264.691 100.829 273.665 119.659 273.665C153.145 273.665 180.288 244.705 180.288 211.224V169.394C180.298 161.43 178.733 153.543 175.685 146.185C172.637 138.828 168.165 132.145 162.526 126.522ZM111.155 182.656C111.154 183.746 110.827 184.81 110.215 185.712C109.604 186.613 108.735 187.311 107.723 187.714L107.609 187.76C107.777 186.676 107.86 185.58 107.857 184.483C107.866 182.767 107.654 181.057 107.228 179.395C107.04 178.668 106.8 177.956 106.51 177.264C107.802 177.458 108.981 178.109 109.833 179.098C110.685 180.088 111.154 181.35 111.155 182.656Z" fill="#F4CEAE"/>
<path opacity="0.5" d="M180.139 170.178V212.014C180.139 245.5 153.001 274.454 119.515 274.454C118.194 274.454 116.88 274.411 115.572 274.325C147.221 272.297 172.259 244.173 172.259 212.009V170.178C172.258 154.782 166.399 139.962 155.872 128.726C145.344 117.49 130.937 110.68 115.572 109.678C116.876 109.595 118.19 109.554 119.515 109.554C135.593 109.554 151.013 115.941 162.383 127.311C173.752 138.68 180.139 154.1 180.139 170.178Z" fill="#CC6F65"/>
<path d="M111.474 273.871C110.262 273.985 109.039 272.488 107.811 272.488C80.8166 272.488 58.9365 242.202 58.9365 209.567V168.8C58.9365 136.166 80.8166 109.714 107.811 109.714C109.039 109.714 110.262 109.765 111.474 109.879C86.1885 112.139 62.5488 136.625 62.5488 167.768L62.8068 213.985C62.8068 245.143 86.1989 271.611 111.474 273.871Z" fill="#FCEADE"/>
<path d="M69.6549 250.732C69.4084 250.732 69.1656 250.673 68.9466 250.56C68.7276 250.446 68.5387 250.283 68.3958 250.082C67.3637 248.658 66.4142 247.171 65.5214 245.67C65.4135 245.495 65.3416 245.3 65.3097 245.097C65.2779 244.894 65.2868 244.687 65.3359 244.487C65.3851 244.287 65.4735 244.1 65.596 243.935C65.7185 243.769 65.8727 243.63 66.0495 243.526C66.2263 243.421 66.4222 243.352 66.6258 243.324C66.8294 243.296 67.0366 243.308 67.2353 243.361C67.434 243.413 67.6203 243.505 67.7832 243.63C67.9461 243.756 68.0824 243.912 68.1842 244.091C69.0305 245.52 69.949 246.929 70.914 248.281C71.0325 248.447 71.1172 248.634 71.1632 248.832C71.2092 249.031 71.2156 249.236 71.182 249.437C71.1485 249.638 71.0756 249.83 70.9677 250.003C70.8597 250.175 70.7187 250.325 70.5528 250.443C70.2909 250.631 69.977 250.732 69.6549 250.732Z" fill="#1B3C47"/>
<path d="M62.8483 238.352C62.5403 238.353 62.2393 238.261 61.9837 238.089C61.7282 237.917 61.5297 237.673 61.4137 237.387C58.4083 229.962 56.8663 222.026 56.8726 214.016V169.761C56.876 155.196 61.9894 141.094 71.3217 129.912C73.6063 127.17 76.1255 124.631 78.8507 122.326L79.0158 122.187C90.2246 112.757 104.402 107.585 119.05 107.583H119.396C135.826 107.673 151.553 114.264 163.138 125.915C174.724 137.566 181.225 153.33 181.222 169.761V214.016C181.227 218.737 180.694 223.442 179.633 228.042C179.528 228.429 179.277 228.761 178.933 228.967C178.589 229.172 178.178 229.237 177.788 229.146C177.397 229.055 177.057 228.816 176.839 228.479C176.621 228.142 176.542 227.734 176.619 227.34C177.625 222.97 178.13 218.5 178.126 214.016V169.761C178.129 154.143 171.947 139.161 160.932 128.09C149.917 117.019 134.966 110.761 119.349 110.684H119.05C105.111 110.69 91.6227 115.625 80.9716 124.617L80.8839 124.69C78.2849 126.884 75.883 129.301 73.7058 131.914C64.8351 142.539 59.9737 155.94 59.9688 169.781V214.037C59.971 221.641 61.4357 229.175 64.2829 236.226C64.3785 236.461 64.4148 236.716 64.3887 236.969C64.3626 237.221 64.2748 237.463 64.1331 237.674C63.9914 237.884 63.8001 238.057 63.576 238.176C63.352 238.295 63.1021 238.358 62.8483 238.358V238.352Z" fill="#1B3C47"/>
<path d="M51.9755 197.879C51.8084 197.877 51.6443 197.835 51.4972 197.756C51.3501 197.676 51.2244 197.562 51.131 197.424C51.0376 197.285 50.9793 197.126 50.961 196.96C50.9427 196.794 50.965 196.626 51.026 196.47C51.5553 195.05 51.6946 193.513 51.4297 192.02C51.1647 190.528 50.5051 189.133 49.5192 187.981C49.4227 187.881 49.3475 187.762 49.2982 187.632C49.2489 187.501 49.2265 187.362 49.2324 187.223C49.2382 187.084 49.2722 186.947 49.3322 186.822C49.3922 186.696 49.4771 186.584 49.5817 186.492C49.6863 186.4 49.8084 186.33 49.9408 186.286C50.0731 186.243 50.2129 186.226 50.3517 186.238C50.4905 186.25 50.6255 186.29 50.7485 186.355C50.8714 186.421 50.9799 186.511 51.0673 186.619C52.2978 188.057 53.1213 189.799 53.4525 191.662C53.7836 193.526 53.6105 195.444 52.9508 197.218C52.8751 197.415 52.741 197.583 52.5667 197.702C52.3923 197.82 52.1861 197.882 51.9755 197.879Z" fill="#1B3C47"/>
<path d="M46.3094 194.117C46.1178 194.117 45.9299 194.064 45.7668 193.963C45.6038 193.862 45.472 193.718 45.3863 193.547C45.3006 193.375 45.2643 193.183 45.2815 192.993C45.2987 192.802 45.3688 192.619 45.4838 192.466C46.1965 191.528 47.1449 190.795 48.2325 190.342C49.32 189.889 50.5082 189.731 51.6762 189.886C51.8118 189.905 51.9422 189.95 52.0602 190.02C52.1781 190.089 52.2813 190.181 52.3637 190.29C52.4461 190.399 52.5062 190.524 52.5405 190.656C52.5749 190.789 52.5828 190.927 52.5638 191.062C52.5448 191.198 52.4994 191.328 52.43 191.446C52.3606 191.564 52.2686 191.667 52.1594 191.75C52.0501 191.832 51.9257 191.892 51.7932 191.927C51.6607 191.961 51.5228 191.969 51.3872 191.95C50.5828 191.848 49.7656 191.957 49.0169 192.269C48.2682 192.58 47.6141 193.082 47.1196 193.725C47.0229 193.847 46.8998 193.946 46.7595 194.014C46.6192 194.082 46.4653 194.117 46.3094 194.117Z" fill="#1B3C47"/>
<path d="M185.325 197.998C185.116 197.999 184.912 197.936 184.74 197.818C184.568 197.7 184.435 197.532 184.36 197.338C183.697 195.565 183.521 193.647 183.849 191.783C184.178 189.919 184.999 188.178 186.228 186.738C186.315 186.63 186.424 186.54 186.547 186.475C186.67 186.409 186.805 186.369 186.944 186.357C187.082 186.345 187.222 186.362 187.355 186.405C187.487 186.449 187.609 186.519 187.714 186.611C187.818 186.703 187.903 186.815 187.963 186.941C188.023 187.067 188.057 187.203 188.063 187.342C188.069 187.482 188.046 187.62 187.997 187.751C187.948 187.881 187.873 188 187.776 188.101C186.789 189.252 186.129 190.646 185.863 192.139C185.597 193.632 185.736 195.168 186.264 196.589C186.366 196.84 186.365 197.121 186.261 197.371C186.158 197.62 185.961 197.82 185.712 197.926C185.589 197.975 185.457 197.999 185.325 197.998Z" fill="#1B3C47"/>
<path d="M190.991 194.236C190.83 194.237 190.671 194.2 190.527 194.128C190.382 194.057 190.257 193.952 190.16 193.823C189.666 193.18 189.013 192.677 188.264 192.364C187.515 192.052 186.698 191.941 185.893 192.043C185.619 192.081 185.341 192.009 185.121 191.843C184.9 191.676 184.754 191.429 184.716 191.155C184.678 190.882 184.75 190.604 184.916 190.383C185.083 190.163 185.33 190.017 185.604 189.979C186.772 189.828 187.959 189.986 189.046 190.439C190.133 190.892 191.081 191.623 191.796 192.559C191.911 192.712 191.981 192.895 191.998 193.086C192.016 193.277 191.979 193.468 191.894 193.64C191.808 193.811 191.676 193.956 191.513 194.056C191.35 194.157 191.162 194.21 190.971 194.21L190.991 194.236Z" fill="#1B3C47"/>
<path d="M87.8247 261.254L88.1137 260.919C88.026 261.146 87.9382 261.373 87.8608 261.605C87.8299 261.378 87.8247 261.254 87.8247 261.254Z" fill="#C0E5F2"/>
<path d="M125.057 202.137C125.074 203.861 124.407 205.522 123.202 206.754C121.996 207.987 120.351 208.691 118.627 208.711C115.066 208.711 112.187 204.552 112.187 200.924L125.057 202.137Z" fill="#F4CEAE"/>
<path d="M165.736 142.968C160.966 133.576 153.834 125.587 145.042 119.785C136.249 113.984 126.099 110.57 115.587 109.879C114.261 109.967 112.95 110.096 111.645 110.261C123.014 111.742 133.727 116.43 142.53 123.776L144.527 125.515C145.244 126.166 145.951 126.826 146.632 127.512C150.799 131.674 154.338 136.42 157.139 141.6C143.304 137.715 134.66 127.063 134.66 127.063C123.823 136.352 135.176 140.997 135.176 140.997L124.339 145.125C100.602 150.285 99.5695 124.483 99.5695 124.483L83.1388 135.444L67.0591 142.545C84.0884 145.125 96.9893 130.16 96.9893 130.16C96.9893 135.32 96.4372 143.148 110.406 148.737C125.888 154.93 141.369 140.997 141.369 140.997C133.112 138.416 134.66 133.256 134.66 132.74C141.41 141.079 153.656 144.217 158.94 145.228C162.544 153.123 164.405 161.701 164.394 170.38V212.215C164.394 243.033 141.41 270.29 111.645 274.14C112.95 274.31 114.261 274.439 115.587 274.522C147.236 272.494 172.295 243.755 172.295 211.601V170.364C172.352 161.107 170.287 150.27 165.896 142.225" fill="#FFB594"/>
<path d="M111.949 190.185L118.658 180.381L112.981 173.672C112.981 173.672 104.725 171.608 104.208 172.64C103.692 173.672 100.596 184.509 100.596 184.509L105.241 194.314L111.949 190.185Z" fill="#F4CEAE"/>
<path d="M156.009 188.209C156.009 181.226 150.349 175.566 143.366 175.566C136.384 175.566 130.723 181.226 130.723 188.209V192.507C130.723 199.49 136.384 205.15 143.366 205.15C150.349 205.15 156.009 199.49 156.009 192.507V188.209Z" fill="white"/>
<path d="M143.372 197.147C146.786 197.147 149.554 194.379 149.554 190.965C149.554 187.551 146.786 184.783 143.372 184.783C139.957 184.783 137.189 187.551 137.189 190.965C137.189 194.379 139.957 197.147 143.372 197.147Z" fill="#274B5B"/>
<path d="M141.601 188.317C144.04 188.317 146.018 186.339 146.018 183.9C146.018 181.46 144.04 179.482 141.601 179.482C139.161 179.482 137.184 181.46 137.184 183.9C137.184 186.339 139.161 188.317 141.601 188.317Z" fill="white"/>
<path d="M144.739 195.852C145.582 195.852 146.266 195.168 146.266 194.324C146.266 193.481 145.582 192.797 144.739 192.797C143.895 192.797 143.211 193.481 143.211 194.324C143.211 195.168 143.895 195.852 144.739 195.852Z" fill="white"/>
<path d="M106.469 188.209C106.469 181.226 100.809 175.566 93.8261 175.566C86.8435 175.566 81.1831 181.226 81.1831 188.209V192.507C81.1831 199.49 86.8435 205.15 93.8261 205.15C100.809 205.15 106.469 199.49 106.469 192.507V188.209Z" fill="white"/>
<path d="M93.8256 207.302C90.1304 207.302 86.5864 205.834 83.9735 203.221C81.3605 200.608 79.8926 197.064 79.8926 193.369C79.8926 193.027 80.0285 192.699 80.2704 192.457C80.5124 192.215 80.8405 192.079 81.1827 192.079C81.5248 192.079 81.853 192.215 82.0949 192.457C82.3368 192.699 82.4728 193.027 82.4728 193.369C82.4728 196.38 83.6689 199.268 85.7979 201.397C87.927 203.526 90.8147 204.722 93.8256 204.722C96.8366 204.722 99.7242 203.526 101.853 201.397C103.982 199.268 105.178 196.38 105.178 193.369C105.178 193.027 105.314 192.699 105.556 192.457C105.798 192.215 106.126 192.079 106.469 192.079C106.811 192.079 107.139 192.215 107.381 192.457C107.623 192.699 107.759 193.027 107.759 193.369C107.759 197.064 106.291 200.608 103.678 203.221C101.065 205.834 97.5209 207.302 93.8256 207.302Z" fill="#1B3C47"/>
<path d="M143.366 207.302C139.67 207.302 136.126 205.834 133.514 203.221C130.901 200.608 129.433 197.064 129.433 193.369C129.433 193.027 129.569 192.699 129.81 192.457C130.052 192.215 130.381 192.079 130.723 192.079C131.065 192.079 131.393 192.215 131.635 192.457C131.877 192.699 132.013 193.027 132.013 193.369C132.013 196.38 133.209 199.268 135.338 201.397C137.467 203.526 140.355 204.722 143.366 204.722C146.377 204.722 149.264 203.526 151.393 201.397C153.522 199.268 154.719 196.38 154.719 193.369C154.719 193.027 154.854 192.699 155.096 192.457C155.338 192.215 155.666 192.079 156.009 192.079C156.351 192.079 156.679 192.215 156.921 192.457C157.163 192.699 157.299 193.027 157.299 193.369C157.299 197.064 155.831 200.608 153.218 203.221C150.605 205.834 147.061 207.302 143.366 207.302Z" fill="#1B3C47"/>
<path d="M93.3154 197.147C96.7298 197.147 99.4976 194.379 99.4976 190.965C99.4976 187.551 96.7298 184.783 93.3154 184.783C89.9011 184.783 87.1333 187.551 87.1333 190.965C87.1333 194.379 89.9011 197.147 93.3154 197.147Z" fill="#274B5B"/>
<path d="M91.5452 188.317C93.9848 188.317 95.9625 186.339 95.9625 183.9C95.9625 181.46 93.9848 179.482 91.5452 179.482C89.1056 179.482 87.1279 181.46 87.1279 183.9C87.1279 186.339 89.1056 188.317 91.5452 188.317Z" fill="white"/>
<path d="M94.6828 195.852C95.5264 195.852 96.2102 195.168 96.2102 194.324C96.2102 193.481 95.5264 192.797 94.6828 192.797C93.8392 192.797 93.1553 193.481 93.1553 194.324C93.1553 195.168 93.8392 195.852 94.6828 195.852Z" fill="white"/>
<path d="M63.4418 142.709L86.9216 133.988C94.7857 129.071 101.837 122.961 107.821 115.875L100.751 122.068C104.482 119.931 96.0039 125.68 99.5646 123.616C95.4362 137.033 113.498 155.61 134.913 141.419C134.913 141.419 127.286 135.185 134.727 127.739C134.727 127.739 151.943 150.192 186.517 139.355C186.517 139.355 182.389 112.521 158.135 106.328L175.164 100.136C175.164 100.136 144.718 70.2057 113.24 90.3313V90.3829C112.25 89.3897 110.996 88.7004 109.627 88.3961C109.627 88.3961 109.627 96.3379 105.654 98.9904C105.654 98.9904 83.1442 81.3315 55.3349 100.755C55.3349 100.755 68.1378 102.076 68.1378 108.258C68.1378 108.258 46.9492 115.762 46.9492 142.689L57.786 141.656" fill="#B0D7E9"/>
<path d="M115.561 93.1704C115.561 93.1704 135.687 77.6892 163.037 97.8147C163.037 97.8147 165.617 99.3628 165.101 99.3628C164.585 99.3628 142.395 107.619 142.395 107.619C142.395 107.619 175.938 109.168 181.098 139.098H185.743C185.743 139.098 181.614 110.2 156.844 106.587L175.422 100.395C175.422 100.395 151.168 74.593 118.141 86.9779L114.013 88.526L115.561 93.1704Z" fill="#E1F4F9"/>
<path d="M104.725 99.3624C104.725 99.3624 81.5037 89.0416 63.4423 99.3624C63.4423 99.3624 72.731 101.427 70.6668 110.715C70.6668 110.715 47.4451 120.004 50.5413 142.194L45.897 142.71C45.897 142.71 45.897 118.456 66.5385 107.619L53.6376 100.394C53.6376 100.394 79.4395 82.8491 100.597 97.2982L104.725 99.3624Z" fill="#E1F4F9"/>
<path d="M57.7652 144.258L44.8643 144.232V142.684C44.8643 128.235 50.8761 119.261 55.9178 114.271C58.809 111.389 62.1767 109.028 65.8722 107.294C64.644 104.058 57.3472 102.567 54.638 102.288L50.5097 101.86L53.9156 99.4809C68.7414 89.1291 82.112 89.1911 90.7195 91.0695C95.8152 92.1651 100.666 94.189 105.029 97.04C107.068 94.8056 107.542 90.1819 107.542 88.4067V86.4922L109.416 86.8895C116.558 88.4377 118.064 97.9225 118.126 98.3301C118.187 98.7366 118.084 99.1506 117.84 99.4811C117.595 99.8116 117.23 100.031 116.823 100.092C116.417 100.153 116.003 100.05 115.672 99.8059C115.342 99.5615 115.122 99.1959 115.061 98.7894C115.061 98.6655 114.091 92.824 110.504 90.6205C110.205 93.4484 109.214 98.1289 105.979 100.286L105.045 100.91L104.178 100.209C99.8974 97.215 95.0509 95.1271 89.9351 94.0728C79.4647 91.8229 69.0562 93.789 58.9728 99.904C63.2043 100.905 69.1852 103.212 69.1852 108.259V109.353L68.1531 109.719C64.3569 111.309 60.9165 113.64 58.0336 116.577C51.6966 122.899 48.332 131.155 48.0224 141.141H57.8272C58.2377 141.141 58.6315 141.304 58.9218 141.594C59.2122 141.884 59.3753 142.278 59.3753 142.689C59.3753 143.099 59.2122 143.493 58.9218 143.784C58.6315 144.074 58.2377 144.237 57.8272 144.237L57.7652 144.258Z" fill="#1B3C47"/>
<path d="M103.693 121.036C103.693 121.036 98.5322 150.45 132.075 140.129L133.726 142.193C133.726 142.193 126.806 148.793 118.658 147.354C106.789 145.289 92.3398 132.905 103.693 121.036Z" fill="#54B9D3"/>
<path d="M158.878 113.621C160.51 114.376 162.03 115.354 163.394 116.526C164.426 117.45 164.942 118.208 164.72 118.502C164.281 119.101 161.33 117.687 157.748 116C154.167 114.312 151.215 112.903 151.406 112.181C151.504 111.835 152.402 111.742 153.775 111.959C155.545 112.274 157.263 112.833 158.878 113.621Z" fill="#E5F5FA"/>
<path d="M172.192 123.518C173.097 124.711 173.805 126.042 174.287 127.46C174.638 128.544 174.679 129.298 174.359 129.478C174.039 129.659 173.425 129.22 172.672 128.395C171.918 127.569 171.041 126.372 170.092 125.107C169.142 123.843 168.244 122.749 167.594 121.882C166.944 121.015 166.588 120.38 166.799 120.076C167.011 119.771 167.775 119.895 168.807 120.468C170.133 121.241 171.285 122.28 172.192 123.518Z" fill="#E5F5FA"/>
<path d="M177.25 132.461C177.662 133.581 177.25 134.639 176.548 134.773C175.846 134.907 175.108 134.257 174.778 133.374C174.448 132.492 174.582 131.527 175.211 131.161C175.841 130.794 176.837 131.341 177.25 132.461Z" fill="#E5F5FA"/>
<path d="M148.34 101.499C149.966 100.854 151.499 101.019 151.7 101.716C151.901 102.412 150.812 103.357 149.311 103.95C147.809 104.544 146.369 104.611 146.039 103.95C145.709 103.29 146.71 102.144 148.34 101.499Z" fill="#E5F5FA"/>
<path d="M155.539 99.2647C156.427 99.0067 157.309 99.3628 157.515 100.059C157.722 100.756 157.165 101.535 156.282 101.793C155.4 102.051 154.512 101.695 154.306 100.999C154.099 100.302 154.657 99.5227 155.539 99.2647Z" fill="#E5F5FA"/>
<path d="M128.169 89.5263C130.488 89.0911 132.86 89.011 135.203 89.2889C136.993 89.5314 138.056 89.9752 138.025 90.321C137.948 91.0692 133.696 91.1776 128.639 92.1168C123.581 93.056 119.551 94.3977 119.216 93.7217C119.066 93.4017 119.907 92.6174 121.502 91.7607C123.599 90.6839 125.847 89.9306 128.169 89.5263Z" fill="#E5F5FA"/>
<path d="M142.788 90.0688C143.026 90.1644 143.231 90.3274 143.378 90.5377C143.525 90.7481 143.608 90.9967 143.616 91.2532C143.624 91.5097 143.557 91.7631 143.424 91.9822C143.29 92.2014 143.096 92.3769 142.864 92.4873C142.632 92.5977 142.373 92.6382 142.119 92.6038C141.865 92.5695 141.626 92.4619 141.432 92.294C141.238 92.1262 141.096 91.9054 141.026 91.6587C140.955 91.4119 140.958 91.15 141.033 90.9047C141.156 90.5618 141.409 90.2814 141.738 90.1247C142.067 89.968 142.444 89.9479 142.788 90.0688Z" fill="#E5F5FA"/>
<path d="M107.372 130.418C107.776 131.792 108.322 133.12 109.002 134.381C109.519 135.346 109.942 135.929 109.807 136.069C109.673 136.208 109.023 135.826 108.259 134.913C107.274 133.697 106.549 132.292 106.128 130.784C105.704 129.318 105.463 127.805 105.411 126.279C105.37 125.123 105.452 124.401 105.633 124.38C105.813 124.36 106.056 125.041 106.329 126.15C106.603 127.26 106.892 128.803 107.372 130.418Z" fill="#6AC2D9"/>
<path d="M119.525 139.211C121.321 139.216 123.113 139.061 124.881 138.746C126.264 138.524 127.142 138.39 127.199 138.571C127.255 138.751 126.476 139.185 125.109 139.649C123.302 140.257 121.405 140.556 119.499 140.532C117.565 140.517 115.661 140.046 113.941 139.159C112.636 138.447 112.032 137.735 112.135 137.611C112.239 137.487 113.023 137.869 114.318 138.313C115.997 138.88 117.753 139.183 119.525 139.211Z" fill="#6AC2D9"/>
<path d="M158.135 168.769C157.849 168.77 157.569 168.691 157.325 168.542C142.391 159.388 128.597 168.14 128.019 168.516C127.678 168.702 127.279 168.753 126.902 168.658C126.525 168.564 126.197 168.331 125.984 168.006C125.771 167.681 125.688 167.288 125.751 166.904C125.815 166.521 126.02 166.175 126.326 165.936C126.971 165.513 142.323 155.708 158.945 165.91C159.233 166.087 159.456 166.352 159.579 166.667C159.703 166.981 159.72 167.327 159.628 167.652C159.536 167.977 159.34 168.263 159.071 168.467C158.801 168.67 158.473 168.78 158.135 168.78V168.769Z" fill="#1B3C47"/>
<path d="M110.144 168.769C109.858 168.77 109.577 168.691 109.333 168.542C94.3993 159.388 80.6056 168.14 80.0276 168.516C79.6863 168.702 79.2876 168.753 78.9106 168.658C78.5337 168.564 78.2061 168.331 77.9929 168.006C77.7798 167.681 77.6966 167.288 77.76 166.904C77.8234 166.521 78.0286 166.175 78.335 165.936C78.9801 165.513 94.3322 155.708 110.954 165.91C111.242 166.087 111.465 166.352 111.588 166.667C111.711 166.981 111.728 167.327 111.637 167.652C111.545 167.977 111.349 168.263 111.08 168.467C110.81 168.67 110.481 168.78 110.144 168.78V168.769Z" fill="#1B3C47"/>
<g opacity="0.5">
<path d="M166.18 175.416L127.838 202.766V187.192L147.525 173.156H161.2C162.147 173.135 163.086 173.327 163.948 173.718C164.81 174.109 165.573 174.69 166.18 175.416Z" fill="white"/>
<path d="M167.166 182.047V190.443L140.063 209.795H133.809C132.426 209.807 131.073 209.388 129.938 208.598L167.166 182.047Z" fill="white"/>
</g>
<path opacity="0.3" d="M161.226 172.897H131.93C129.16 172.897 126.915 175.143 126.915 177.913V204.52C126.915 207.291 129.16 209.536 131.93 209.536H161.226C163.996 209.536 166.242 207.291 166.242 204.52V177.913C166.242 175.143 163.996 172.897 161.226 172.897Z" fill="white"/>
<path opacity="0.3" d="M105.494 173.414H76.1985C73.4283 173.414 71.1826 175.66 71.1826 178.43V205.037C71.1826 207.807 73.4283 210.053 76.1985 210.053H105.494C108.264 210.053 110.51 207.807 110.51 205.037V178.43C110.51 175.66 108.264 173.414 105.494 173.414Z" fill="white"/>
<path d="M73.6647 135.532C79.3721 133.617 83.7739 131.435 83.9597 131.775C84.1454 132.116 79.9294 134.82 74.0827 136.781C68.236 138.742 63.2459 139.134 63.1943 138.793C63.1427 138.453 67.9625 137.477 73.6647 135.532Z" fill="#6AC2D9"/>
<path d="M89.8839 126.666C91.5094 125.36 92.9801 124.462 93.2226 124.741C93.4652 125.019 92.3609 126.366 90.7095 127.693C89.0582 129.019 87.4998 129.808 87.2882 129.514C87.0766 129.22 88.2584 128.002 89.8839 126.666Z" fill="#6AC2D9"/>
<path d="M99.931 117.563C102.511 115.282 104.988 113.951 105.184 114.235C105.38 114.518 103.316 116.33 100.803 118.554C98.29 120.778 96.2517 122.615 95.973 122.367C95.6944 122.12 97.3405 119.844 99.931 117.563Z" fill="#6AC2D9"/>
<path d="M65.2636 135.047C69.588 134.113 73.0042 132.838 73.1384 133.189C73.2725 133.54 70.0421 135.361 65.5423 136.332C61.0424 137.302 57.3166 136.997 57.3321 136.652C57.3476 136.306 60.9443 136.007 65.2636 135.047Z" fill="#6AC2D9"/>
<path opacity="0.5" d="M118.658 186.021V216.503C118.658 216.503 110.458 212.628 110.458 205.28C110.458 197.931 110.917 186.573 110.917 186.573L117.197 184.901C117.369 184.854 117.55 184.848 117.725 184.882C117.899 184.916 118.064 184.991 118.205 185.099C118.347 185.207 118.461 185.347 118.54 185.507C118.618 185.667 118.659 185.843 118.658 186.021Z" fill="#FCEADE"/>
<path d="M126.398 188.637C126.235 188.637 126.073 188.611 125.919 188.56C117.528 185.815 111.831 188.457 111.774 188.488C111.59 188.575 111.391 188.626 111.188 188.637C110.985 188.648 110.781 188.618 110.589 188.551C110.397 188.483 110.221 188.378 110.069 188.242C109.918 188.106 109.795 187.941 109.707 187.757C109.619 187.574 109.569 187.375 109.558 187.171C109.547 186.968 109.576 186.765 109.644 186.573C109.712 186.381 109.817 186.204 109.953 186.053C110.089 185.902 110.254 185.778 110.437 185.691C110.716 185.562 117.326 182.486 126.878 185.618C127.228 185.733 127.525 185.969 127.717 186.283C127.908 186.597 127.982 186.969 127.924 187.332C127.866 187.696 127.681 188.026 127.401 188.266C127.122 188.505 126.766 188.636 126.398 188.637Z" fill="#1B3C47"/>
<path d="M118.627 217.536C116.734 217.519 114.926 216.753 113.598 215.404C112.271 214.055 111.533 212.234 111.547 210.342C111.547 209.931 111.71 209.538 112 209.247C112.29 208.957 112.684 208.794 113.095 208.794C113.505 208.794 113.899 208.957 114.189 209.247C114.48 209.538 114.643 209.931 114.643 210.342C114.624 210.877 114.712 211.41 114.904 211.91C115.095 212.41 115.385 212.866 115.757 213.251C116.128 213.636 116.574 213.943 117.066 214.152C117.559 214.361 118.089 214.469 118.624 214.469C119.159 214.469 119.689 214.361 120.182 214.152C120.674 213.943 121.12 213.636 121.491 213.251C121.863 212.866 122.153 212.41 122.344 211.91C122.536 211.41 122.625 210.877 122.605 210.342C122.605 209.931 122.768 209.538 123.059 209.247C123.349 208.957 123.743 208.794 124.153 208.794C124.564 208.794 124.958 208.957 125.248 209.247C125.538 209.538 125.702 209.931 125.702 210.342C125.715 212.234 124.978 214.053 123.652 215.402C122.325 216.751 120.518 217.518 118.627 217.536Z" fill="#1B3C47"/>
<g opacity="0.3">
<path d="M110.458 175.416L72.3589 202.766V187.192L91.9116 173.156H105.499C106.442 173.134 107.379 173.327 108.237 173.718C109.096 174.109 109.855 174.69 110.458 175.416Z" fill="white"/>
<path d="M111.433 182.047V190.443L84.5065 209.795H78.314C76.9374 209.806 75.5916 209.388 74.4644 208.598L111.433 182.047Z" fill="white"/>
</g>
<path d="M105.499 210.827H76.4559C74.7839 210.826 73.1807 210.161 71.9984 208.978C70.8161 207.796 70.1513 206.193 70.1499 204.521V177.914C70.1513 176.242 70.8161 174.639 71.9984 173.456C73.1807 172.274 74.7839 171.609 76.4559 171.608H105.499C107.171 171.609 108.775 172.274 109.958 173.456C111.141 174.638 111.807 176.241 111.81 177.914V204.521C111.807 206.193 111.141 207.797 109.958 208.979C108.775 210.161 107.171 210.826 105.499 210.827ZM76.4559 174.188C75.4682 174.189 74.5213 174.582 73.8229 175.281C73.1244 175.979 72.7315 176.926 72.7301 177.914V204.521C72.7315 205.509 73.1244 206.455 73.8229 207.154C74.5213 207.852 75.4682 208.245 76.4559 208.247H105.499C106.487 208.245 107.434 207.853 108.133 207.154C108.833 206.456 109.227 205.509 109.23 204.521V177.914C109.227 176.926 108.833 175.979 108.133 175.281C107.434 174.582 106.487 174.189 105.499 174.188H76.4559Z" fill="#1B3C47"/>
<path d="M118.534 148.004C118.157 148.004 117.786 148.004 117.414 147.978C112.765 147.778 108.335 145.951 104.895 142.818C98.9707 137.431 96.468 128.699 99.2184 122.94C99.2993 122.747 99.4184 122.573 99.5685 122.427C99.7185 122.282 99.8966 122.168 100.092 122.093C100.287 122.019 100.495 121.984 100.704 121.992C100.913 122 101.118 122.05 101.307 122.139C101.496 122.228 101.665 122.355 101.804 122.511C101.943 122.668 102.048 122.851 102.115 123.049C102.181 123.247 102.206 123.457 102.189 123.665C102.172 123.874 102.113 124.076 102.015 124.261C100.147 128.209 101.499 135.547 107 140.527C110.669 143.866 118.689 148.205 131.93 141.043C130.478 139.318 129.604 137.181 129.433 134.933C129.288 132.033 130.537 129.256 133.138 126.635L134.366 125.422L135.439 126.826C135.48 126.878 139.712 132.28 147.963 136.316C158.656 141.549 170.845 142.214 184.205 138.308C182.997 132.972 177.176 112.944 157.237 107.861L152.376 106.618L171.686 99.5997C166.587 95.3078 160.897 91.7727 154.791 89.1035C140.001 82.7665 126.125 83.6283 113.559 91.6837C113.213 91.9054 112.793 91.9805 112.391 91.8924C111.99 91.8043 111.639 91.5603 111.418 91.2141C111.196 90.8678 111.121 90.4477 111.209 90.046C111.297 89.6444 111.541 89.2942 111.887 89.0725C125.211 80.5579 140.502 79.6032 156.101 86.3117C163.31 89.4322 169.94 93.7485 175.711 99.0785L177.46 100.797L162.387 106.241C170.726 109.513 177.543 115.726 182.265 124.426C184.779 129.017 186.557 133.975 187.533 139.118L187.735 140.434L186.465 140.831C168.115 146.585 154.579 143.009 146.457 138.999C141.875 136.77 137.726 133.745 134.201 130.067C133.082 131.377 132.481 133.05 132.508 134.773C132.663 137.905 135.351 140.181 135.377 140.207L137.085 141.605L135.192 142.735C129.334 146.239 123.735 148.004 118.534 148.004Z" fill="#1B3C47"/>
<path d="M62.5536 143.721C62.143 143.728 61.7466 143.572 61.4514 143.286C61.1562 143.001 60.9866 142.61 60.9797 142.199C60.9729 141.789 61.1294 141.392 61.4149 141.097C61.7004 140.802 62.0914 140.632 62.502 140.625C84.862 139.82 106.598 115.215 106.814 114.968C106.945 114.806 107.107 114.673 107.291 114.575C107.475 114.478 107.676 114.418 107.883 114.4C108.091 114.382 108.299 114.406 108.497 114.471C108.695 114.535 108.877 114.639 109.034 114.776C109.191 114.912 109.319 115.079 109.409 115.266C109.5 115.453 109.553 115.657 109.563 115.864C109.574 116.072 109.542 116.28 109.471 116.475C109.399 116.67 109.289 116.849 109.147 117.001C104.822 121.757 100.07 126.107 94.9506 129.995C83.4842 138.742 72.6061 143.36 62.6156 143.721H62.5536Z" fill="#1B3C47"/>
<path d="M65.2222 160.472C65.5761 158.527 66.2864 156.663 67.3173 154.976C68.1533 153.691 68.979 153.062 69.4744 153.273C69.9698 153.485 70.0781 154.486 69.9543 155.905C69.8304 157.324 69.5002 159.192 69.1028 161.231C68.7055 163.269 68.3184 165.111 67.9004 166.479C67.4824 167.846 67.0232 168.729 66.471 168.744C65.9188 168.76 65.4028 167.862 65.1087 166.355C64.7838 164.404 64.8223 162.409 65.2222 160.472Z" fill="white"/>
<path d="M79.0729 146.333C82.4736 145.104 85.4976 144.578 85.9879 145.558C86.4781 146.539 84.063 148.727 80.4198 150.048C76.7766 151.369 73.5152 151.235 73.2675 150.182C73.0198 149.129 75.6722 147.576 79.0729 146.333Z" fill="white"/>
<path d="M90.8898 139.934C91.8961 139.01 93.2945 138.773 94.1099 139.495C94.9252 140.217 94.7343 141.771 93.568 142.844C92.4018 143.917 90.833 143.979 90.188 143.107C89.5429 142.235 89.8887 140.857 90.8898 139.934Z" fill="white"/>
<path d="M55.3295 125.046C55.8055 124.061 56.4112 123.145 57.1305 122.321C57.7204 121.651 58.4033 121.069 59.1585 120.592C60.4641 119.792 61.491 119.7 61.8007 120.128C62.1103 120.556 61.7542 121.439 61.1401 122.558C60.8408 123.105 60.4796 123.745 60.0771 124.463C59.6746 125.18 59.2927 125.933 58.8954 126.749C58.498 127.564 58.1677 128.369 57.8633 129.107L57.0531 131.13C56.5371 132.306 56.1345 133.142 55.5721 133.168C55.0096 133.194 54.4729 132.342 54.2768 130.82C54.1719 129.934 54.1962 129.037 54.3491 128.157C54.5355 127.081 54.8653 126.034 55.3295 125.046Z" fill="white"/>
<path d="M67.9777 116.025C68.8664 115.686 69.8038 115.493 70.754 115.452C71.559 115.452 72.2041 115.633 72.4776 116.108C72.7511 116.582 72.586 117.253 72.0235 117.945C71.2809 118.756 70.3522 119.374 69.3174 119.746C68.2827 120.118 67.1729 120.233 66.0839 120.081C65.2118 119.911 64.6493 119.493 64.5358 118.956C64.4222 118.419 64.8247 117.862 65.444 117.356C66.2107 116.778 67.0665 116.328 67.9777 116.025Z" fill="white"/>
<path d="M77.2664 98.1546C78.3688 98.001 79.4922 98.1417 80.5226 98.5623C81.338 98.9287 81.7921 99.4654 81.756 100.002C81.7198 100.539 81.2141 101.008 80.4917 101.354C78.7228 102.096 76.7815 102.329 74.8875 102.025C74.1031 101.855 73.5096 101.509 73.3394 100.993C73.1691 100.477 73.489 99.8524 74.196 99.3002C75.0992 98.6518 76.1592 98.2563 77.2664 98.1546Z" fill="white"/>
<path d="M68.241 221.405C68.6774 222.689 69.0037 224.008 69.2163 225.348C69.3608 226.432 69.2783 227.252 68.8035 227.531C68.3288 227.809 67.5495 227.464 66.7394 226.592C65.7125 225.442 64.9483 224.082 64.4997 222.608C64.0084 221.146 63.8445 219.594 64.0198 218.061C64.1953 216.864 64.6339 216.131 65.1758 216.085C65.7176 216.039 66.2646 216.653 66.7806 217.633C67.3705 218.848 67.859 220.11 68.241 221.405Z" fill="white"/>
<path d="M161.227 210.827H131.931C130.259 210.826 128.656 210.161 127.473 208.978C126.291 207.796 125.626 206.193 125.625 204.521V177.914C125.626 176.242 126.291 174.639 127.473 173.456C128.656 172.274 130.259 171.609 131.931 171.608H161.227C162.899 171.609 164.502 172.274 165.684 173.456C166.866 174.639 167.531 176.242 167.533 177.914V204.521C167.531 206.193 166.866 207.796 165.684 208.978C164.502 210.161 162.899 210.826 161.227 210.827ZM131.931 174.188C130.943 174.189 129.996 174.582 129.298 175.281C128.6 175.979 128.207 176.926 128.205 177.914V204.521C128.207 205.509 128.6 206.455 129.298 207.154C129.996 207.852 130.943 208.245 131.931 208.247H161.227C162.214 208.245 163.161 207.852 163.86 207.154C164.558 206.455 164.951 205.509 164.952 204.521V177.914C164.951 176.926 164.558 175.979 163.86 175.281C163.161 174.582 162.214 174.189 161.227 174.188H131.931Z" fill="#1B3C47"/>
<path d="M71.7877 320.195L43.4302 320.67C40.3896 320.721 37.9661 323.227 38.0171 326.268L38.0171 326.273C38.0681 329.313 40.5742 331.737 43.6148 331.686L71.9723 331.211C75.0128 331.16 77.4363 328.654 77.3854 325.613L77.3853 325.608C77.3344 322.567 74.8282 320.144 71.7877 320.195Z" fill="white"/>
<path d="M77.3441 325.645V325.738C77.343 327.182 76.7752 328.568 75.7629 329.597C74.7506 330.627 73.3746 331.218 71.9309 331.244L43.5487 331.714C42.8256 331.726 42.1072 331.596 41.4344 331.33C40.7617 331.065 40.1478 330.67 39.6279 330.167C39.1079 329.664 38.6921 329.064 38.4042 328.401C38.1162 327.737 37.9618 327.024 37.9497 326.3V326.161C37.9497 326.068 37.9497 329.072 37.9497 328.979L63.5194 328.463C70.2279 328.463 72.1631 325.882 71.838 320.206C73.2863 320.207 74.676 320.779 75.7064 321.796C76.7368 322.814 77.3251 324.197 77.3441 325.645Z" fill="#CFD2E8"/>
<path d="M124.99 237.144H105.757C105.347 237.144 104.953 236.981 104.662 236.691C104.372 236.401 104.209 236.007 104.209 235.596C104.209 235.186 104.372 234.792 104.662 234.502C104.953 234.211 105.347 234.048 105.757 234.048H124.99C126.87 234.054 128.732 233.686 130.47 232.967C132.207 232.248 133.784 231.191 135.109 229.858C135.403 229.584 135.791 229.436 136.192 229.443C136.593 229.45 136.976 229.612 137.259 229.896C137.543 230.179 137.706 230.562 137.713 230.963C137.72 231.364 137.571 231.752 137.297 232.046C135.685 233.667 133.767 234.953 131.654 235.828C129.542 236.703 127.277 237.15 124.99 237.144Z" fill="#1B3C47"/>
<path d="M360.164 101.427C358.735 101.427 357.338 101.003 356.15 100.209C354.962 99.4152 354.036 98.2869 353.489 96.9668C352.943 95.6467 352.8 94.1941 353.078 92.7926C353.357 91.3912 354.045 90.1039 355.055 89.0936C356.066 88.0832 357.353 87.3951 358.755 87.1164C360.156 86.8376 361.609 86.9807 362.929 87.5275C364.249 88.0743 365.377 89.0003 366.171 90.1883C366.965 91.3764 367.389 92.7732 367.389 94.2021C367.389 96.1182 366.627 97.9557 365.273 99.3106C363.918 100.665 362.08 101.427 360.164 101.427ZM360.164 90.0738C359.348 90.0738 358.549 90.3159 357.87 90.7695C357.192 91.2231 356.662 91.8679 356.35 92.6223C356.037 93.3766 355.956 94.2067 356.115 95.0075C356.274 95.8083 356.667 96.5439 357.245 97.1212C357.822 97.6986 358.558 98.0918 359.359 98.2511C360.159 98.4104 360.989 98.3286 361.744 98.0161C362.498 97.7037 363.143 97.1746 363.597 96.4957C364.05 95.8168 364.292 95.0186 364.292 94.2021C364.292 93.1072 363.857 92.0571 363.083 91.2829C362.309 90.5087 361.259 90.0738 360.164 90.0738Z" fill="#F2BF46"/>
<path d="M352.94 114.328C354.65 114.328 356.036 112.941 356.036 111.231C356.036 109.521 354.65 108.135 352.94 108.135C351.23 108.135 349.844 109.521 349.844 111.231C349.844 112.941 351.23 114.328 352.94 114.328Z" fill="#B0D7E9"/>
<path d="M114.014 66.8519C112.585 66.8519 111.188 66.4282 110 65.6344C108.812 64.8405 107.886 63.7122 107.339 62.3921C106.793 61.072 106.65 59.6194 106.928 58.2179C107.207 56.8165 107.895 55.5292 108.906 54.5189C109.916 53.5085 111.203 52.8204 112.605 52.5417C114.006 52.2629 115.459 52.406 116.779 52.9528C118.099 53.4996 119.227 54.4256 120.021 55.6136C120.815 56.8017 121.239 58.1985 121.239 59.6274C121.239 61.5434 120.477 63.381 119.123 64.7359C117.768 66.0908 115.93 66.8519 114.014 66.8519ZM114.014 55.4991C113.198 55.4991 112.399 55.7412 111.721 56.1948C111.042 56.6484 110.512 57.2932 110.2 58.0475C109.888 58.8019 109.806 59.632 109.965 60.4328C110.124 61.2336 110.518 61.9692 111.095 62.5465C111.672 63.1239 112.408 63.5171 113.209 63.6764C114.01 63.8357 114.84 63.7539 115.594 63.4414C116.348 63.129 116.993 62.5998 117.447 61.9209C117.9 61.2421 118.142 60.4439 118.142 59.6274C118.142 58.5325 117.707 57.4824 116.933 56.7082C116.159 55.934 115.109 55.4991 114.014 55.4991Z" fill="#F2BF46"/>
<path d="M99.5645 77.689C101.274 77.689 102.661 76.3028 102.661 74.5928C102.661 72.8828 101.274 71.4966 99.5645 71.4966C97.8545 71.4966 96.4683 72.8828 96.4683 74.5928C96.4683 76.3028 97.8545 77.689 99.5645 77.689Z" fill="#B0D7E9"/>
<path d="M231.975 408.176C230.63 408.656 229.172 408.728 227.786 408.38C226.4 408.032 225.149 407.282 224.19 406.223C223.23 405.164 222.607 403.844 222.397 402.431C222.188 401.018 222.402 399.574 223.014 398.282C223.625 396.991 224.605 395.91 225.831 395.175C227.056 394.441 228.472 394.086 229.899 394.157C231.326 394.227 232.7 394.719 233.848 395.57C234.995 396.421 235.865 397.593 236.346 398.939C236.666 399.832 236.806 400.78 236.76 401.728C236.713 402.675 236.48 403.605 236.074 404.463C235.668 405.32 235.097 406.09 234.394 406.727C233.691 407.364 232.869 407.856 231.975 408.176ZM228.157 397.483C227.388 397.758 226.718 398.255 226.232 398.911C225.746 399.567 225.465 400.352 225.425 401.168C225.385 401.983 225.587 402.792 226.007 403.492C226.427 404.193 227.045 404.753 227.782 405.102C228.52 405.451 229.345 405.573 230.153 405.454C230.961 405.334 231.715 404.978 232.32 404.43C232.925 403.882 233.354 403.166 233.552 402.375C233.751 401.583 233.71 400.75 233.436 399.981C233.253 399.47 232.972 399 232.608 398.598C232.244 398.197 231.804 397.87 231.314 397.638C230.823 397.406 230.292 397.273 229.75 397.247C229.209 397.22 228.667 397.301 228.157 397.483Z" fill="#F2BF46"/>
<path d="M30.5601 276.87C32.2701 276.87 33.6563 275.483 33.6563 273.773C33.6563 272.063 32.2701 270.677 30.5601 270.677C28.8501 270.677 27.4639 272.063 27.4639 273.773C27.4639 275.483 28.8501 276.87 30.5601 276.87Z" fill="#B0D7E9"/>
<path d="M50.9947 411.308C50.8251 411.309 50.657 411.276 50.5002 411.211C50.3434 411.147 50.2009 411.052 50.0809 410.932C49.961 410.812 49.866 410.669 49.8014 410.513C49.7368 410.356 49.7039 410.188 49.7046 410.018V331.58C49.7046 331.238 49.8405 330.91 50.0825 330.668C50.3244 330.426 50.6525 330.29 50.9947 330.29C51.3369 330.29 51.665 330.426 51.9069 330.668C52.1489 330.91 52.2848 331.238 52.2848 331.58V410.018C52.2848 410.36 52.1489 410.688 51.9069 410.93C51.665 411.172 51.3369 411.308 50.9947 411.308Z" fill="#1B3C47"/>
<path d="M43.4971 332.979C41.6946 332.993 39.9603 332.291 38.6756 331.027C37.3909 329.762 36.6611 328.039 36.6467 326.237C36.6323 324.434 37.3346 322.7 38.599 321.415C39.8633 320.131 41.5863 319.401 43.3887 319.386L71.7709 318.912C73.5489 318.921 75.2526 319.626 76.5171 320.876C77.7815 322.126 78.5062 323.822 78.5359 325.599C78.5656 327.377 77.8979 329.096 76.6759 330.387C75.4539 331.679 73.7747 332.441 71.9979 332.509L43.6416 332.979H43.4971ZM71.8586 321.518H71.7864L43.43 321.992C42.602 322.013 41.7985 322.277 41.1194 322.751C40.4403 323.225 39.9157 323.889 39.611 324.659C39.3062 325.429 39.2348 326.272 39.4055 327.082C39.5762 327.893 39.9816 328.635 40.5712 329.217C40.9668 329.605 41.4366 329.91 41.9526 330.113C42.4686 330.316 43.0202 330.413 43.5745 330.399L71.9309 329.929C73.0246 329.883 74.0576 329.413 74.8117 328.619C75.5658 327.826 75.9821 326.77 75.9727 325.675C75.9633 324.581 75.529 323.533 74.7614 322.752C73.9938 321.971 72.953 321.52 71.8586 321.492V321.518Z" fill="#1B3C47"/>
<path d="M73.7624 190.443C73.4138 190.442 73.0756 190.324 72.8025 190.107L44.4204 167.639C44.1191 167.378 43.9302 167.011 43.893 166.614C43.8558 166.217 43.9731 165.821 44.2205 165.508C44.4678 165.196 44.8263 164.991 45.2211 164.936C45.616 164.881 46.0167 164.98 46.34 165.213L74.7222 187.682C74.9737 187.881 75.157 188.154 75.2465 188.463C75.3361 188.771 75.3276 189.1 75.2221 189.403C75.1167 189.706 74.9196 189.969 74.658 190.155C74.3965 190.342 74.0835 190.442 73.7624 190.443Z" fill="#1B3C47"/>
<path d="M162.522 190.443C162.201 190.442 161.888 190.342 161.626 190.155C161.365 189.969 161.167 189.706 161.062 189.403C160.956 189.1 160.948 188.771 161.038 188.463C161.127 188.154 161.31 187.881 161.562 187.682L189.944 165.213C190.267 164.98 190.668 164.881 191.063 164.936C191.458 164.991 191.816 165.196 192.064 165.508C192.311 165.821 192.428 166.217 192.391 166.614C192.354 167.011 192.165 167.378 191.864 167.639L163.482 190.107C163.208 190.324 162.87 190.442 162.522 190.443Z" fill="#1B3C47"/>
<path d="M95.3696 270.145V274.985C95.3696 278.092 95.9815 281.168 97.1703 284.038C98.3591 286.908 100.102 289.516 102.298 291.712C104.495 293.909 107.102 295.651 109.972 296.84C112.842 298.029 115.918 298.641 119.025 298.641C122.131 298.641 125.207 298.029 128.077 296.84C130.947 295.651 133.555 293.909 135.752 291.712C137.948 289.516 139.691 286.908 140.879 284.038C142.068 281.168 142.68 278.092 142.68 274.985V270.145L119.66 274.893L95.3696 270.145Z" fill="#F4CEAE"/>
<path d="M143.236 268.247V273.087C143.235 276.625 142.441 280.118 140.912 283.308C139.382 286.499 137.158 289.306 134.401 291.524C131.644 293.741 128.425 295.312 124.98 296.122C121.536 296.931 117.954 296.958 114.498 296.2C119.764 295.04 124.476 292.116 127.855 287.913C131.233 283.71 133.075 278.48 133.075 273.087L134.624 271.802L143.236 268.247Z" fill="#FFB594"/>
<path d="M119.05 276.193C110.766 276.219 102.562 274.577 94.9256 271.365C87.2896 268.153 80.3784 263.437 74.6038 257.497C74.3164 257.204 74.1574 256.808 74.1617 256.397C74.1661 255.986 74.3334 255.594 74.627 255.306C74.9206 255.019 75.3163 254.86 75.7271 254.864C76.1379 254.869 76.5302 255.036 76.8176 255.33C83.7366 262.402 92.3206 267.624 101.782 270.516C111.244 273.409 121.281 273.879 130.971 271.884C140.662 269.889 149.697 265.493 157.247 259.099C164.797 252.705 170.621 244.517 174.184 235.287C174.332 234.904 174.626 234.595 175.001 234.428C175.377 234.262 175.803 234.251 176.186 234.399C176.569 234.547 176.878 234.841 177.045 235.216C177.211 235.592 177.221 236.018 177.074 236.401C172.55 248.116 164.586 258.187 154.229 265.29C143.872 272.392 131.608 276.193 119.05 276.193Z" fill="#1B3C47"/>
<path d="M197.581 289.621L244.541 223.568L258.216 201.636L251.249 196.218L247.637 198.798L256.714 183.668C256.941 183.289 257.089 182.867 257.149 182.43C257.21 181.992 257.181 181.546 257.065 181.12C256.949 180.693 256.748 180.294 256.474 179.948C256.2 179.601 255.858 179.313 255.47 179.101C254.743 178.703 253.893 178.595 253.089 178.799C252.286 179.002 251.59 179.503 251.141 180.2L236.485 202.906L236.8 211.72C236.8 213.036 236.387 215.033 237.244 216.173C238.312 217.587 240.784 217.649 242.136 216.689C243.607 215.626 244.262 213.593 244.474 211.864C244.902 208.35 243.41 204.753 239.958 203.417C238.356 202.778 236.577 202.739 234.949 203.308C233.321 203.877 231.953 205.015 231.098 206.513C230.072 208.331 229.217 210.24 228.543 212.215L221.417 220.89L206.07 239.612L191.425 257.467L187.162 262.689C186.713 263.231 186.321 263.546 186.362 264.237C186.409 265.011 187.074 266.059 187.358 266.776" fill="#F4CEAE"/>
<path d="M258.686 181.051C258.549 181.03 258.411 181.02 258.273 181.02C257.724 181.02 257.185 181.157 256.703 181.419C256.222 181.682 255.814 182.061 255.517 182.522L242.172 203.163L240.856 205.202V205.243C239.905 205.345 238.985 205.64 238.152 206.11C237.032 206.741 236.105 207.665 235.469 208.783C234.44 210.615 233.585 212.54 232.915 214.532L225.804 223.201L210.482 241.923L195.837 259.783L191.575 264.985C191.126 265.501 190.734 265.841 190.775 266.533C190.821 267.302 191.487 268.354 191.771 269.067L198.882 288.335L199.14 289.11L188.933 266.228C188.649 265.516 187.983 264.463 187.937 263.695C187.895 263.008 188.287 262.693 188.736 262.146L192.999 256.945L207.644 239.085L222.965 220.373L230.092 211.698C230.762 209.707 231.618 207.782 232.646 205.95C233.199 204.975 233.976 204.146 234.913 203.53C235.85 202.915 236.919 202.531 238.034 202.41V202.369L252.694 179.663C252.991 179.202 253.399 178.823 253.881 178.561C254.362 178.298 254.902 178.161 255.45 178.161C256.248 178.162 257.018 178.454 257.617 178.982C258.215 179.51 258.601 180.239 258.701 181.03L258.686 181.051Z" fill="#FCEADE"/>
<path d="M188.39 267.519C188.131 267.519 187.877 267.44 187.663 267.294C187.448 267.147 187.283 266.94 187.188 266.699C187.11 266.497 186.997 266.276 186.878 266.038C186.481 265.336 186.22 264.566 186.109 263.768C186.093 263.356 186.164 262.945 186.319 262.564C186.474 262.182 186.709 261.838 187.007 261.554L187.198 261.327L228.409 211.085C229.094 209.093 229.958 207.168 230.989 205.331C231.994 203.559 233.606 202.211 235.528 201.536C237.45 200.86 239.552 200.903 241.444 201.657C245.17 203.102 247.311 207.039 246.775 211.462C246.594 212.958 245.98 215.688 243.916 217.18C242.089 218.501 238.756 218.454 237.238 216.411C236.294 215.162 236.402 213.48 236.49 212.128C236.49 211.782 236.531 211.457 236.531 211.188C236.531 211.019 236.563 210.851 236.628 210.694C236.692 210.537 236.786 210.395 236.906 210.275C237.025 210.154 237.167 210.059 237.323 209.993C237.479 209.928 237.647 209.894 237.816 209.893C238.158 209.893 238.485 210.028 238.727 210.269C238.969 210.51 239.105 210.837 239.106 211.178C239.106 211.534 239.106 211.9 239.06 212.293C238.998 213.222 238.926 214.357 239.292 214.873C239.901 215.683 241.589 215.688 242.388 215.105C243.704 214.15 244.091 212.035 244.2 211.168C244.499 208.675 243.715 205.326 240.495 204.077C239.181 203.553 237.723 203.52 236.387 203.984C235.051 204.449 233.928 205.38 233.224 206.606C232.243 208.364 231.427 210.209 230.788 212.117L230.716 212.355L189.19 262.988C189.113 263.086 189.035 263.174 188.958 263.262C188.855 263.373 188.762 263.492 188.679 263.618C188.792 264.076 188.966 264.517 189.195 264.929C189.34 265.228 189.474 265.507 189.582 265.78C189.645 265.938 189.676 266.106 189.673 266.275C189.67 266.445 189.634 266.612 189.566 266.768C189.499 266.923 189.401 267.063 189.279 267.181C189.157 267.298 189.013 267.391 188.855 267.452C188.705 267.503 188.548 267.526 188.39 267.519Z" fill="#1B3C47"/>
<path d="M198.613 290.395C198.373 290.395 198.138 290.328 197.935 290.202C197.731 290.076 197.566 289.896 197.459 289.681C197.352 289.467 197.306 289.227 197.328 288.989C197.349 288.75 197.437 288.522 197.581 288.33L244.515 222.314L256.822 202.136L250.428 196.656C250.168 196.433 250.008 196.116 249.981 195.774C249.955 195.433 250.066 195.095 250.289 194.834C250.512 194.574 250.829 194.414 251.171 194.388C251.513 194.361 251.851 194.472 252.111 194.695L260.166 201.605L246.646 223.795L199.686 289.848C199.566 290.02 199.405 290.159 199.218 290.255C199.03 290.35 198.823 290.398 198.613 290.395Z" fill="#1B3C47"/>
<path d="M199.333 291.26L188.842 264.91C187.717 262.085 184.515 260.706 181.69 261.831L181.685 261.833C178.86 262.958 177.481 266.16 178.606 268.985L189.097 295.335C190.222 298.16 193.424 299.539 196.249 298.414L196.254 298.412C199.08 297.287 200.458 294.085 199.333 291.26Z" fill="white"/>
<path d="M194.206 300.091C192.847 300.087 191.52 299.678 190.395 298.914C189.271 298.151 188.4 297.069 187.895 295.808L177.404 269.459C177.045 268.624 176.856 267.726 176.85 266.817C176.844 265.908 177.02 265.007 177.368 264.168C177.716 263.328 178.228 262.567 178.875 261.928C179.522 261.29 180.291 260.788 181.135 260.452C181.979 260.116 182.882 259.952 183.791 259.971C184.699 259.989 185.595 260.19 186.425 260.56C187.255 260.931 188.002 261.464 188.622 262.128C189.242 262.792 189.723 263.574 190.036 264.427L200.528 290.776C200.936 291.808 201.087 292.924 200.966 294.028C200.844 295.131 200.455 296.188 199.832 297.106C199.209 298.025 198.37 298.777 197.389 299.297C196.409 299.817 195.316 300.09 194.206 300.091ZM183.72 262.724C183.031 262.724 182.353 262.893 181.744 263.215C181.135 263.538 180.615 264.005 180.229 264.575C179.842 265.145 179.601 265.802 179.527 266.487C179.453 267.172 179.548 267.864 179.803 268.504L190.289 294.853C190.481 295.386 190.778 295.875 191.162 296.291C191.547 296.707 192.011 297.041 192.527 297.274C193.044 297.507 193.602 297.633 194.168 297.646C194.734 297.658 195.298 297.557 195.824 297.347C196.35 297.138 196.829 296.824 197.231 296.426C197.634 296.027 197.952 295.552 198.167 295.028C198.382 294.504 198.489 293.942 198.483 293.375C198.476 292.809 198.355 292.25 198.128 291.731L187.637 265.382C187.324 264.599 186.783 263.927 186.085 263.453C185.387 262.98 184.564 262.726 183.72 262.724Z" fill="#1B3C47"/>
<path d="M237.383 203.174C237.151 203.174 236.924 203.11 236.725 202.992C236.526 202.873 236.363 202.702 236.252 202.498C236.142 202.295 236.089 202.065 236.098 201.833C236.107 201.602 236.178 201.377 236.304 201.182L250.96 178.477C251.587 177.509 252.555 176.813 253.671 176.526C254.788 176.239 255.972 176.383 256.987 176.929C257.528 177.224 258.004 177.626 258.386 178.109C258.768 178.593 259.048 179.149 259.21 179.743C259.372 180.338 259.412 180.959 259.328 181.57C259.244 182.18 259.038 182.768 258.721 183.296L249.639 198.427C249.571 198.6 249.467 198.757 249.334 198.886C249.2 199.016 249.04 199.115 248.865 199.177C248.689 199.238 248.502 199.262 248.317 199.244C248.132 199.227 247.952 199.17 247.791 199.077C247.63 198.984 247.491 198.857 247.383 198.706C247.276 198.554 247.202 198.381 247.168 198.198C247.134 198.015 247.139 197.827 247.185 197.646C247.23 197.466 247.314 197.297 247.43 197.152L256.507 182.027C256.768 181.579 256.845 181.047 256.72 180.544C256.596 180.041 256.28 179.606 255.84 179.332C255.4 179.058 254.871 178.966 254.364 179.077C253.857 179.187 253.414 179.49 253.127 179.922L238.472 202.602C238.352 202.779 238.189 202.925 237.999 203.025C237.809 203.125 237.597 203.176 237.383 203.174Z" fill="#1B3C47"/>
<path d="M370.903 157.061L371.496 162.541L372.09 168.021L367.043 165.797L362.001 163.568L366.454 160.312L370.903 157.061Z" fill="#00B8FF"/>
<path d="M179.282 19.763L174.989 16.3055L170.695 12.8481L175.835 10.8562L180.975 8.86426L180.129 14.3136L179.282 19.763Z" fill="#00B8FF"/>
<path d="M255.244 397.927L250.95 394.47L246.657 391.012L251.796 389.026L256.936 387.034L256.09 392.483L255.244 397.927Z" fill="#00B8FF"/>
<path d="M119.175 300.189C112.493 300.181 106.087 297.523 101.362 292.798C96.6374 288.073 93.9794 281.668 93.9712 274.986V270.145C93.9712 269.735 94.1343 269.341 94.4246 269.051C94.715 268.76 95.1087 268.597 95.5193 268.597C95.9299 268.597 96.3237 268.76 96.614 269.051C96.9043 269.341 97.0674 269.735 97.0674 270.145V274.986C97.1561 280.791 99.5245 286.329 103.661 290.403C107.798 294.477 113.371 296.76 119.177 296.76C124.983 296.76 130.556 294.477 134.693 290.403C138.83 286.329 141.198 280.791 141.287 274.986V270.145C141.287 269.735 141.45 269.341 141.74 269.051C142.031 268.76 142.424 268.597 142.835 268.597C143.246 268.597 143.639 268.76 143.93 269.051C144.22 269.341 144.383 269.735 144.383 270.145V274.986C144.375 281.668 141.716 288.075 136.99 292.8C132.264 297.525 125.857 300.182 119.175 300.189Z" fill="#1B3C47"/>
</svg>
