<svg width="66" height="53" viewBox="0 0 66 53" fill="none" xmlns="http://www.w3.org/2000/svg">
<path d="M64.8484 19.7922C62.8273 26.0456 55.8481 25.8111 46.1778 31.8634C40.293 35.5484 30.6338 43.3092 24.8718 49.2946C24.1013 50.0874 22.5045 51.8071 19.9138 52.4771C16.0725 53.4821 12.4321 51.5837 9.74096 50.1879C7.12796 48.8367 4.48146 47.4521 2.44912 44.4259C-0.766875 39.6242 0.00362464 34.2642 0.293958 32.6674C0.159958 34.6104 0.349791 36.8102 1.28779 39.1217C2.89579 43.0747 5.84379 45.1517 6.71479 45.7324C10.4445 48.2002 14.4533 48.3454 16.5638 48.1109C24.414 47.2176 25.9661 38.7867 33.8833 31.3832C47.3056 18.8431 63.4861 23.7899 65.0941 16.4311C65.2058 15.9286 65.2393 15.4037 65.1946 14.8789C65.3733 16.0626 65.4738 17.8492 64.8484 19.7922Z" fill="#FF7300"/>
<path d="M64.6964 14.9277L64.6968 14.9316C64.7372 15.4066 64.707 15.8702 64.6059 16.3352C64.2544 17.9426 63.121 18.9161 61.2441 19.6533C59.656 20.2771 57.6296 20.6955 55.2612 21.1846C54.7927 21.2813 54.3107 21.3808 53.8161 21.4853C47.8724 22.7401 40.3576 24.6608 33.5423 31.0282L33.5421 31.0284C30.501 33.8721 28.374 36.8833 26.5084 39.5244C25.9193 40.3584 25.3563 41.1554 24.7988 41.8987C22.4607 45.0157 20.2196 47.202 16.5076 47.6244C14.4701 47.8506 10.5919 47.708 6.9918 45.3262C6.14902 44.7643 3.30237 42.7568 1.75127 38.9437C0.84749 36.7163 0.663244 34.5952 0.793109 32.7121L0.793159 32.7114C0.912514 30.9428 1.30328 29.408 1.62615 28.1945C1.95568 26.9615 3.46101 21.6306 10.0399 15.0074C13.0607 11.9755 21.7862 3.443 35.8694 1.26871L35.8696 1.26869C41.0014 0.474874 46.6986 -0.398156 52.8989 2.5331L52.8994 2.53332C55.3963 3.71058 58.2755 5.64981 60.5712 7.89615C62.8837 10.1589 64.521 12.6516 64.6964 14.9277Z" fill="#FFF200" stroke="#BEBEBE"/>
<path d="M14.9451 31.6056C15.0568 31.9852 15.336 33.1801 14.8223 34.5201C14.2416 36.0052 12.857 37.2001 11.1485 37.4346C10.8693 37.4681 9.14963 37.6802 7.69796 36.4631C7.54163 36.3291 6.42496 35.3799 6.19046 33.8724C5.78846 31.3822 7.86546 27.9987 10.7241 28.0434C12.7565 28.0769 14.4426 29.8301 14.9451 31.6056Z" fill="white"/>
</svg>
