<svg width="54" height="69" viewBox="0 0 54 69" fill="none" xmlns="http://www.w3.org/2000/svg">
<path d="M28.4804 39.3054L28.5034 39.1975C28.9483 37.357 29.5082 35.0622 29.071 32.9829C28.7795 31.3426 27.5753 30.7035 26.5474 30.6573C25.3355 30.6033 24.254 31.2964 23.9855 32.3052C23.4793 34.1535 23.9318 36.6794 24.7602 39.8983C23.717 42.3934 22.0526 46.0205 20.833 48.1768C18.5625 49.355 15.5173 51.1724 15.0648 53.4673C14.9727 53.8908 15.0801 54.4299 15.3332 54.9151C15.617 55.4541 16.0696 55.87 16.5989 56.0702C16.829 56.1549 17.1051 56.2242 17.4273 56.2242C18.7773 56.2242 20.9634 55.1307 23.8781 50.1097C24.323 49.9634 24.7832 49.8094 25.2281 49.6554C27.3145 48.9469 29.4776 48.2076 31.4335 47.8764C33.5966 49.0393 36.0588 49.7863 37.731 49.7863C39.3878 49.7863 40.0398 48.8006 40.2852 48.2076C40.7148 47.168 40.5077 45.8588 39.8097 45.158C38.7972 44.1569 36.3349 43.8951 32.4997 44.3725C30.6128 43.2174 29.3778 41.6464 28.4804 39.3054ZM20.0659 51.003C18.9997 52.5586 18.1943 53.3364 17.7571 53.6752C18.271 52.728 19.2759 51.7269 20.0659 51.003ZM26.7852 32.8674C27.1841 33.5528 27.1304 35.6243 26.8236 36.6717C26.4477 35.1392 26.394 32.9675 26.6165 32.7134C26.6778 32.7211 26.7315 32.7673 26.7852 32.8674ZM26.6625 42.147C27.4832 43.5717 28.5188 44.7961 29.6616 45.7048C28.0048 46.0821 26.4937 46.7059 25.1437 47.2604C24.8216 47.3913 24.5071 47.5222 24.2003 47.6454C25.2205 45.7895 26.0719 43.6872 26.6625 42.147ZM38.5977 47.1911C38.6054 47.2065 38.6131 47.2296 38.567 47.2604H38.5517L38.5364 47.2835C38.475 47.322 37.846 47.6916 35.1383 46.6212C38.2526 46.4749 38.5901 47.1834 38.5977 47.1911ZM53.279 17.2962L36.7722 0.723884C36.3119 0.26183 35.6906 0 35.0386 0H2.45455C1.09687 0 0 1.10123 0 2.46429V66.5357C0 67.8988 1.09687 69 2.45455 69H51.5455C52.9031 69 54 67.8988 54 66.5357V19.0443C54 18.3897 53.7392 17.7583 53.279 17.2962ZM48.3392 20.1763H33.9034V5.68326L48.3392 20.1763ZM48.4773 63.4554H5.52273V5.54464H28.6875V22.1786C28.6875 23.0364 29.0269 23.8591 29.6311 24.4656C30.2352 25.0722 31.0547 25.4129 31.9091 25.4129H48.4773V63.4554Z" fill="#FF0000"/>
</svg>
