<svg width="552" height="321" viewBox="0 0 552 321" fill="none" xmlns="http://www.w3.org/2000/svg">
<path d="M522.873 192.92C503.365 243.431 466.688 287.684 415.743 307.133C409.117 309.658 402.351 311.801 395.48 313.55C359.133 322.816 319.369 319.593 285.864 302.707C271.644 295.535 258.677 286.058 244.405 278.988C230.134 271.919 213.836 267.292 198.302 270.782C184.928 273.786 173.643 282.396 162.282 290.067C135.498 308.15 103.293 322.46 71.578 316.249C56.9844 313.395 42.614 305.489 35.8365 292.273C20.8566 263.056 49.1081 228.318 43.3866 196.006C39.7253 175.326 23.0027 159.84 12.6069 141.589C-5.18448 110.372 -3.08128 68.9044 17.779 39.6527C38.6393 10.4011 77.1494 -5.11541 112.457 1.5204C155.513 9.61558 188.065 46.0525 229.932 58.9464C256.115 67.0029 284.542 64.5993 309.549 53.9888C349.952 36.8413 405.459 10.5427 450.927 14.8264C475.105 17.1055 498.82 27.8362 514.778 46.1598C534.952 69.2907 541 102.131 537.634 132.631C535.324 153.278 530.363 173.542 522.873 192.92Z" fill="url(#paint0_linear_619_13428)"/>
<path d="M535.853 232.872C534.956 232.87 534.063 232.762 533.192 232.55C530.437 231.873 528.045 230.169 526.503 227.788C524.962 225.407 524.387 222.527 524.897 219.736C525.407 216.946 526.963 214.455 529.247 212.773C531.531 211.091 534.371 210.343 537.187 210.684C540.003 211.025 542.583 212.428 544.4 214.606C546.217 216.784 547.134 219.574 546.964 222.406C546.794 225.237 545.549 227.897 543.484 229.842C541.419 231.787 538.69 232.871 535.853 232.872ZM535.853 215.625C534.377 215.631 532.955 216.176 531.853 217.158C530.751 218.139 530.046 219.49 529.871 220.955C529.696 222.421 530.063 223.899 530.902 225.113C531.741 226.327 532.995 227.192 534.428 227.545C535.258 227.744 536.12 227.766 536.958 227.608C537.797 227.45 538.592 227.117 539.293 226.63C539.993 226.142 540.582 225.512 541.021 224.781C541.461 224.05 541.74 223.233 541.841 222.386C541.943 221.539 541.863 220.68 541.609 219.866C541.354 219.052 540.93 218.301 540.365 217.662C539.799 217.023 539.105 216.512 538.327 216.161C537.549 215.81 536.706 215.627 535.853 215.625Z" fill="#E7F6FF"/>
<path d="M525.691 244.681C526.324 242.071 524.721 239.442 522.111 238.809C519.501 238.176 516.872 239.779 516.239 242.389C515.606 244.999 517.209 247.628 519.819 248.261C522.429 248.894 525.058 247.291 525.691 244.681Z" fill="#E7F6FF"/>
<path d="M23.6892 231.812C20.741 231.748 17.9373 230.523 15.8866 228.404C13.8359 226.285 12.7038 223.443 12.736 220.494C12.7682 217.545 13.9622 214.728 16.0587 212.655C18.1552 210.581 20.985 209.418 23.9338 209.418C26.8826 209.418 29.7125 210.581 31.809 212.655C33.9055 214.728 35.0994 217.545 35.1316 220.494C35.1638 223.443 34.0317 226.285 31.981 228.404C29.9303 230.523 27.1266 231.748 24.1785 231.812H23.6892ZM23.6892 214.57H23.4359C21.8437 214.605 20.3293 215.266 19.2215 216.41C18.1138 217.555 17.5022 219.09 17.5194 220.682C17.5367 222.275 18.1814 223.796 19.3136 224.916C20.4459 226.036 21.9742 226.664 23.5668 226.664C25.1595 226.664 26.6878 226.036 27.82 224.916C28.9523 223.796 29.597 222.275 29.6143 220.682C29.6315 219.09 29.0199 217.555 27.9121 216.41C26.8044 215.266 25.29 214.605 23.6977 214.57H23.6892Z" fill="#E7F6FF"/>
<path d="M15.7055 250.605C18.3888 250.49 20.4703 248.22 20.3545 245.537C20.2388 242.854 17.9697 240.772 15.2863 240.888C12.603 241.004 10.5216 243.273 10.6373 245.956C10.7531 248.64 13.0222 250.721 15.7055 250.605Z" fill="#E7F6FF"/>
<path d="M304.355 50.7599C301.683 50.7622 299.098 49.8079 297.068 48.0695C295.039 46.3311 293.699 43.9236 293.29 41.2827C292.882 38.6418 293.433 35.9421 294.843 33.6721C296.253 31.4022 298.429 29.712 300.977 28.9076C303.526 28.1031 306.278 28.2375 308.736 29.2865C311.193 30.3355 313.194 32.2297 314.376 34.6262C315.559 37.0228 315.844 39.7634 315.18 42.3519C314.516 44.9404 312.948 47.2059 310.759 48.7382C308.881 50.0519 306.646 50.7575 304.355 50.7599ZM304.32 33.5222C302.757 33.5206 301.253 34.1224 300.122 35.2023C298.992 36.2822 298.321 37.7568 298.251 39.3188C298.181 40.8808 298.716 42.4096 299.745 43.5866C300.775 44.7636 302.218 45.498 303.776 45.6367C305.333 45.7754 306.884 45.3078 308.105 44.3312C309.326 43.3546 310.123 41.9445 310.33 40.3947C310.537 38.8449 310.138 37.275 309.216 36.0123C308.294 34.7495 306.92 33.8914 305.381 33.6166C305.031 33.5542 304.676 33.5226 304.32 33.5222Z" fill="#E7F6FF"/>
<path d="M281.522 50.1497C283.721 48.6077 284.254 45.5749 282.712 43.3759C281.169 41.1769 278.137 40.6443 275.938 42.1864C273.739 43.7284 273.206 46.7612 274.748 48.9602C276.29 51.1592 279.323 51.6918 281.522 50.1497Z" fill="#E7F6FF"/>
<path d="M551.983 108.45C551.983 103.73 550.108 99.2034 546.771 95.8661C543.434 92.5287 538.907 90.6539 534.188 90.6539C533.793 90.6539 533.402 90.6539 533.016 90.6925C533.042 90.3062 533.054 89.9156 533.054 89.5207C533.054 86.9914 532.514 84.4913 531.471 82.1871C530.429 79.8828 528.907 77.8273 527.007 76.1575C525.107 74.4878 522.873 73.2422 520.454 72.5038C518.035 71.7654 515.486 71.5511 512.978 71.8753C510.47 72.1994 508.059 73.0546 505.907 74.3837C503.755 75.7128 501.911 77.4854 500.499 79.5832C499.086 81.681 498.136 84.0559 497.713 86.5496C497.291 89.0433 497.404 91.5984 498.047 94.0447C495.896 92.485 493.423 91.4266 490.81 90.9472C488.197 90.4679 485.51 90.5797 482.945 91.2746C480.381 91.9694 478.005 93.2296 475.991 94.9627C473.977 96.6958 472.377 98.8578 471.308 101.29C470.239 103.722 469.728 106.363 469.813 109.018C469.898 111.674 470.576 114.277 471.798 116.636C473.02 118.995 474.754 121.05 476.875 122.652C478.995 124.253 481.446 125.359 484.05 125.889C485.113 128.708 486.874 131.211 489.169 133.163C491.463 135.116 494.216 136.454 497.169 137.052C500.122 137.65 503.178 137.488 506.052 136.582C508.925 135.676 511.522 134.056 513.598 131.872C515.722 133.476 518.179 134.582 520.787 135.11C523.396 135.639 526.089 135.575 528.67 134.924C531.25 134.273 533.652 133.052 535.698 131.35C537.745 129.649 539.383 127.509 540.493 125.091C543.87 123.81 546.778 121.533 548.831 118.56C550.883 115.588 551.983 112.062 551.983 108.45Z" fill="white"/>
<path d="M82.1752 65.6718C82.1774 63.3337 81.7189 61.0181 80.8259 58.8574C79.9328 56.6966 78.6228 54.733 76.9705 53.0787C75.3183 51.4245 73.3562 50.1121 71.1965 49.2164C69.0369 48.3208 66.7218 47.8595 64.3838 47.8589C63.9889 47.8589 63.5983 47.8589 63.212 47.8976C63.2378 47.5113 63.2506 47.1207 63.2506 46.7258C63.2502 44.1965 62.7105 41.6964 61.6677 39.3921C60.6249 37.0879 59.1029 35.0323 57.2031 33.3626C55.3033 31.6929 53.0695 30.4473 50.6504 29.7089C48.2313 28.9705 45.6826 28.7562 43.1742 29.0804C40.6658 29.4045 38.2553 30.2597 36.1035 31.5888C33.9516 32.9179 32.1077 34.6904 30.6948 36.7883C29.2819 38.8861 28.3325 41.261 27.9097 43.7547C27.4869 46.2484 27.6006 48.8035 28.2431 51.2498C26.0923 49.6901 23.6196 48.6317 21.0064 48.1523C18.3932 47.673 15.7058 47.7848 13.1415 48.4797C10.5771 49.1745 8.20092 50.4347 6.1872 52.1678C4.17349 53.9009 2.57338 56.0629 1.50431 58.4951C0.43523 60.9273 -0.0756854 63.5681 0.00905523 66.2235C0.0937959 68.879 0.772042 71.4818 1.99402 73.8409C3.216 76.2 4.95069 78.2556 7.07081 79.8567C9.19092 81.4579 11.6427 82.564 14.2461 83.094C15.31 85.9106 17.0712 88.4112 19.3648 90.3617C21.6583 92.3123 24.4093 93.649 27.3602 94.2468C30.3111 94.8446 33.3654 94.684 36.2373 93.7799C39.1092 92.8758 41.7047 91.2578 43.781 89.0774C45.9052 90.6807 48.362 91.7873 50.9704 92.3154C53.5789 92.8436 56.2726 92.78 58.8532 92.1293C61.4338 91.4786 63.8356 90.2573 65.8818 88.5555C67.9279 86.8536 69.5663 84.7145 70.6762 82.2956C74.0526 81.0177 76.9606 78.7433 79.0143 75.7742C81.068 72.8052 82.1704 69.2819 82.1752 65.6718Z" fill="white"/>
<path d="M409.558 318.885H153.525V313.305H409.558C410.298 313.305 411.007 313.599 411.531 314.122C412.054 314.645 412.348 315.355 412.348 316.095C412.348 316.835 412.054 317.544 411.531 318.067C411.007 318.591 410.298 318.885 409.558 318.885Z" fill="#426572"/>
<path d="M142.074 318.885H126.42C125.68 318.885 124.97 318.591 124.447 318.067C123.924 317.544 123.63 316.835 123.63 316.095C123.63 315.355 123.924 314.645 124.447 314.122C124.97 313.599 125.68 313.305 126.42 313.305H142.074C142.814 313.305 143.523 313.599 144.046 314.122C144.57 314.645 144.864 315.355 144.864 316.095C144.864 316.835 144.57 317.544 144.046 318.067C143.523 318.591 142.814 318.885 142.074 318.885Z" fill="#426572"/>
<path d="M116.26 318.885H111.272C110.532 318.885 109.823 318.591 109.3 318.067C108.776 317.544 108.482 316.835 108.482 316.095C108.482 315.355 108.776 314.645 109.3 314.122C109.823 313.599 110.532 313.305 111.272 313.305H116.26C117 313.305 117.71 313.599 118.233 314.122C118.756 314.645 119.05 315.355 119.05 316.095C119.05 316.835 118.756 317.544 118.233 318.067C117.71 318.591 117 318.885 116.26 318.885Z" fill="#426572"/>
<path d="M499.335 318.885H420.641V313.305H499.335C500.075 313.305 500.784 313.599 501.307 314.122C501.831 314.645 502.125 315.355 502.125 316.095C502.125 316.835 501.831 317.544 501.307 318.067C500.784 318.591 500.075 318.885 499.335 318.885Z" fill="#426572"/>
<path d="M97.005 318.885H18.3066V313.305H97.005C97.7449 313.305 98.4546 313.599 98.9778 314.122C99.501 314.645 99.7949 315.355 99.7949 316.095C99.7949 316.835 99.501 317.544 98.9778 318.067C98.4546 318.591 97.7449 318.885 97.005 318.885Z" fill="#426572"/>
<path d="M121.943 101.109H408.588C413.762 101.109 418.723 103.164 422.382 106.821C426.041 110.479 428.098 115.44 428.101 120.613V306.15H102.431V120.613C102.433 115.44 104.49 110.479 108.149 106.821C111.808 103.164 116.77 101.109 121.943 101.109Z" fill="#EBF0F9"/>
<path d="M416.782 115.338H115.041V287.714H416.782V115.338Z" fill="#637F91"/>
<path d="M112.779 287.393H418.065C418.065 288.761 417.523 290.074 416.558 291.044C415.592 292.014 414.282 292.562 412.914 292.569H117.951C116.578 292.569 115.261 292.024 114.291 291.053C113.32 290.082 112.774 288.765 112.774 287.393H112.779Z" fill="white"/>
<g opacity="0.5">
<path d="M205.208 114.693L160.092 288.684H137.373L182.489 114.693H205.208Z" fill="#A7BCD5"/>
<path d="M263.115 114.693L218.003 288.684H170.359L215.475 114.693H263.115Z" fill="#A7BCD5"/>
</g>
<path d="M430.675 308.724H99.8545V112.294C99.859 108.646 101.31 105.148 103.89 102.569C106.47 99.989 109.967 98.5377 113.615 98.5332H416.914C420.562 98.5377 424.06 99.989 426.64 102.569C429.219 105.148 430.671 108.646 430.675 112.294V308.724ZM105.005 303.574H425.524V112.294C425.522 110.011 424.614 107.823 423 106.208C421.386 104.594 419.197 103.686 416.914 103.684H113.615C111.333 103.686 109.144 104.594 107.53 106.208C105.915 107.823 105.007 110.011 105.005 112.294V303.574Z" fill="#426572"/>
<path d="M61.3574 300.008H477.907V301.377C477.907 305.817 476.143 310.075 473.004 313.214C469.865 316.353 465.607 318.117 461.167 318.117H78.0972C73.6575 318.117 69.3997 316.353 66.2604 313.214C63.1211 310.075 61.3574 305.817 61.3574 301.377V300.008Z" fill="#EBF0F9"/>
<path opacity="0.5" d="M475.774 308.738C474.858 311.12 473.242 313.167 471.138 314.611C469.035 316.055 466.543 316.827 463.991 316.825H72.676C70.1262 316.825 67.6362 316.052 65.5344 314.608C63.4326 313.165 61.8176 311.118 60.9023 308.738H475.774Z" fill="#A7BCD5"/>
<path d="M459.224 320.043H76.1579C71.0369 320.037 66.1274 318 62.5063 314.379C58.8853 310.758 56.8485 305.849 56.8428 300.728V296.783H478.543V300.728C478.537 305.849 476.5 310.76 472.878 314.381C469.256 318.002 464.345 320.038 459.224 320.043ZM62.0407 301.934C62.3428 305.469 63.9605 308.762 66.5738 311.161C69.1871 313.561 72.6058 314.892 76.1536 314.892H459.224C462.771 314.892 466.19 313.561 468.803 311.161C471.417 308.762 473.034 305.469 473.337 301.934H62.0407Z" fill="#426572"/>
<path d="M418.709 289.319H111.813V112.762H418.709V289.319ZM116.964 284.168H413.558V117.912H116.964V284.168Z" fill="#426572"/>
<path d="M370.657 60.0017V286.744H164.969V60.0017C164.977 58.9796 165.386 58.0016 166.109 57.2788C166.832 56.5561 167.81 56.1465 168.832 56.1387H366.777C367.011 56.1388 367.243 56.1604 367.473 56.2031C368.362 56.3676 369.167 56.8368 369.748 57.53C370.329 58.2232 370.651 59.0971 370.657 60.0017Z" fill="white"/>
<path d="M168.204 74.8782H371.305V61.2375L367.42 56.1211H189.55H172.085L165.616 61.2375V74.8782H168.204Z" fill="#E2F2FF"/>
<path d="M373.88 289.32H163.041V60.0028C163.048 58.2973 163.728 56.6637 164.934 55.4577C166.14 54.2517 167.774 53.5712 169.479 53.5645H367.416C369.122 53.5712 370.755 54.2517 371.961 55.4577C373.167 56.6637 373.848 58.2973 373.855 60.0028L373.88 289.32ZM168.192 284.17H368.73V60.0028C368.721 59.664 368.583 59.3415 368.343 59.1019C368.103 58.8623 367.781 58.7238 367.442 58.7151H169.497C169.158 58.7238 168.835 58.8623 168.596 59.1019C168.356 59.3415 168.218 59.664 168.209 60.0028L168.192 284.17Z" fill="#426572"/>
<path d="M358.651 64.0703H177.716C176.287 64.0703 175.128 65.2291 175.128 66.6585C175.128 68.088 176.287 69.2468 177.716 69.2468H358.651C360.081 69.2468 361.24 68.088 361.24 66.6585C361.24 65.2291 360.081 64.0703 358.651 64.0703Z" fill="#CADCE8"/>
<path d="M232.687 99.168H190.396V147.357H232.687V99.168Z" fill="#E8837E"/>
<path d="M336.958 99.168H236.679V147.357H336.958V99.168Z" fill="#E8837E"/>
<path d="M336.958 152.693H289.61V200.882H336.958V152.693Z" fill="#DDE4ED"/>
<path d="M285.619 152.693H190.928V200.882H285.619V152.693Z" fill="#DDE4ED"/>
<path d="M337.225 206.217H190.928V254.406H337.225V206.217Z" fill="#DDE4ED"/>
<path d="M338.516 260.883H301.002V266.034H338.516V260.883Z" fill="#DDE4ED"/>
<path d="M133.584 274.465H72.179C71.1679 274.472 70.1714 274.224 69.2817 273.744C67.994 273.04 67.1699 271.885 67.1699 270.584L67.2043 186.173C67.2051 185.621 67.3533 185.078 67.6335 184.602C68.4147 183.246 70.1788 182.293 72.2133 182.293H133.618C135.764 182.293 137.571 183.332 138.292 184.782C138.511 185.212 138.626 185.687 138.627 186.169L138.597 270.584C138.597 272.533 136.713 274.16 134.279 274.426C134.048 274.452 133.816 274.465 133.584 274.465Z" fill="white"/>
<path d="M135.253 273.815L73.8264 273.803C72.8154 273.81 71.8189 273.562 70.9292 273.081C69.6415 272.378 68.8174 271.223 68.8174 269.922L68.8517 185.511C68.8526 184.959 69.0008 184.416 69.2809 183.94C70.0621 182.584 71.8262 181.631 73.8608 181.631H74.6978L74.6849 264.746C74.6849 266.034 75.5176 267.201 76.7967 267.905C77.6864 268.385 78.6829 268.633 79.6939 268.626H140.266V269.914C140.266 271.862 138.382 273.489 135.948 273.755C135.718 273.789 135.485 273.809 135.253 273.815Z" fill="#D6DEE9"/>
<path d="M134.416 276.39H73.0069C71.5589 276.398 70.1326 276.039 68.8606 275.347C66.7144 274.158 65.4268 272.132 65.4268 269.935L65.4611 185.524C65.4663 184.517 65.7372 183.529 66.2466 182.661C67.5343 180.45 70.1096 179.072 73.0498 179.072H134.455C137.459 179.072 140.142 180.553 141.361 182.854L141.704 183.382V183.622C141.926 184.234 142.04 184.881 142.039 185.532L142.005 269.943C142.005 273.18 139.159 275.953 135.39 276.343C135.067 276.377 134.741 276.393 134.416 276.39ZM73.0369 184.201C71.8823 184.201 70.9809 184.712 70.6933 185.219C70.6371 185.304 70.6059 185.404 70.6032 185.506L70.5689 269.918C70.5689 270.201 70.8822 270.561 71.3501 270.823C71.8603 271.093 72.4297 271.232 73.0069 271.227H134.412C134.547 271.227 134.681 271.22 134.815 271.205C136.103 271.068 136.85 270.347 136.85 269.918L136.884 185.506C136.884 185.455 136.875 185.404 136.858 185.356L136.618 184.987C136.024 184.452 135.245 184.17 134.446 184.201H73.0412H73.0369Z" fill="#426572"/>
<path d="M127.334 218.82H85.6904V223.971H127.334V218.82Z" fill="#426572"/>
<path d="M127.334 208.072H85.6904V213.223H127.334V208.072Z" fill="#426572"/>
<path d="M127.334 230.996H85.6904V236.147H127.334V230.996Z" fill="#426572"/>
<path opacity="0.2" d="M460.129 121.9C463.129 116.269 464.971 110.094 465.545 103.74C466.12 97.3855 465.417 90.9804 463.476 84.9025C461.535 78.8245 458.397 73.1968 454.246 68.3515C450.095 63.5062 445.015 59.5414 439.307 56.691C433.599 53.8406 427.378 52.1625 421.01 51.7555C414.643 51.3485 408.259 52.221 402.234 54.3215C396.209 56.422 390.666 59.7079 385.932 63.9853C381.198 68.2628 377.369 73.4451 374.67 79.2265C370.943 86.225 369.016 94.0409 369.063 101.97C369.11 109.899 371.129 117.691 374.939 124.645C378.748 131.599 384.228 137.496 390.884 141.804C397.541 146.112 405.165 148.696 413.069 149.323C411.689 149.649 410.289 149.914 408.867 150.117C416.349 151.196 423.98 150.484 431.134 148.04C438.287 145.595 444.759 141.488 450.016 136.056C454.223 131.994 457.651 127.196 460.129 121.9Z" fill="#606060"/>
<path d="M411.524 138.168C437.908 138.168 459.296 116.78 459.296 90.3957C459.296 64.0116 437.908 42.623 411.524 42.623C385.14 42.623 363.751 64.0116 363.751 90.3957C363.751 116.78 385.14 138.168 411.524 138.168Z" fill="#A8EF9E"/>
<path d="M457.017 93.8079C457.016 100.657 455.542 107.426 452.695 113.656C449.848 119.886 445.695 125.431 440.517 129.915C435.34 134.399 429.258 137.717 422.686 139.645C416.113 141.572 409.203 142.064 402.424 141.087C413.792 139.444 424.187 133.76 431.705 125.076C439.223 116.393 443.362 105.292 443.362 93.8057C443.362 82.3198 439.223 71.2184 431.705 62.535C424.187 53.8517 413.792 48.1678 402.424 46.5245C409.204 45.5466 416.115 46.0381 422.688 47.9657C429.262 49.8933 435.344 53.2118 440.522 57.6964C445.7 62.1809 449.853 67.7265 452.7 73.9571C455.547 80.1878 457.021 86.9577 457.021 93.8079H457.017Z" fill="#A7E59C"/>
<path d="M410.386 143.014C400.428 143.014 390.694 140.062 382.414 134.529C374.135 128.997 367.681 121.134 363.871 111.934C360.06 102.734 359.063 92.6106 361.006 82.844C362.948 73.0774 367.743 64.1063 374.785 57.065C381.826 50.0237 390.797 45.2285 400.564 43.2858C410.33 41.3431 420.454 42.3402 429.654 46.1509C438.853 49.9616 446.717 56.4149 452.249 64.6946C457.781 72.9742 460.734 82.7085 460.734 92.6664C460.719 106.015 455.41 118.813 445.971 128.252C436.532 137.69 423.735 143 410.386 143.014ZM410.386 47.4734C401.447 47.4734 392.709 50.1241 385.276 55.0905C377.843 60.0568 372.05 67.1157 368.629 75.3744C365.208 83.6332 364.313 92.7209 366.057 101.488C367.801 110.256 372.106 118.309 378.427 124.63C384.748 130.951 392.801 135.256 401.569 137C410.336 138.744 419.424 137.848 427.682 134.428C435.941 131.007 443 125.214 447.966 117.781C452.933 110.348 455.584 101.61 455.584 92.6707C455.571 80.6875 450.805 69.1986 442.332 60.7252C433.858 52.2517 422.369 47.4859 410.386 47.4734Z" fill="#426572"/>
<path d="M434.517 73.1312C433.486 72.5552 432.273 72.4007 431.131 72.7C429.989 72.9993 429.007 73.7291 428.392 74.7365L420.121 88.257L406.905 109.838L406.536 110.444L391.277 98.2365L388.495 96.0131C386.671 94.5538 383.92 94.0945 382.164 96.0131C380.671 97.6399 380.211 100.782 382.164 102.344L401.784 118.037L404.566 120.26C405.72 121.187 406.819 121.694 408.326 121.492C408.999 121.409 409.644 121.172 410.211 120.8C410.778 120.428 411.252 119.93 411.596 119.346L419.868 105.825L433.088 84.2481L436.139 79.2605C437.346 77.2603 436.624 74.2557 434.517 73.1312Z" fill="white"/>
<defs>
<linearGradient id="paint0_linear_619_13428" x1="0.567128" y1="159.325" x2="538.506" y2="159.325" gradientUnits="userSpaceOnUse">
<stop stop-color="#C5E9FA"/>
<stop offset="1" stop-color="#C4F4EA"/>
</linearGradient>
</defs>
</svg>
