<svg width="723" height="374" viewBox="0 0 723 374" fill="none" xmlns="http://www.w3.org/2000/svg">
<path d="M628.113 304.025H653.845C667.581 304.025 680.755 309.481 690.468 319.193C700.181 328.905 705.637 342.078 705.637 355.813H628.113V304.025Z" fill="#738E02"/>
<path d="M683.91 300.861C684.166 300.984 684.395 301.157 684.584 301.37C684.772 301.583 684.916 301.832 685.008 302.101C685.099 302.371 685.135 302.655 685.115 302.939C685.094 303.223 685.017 303.5 684.888 303.753L679.151 315.9L675.303 314.084L681.041 301.936C681.155 301.674 681.321 301.438 681.528 301.242C681.736 301.045 681.98 300.892 682.248 300.792C682.515 300.692 682.8 300.646 683.086 300.658C683.371 300.67 683.652 300.739 683.91 300.861Z" fill="#88B206"/>
<path d="M686.157 308.572C686.471 308.72 686.713 308.987 686.831 309.314C686.948 309.641 686.93 310.001 686.782 310.315L683.254 317.784L680.887 316.666L684.414 309.197C684.563 308.883 684.83 308.641 685.156 308.524C685.483 308.406 685.843 308.424 686.157 308.572Z" fill="#88B206"/>
<path d="M682.558 308.305C682.827 308.432 683.034 308.661 683.135 308.941C683.235 309.221 683.22 309.53 683.093 309.799L680.051 316.239L678.008 315.274L681.05 308.834C681.113 308.7 681.203 308.579 681.313 308.48C681.424 308.38 681.553 308.303 681.693 308.254C681.833 308.205 681.982 308.184 682.13 308.193C682.279 308.202 682.424 308.24 682.558 308.305Z" fill="#769103"/>
<path d="M675.816 305.127C676.086 305.254 676.293 305.482 676.394 305.763C676.494 306.043 676.479 306.351 676.352 306.62L673.31 313.06L671.267 312.095L674.308 305.655C674.372 305.521 674.462 305.4 674.572 305.301C674.682 305.201 674.812 305.125 674.952 305.076C675.092 305.026 675.241 305.006 675.389 305.014C675.538 305.023 675.683 305.061 675.816 305.127Z" fill="#769103"/>
<path d="M657.363 293.775C657.863 293.78 658.34 293.983 658.69 294.341C659.04 294.698 659.234 295.18 659.229 295.68L659.107 307.555L655.351 307.516L655.473 295.641C655.478 295.144 655.68 294.668 656.034 294.319C656.387 293.969 656.865 293.774 657.363 293.775Z" fill="#E9FFA4"/>
<path d="M662.014 299.137C662.32 299.14 662.612 299.264 662.826 299.483C663.04 299.701 663.159 299.996 663.156 300.302L663.08 307.595L660.789 307.571L660.865 300.278C660.866 300.127 660.898 299.977 660.957 299.838C661.016 299.698 661.103 299.572 661.211 299.466C661.319 299.36 661.447 299.277 661.588 299.22C661.728 299.164 661.878 299.135 662.03 299.137L662.014 299.137Z" fill="#E9FFA4"/>
<path d="M659.026 300.259C659.29 300.262 659.543 300.37 659.728 300.559C659.913 300.748 660.016 301.002 660.013 301.267L659.949 307.5L657.954 307.48L658.018 301.246C658.021 300.982 658.129 300.729 658.318 300.544C658.507 300.359 658.761 300.257 659.026 300.259Z" fill="#769103"/>
<path d="M652.434 300.191C652.699 300.194 652.951 300.302 653.136 300.491C653.321 300.68 653.424 300.935 653.421 301.199L653.357 307.433L651.362 307.412L651.426 301.179C651.429 300.914 651.537 300.661 651.726 300.476C651.915 300.291 652.169 300.189 652.434 300.191Z" fill="#769103"/>
<path d="M697.158 182.901H695.319C694.828 180.507 693.525 178.356 691.631 176.812C689.737 175.267 687.368 174.423 684.924 174.423C683.299 174.429 681.698 174.813 680.248 175.545C678.938 173.529 677.222 171.808 675.209 170.494C673.196 169.18 670.93 168.301 668.557 167.913C666.184 167.526 663.756 167.639 661.429 168.244C659.103 168.85 656.928 169.935 655.045 171.431C652.331 167.929 648.628 165.324 644.415 163.951C640.203 162.579 635.675 162.504 631.419 163.735C627.163 164.966 623.375 167.446 620.546 170.856C617.716 174.265 615.976 178.445 615.551 182.854H615.301C614.823 182.854 614.349 182.949 613.908 183.132C613.466 183.316 613.065 183.585 612.728 183.923C612.39 184.262 612.123 184.664 611.942 185.107C611.76 185.549 611.668 186.023 611.67 186.501C611.67 187.464 612.052 188.388 612.733 189.069C613.414 189.75 614.338 190.132 615.301 190.132H697.158C698.122 190.132 699.045 189.75 699.726 189.069C700.407 188.388 700.79 187.464 700.79 186.501C700.782 185.543 700.396 184.628 699.715 183.954C699.035 183.279 698.116 182.901 697.158 182.901Z" fill="#E4F0F9"/>
<path d="M699.231 170.808C700.686 170.808 701.865 169.628 701.865 168.174C701.865 166.719 700.686 165.54 699.231 165.54C697.777 165.54 696.597 166.719 696.597 168.174C696.597 169.628 697.777 170.808 699.231 170.808Z" fill="#E4F0F9"/>
<path d="M703.019 64.5826H701.18C700.86 62.9851 700.176 61.4831 699.18 60.194C698.183 58.9048 696.903 57.8635 695.437 57.1512C693.972 56.439 692.362 56.0752 690.733 56.0883C689.104 56.1014 687.499 56.491 686.046 57.2266C684.734 55.2126 683.016 53.4948 681.001 52.1835C678.987 50.8722 676.72 49.9962 674.348 49.6118C671.975 49.2274 669.548 49.3429 667.222 49.9511C664.897 50.5593 662.724 51.6466 660.843 53.1434C658.128 49.6414 654.424 47.0357 650.21 45.6642C645.996 44.2926 641.467 44.2185 637.211 45.4513C632.954 46.6841 629.166 49.1671 626.338 52.5783C623.51 55.9896 621.771 60.1717 621.349 64.5826H621.115C620.637 64.5805 620.163 64.6729 619.72 64.8545C619.278 65.0361 618.876 65.3032 618.537 65.6406C618.198 65.978 617.929 66.379 617.746 66.8206C617.562 67.2621 617.468 67.7356 617.468 68.2138C617.468 69.181 617.852 70.1086 618.536 70.7925C619.22 71.4764 620.148 71.8606 621.115 71.8606H702.956C703.924 71.8606 704.851 71.4764 705.535 70.7925C706.219 70.1086 706.604 69.181 706.604 68.2138C706.604 67.2588 706.228 66.3422 705.557 65.6625C704.886 64.9829 703.974 64.5949 703.019 64.5826Z" fill="#E4F0F9"/>
<path d="M705.107 52.4893C706.562 52.4893 707.741 51.3101 707.741 49.8555C707.741 48.4009 706.562 47.2217 705.107 47.2217C703.653 47.2217 702.473 48.4009 702.473 49.8555C702.473 51.3101 703.653 52.4893 705.107 52.4893Z" fill="#E4F0F9"/>
<path d="M551.524 302.233L589.148 293.443C609.41 288.768 631.137 293.443 645.631 305.708L685.656 339.496H568.403L551.524 302.233Z" fill="#88B206"/>
<path d="M659.918 322.553C660.485 322.558 661.025 322.789 661.422 323.193C661.818 323.598 662.037 324.143 662.032 324.71L661.893 338.143L657.638 338.099L657.777 324.666C657.783 324.102 658.011 323.564 658.412 323.168C658.813 322.772 659.355 322.551 659.918 322.553Z" fill="#E9FFA4"/>
<path d="M665.186 328.607C665.533 328.611 665.865 328.752 666.108 329C666.351 329.248 666.485 329.583 666.482 329.93L666.396 338.236L663.778 338.209L663.863 329.95C663.859 329.774 663.89 329.599 663.954 329.435C664.019 329.272 664.116 329.123 664.239 328.997C664.363 328.872 664.51 328.773 664.673 328.706C664.836 328.639 665.01 328.605 665.186 328.607Z" fill="#E9FFA4"/>
<path d="M661.807 329.882C662.104 329.885 662.389 330.006 662.597 330.218C662.805 330.431 662.92 330.718 662.917 331.015L662.843 338.23L660.583 338.207L660.656 331.085C660.645 330.929 660.666 330.772 660.719 330.624C660.772 330.476 660.856 330.342 660.964 330.228C661.073 330.115 661.204 330.025 661.349 329.965C661.494 329.906 661.65 329.877 661.807 329.882Z" fill="#769103"/>
<path d="M654.342 329.805C654.64 329.808 654.924 329.929 655.132 330.142C655.341 330.354 655.456 330.641 655.453 330.938L655.379 338.06L653.12 338.037L653.193 330.915C653.194 330.766 653.225 330.62 653.284 330.483C653.343 330.346 653.428 330.223 653.535 330.12C653.642 330.016 653.769 329.935 653.907 329.881C654.046 329.827 654.194 329.801 654.342 329.805Z" fill="#769103"/>
<path d="M167.315 176.745H165.476C165.154 175.147 164.468 173.645 163.47 172.356C162.472 171.067 161.19 170.026 159.724 169.314C158.257 168.602 156.646 168.238 155.016 168.251C153.386 168.264 151.781 168.654 150.326 169.389C149.014 167.386 147.3 165.679 145.291 164.375C143.283 163.071 141.024 162.2 138.661 161.818C136.297 161.435 133.879 161.549 131.562 162.152C129.245 162.756 127.079 163.835 125.202 165.322C122.49 161.818 118.788 159.21 114.576 157.837C110.364 156.463 105.836 156.387 101.58 157.619C97.3239 158.85 93.5363 161.332 90.7087 164.743C87.8811 168.153 86.1439 172.335 85.7226 176.745H85.4732C84.5101 176.745 83.5864 177.128 82.9054 177.809C82.2243 178.49 81.8417 179.413 81.8417 180.376C81.8397 180.855 81.9321 181.329 82.1137 181.771C82.2952 182.213 82.5624 182.615 82.8998 182.954C83.2373 183.293 83.6383 183.562 84.0799 183.745C84.5215 183.929 84.995 184.023 85.4732 184.023H167.331C167.809 184.023 168.282 183.929 168.724 183.745C169.165 183.562 169.566 183.293 169.904 182.954C170.241 182.615 170.509 182.213 170.69 181.771C170.872 181.329 170.964 180.855 170.962 180.376C170.962 179.898 170.868 179.425 170.684 178.983C170.501 178.542 170.232 178.141 169.893 177.803C169.554 177.466 169.152 177.199 168.709 177.017C168.267 176.836 167.793 176.743 167.315 176.745Z" fill="#E4F0F9"/>
<path d="M284.49 110.09H281.809C281.101 106.612 279.212 103.487 276.462 101.243C273.712 98.999 270.271 97.7749 266.722 97.778C264.34 97.7517 261.986 98.2855 259.849 99.3364C257.934 96.4347 255.437 93.963 252.516 92.0783C249.595 90.1936 246.313 88.9373 242.88 88.3891C239.447 87.8409 235.938 88.0129 232.575 88.8941C229.212 89.7754 226.069 91.3465 223.346 93.5078C219.409 88.4207 214.034 84.6342 207.918 82.6395C201.803 80.6448 195.228 80.534 189.049 82.3215C182.869 84.1091 177.37 87.7123 173.263 92.6639C169.157 97.6154 166.634 103.687 166.021 110.09H165.663C164.271 110.09 162.936 110.64 161.949 111.622C160.962 112.603 160.403 113.935 160.395 115.326C160.393 116.019 160.527 116.706 160.791 117.347C161.055 117.988 161.443 118.57 161.932 119.061C162.422 119.552 163.003 119.941 163.643 120.207C164.283 120.473 164.97 120.609 165.663 120.609H284.49C285.891 120.609 287.235 120.053 288.226 119.062C289.217 118.071 289.774 116.727 289.774 115.326C289.761 113.933 289.199 112.601 288.21 111.621C287.22 110.64 285.883 110.09 284.49 110.09Z" fill="#E4F0F9"/>
<path d="M712.152 352.322H23.5659C17.5749 352.322 12.7181 357.175 12.7181 363.161C12.7181 369.147 17.5749 374 23.5659 374H712.152C718.143 374 723 369.147 723 363.161C723 357.175 718.143 352.322 712.152 352.322Z" fill="#88B206"/>
<g opacity="0.39">
<path d="M137.904 160.07C137.8 160.384 137.583 160.649 137.296 160.813C137.008 160.977 136.669 161.029 136.346 160.958C131.785 160.321 127.264 159.431 122.802 158.293C116.739 156.752 110.762 154.895 104.893 152.73C98.9984 150.579 93.2233 148.113 87.5929 145.342C81.8252 142.609 76.3255 139.343 71.1653 135.586L137.904 160.07Z" fill="#B5BCC6"/>
<path d="M137.904 160.07L71.1653 135.586C77.54 136.037 83.8589 137.08 90.0399 138.703C102.21 141.806 114.029 146.151 125.311 151.67C129.447 153.697 133.469 155.95 137.359 158.418C137.627 158.588 137.828 158.845 137.927 159.146C138.026 159.448 138.018 159.774 137.904 160.07Z" fill="#CED3DB"/>
<path d="M1.10595e-05 135.243C-0.00681047 135.559 0.0969134 135.868 0.293267 136.115C0.48962 136.363 0.766273 136.534 1.07544 136.599C5.5808 137.542 10.1331 138.244 14.7131 138.703C20.9622 139.359 27.2419 139.682 33.5253 139.67C39.7981 139.687 46.0674 139.369 52.3064 138.719C58.6665 138.114 64.9582 136.93 71.103 135.181L1.10595e-05 135.243Z" fill="#B5BCC6"/>
<path d="M2.02021e-05 135.244H71.103C64.9604 133.482 58.6681 132.293 52.3064 131.69C46.0933 131.043 39.8501 130.725 33.6033 130.74C27.3198 130.727 21.0402 131.05 14.7911 131.706C10.1838 132.183 5.60538 132.906 1.07545 133.872C0.76641 133.943 0.491113 134.118 0.295426 134.368C0.0997387 134.618 -0.00452028 134.927 2.02021e-05 135.244Z" fill="#CED3DB"/>
<path d="M90.5698 67.014C90.2743 66.9305 89.9592 66.9498 89.676 67.0687C89.3929 67.1876 89.1585 67.3991 89.0112 67.6685C86.8239 71.7128 84.8623 75.8751 83.1353 80.1362C80.7755 85.9509 78.7256 91.8866 76.9945 97.9183C75.2215 103.943 73.7854 110.062 72.6928 116.246C71.4992 122.519 70.8888 128.889 70.8692 135.275L90.5698 67.014Z" fill="#B5BCC6"/>
<path d="M90.5698 67.0142L70.8224 135.368C74.219 129.933 77.1043 124.194 79.4415 118.225C81.8032 112.438 83.8531 106.528 85.5823 100.521C87.3393 94.4934 88.7701 88.3753 89.8685 82.1936C90.6869 77.6564 91.2592 73.0782 91.5829 68.4791C91.6194 68.1538 91.5369 67.8262 91.3507 67.557C91.1645 67.2877 90.8871 67.0949 90.5698 67.0142Z" fill="#CED3DB"/>
<path d="M76.5892 319.688H70.8692V135.633H74.3293L76.5892 319.688Z" fill="#B5BCC6"/>
<path d="M70.8692 135.633V319.688H65.1492L67.3935 135.633H70.8692Z" fill="#CED3DB"/>
<path d="M70.8692 141.633C74.3554 141.633 77.1815 138.807 77.1815 135.322C77.1815 131.836 74.3554 129.01 70.8692 129.01C67.383 129.01 64.5569 131.836 64.5569 135.322C64.5569 138.807 67.383 141.633 70.8692 141.633Z" fill="#CED3DB"/>
<path d="M74.4384 143.69C73.3917 144.421 72.1458 144.813 70.8692 144.813C69.5926 144.813 68.3468 144.421 67.3 143.69V140.573C68.3374 141.284 69.5652 141.664 70.8225 141.664C72.0797 141.664 73.3076 141.284 74.3449 140.573L74.4384 143.69Z" fill="#7F8B99"/>
<path d="M70.8692 139.077C72.9437 139.077 74.6255 137.396 74.6255 135.321C74.6255 133.247 72.9437 131.565 70.8692 131.565C68.7947 131.565 67.113 133.247 67.113 135.321C67.113 137.396 68.7947 139.077 70.8692 139.077Z" fill="#8C97A5"/>
<path d="M70.8692 138.142C72.4272 138.142 73.6903 136.879 73.6903 135.321C73.6903 133.763 72.4272 132.5 70.8692 132.5C69.3112 132.5 68.0482 133.763 68.0482 135.321C68.0482 136.879 69.3112 138.142 70.8692 138.142Z" fill="#6E7984"/>
<path d="M73.8084 162.414C73.8057 162.113 73.5593 161.871 73.2581 161.874C72.9568 161.876 72.7148 162.123 72.7174 162.424L72.7753 168.922C72.778 169.224 73.0244 169.466 73.3256 169.463C73.6269 169.46 73.8689 169.214 73.8663 168.913L73.8084 162.414Z" fill="#7F8B99"/>
<path d="M72.8636 262.877C72.8609 262.576 72.6145 262.334 72.3132 262.336C72.012 262.339 71.7699 262.585 71.7726 262.887L71.8305 269.385C71.8331 269.687 72.0795 269.929 72.3808 269.926C72.6821 269.923 72.9241 269.677 72.9214 269.376L72.8636 262.877Z" fill="#7F8B99"/>
<path opacity="0.28" d="M67.0996 230.538C67.0969 230.839 67.3389 231.085 67.6402 231.088C67.9414 231.091 68.1878 230.849 68.1905 230.547L68.2484 224.049C68.2511 223.748 68.009 223.501 67.7077 223.499C67.4065 223.496 67.1601 223.738 67.1574 224.039L67.0996 230.538Z" fill="white"/>
<path opacity="0.28" d="M68.2588 250.46C68.2561 250.762 68.4982 251.008 68.7994 251.011C69.1007 251.013 69.3471 250.771 69.3498 250.47L69.4076 243.972C69.4103 243.67 69.1683 243.424 68.867 243.421C68.5657 243.419 68.3193 243.661 68.3166 243.962L68.2588 250.46Z" fill="white"/>
<path opacity="0.28" d="M68.566 155.403C68.5634 155.705 68.8054 155.951 69.1067 155.954C69.4079 155.956 69.6543 155.714 69.657 155.413L69.7149 148.915C69.7175 148.613 69.4755 148.367 69.1742 148.364C68.873 148.362 68.6266 148.604 68.6239 148.905L68.566 155.403Z" fill="white"/>
<path opacity="0.28" d="M68.5705 287.239C68.5678 287.54 68.8099 287.786 69.1111 287.789C69.4124 287.792 69.6588 287.55 69.6615 287.248L69.7193 280.75C69.722 280.449 69.48 280.202 69.1787 280.2C68.8774 280.197 68.631 280.439 68.6284 280.74L68.5705 287.239Z" fill="white"/>
<path opacity="0.28" d="M66.3499 316.154C66.3472 316.455 66.5892 316.701 66.8905 316.704C67.1918 316.707 67.4381 316.465 67.4408 316.164L67.4987 309.665C67.5014 309.364 67.2593 309.117 66.9581 309.115C66.6568 309.112 66.4104 309.354 66.4077 309.655L66.3499 316.154Z" fill="white"/>
<path opacity="0.28" d="M68.7924 180.836C68.7897 181.138 69.0318 181.384 69.3331 181.387C69.6343 181.389 69.8807 181.147 69.8834 180.846L69.9412 174.348C69.9439 174.046 69.7019 173.8 69.4006 173.797C69.0994 173.795 68.853 174.037 68.8503 174.338L68.7924 180.836Z" fill="white"/>
<path d="M75.579 310.54C75.5763 310.239 75.3299 309.997 75.0286 310C74.7274 310.002 74.4853 310.249 74.488 310.55L74.5459 317.048C74.5485 317.35 74.7949 317.592 75.0962 317.589C75.3975 317.586 75.6395 317.34 75.6368 317.039L75.579 310.54Z" fill="#7F8B99"/>
<path opacity="0.58" d="M22.0853 131.752C21.9403 131.749 21.802 131.69 21.698 131.589C21.594 131.488 21.532 131.352 21.5242 131.207C21.5199 131.057 21.5745 130.91 21.6764 130.8C21.7783 130.689 21.9195 130.623 22.0697 130.615C22.1944 130.615 33.4318 130.287 41.817 130.459C41.8907 130.461 41.9633 130.477 42.0306 130.507C42.0979 130.538 42.1586 130.581 42.2093 130.634C42.2599 130.688 42.2996 130.751 42.3259 130.82C42.3522 130.888 42.3646 130.962 42.3625 131.035C42.3647 131.11 42.3517 131.184 42.3242 131.253C42.2968 131.322 42.2555 131.384 42.203 131.437C42.1505 131.49 42.0877 131.531 42.0187 131.558C41.9496 131.586 41.8757 131.599 41.8014 131.597C33.4318 131.41 22.2255 131.737 22.1164 131.752H22.0853Z" fill="white"/>
</g>
<path d="M137.608 301.828L110.146 295.422C95.4015 291.978 79.4882 295.422 68.9054 304.383L39.6818 329.054H125.28L137.608 301.828Z" fill="#88B206"/>
<path d="M164.93 294.549L136.876 286.414C129.493 284.272 121.664 284.198 114.243 286.202C106.822 288.205 100.094 292.209 94.7936 297.776L65.0245 329.054H152.306L164.93 294.549Z" fill="#A4CF3A"/>
<path d="M90.8971 244.897C92.331 255.806 95.6976 261.199 98.1602 263.708V262.991C98.1602 261.751 98.6528 260.562 99.5297 259.685C100.407 258.808 101.596 258.315 102.836 258.315C102.875 258.316 102.912 258.301 102.941 258.275C102.97 258.249 102.988 258.214 102.992 258.175V245.224H107.543V258.175C107.543 259.415 107.05 260.604 106.173 261.481C105.297 262.358 104.107 262.85 102.867 262.85C102.826 262.85 102.786 262.867 102.757 262.896C102.728 262.925 102.711 262.965 102.711 263.006V277.874C102.715 277.913 102.733 277.948 102.762 277.974C102.791 278 102.828 278.015 102.867 278.014H107.714C108.954 278.014 110.144 278.507 111.021 279.384C111.897 280.261 112.39 281.45 112.39 282.69V295.407H107.87V282.705C107.867 282.665 107.849 282.628 107.821 282.599C107.792 282.571 107.754 282.553 107.714 282.549H102.867C101.627 282.549 100.438 282.057 99.5608 281.18C98.684 280.303 98.1913 279.114 98.1913 277.874V269.49C96.5175 268.504 95.0384 267.221 93.8273 265.702C90.0711 261.167 87.5929 254.372 86.424 245.442L90.8971 244.897Z" fill="#91423C"/>
<path d="M73.7215 217.499C72.5599 217.499 71.4459 217.038 70.6246 216.216C69.8032 215.395 69.3418 214.281 69.3418 213.12V204.486C69.3398 203.91 69.4516 203.34 69.671 202.807C69.8904 202.275 70.2129 201.792 70.62 201.385C71.0271 200.977 71.5107 200.655 72.043 200.436C72.5753 200.216 73.1457 200.104 73.7215 200.106H97.1004C99.7072 200.109 102.28 200.698 104.628 201.831C106.975 202.965 109.037 204.612 110.66 206.652C112.427 208.955 114.693 210.828 117.287 212.132C119.88 213.435 122.736 214.135 125.638 214.179H126.246C127.067 214.199 127.848 214.534 128.428 215.114C129.009 215.695 129.343 216.476 129.363 217.296V243.369C129.363 244.196 129.035 244.989 128.45 245.573C127.866 246.158 127.073 246.486 126.246 246.486H79.348C78.5213 246.486 77.7284 246.158 77.1438 245.573C76.5592 244.989 76.2308 244.196 76.2308 243.369V243.136C76.2308 242.254 75.8815 241.408 75.2594 240.783C74.6373 240.158 73.7929 239.805 72.911 239.801C72.0167 239.801 71.1588 239.446 70.525 238.816C69.8911 238.185 69.533 237.328 69.5289 236.434V223.203C69.5289 222.306 69.8852 221.446 70.5195 220.812C71.1537 220.177 72.014 219.821 72.911 219.821H75.0151C75.174 219.823 75.3317 219.794 75.4792 219.734C75.6266 219.675 75.7607 219.587 75.8738 219.475C75.9869 219.363 76.0767 219.231 76.138 219.084C76.1993 218.937 76.2308 218.78 76.2308 218.621C76.2267 218.301 76.0968 217.996 75.8693 217.772C75.6417 217.547 75.3348 217.421 75.0151 217.421L73.7215 217.499Z" fill="#88B206"/>
<path d="M85.3174 217.499C84.1558 217.499 83.0419 217.038 82.2205 216.216C81.3992 215.395 80.9377 214.281 80.9377 213.12V204.486C80.9377 203.324 81.3992 202.21 82.2205 201.389C83.0419 200.568 84.1558 200.106 85.3174 200.106H108.696C111.308 200.104 113.887 200.691 116.241 201.825C118.594 202.958 120.661 204.608 122.287 206.652C124.055 208.955 126.32 210.828 128.914 212.132C131.508 213.435 134.363 214.135 137.265 214.179H137.935C138.756 214.199 139.537 214.534 140.118 215.114C140.698 215.695 141.033 216.476 141.053 217.296V243.369C141.053 244.196 140.724 244.989 140.14 245.573C139.555 246.158 138.762 246.486 137.935 246.486H90.9439C90.1172 246.486 89.3243 246.158 88.7397 245.573C88.1551 244.989 87.8267 244.196 87.8267 243.369V243.136C87.8288 242.698 87.7444 242.265 87.5785 241.861C87.4126 241.456 87.1684 241.088 86.8599 240.778C86.5514 240.468 86.1848 240.222 85.781 240.055C85.3772 239.887 84.9442 239.801 84.5069 239.801C83.6125 239.821 82.7462 239.487 82.0977 238.871C81.4492 238.255 81.0713 237.406 81.0468 236.512V223.281C81.0468 222.384 81.4032 221.524 82.0375 220.889C82.6717 220.255 83.532 219.899 84.429 219.899H86.5487C86.867 219.899 87.1722 219.773 87.3973 219.547C87.6224 219.322 87.7488 219.017 87.7488 218.699C87.7448 218.382 87.617 218.079 87.3928 217.855C87.1686 217.631 86.8657 217.503 86.5487 217.499H85.3174Z" fill="#A4CF3A"/>
<path d="M87.6864 238.897C88.8915 238.897 89.8685 237.92 89.8685 236.715C89.8685 235.51 88.8915 234.533 87.6864 234.533C86.4813 234.533 85.5044 235.51 85.5044 236.715C85.5044 237.92 86.4813 238.897 87.6864 238.897Z" fill="#E9FFA4"/>
<path d="M97.9731 230.543C98.3002 230.543 98.5654 230.278 98.5654 229.951C98.5654 229.624 98.3002 229.359 97.9731 229.359C97.646 229.359 97.3809 229.624 97.3809 229.951C97.3809 230.278 97.646 230.543 97.9731 230.543Z" fill="#E9FFA4"/>
<path d="M111.767 232.726C112.188 232.726 112.53 232.384 112.53 231.962C112.53 231.54 112.188 231.198 111.767 231.198C111.345 231.198 111.003 231.54 111.003 231.962C111.003 232.384 111.345 232.726 111.767 232.726Z" fill="#E9FFA4"/>
<path d="M117.144 239.863C117.807 239.863 118.344 239.326 118.344 238.663C118.344 238 117.807 237.463 117.144 237.463C116.481 237.463 115.944 238 115.944 238.663C115.944 239.326 116.481 239.863 117.144 239.863Z" fill="#E9FFA4"/>
<path d="M99.5317 239.131C100.229 239.131 100.794 238.565 100.794 237.868C100.794 237.171 100.229 236.606 99.5317 236.606C98.8345 236.606 98.2693 237.171 98.2693 237.868C98.2693 238.565 98.8345 239.131 99.5317 239.131Z" fill="#E9FFA4"/>
<path d="M76.8387 224.715C77.4756 224.715 77.992 224.198 77.992 223.561C77.992 222.925 77.4756 222.408 76.8387 222.408C76.2017 222.408 75.6853 222.925 75.6853 223.561C75.6853 224.198 76.2017 224.715 76.8387 224.715Z" fill="#E9FFA4"/>
<path d="M108.665 201.244H92.0817C91.7799 201.244 91.4905 201.124 91.2772 200.911C91.0638 200.698 90.9439 200.408 90.9439 200.106C90.9439 199.805 91.0638 199.515 91.2772 199.302C91.4905 199.089 91.7799 198.969 92.0817 198.969H108.665C108.967 198.969 109.256 199.089 109.47 199.302C109.683 199.515 109.803 199.805 109.803 200.106C109.803 200.408 109.683 200.698 109.47 200.911C109.256 201.124 108.967 201.244 108.665 201.244Z" fill="#E9FFA4"/>
<path d="M99.5473 269.146H99.2668V274.04H99.5473V269.146Z" fill="#6B251F"/>
<path d="M109.179 281.443H108.899V286.336H109.179V281.443Z" fill="#6B251F"/>
<path d="M100.888 261.916H100.607V266.809H100.888V261.916Z" fill="#6B251F"/>
<path d="M105.891 249.027H105.61V253.92H105.891V249.027Z" fill="#6B251F"/>
<path d="M101.386 268.024H101.106V270.113H101.386V268.024Z" fill="#6B251F"/>
<path d="M100.779 271.438H100.498V276.331H100.779V271.438Z" fill="#6B251F"/>
<path d="M105.08 251.832H104.8V253.92H105.08V251.832Z" fill="#6B251F"/>
<path d="M104.472 255.229H104.192V260.123H104.472V255.229Z" fill="#6B251F"/>
<path d="M111.455 284.264H111.174V286.352H111.455V284.264Z" fill="#6B251F"/>
<path d="M110.847 287.661H110.567V292.555H110.847V287.661Z" fill="#6B251F"/>
<path d="M103.007 249.027H107.558V246.642H103.007V249.027Z" fill="#6B251F"/>
<path d="M107.465 329.101H103.943V318.191C103.943 317.733 104.125 317.293 104.449 316.968C104.774 316.644 105.214 316.461 105.673 316.461C105.905 316.453 106.137 316.492 106.354 316.575C106.571 316.658 106.769 316.784 106.936 316.946C107.104 317.107 107.237 317.301 107.328 317.515C107.418 317.729 107.465 317.959 107.465 318.191V329.101Z" fill="#88B206"/>
<path d="M117.814 320.794H114.354V309.885C114.354 309.426 114.536 308.986 114.861 308.661C115.185 308.337 115.625 308.155 116.084 308.155C116.543 308.155 116.983 308.337 117.307 308.661C117.632 308.986 117.814 309.426 117.814 309.885V320.794Z" fill="#769103"/>
<path d="M103.007 329.054H97.3809V311.303C97.3809 310.934 97.4534 310.57 97.5944 310.229C97.7354 309.889 97.9421 309.58 98.2026 309.319C98.4631 309.059 98.7724 308.852 99.1127 308.711C99.4531 308.57 99.8179 308.498 100.186 308.498C100.555 308.498 100.92 308.57 101.26 308.711C101.6 308.852 101.91 309.059 102.17 309.319C102.431 309.58 102.637 309.889 102.778 310.229C102.919 310.57 102.992 310.934 102.992 311.303V329.054H103.007Z" fill="#88B206"/>
<path d="M94.9027 329.101H91.4426V318.191C91.4426 317.733 91.6249 317.293 91.9493 316.968C92.2738 316.644 92.7138 316.461 93.1727 316.461C93.6315 316.461 94.0715 316.644 94.396 316.968C94.7204 317.293 94.9027 317.733 94.9027 318.191V329.101Z" fill="#88B206"/>
<path d="M99.111 329.054H96.134V319.703C96.134 319.29 96.2982 318.893 96.5905 318.601C96.8828 318.309 97.2793 318.144 97.6926 318.144C98.106 318.144 98.5024 318.309 98.7947 318.601C99.087 318.893 99.2512 319.29 99.2512 319.703V329.054H99.111Z" fill="#769103"/>
<path d="M108.961 329.054H105.984V319.703C105.984 319.29 106.149 318.893 106.441 318.601C106.733 318.309 107.13 318.144 107.543 318.144C107.956 318.144 108.353 318.309 108.645 318.601C108.937 318.893 109.102 319.29 109.102 319.703V329.054H108.961Z" fill="#769103"/>
<path d="M102.157 298.924L99.3383 300.255L95.1451 291.377C94.9686 291.003 94.9478 290.575 95.0873 290.185C95.2268 289.796 95.5151 289.479 95.8889 289.302C96.2627 289.126 96.6913 289.105 97.0804 289.244C97.4695 289.384 97.7873 289.672 97.9638 290.046L102.157 298.924Z" fill="#88B206"/>
<path d="M98.1332 300.891L96.4561 301.683L93.8803 296.229C93.7726 296.001 93.7599 295.74 93.845 295.502C93.9301 295.265 94.106 295.071 94.334 294.963C94.562 294.856 94.8234 294.843 95.0608 294.928C95.2981 295.013 95.492 295.189 95.5997 295.417L98.1755 300.871L98.1332 300.891Z" fill="#88B206"/>
<path d="M100.17 299.785L98.6765 300.49L96.4534 295.783C96.3599 295.585 96.3488 295.358 96.4227 295.152C96.4967 294.946 96.6495 294.777 96.8476 294.684C97.0457 294.59 97.2728 294.579 97.4791 294.653C97.6853 294.727 97.8537 294.88 97.9473 295.078L100.17 299.785Z" fill="#769103"/>
<path d="M105.143 297.512L103.649 298.218L101.426 293.511C101.332 293.313 101.321 293.086 101.395 292.879C101.469 292.673 101.622 292.505 101.82 292.411C102.018 292.318 102.245 292.307 102.451 292.381C102.658 292.455 102.826 292.607 102.92 292.805L105.143 297.512Z" fill="#769103"/>
<path d="M85.3641 256.305C83.4471 258.44 84.2108 262.243 84.2108 262.243C84.2108 262.243 88.0761 262.617 90.0087 260.482C91.9414 258.347 91.1621 254.544 91.1621 254.544C91.1621 254.544 87.2812 254.185 85.3641 256.305Z" fill="#88B206"/>
<path d="M108.4 252.471C106.467 254.59 107.231 258.409 107.231 258.409C107.231 258.409 111.112 258.767 113.029 256.647C114.946 254.528 114.182 250.71 114.182 250.71C114.182 250.71 110.317 250.305 108.4 252.471Z" fill="#A4CF3A"/>
<path d="M62.4684 248.855C62.0615 249.465 61.7803 250.15 61.6411 250.87C61.502 251.59 61.5077 252.33 61.6579 253.047C62.3862 253.123 63.1224 253.054 63.8235 252.842C64.5246 252.631 65.1766 252.282 65.7414 251.816C66.1483 251.206 66.4296 250.522 66.5687 249.802C66.7079 249.082 66.7022 248.342 66.5519 247.624C65.8236 247.548 65.0875 247.618 64.3864 247.829C63.6853 248.041 63.0333 248.389 62.4684 248.855Z" fill="#88B206"/>
<path d="M70.0431 258.346C70.5001 258.918 71.0662 259.392 71.7084 259.743C72.3506 260.093 73.056 260.313 73.7838 260.388C74.0658 259.711 74.2111 258.986 74.2111 258.253C74.2111 257.52 74.0658 256.794 73.7838 256.118C72.8901 254.969 71.5797 254.219 70.1367 254.029C69.8307 254.705 69.6647 255.436 69.6486 256.178C69.6326 256.92 69.7668 257.658 70.0431 258.346Z" fill="#A4CF3A"/>
<path d="M76.0905 279.261C77.0241 280.41 78.3743 281.144 79.8467 281.303C80.413 279.935 80.413 278.399 79.8467 277.032C79.3873 276.46 78.8186 275.985 78.1738 275.634C77.5289 275.284 76.8207 275.065 76.0905 274.991C75.8059 275.667 75.6592 276.393 75.6592 277.126C75.6592 277.859 75.8059 278.585 76.0905 279.261Z" fill="#A4CF3A"/>
<path d="M64.7595 280.601C65.2261 281.181 65.8047 281.66 66.4608 282.011C67.1169 282.362 67.837 282.577 68.5781 282.643C69.1444 281.276 69.1444 279.74 68.5781 278.373C68.1187 277.8 67.55 277.325 66.9052 276.974C66.2603 276.624 65.5521 276.405 64.8219 276.331C64.5274 277.003 64.3701 277.727 64.3594 278.46C64.3487 279.193 64.4847 279.921 64.7595 280.601Z" fill="#A4CF3A"/>
<path d="M77.0724 271.266C77.775 271.472 78.5112 271.536 79.2388 271.456C79.9664 271.376 80.6709 271.152 81.3118 270.799C81.1669 270.081 80.88 269.4 80.4677 268.795C80.0555 268.19 79.5264 267.674 78.9116 267.277C78.2105 267.065 77.4743 266.996 76.7462 267.074C76.0181 267.152 75.3129 267.374 74.6722 267.728C74.8159 268.448 75.1024 269.132 75.5146 269.74C75.9268 270.348 76.4565 270.866 77.0724 271.266Z" fill="#E9FFA4"/>
<path d="M83.1353 285.9C83.8404 286.106 84.5793 286.171 85.3094 286.09C86.0396 286.01 86.7468 285.787 87.3903 285.432C87.0885 283.983 86.2257 282.711 84.9901 281.895C84.285 281.689 83.5461 281.624 82.816 281.704C82.0858 281.785 81.3786 282.008 80.7351 282.362C81.0369 283.812 81.8997 285.084 83.1353 285.9Z" fill="#E9FFA4"/>
<path d="M340.552 290.03C360.019 291.417 379.346 276.627 383.071 257.474C383.757 253.952 383.071 249.12 379.58 248.481C378.726 248.45 377.876 248.345 377.039 248.17C374.732 247.313 374.966 243.962 375.901 241.687C376.837 239.411 377.974 236.559 376.322 234.751C375.138 233.442 372.987 233.349 371.911 231.962C370.135 229.624 372.909 226.398 372.66 223.468C372.379 219.868 367.828 218.107 366.721 214.694C366.02 212.543 366.815 210.19 366.394 207.977C365.911 205.483 363.978 203.567 362.56 201.478C359.77 197.379 358.788 192.314 356.45 187.951C354.112 183.587 349.39 179.675 344.605 180.938C340.459 182.029 338.199 186.361 336.422 190.288L316.394 234.346C314.77 237.58 313.541 240.996 312.732 244.523C311.173 252.923 314.54 261.666 319.823 268.321C325.107 274.975 332.167 280.071 339.119 285.012" fill="#98BA60"/>
<path d="M344.636 291.713C344.202 291.713 343.786 291.541 343.479 291.234C343.172 290.927 343 290.511 343 290.077C343 289.643 343.172 289.227 343.479 288.92C343.786 288.613 344.202 288.441 344.636 288.441C358.788 288.238 369.059 278.248 369.153 278.155C369.461 277.847 369.878 277.674 370.314 277.674C370.749 277.674 371.167 277.847 371.475 278.155C371.783 278.463 371.956 278.88 371.956 279.316C371.956 279.751 371.783 280.169 371.475 280.477C371.007 280.929 360.191 291.511 344.683 291.713H344.636Z" fill="#E2F7B2"/>
<path d="M383.554 259.173C384.287 255.027 383.679 248.856 378.489 248.123C376.852 247.889 375.761 247.983 375.777 246.019C375.928 244.633 376.318 243.283 376.93 242.03C377.834 239.583 378.239 236.684 376.198 234.689C375.254 233.943 374.203 233.343 373.08 232.913C371.397 232.009 371.88 230.653 372.363 229.125C373.127 226.694 373.688 224.341 372.363 221.988C371.194 219.884 369.044 218.59 367.688 216.595C366.942 215.158 366.685 213.517 366.955 211.92C367.082 210.293 366.843 208.658 366.254 207.136C364.976 204.112 362.482 201.79 361.079 198.798C359.521 195.385 358.445 191.722 356.7 188.372C355.718 186.486 352.881 188.153 353.863 190.024C355.328 192.844 356.279 195.868 357.51 198.798C358.749 201.492 360.281 204.043 362.077 206.403C362.989 207.609 363.531 209.055 363.635 210.564C363.526 212.168 363.526 213.776 363.635 215.38C364.239 217.68 365.553 219.731 367.391 221.24C368.23 221.967 368.932 222.838 369.464 223.811C369.856 225.095 369.756 226.478 369.184 227.692C368.482 229.905 367.797 232.367 369.48 234.362C370.322 235.205 371.338 235.854 372.457 236.263C374.218 237.105 374.483 238.149 374.016 239.988C373.33 242.419 372.083 244.523 372.457 247.141C372.571 248.279 373.084 249.339 373.906 250.134C375.023 250.917 376.361 251.321 377.725 251.287C380.749 251.77 380.671 255.962 380.265 258.269C379.907 260.341 383.071 261.23 383.383 259.141L383.554 259.173Z" fill="#C2DD8E"/>
<path d="M101.48 328.898H259.63V319.719H101.48V328.898Z" fill="#CED3DB"/>
<path d="M190.273 319.719H345.945V211.032H190.273V319.719Z" fill="#FEB06D"/>
<path opacity="0.44" d="M190.273 319.719H345.945V313.267H190.273V319.719Z" fill="#DD764D"/>
<path d="M316.8 145.42L289.119 178.226L270.166 211.032H308.056H354.689L335.752 178.226L316.8 145.42Z" fill="#354C70"/>
<path d="M316.8 145.42H152.384V211.032H290.506" fill="#354C70"/>
<path d="M107.933 319.719H190.273V211.032H107.933L107.933 319.719Z" fill="#DD764D"/>
<path d="M190.273 217.296L345.945 217.296V211.047L190.273 211.047V217.296Z" fill="#DD764D"/>
<path d="M300.808 301.609H329.627V269.895H300.808V301.609Z" fill="white"/>
<path d="M253.708 301.609H282.526V269.895H253.708V301.609Z" fill="white"/>
<path d="M206.607 301.609H235.425V269.895H206.607V301.609Z" fill="white"/>
<path d="M253.708 260.84H282.526V229.125H253.708V260.84Z" fill="white"/>
<path d="M300.808 260.84H329.627V229.125H300.808V260.84Z" fill="white"/>
<path d="M308.477 244.99H321.958V234.19H308.477V244.99Z" fill="#0288B2"/>
<path d="M308.477 255.806H321.958V245.006H308.477V255.806Z" fill="#00B1C9"/>
<path d="M308.477 285.76H321.958V274.96H308.477V285.76Z" fill="#0288B2"/>
<path d="M308.477 296.576H321.958V285.776H308.477V296.576Z" fill="#00B1C9"/>
<path d="M261.376 285.76H274.858V274.96H261.376V285.76Z" fill="#0288B2"/>
<path d="M261.376 296.576H274.858V285.776H261.376V296.576Z" fill="#00B1C9"/>
<path d="M214.275 285.76H227.757V274.96H214.275V285.76Z" fill="#0288B2"/>
<path d="M214.275 296.576H227.757V285.776H214.275V296.576Z" fill="#00B1C9"/>
<path d="M261.376 244.99H274.858V234.19H261.376V244.99Z" fill="#0288B2"/>
<path d="M261.376 255.806H274.858V245.006H261.376V255.806Z" fill="#00B1C9"/>
<path d="M206.607 260.84H235.425V229.125H206.607V260.84Z" fill="white"/>
<path d="M214.275 244.99H227.757V234.19H214.275V244.99Z" fill="#0288B2"/>
<path d="M214.275 255.806H227.757V245.006H214.275V255.806Z" fill="#00B1C9"/>
<path d="M146.773 145.42L125.015 178.772L108.743 212.123H146.773H190.273L168.515 178.772L146.773 145.42Z" fill="#DD764D"/>
<path d="M152.384 145.42L190.273 211.032H181.81L144.918 145.42H152.384Z" fill="#253956"/>
<path d="M144.918 145.42L103.755 211.032H112.219L152.384 145.42H144.918Z" fill="#253956"/>
<path d="M203.817 324.799H350.605V319.719H203.817V324.799Z" fill="#F7F7F7"/>
<path d="M310.581 158.06H271.382L296.164 194.138H304.705" fill="#253956"/>
<path d="M296.164 194.138H324.982V175.546L310.581 158.06L296.164 175.546V194.138Z" fill="white"/>
<path d="M317.314 180.158H303.832V176.091C303.832 174.301 304.543 172.584 305.809 171.319C307.074 170.053 308.791 169.342 310.581 169.342C312.371 169.342 314.087 170.053 315.353 171.319C316.618 172.584 317.329 174.301 317.329 176.091V180.158H317.314Z" fill="#0288B2"/>
<path d="M303.832 190.958H317.314V180.158H303.832V190.958Z" fill="#00B1C9"/>
<path d="M264.4 158.06H226.308L249.998 194.138H258.539" fill="#253956"/>
<path d="M249.998 194.138H278.817V175.546L264.4 158.06L249.998 175.546V194.138Z" fill="white"/>
<path d="M271.148 180.158H257.62V176.091C257.62 174.301 258.331 172.584 259.596 171.319C260.862 170.053 262.579 169.342 264.368 169.342C266.158 169.342 267.875 170.053 269.141 171.319C270.406 172.584 271.117 174.301 271.117 176.091V180.158H271.148Z" fill="#0288B2"/>
<path d="M257.666 190.958H271.148V180.158H257.666V190.958Z" fill="#00B1C9"/>
<path d="M218.234 158.06H181.233L203.833 194.138H212.374" fill="#253956"/>
<path d="M203.833 194.138H232.651V175.546L218.234 158.06L203.833 175.546V194.138Z" fill="white"/>
<path d="M224.967 180.158H211.485V176.091C211.485 175.202 211.661 174.322 212.002 173.501C212.343 172.68 212.843 171.935 213.473 171.308C214.103 170.681 214.851 170.184 215.673 169.847C216.496 169.51 217.376 169.338 218.265 169.342C220.055 169.342 221.772 170.053 223.037 171.319C224.303 172.584 225.014 174.301 225.014 176.091V180.158H224.967Z" fill="#0288B2"/>
<path d="M211.485 190.958H224.967V180.158H211.485V190.958Z" fill="#00B1C9"/>
<path d="M351.166 255.323L354.253 319.719H350.621H348.922V255.323H351.166Z" fill="#1B235C"/>
<path d="M359.193 260.279L351.603 268.772L351.712 273.401L359.193 263.365V260.279Z" fill="#1B235C"/>
<path d="M363.573 273.245L351.603 282.83L351.712 287.474L363.573 275.24V273.245Z" fill="#1B235C"/>
<path d="M354.907 238.414C356.388 238.414 357.588 237.214 357.588 235.733C357.588 234.253 356.388 233.053 354.907 233.053C353.427 233.053 352.226 234.253 352.226 235.733C352.226 237.214 353.427 238.414 354.907 238.414Z" fill="#C2DD8E"/>
<path d="M368.934 242.107C369.33 242.107 369.651 241.786 369.651 241.39C369.651 240.994 369.33 240.673 368.934 240.673C368.539 240.673 368.218 240.994 368.218 241.39C368.218 241.786 368.539 242.107 368.934 242.107Z" fill="#C2DD8E"/>
<path d="M376.54 257.661C377.057 257.661 377.476 257.242 377.476 256.726C377.476 256.209 377.057 255.791 376.54 255.791C376.024 255.791 375.605 256.209 375.605 256.726C375.605 257.242 376.024 257.661 376.54 257.661Z" fill="#C2DD8E"/>
<path d="M373.548 268.305C374.357 268.305 375.013 267.649 375.013 266.84C375.013 266.031 374.357 265.375 373.548 265.375C372.739 265.375 372.083 266.031 372.083 266.84C372.083 267.649 372.739 268.305 373.548 268.305Z" fill="#C2DD8E"/>
<path d="M362.03 250.04C362.882 250.04 363.573 249.349 363.573 248.497C363.573 247.645 362.882 246.954 362.03 246.954C361.178 246.954 360.487 247.645 360.487 248.497C360.487 249.349 361.178 250.04 362.03 250.04Z" fill="#C2DD8E"/>
<path d="M360.612 217C361.395 217 362.03 216.366 362.03 215.582C362.03 214.799 361.395 214.164 360.612 214.164C359.828 214.164 359.193 214.799 359.193 215.582C359.193 216.366 359.828 217 360.612 217Z" fill="#C2DD8E"/>
<path d="M552.178 187.016C603.825 187.016 645.694 145.151 645.694 93.5078C645.694 41.8649 603.825 0 552.178 0C500.531 0 458.663 41.8649 458.663 93.5078C458.663 145.151 500.531 187.016 552.178 187.016Z" fill="#FEE8C7"/>
<path d="M515.224 40.5978C516.67 40.5978 517.842 39.4255 517.842 37.9795C517.842 36.5335 516.67 35.3613 515.224 35.3613C513.778 35.3613 512.606 36.5335 512.606 37.9795C512.606 39.4255 513.778 40.5978 515.224 40.5978Z" fill="#DDBB8E"/>
<path d="M545.18 81.8037C547.625 81.8037 549.607 79.8221 549.607 77.3777C549.607 74.9333 547.625 72.9517 545.18 72.9517C542.736 72.9517 540.754 74.9333 540.754 77.3777C540.754 79.8221 542.736 81.8037 545.18 81.8037Z" fill="#DDBB8E"/>
<path d="M623.577 63.3981C626.211 63.3981 628.347 61.263 628.347 58.6292C628.347 55.9955 626.211 53.8604 623.577 53.8604C620.943 53.8604 618.808 55.9955 618.808 58.6292C618.808 61.263 620.943 63.3981 623.577 63.3981Z" fill="#DDBB8E"/>
<path d="M576.196 132.298C581.542 132.298 585.875 127.965 585.875 122.62C585.875 117.275 581.542 112.942 576.196 112.942C570.851 112.942 566.517 117.275 566.517 122.62C566.517 127.965 570.851 132.298 576.196 132.298Z" fill="#DDBB8E"/>
<path d="M585.891 122.745C585.898 124.126 585.61 125.493 585.045 126.754C584.481 128.015 583.654 129.141 582.619 130.056C581.584 130.971 580.365 131.655 579.045 132.061C577.724 132.467 576.332 132.586 574.962 132.41C573.592 132.234 572.275 131.767 571.099 131.041C569.924 130.314 568.918 129.345 568.148 128.198C567.378 127.052 566.861 125.753 566.634 124.391C566.407 123.028 566.473 121.633 566.829 120.298C567.389 122.348 568.608 124.158 570.298 125.448C571.988 126.737 574.055 127.436 576.181 127.436C578.306 127.436 580.373 126.737 582.063 125.448C583.753 124.158 584.972 122.348 585.532 120.298C585.755 121.095 585.875 121.917 585.891 122.745Z" fill="#C19968"/>
<path d="M574.56 46.6136C579.001 46.6136 582.602 43.0132 582.602 38.5719C582.602 34.1307 579.001 30.5303 574.56 30.5303C570.118 30.5303 566.517 34.1307 566.517 38.5719C566.517 43.0132 570.118 46.6136 574.56 46.6136Z" fill="#DDBB8E"/>
<path d="M481.325 69.7414C482.659 69.7414 483.74 68.6599 483.74 67.3258C483.74 65.9917 482.659 64.9102 481.325 64.9102C479.99 64.9102 478.909 65.9917 478.909 67.3258C478.909 68.6599 479.99 69.7414 481.325 69.7414Z" fill="white"/>
<path d="M496.879 48.9513C500.142 48.9513 502.786 46.3069 502.786 43.0448C502.786 39.7826 500.142 37.1382 496.879 37.1382C493.617 37.1382 490.972 39.7826 490.972 43.0448C490.972 46.3069 493.617 48.9513 496.879 48.9513Z" fill="white"/>
<path d="M511.499 20.1353C513.057 20.1353 514.32 18.8724 514.32 17.3145C514.32 15.7566 513.057 14.4937 511.499 14.4937C509.941 14.4937 508.678 15.7566 508.678 17.3145C508.678 18.8724 509.941 20.1353 511.499 20.1353Z" fill="white"/>
<path d="M526.711 29.3772C528.82 29.3772 530.529 27.6677 530.529 25.559C530.529 23.4502 528.82 21.7407 526.711 21.7407C524.602 21.7407 522.892 23.4502 522.892 25.559C522.892 27.6677 524.602 29.3772 526.711 29.3772Z" fill="white"/>
<path d="M494.604 72.9673C496.162 72.9673 497.425 71.7044 497.425 70.1465C497.425 68.5886 496.162 67.3257 494.604 67.3257C493.046 67.3257 491.783 68.5886 491.783 70.1465C491.783 71.7044 493.046 72.9673 494.604 72.9673Z" fill="white"/>
<path d="M522.799 145.529C524.736 145.529 526.306 143.959 526.306 142.023C526.306 140.086 524.736 138.516 522.799 138.516C520.862 138.516 519.292 140.086 519.292 142.023C519.292 143.959 520.862 145.529 522.799 145.529Z" fill="#DDBB8E"/>
<path d="M500.09 94.474C502.13 94.474 503.784 92.8204 503.784 90.7805C503.784 88.7406 502.13 87.0869 500.09 87.0869C498.05 87.0869 496.396 88.7406 496.396 90.7805C496.396 92.8204 498.05 94.474 500.09 94.474Z" fill="#DDBB8E"/>
<path d="M514.102 292.227L552.49 281.084C562.607 278.143 573.338 278.041 583.51 280.79C593.681 283.539 602.9 289.032 610.158 296.669L650.977 339.527H531.34L514.102 292.227Z" fill="#A4CF3A"/>
<path d="M615.488 224.247C613.524 239.271 608.927 246.564 605.544 250.024V249.027C605.54 247.321 604.861 245.686 603.655 244.48C602.448 243.274 600.813 242.594 599.107 242.59C599.054 242.59 599.002 242.569 598.964 242.531C598.926 242.493 598.905 242.441 598.905 242.388V224.652H592.67V242.388C592.675 244.093 593.354 245.728 594.56 246.934C595.767 248.14 597.402 248.82 599.107 248.824C599.161 248.824 599.213 248.845 599.251 248.883C599.289 248.921 599.31 248.973 599.31 249.027V269.38C599.31 269.434 599.289 269.485 599.251 269.523C599.213 269.561 599.161 269.583 599.107 269.583H592.452C590.746 269.587 589.111 270.266 587.905 271.473C586.699 272.679 586.019 274.313 586.015 276.019V293.443H592.25V276.019C592.25 275.965 592.271 275.914 592.309 275.876C592.347 275.838 592.399 275.817 592.452 275.817H599.107C600.813 275.812 602.448 275.133 603.655 273.927C604.861 272.721 605.54 271.086 605.544 269.38V257.894C607.843 256.556 609.873 254.802 611.529 252.72C616.673 246.486 620.086 237.136 621.676 225.057L615.488 224.247Z" fill="#91423C"/>
<path d="M639.023 186.72C640.614 186.72 642.141 186.087 643.266 184.962C644.391 183.837 645.024 182.311 645.024 180.719V168.891C645.024 167.299 644.391 165.773 643.266 164.648C642.141 163.523 640.614 162.891 639.023 162.891H607.056C603.476 162.888 599.941 163.693 596.716 165.248C593.491 166.802 590.659 169.065 588.431 171.867C586.014 175.024 582.912 177.593 579.36 179.38C575.807 181.167 571.896 182.125 567.92 182.184H567.016C565.859 182.184 564.749 182.644 563.93 183.463C563.112 184.281 562.652 185.391 562.652 186.548V222.253C562.652 223.41 563.112 224.52 563.93 225.338C564.749 226.156 565.859 226.616 567.016 226.616H631.308C632.465 226.616 633.575 226.156 634.394 225.338C635.212 224.52 635.672 223.41 635.672 222.253V221.925C635.672 221.328 635.79 220.737 636.019 220.186C636.248 219.635 636.583 219.134 637.006 218.713C637.429 218.292 637.931 217.958 638.483 217.731C639.035 217.504 639.626 217.388 640.223 217.39C641.463 217.39 642.653 216.897 643.529 216.021C644.406 215.144 644.899 213.955 644.899 212.715V194.652C644.899 193.412 644.406 192.223 643.529 191.346C642.653 190.469 641.463 189.977 640.223 189.977H637.324C636.887 189.973 636.469 189.797 636.16 189.488C635.851 189.179 635.676 188.762 635.672 188.325C635.676 187.888 635.851 187.47 636.16 187.161C636.469 186.852 636.887 186.677 637.324 186.673L639.023 186.72Z" fill="#88B206"/>
<path d="M623.141 186.719C624.732 186.719 626.259 186.087 627.384 184.962C628.509 183.837 629.142 182.31 629.142 180.719V168.89C629.137 167.3 628.504 165.777 627.379 164.652C626.255 163.528 624.731 162.894 623.141 162.89H591.159C587.565 162.876 584.015 163.676 580.776 165.231C577.536 166.785 574.692 169.054 572.456 171.867C570.04 175.022 566.941 177.589 563.391 179.376C559.842 181.163 555.934 182.123 551.96 182.184H551.04C549.883 182.184 548.773 182.644 547.955 183.462C547.136 184.281 546.676 185.39 546.676 186.548V222.252C546.676 223.41 547.136 224.519 547.955 225.338C548.773 226.156 549.883 226.616 551.04 226.616H615.348C616.505 226.616 617.615 226.156 618.434 225.338C619.252 224.519 619.712 223.41 619.712 222.252V221.925C619.712 220.722 620.19 219.569 621.04 218.718C621.891 217.868 623.045 217.39 624.248 217.39C625.488 217.39 626.677 216.897 627.554 216.02C628.431 215.144 628.923 213.954 628.923 212.714V194.652C628.923 193.412 628.431 192.223 627.554 191.346C626.677 190.469 625.488 189.976 624.248 189.976H621.349C620.927 189.953 620.53 189.768 620.24 189.461C619.95 189.153 619.789 188.747 619.79 188.324C619.789 187.902 619.95 187.495 620.24 187.188C620.53 186.881 620.927 186.696 621.349 186.672L623.141 186.719Z" fill="#A4CF3A"/>
<path d="M245.042 286.04C217.299 288.035 189.759 266.934 184.459 239.645C183.478 234.611 184.459 227.754 189.416 226.834C190.637 226.788 191.852 226.636 193.047 226.382C196.336 225.167 196.009 220.382 194.606 217.141C193.203 213.899 191.645 209.847 194.014 207.245C195.697 205.406 198.689 205.265 200.248 203.286C202.804 199.951 198.845 195.353 199.188 191.177C199.609 186.065 206.077 183.54 207.667 178.709C208.649 175.592 207.527 172.288 208.134 169.14C208.82 165.602 211.548 162.906 213.59 159.883C217.564 154.039 218.967 146.838 222.302 140.605C225.637 134.371 232.355 128.823 239.182 130.615C245.089 132.173 248.315 138.407 250.824 143.893L279.347 206.73C281.669 211.338 283.428 216.21 284.583 221.24C286.812 233.193 282.012 245.614 274.468 255.152C266.925 264.689 256.965 271.843 247.053 278.965" fill="#A4CF3A"/>
<path opacity="0.52" d="M237.779 244.009H231.545V266.03H237.779V244.009Z" fill="#6C8431"/>
<path d="M239.213 288.44C217.112 288.144 201.682 273.058 201.043 272.419C200.628 271.978 200.4 271.393 200.408 270.787C200.415 270.182 200.658 269.602 201.084 269.172C201.511 268.742 202.088 268.494 202.693 268.48C203.299 268.467 203.886 268.689 204.332 269.1C204.472 269.256 219.107 283.5 239.275 283.765C239.897 283.777 240.488 284.035 240.92 284.482C241.352 284.928 241.59 285.528 241.582 286.149C241.578 286.456 241.513 286.758 241.392 287.039C241.27 287.321 241.094 287.575 240.874 287.788C240.654 288.001 240.394 288.168 240.109 288.28C239.824 288.392 239.519 288.447 239.213 288.44Z" fill="#E9FFA4"/>
<path d="M241.94 275.084L232.667 287.163L232.823 293.786L241.94 279.479V275.084Z" fill="#86382E"/>
<path d="M241.94 254.622L232.667 266.715L232.823 273.323L241.94 259.016V254.622Z" fill="#86382E"/>
<path opacity="0.52" d="M237.779 177.914H231.545V229.546H237.779V177.914Z" fill="#6C8431"/>
<path d="M186.704 240.829C186.221 238.117 186.065 234.081 188.107 231.899C189.291 230.652 190.928 230.949 192.486 230.699C193.402 230.585 194.28 230.263 195.052 229.758C195.825 229.253 196.472 228.578 196.944 227.785C198.658 224.871 197.988 221.052 196.819 218.076C196.001 216.378 195.475 214.555 195.261 212.683C195.261 210.642 196.616 210.003 198.269 209.255C201.916 207.618 204.113 204.953 203.428 200.777C202.866 197.41 200.435 193.966 202.617 190.74C204.456 188.044 207.293 186.221 209.023 183.384C210.003 181.685 210.539 179.766 210.581 177.805C210.675 175.327 210.036 172.787 210.846 170.387C211.8 168.17 213.099 166.118 214.696 164.309C216.104 162.407 217.321 160.371 218.328 158.231C220.572 153.415 222.006 148.272 224.469 143.55C225.871 140.901 221.834 138.532 220.432 141.197C218.172 145.529 216.753 150.189 214.836 154.662C213.981 156.692 212.937 158.639 211.719 160.475C210.472 162.314 208.992 163.997 207.838 165.898C206.727 167.616 206.008 169.559 205.734 171.587C205.469 174.111 206.171 176.714 205.641 179.208C204.908 182.589 201.261 184.787 199.219 187.389C198.075 188.851 197.33 190.584 197.057 192.42C196.784 194.256 196.992 196.131 197.661 197.862C198.097 199.327 199.219 201.291 198.783 202.865C198.347 204.439 196.196 204.969 194.871 205.639C190.943 207.587 189.883 211.437 190.896 215.504C191.535 218.029 194.668 222.798 192.845 225.432C192.299 226.211 191.458 226.117 190.585 226.18C189.521 226.224 188.47 226.428 187.468 226.787C185.722 227.502 184.275 228.795 183.368 230.45C181.657 234.075 181.223 238.173 182.137 242.076C182.667 245.037 187.187 243.775 186.641 240.829H186.704Z" fill="#E9FFA4"/>
<path d="M585.781 328.353H360.378V339.496H585.781V328.353Z" fill="#CED3DB"/>
<path d="M459.224 173.457H237.358V328.353H459.224V173.457Z" fill="#FEB06D"/>
<path d="M278.895 79.9492L318.358 126.703L345.353 173.457H291.363H220.214L248.767 126.703L278.895 79.9492Z" fill="#354C70"/>
<path d="M278.895 79.9492H513.213V173.457H316.379" fill="#354C70"/>
<path d="M576.009 328.353H458.678L458.974 173.457L576.009 173.021V328.353Z" fill="#DD764D"/>
<path d="M459.224 173.457H237.358V182.371H459.224V173.457Z" fill="#DD764D"/>
<path d="M368.825 199.265H327.756V244.461H368.825V199.265Z" fill="white"/>
<path d="M366.098 202.257H330.484V241.453H366.098V202.257Z" fill="#00B1C9"/>
<path d="M348.953 241.453H346.07L353.863 202.257H356.746L348.953 241.453Z" fill="#0CDFEF"/>
<path d="M342.719 241.453H336.703L344.496 202.257H350.512L342.719 241.453Z" fill="#0CDFEF"/>
<path d="M510.985 257.365H478.332V302.56H510.985V257.365Z" fill="white"/>
<path d="M521.209 79.9492L552.209 127.482L575.417 175.015H521.209H459.224L490.224 127.482L521.209 79.9492Z" fill="#DD764D"/>
<path d="M439.897 328.353H21.9762V339.496H439.897V328.353Z" fill="#F7F7F7"/>
<path d="M287.763 97.9492H343.623L308.305 149.379H296.133" fill="#253956"/>
<path d="M308.305 149.379H267.236V122.885L287.763 97.9492L308.305 122.885V149.379Z" fill="#FEB06D"/>
<path d="M297.379 123.664V144.937H278.162V123.664C278.262 121.183 279.318 118.837 281.109 117.116C282.9 115.396 285.287 114.436 287.771 114.436C290.254 114.436 292.641 115.396 294.432 117.116C296.223 118.837 297.28 121.183 297.379 123.664Z" fill="#00B1C9"/>
<path d="M353.567 97.9492H407.853L374.109 149.379H361.936" fill="#253956"/>
<path d="M374.109 149.379H333.025V122.885L353.567 97.9492L374.109 122.885V149.379Z" fill="#FEB06D"/>
<path d="M363.152 123.664V144.937H343.966V123.664C343.966 122.403 344.214 121.155 344.697 119.99C345.179 118.826 345.886 117.767 346.778 116.876C347.669 115.984 348.728 115.277 349.893 114.795C351.057 114.312 352.306 114.064 353.567 114.064C354.828 114.064 356.076 114.312 357.241 114.795C358.406 115.277 359.464 115.984 360.356 116.876C361.247 117.767 361.954 118.826 362.437 119.99C362.919 121.155 363.168 122.403 363.168 123.664H363.152Z" fill="#00B1C9"/>
<path d="M419.355 97.9492H472.098L439.897 149.379H427.725" fill="#253956"/>
<path d="M439.897 149.379H398.828V122.885L419.355 97.9492L439.897 122.885V149.379Z" fill="#FEB06D"/>
<path d="M428.971 123.664V144.937H409.754V123.664C409.702 122.37 409.912 121.078 410.371 119.867C410.831 118.656 411.53 117.55 412.427 116.616C413.325 115.682 414.402 114.938 415.593 114.431C416.785 113.923 418.067 113.661 419.363 113.661C420.658 113.661 421.94 113.923 423.132 114.431C424.324 114.938 425.401 115.682 426.298 116.616C427.196 117.55 427.895 118.656 428.354 119.867C428.814 121.078 429.024 122.37 428.971 123.664Z" fill="#00B1C9"/>
<path d="M229.924 236.575L225.513 328.353H230.703H233.103V236.575H229.924Z" fill="#86382E"/>
<path d="M220.042 243.65L229.316 255.744L229.144 262.351L220.042 248.045V243.65Z" fill="#86382E"/>
<path d="M212.249 262.133L229.316 275.785L229.144 282.393L212.249 264.97V262.133Z" fill="#86382E"/>
<path d="M224.593 212.481C226.702 212.481 228.412 210.771 228.412 208.662C228.412 206.554 226.702 204.844 224.593 204.844C222.484 204.844 220.775 206.554 220.775 208.662C220.775 210.771 222.484 212.481 224.593 212.481Z" fill="#E9FFA4"/>
<path d="M204.596 217.764C205.165 217.764 205.625 217.304 205.625 216.736C205.625 216.168 205.165 215.707 204.596 215.707C204.028 215.707 203.568 216.168 203.568 216.736C203.568 217.304 204.028 217.764 204.596 217.764Z" fill="#E9FFA4"/>
<path d="M193.749 239.91C194.48 239.91 195.074 239.317 195.074 238.585C195.074 237.853 194.48 237.26 193.749 237.26C193.017 237.26 192.424 237.853 192.424 238.585C192.424 239.317 193.017 239.91 193.749 239.91Z" fill="#E9FFA4"/>
<path d="M198.035 255.089C199.188 255.089 200.123 254.154 200.123 253.001C200.123 251.848 199.188 250.913 198.035 250.913C196.881 250.913 195.946 251.848 195.946 253.001C195.946 254.154 196.881 255.089 198.035 255.089Z" fill="#E9FFA4"/>
<path d="M214.447 229.047C215.66 229.047 216.644 228.063 216.644 226.85C216.644 225.636 215.66 224.652 214.447 224.652C213.233 224.652 212.249 225.636 212.249 226.85C212.249 228.063 213.233 229.047 214.447 229.047Z" fill="#E9FFA4"/>
<path d="M216.457 181.951C217.568 181.951 218.468 181.05 218.468 179.94C218.468 178.83 217.568 177.93 216.457 177.93C215.347 177.93 214.447 178.83 214.447 179.94C214.447 181.05 215.347 181.951 216.457 181.951Z" fill="#E9FFA4"/>
<path d="M619.899 216.019C621.543 216.019 622.876 214.686 622.876 213.042C622.876 211.398 621.543 210.065 619.899 210.065C618.255 210.065 616.922 211.398 616.922 213.042C616.922 214.686 618.255 216.019 619.899 216.019Z" fill="#E9FFA4"/>
<path d="M605.794 204.595C606.241 204.595 606.604 204.232 606.604 203.785C606.604 203.337 606.241 202.974 605.794 202.974C605.346 202.974 604.983 203.337 604.983 203.785C604.983 204.232 605.346 204.595 605.794 204.595Z" fill="#E9FFA4"/>
<path d="M586.919 207.556C587.487 207.556 587.948 207.096 587.948 206.528C587.948 205.96 587.487 205.499 586.919 205.499C586.351 205.499 585.891 205.96 585.891 206.528C585.891 207.096 586.351 207.556 586.919 207.556Z" fill="#E9FFA4"/>
<path d="M579.547 217.343C580.451 217.343 581.184 216.61 581.184 215.707C581.184 214.803 580.451 214.07 579.547 214.07C578.643 214.07 577.911 214.803 577.911 215.707C577.911 216.61 578.643 217.343 579.547 217.343Z" fill="#E9FFA4"/>
<path d="M603.674 216.33C604.621 216.33 605.389 215.563 605.389 214.616C605.389 213.669 604.621 212.902 603.674 212.902C602.727 212.902 601.96 213.669 601.96 214.616C601.96 215.563 602.727 216.33 603.674 216.33Z" fill="#E9FFA4"/>
<path d="M634.752 196.6C635.622 196.6 636.327 195.896 636.327 195.026C636.327 194.157 635.622 193.452 634.752 193.452C633.883 193.452 633.178 194.157 633.178 195.026C633.178 195.896 633.883 196.6 634.752 196.6Z" fill="#E9FFA4"/>
<path d="M254.487 160.444H240.054C238.531 160.444 237.296 161.679 237.296 163.202C237.296 164.726 238.531 165.961 240.054 165.961H254.487C256.011 165.961 257.246 164.726 257.246 163.202C257.246 161.679 256.011 160.444 254.487 160.444Z" fill="#253956"/>
<path d="M319.917 87.2114H305.484C303.961 87.2114 302.725 88.4464 302.725 89.9699C302.725 91.4934 303.961 92.7284 305.484 92.7284H319.917C321.44 92.7284 322.675 91.4934 322.675 89.9699C322.675 88.4464 321.44 87.2114 319.917 87.2114Z" fill="#253956"/>
<path d="M429.611 162.174H415.178C413.654 162.174 412.419 163.409 412.419 164.932C412.419 166.456 413.654 167.691 415.178 167.691H429.611C431.134 167.691 432.369 166.456 432.369 164.932C432.369 163.409 431.134 162.174 429.611 162.174Z" fill="#253956"/>
<path d="M401.712 84.0947H387.279C385.755 84.0947 384.52 85.3297 384.52 86.8532C384.52 88.3767 385.755 89.6117 387.279 89.6117H401.712C403.235 89.6117 404.47 88.3767 404.47 86.8532C404.47 85.3297 403.235 84.0947 401.712 84.0947Z" fill="#253956"/>
<path d="M493.575 86.853H479.143C477.619 86.853 476.384 88.088 476.384 89.6115C476.384 91.135 477.619 92.37 479.143 92.37H493.575C495.099 92.37 496.334 91.135 496.334 89.6115C496.334 88.088 495.099 86.853 493.575 86.853Z" fill="#253956"/>
<path d="M325.497 162.174H311.064C309.54 162.174 308.305 163.409 308.305 164.932C308.305 166.456 309.54 167.691 311.064 167.691H325.497C327.02 167.691 328.255 166.456 328.255 164.932C328.255 163.409 327.02 162.174 325.497 162.174Z" fill="#253956"/>
<path d="M263.511 185.769H251.011C249.884 185.769 248.97 186.683 248.97 187.811C248.97 188.938 249.884 189.852 251.011 189.852H263.511C264.639 189.852 265.553 188.938 265.553 187.811C265.553 186.683 264.639 185.769 263.511 185.769Z" fill="#DD764D"/>
<path d="M280.812 191.785H268.312C267.184 191.785 266.27 192.699 266.27 193.826C266.27 194.954 267.184 195.868 268.312 195.868H280.812C281.939 195.868 282.853 194.954 282.853 193.826C282.853 192.699 281.939 191.785 280.812 191.785Z" fill="#DD764D"/>
<path d="M428.644 189.883H416.144C415.017 189.883 414.103 190.797 414.103 191.925C414.103 193.052 415.017 193.966 416.144 193.966H428.644C429.772 193.966 430.686 193.052 430.686 191.925C430.686 190.797 429.772 189.883 428.644 189.883Z" fill="#DD764D"/>
<path d="M500.901 185.099H488.401C487.273 185.099 486.359 186.013 486.359 187.14C486.359 188.268 487.273 189.182 488.401 189.182H500.901C502.028 189.182 502.942 188.268 502.942 187.14C502.942 186.013 502.028 185.099 500.901 185.099Z" fill="#B7502C"/>
<path d="M538.696 170.355H526.196C525.069 170.355 524.155 171.27 524.155 172.397C524.155 173.525 525.069 174.439 526.196 174.439H538.696C539.824 174.439 540.738 173.525 540.738 172.397C540.738 171.27 539.824 170.355 538.696 170.355Z" fill="#B7502C"/>
<path d="M549.965 315.402H537.465C536.337 315.402 535.423 316.316 535.423 317.443C535.423 318.571 536.337 319.485 537.465 319.485H549.965C551.093 319.485 552.007 318.571 552.007 317.443C552.007 316.316 551.093 315.402 549.965 315.402Z" fill="#B7502C"/>
<path d="M484.566 305.739H472.067C470.939 305.739 470.025 306.653 470.025 307.781C470.025 308.908 470.939 309.822 472.067 309.822H484.566C485.694 309.822 486.608 308.908 486.608 307.781C486.608 306.653 485.694 305.739 484.566 305.739Z" fill="#B7502C"/>
<path d="M503.566 315.449H491.066C489.938 315.449 489.024 316.363 489.024 317.49C489.024 318.618 489.938 319.532 491.066 319.532H503.566C504.693 319.532 505.607 318.618 505.607 317.49C505.607 316.363 504.693 315.449 503.566 315.449Z" fill="#B7502C"/>
<path d="M564.008 183.727H551.508C550.38 183.727 549.466 184.641 549.466 185.769C549.466 186.896 550.38 187.81 551.508 187.81H564.008C565.136 187.81 566.05 186.896 566.05 185.769C566.05 184.641 565.136 183.727 564.008 183.727Z" fill="#B7502C"/>
<path d="M339.274 188.777H326.775C325.647 188.777 324.733 189.691 324.733 190.818C324.733 191.946 325.647 192.86 326.775 192.86H339.274C340.402 192.86 341.316 191.946 341.316 190.818C341.316 189.691 340.402 188.777 339.274 188.777Z" fill="#DD764D"/>
<path d="M354.533 313.422H342.033C340.906 313.422 339.991 314.336 339.991 315.464C339.991 316.591 340.906 317.506 342.033 317.506H354.533C355.661 317.506 356.575 316.591 356.575 315.464C356.575 314.336 355.661 313.422 354.533 313.422Z" fill="#DD764D"/>
<path opacity="0.52" d="M251.993 330.519H239.493C238.366 330.519 237.452 331.433 237.452 332.561C237.452 333.688 238.366 334.602 239.493 334.602H251.993C253.121 334.602 254.035 333.688 254.035 332.561C254.035 331.433 253.121 330.519 251.993 330.519Z" fill="#CED3DB"/>
<path opacity="0.52" d="M300.185 333.636H289.228C288.238 333.636 287.436 334.438 287.436 335.428C287.436 336.418 288.238 337.22 289.228 337.22H300.185C301.175 337.22 301.977 336.418 301.977 335.428C301.977 334.438 301.175 333.636 300.185 333.636Z" fill="#CED3DB"/>
<path opacity="0.52" d="M355.983 331.859H345.026C344.036 331.859 343.233 332.662 343.233 333.652C343.233 334.641 344.036 335.444 345.026 335.444H355.983C356.972 335.444 357.775 334.641 357.775 333.652C357.775 332.662 356.972 331.859 355.983 331.859Z" fill="#CED3DB"/>
<path opacity="0.52" d="M392.828 330.784H381.871C380.881 330.784 380.078 331.586 380.078 332.576C380.078 333.566 380.881 334.368 381.871 334.368H392.828C393.818 334.368 394.62 333.566 394.62 332.576C394.62 331.586 393.818 330.784 392.828 330.784Z" fill="#CED3DB"/>
<path opacity="0.52" d="M433.382 333.636H422.425C421.436 333.636 420.633 334.438 420.633 335.428C420.633 336.418 421.436 337.22 422.425 337.22H433.382C434.372 337.22 435.175 336.418 435.175 335.428C435.175 334.438 434.372 333.636 433.382 333.636Z" fill="#CED3DB"/>
<path d="M420.352 315.402H407.853C406.725 315.402 405.811 316.316 405.811 317.443C405.811 318.571 406.725 319.485 407.853 319.485H420.352C421.48 319.485 422.394 318.571 422.394 317.443C422.394 316.316 421.48 315.402 420.352 315.402Z" fill="#DD764D"/>
<path d="M251.058 262.523H242.127C241.327 262.523 240.678 263.172 240.678 263.972V263.988C240.678 264.788 241.327 265.437 242.127 265.437H251.058C251.859 265.437 252.508 264.788 252.508 263.988V263.972C252.508 263.172 251.859 262.523 251.058 262.523Z" fill="#DD764D"/>
<path d="M256.124 265.422H247.193C246.392 265.422 245.743 266.071 245.743 266.871V266.887C245.743 267.687 246.392 268.336 247.193 268.336H256.124C256.924 268.336 257.573 267.687 257.573 266.887V266.871C257.573 266.071 256.924 265.422 256.124 265.422Z" fill="#DD764D"/>
<path d="M251.058 268.336H242.127C241.327 268.336 240.678 268.985 240.678 269.785V269.801C240.678 270.601 241.327 271.25 242.127 271.25H251.058C251.859 271.25 252.508 270.601 252.508 269.801V269.785C252.508 268.985 251.859 268.336 251.058 268.336Z" fill="#DD764D"/>
<path d="M265.304 317.49H274.234C275.035 317.49 275.684 316.841 275.684 316.041V316.025C275.684 315.225 275.035 314.576 274.234 314.576H265.304C264.503 314.576 263.854 315.225 263.854 316.025V316.041C263.854 316.841 264.503 317.49 265.304 317.49Z" fill="#DD764D"/>
<path d="M260.238 320.404H269.169C269.969 320.404 270.618 319.755 270.618 318.955V318.939C270.618 318.139 269.969 317.49 269.169 317.49H260.238C259.438 317.49 258.789 318.139 258.789 318.939V318.955C258.789 319.755 259.438 320.404 260.238 320.404Z" fill="#DD764D"/>
<path d="M265.304 323.319H274.234C275.035 323.319 275.684 322.67 275.684 321.869V321.854C275.684 321.053 275.035 320.405 274.234 320.405H265.304C264.503 320.405 263.854 321.053 263.854 321.854V321.869C263.854 322.67 264.503 323.319 265.304 323.319Z" fill="#DD764D"/>
<path d="M310.534 274.165H319.465C320.265 274.165 320.914 273.516 320.914 272.716V272.7C320.914 271.9 320.265 271.251 319.465 271.251H310.534C309.733 271.251 309.085 271.9 309.085 272.7V272.716C309.085 273.516 309.733 274.165 310.534 274.165Z" fill="#DD764D"/>
<path d="M305.469 277.063H314.399C315.2 277.063 315.849 276.415 315.849 275.614V275.599C315.849 274.798 315.2 274.149 314.399 274.149H305.469C304.668 274.149 304.019 274.798 304.019 275.599V275.614C304.019 276.415 304.668 277.063 305.469 277.063Z" fill="#DD764D"/>
<path d="M310.534 279.978H319.465C320.265 279.978 320.914 279.329 320.914 278.529V278.513C320.914 277.713 320.265 277.064 319.465 277.064H310.534C309.733 277.064 309.085 277.713 309.085 278.513V278.529C309.085 279.329 309.733 279.978 310.534 279.978Z" fill="#DD764D"/>
<g opacity="0.45">
<path d="M379.533 218.388H388.464C389.264 218.388 389.913 217.739 389.913 216.938V216.923C389.913 216.122 389.264 215.473 388.464 215.473H379.533C378.732 215.473 378.083 216.122 378.083 216.923V216.938C378.083 217.739 378.732 218.388 379.533 218.388Z" fill="#DD764D"/>
<path d="M374.483 221.302H383.414C384.214 221.302 384.863 220.653 384.863 219.852V219.837C384.863 219.036 384.214 218.387 383.414 218.387H374.483C373.683 218.387 373.034 219.036 373.034 219.837V219.852C373.034 220.653 373.683 221.302 374.483 221.302Z" fill="#DD764D"/>
<path d="M379.533 224.232H388.464C389.264 224.232 389.913 223.583 389.913 222.783V222.767C389.913 221.967 389.264 221.318 388.464 221.318H379.533C378.732 221.318 378.083 221.967 378.083 222.767V222.783C378.083 223.583 378.732 224.232 379.533 224.232Z" fill="#DD764D"/>
</g>
<g opacity="0.45">
<path d="M443.794 255.9H452.724C453.525 255.9 454.174 255.251 454.174 254.451V254.435C454.174 253.634 453.525 252.986 452.724 252.986H443.794C442.993 252.986 442.344 253.634 442.344 254.435V254.451C442.344 255.251 442.993 255.9 443.794 255.9Z" fill="#DD764D"/>
<path d="M438.728 258.83H447.659C448.46 258.83 449.109 258.181 449.109 257.38V257.365C449.109 256.564 448.46 255.915 447.659 255.915H438.728C437.928 255.915 437.279 256.564 437.279 257.365V257.38C437.279 258.181 437.928 258.83 438.728 258.83Z" fill="#DD764D"/>
<path d="M443.794 261.729H452.724C453.525 261.729 454.174 261.08 454.174 260.279V260.264C454.174 259.463 453.525 258.814 452.724 258.814H443.794C442.993 258.814 442.344 259.463 442.344 260.264V260.279C442.344 261.08 442.993 261.729 443.794 261.729Z" fill="#DD764D"/>
</g>
<path d="M386.952 280.352H374.452C373.324 280.352 372.41 281.266 372.41 282.394C372.41 283.521 373.324 284.435 374.452 284.435H386.952C388.079 284.435 388.994 283.521 388.994 282.394C388.994 281.266 388.079 280.352 386.952 280.352Z" fill="#DD764D"/>
<path d="M333.819 206.45H333.804C332.926 206.45 332.214 207.161 332.214 208.039V220.258C332.214 221.136 332.926 221.847 333.804 221.847H333.819C334.697 221.847 335.409 221.136 335.409 220.258V208.039C335.409 207.161 334.697 206.45 333.819 206.45Z" fill="white"/>
<path opacity="0.51" d="M371.771 246.954H321.616V251.489H371.771V246.954Z" fill="#DD764D"/>
<path d="M371.771 244.46H321.616V246.954H371.771V244.46Z" fill="#354C70"/>
<path d="M301.697 199.265H260.628V244.461H301.697V199.265Z" fill="white"/>
<path opacity="0.51" d="M304.019 246.954H253.864V251.489H304.019V246.954Z" fill="#DD764D"/>
<path d="M304.019 244.46H253.864V246.954H304.019V244.46Z" fill="#354C70"/>
<path opacity="0.47" d="M310.3 151.872H260.145V156.407H310.3V151.872Z" fill="#253956"/>
<path d="M310.3 149.379H260.145V151.872H310.3V149.379Z" fill="#253956"/>
<path opacity="0.47" d="M376.213 151.872H326.058V156.407H376.213V151.872Z" fill="#253956"/>
<path d="M376.213 149.379H326.058V151.872H376.213V149.379Z" fill="#253956"/>
<path opacity="0.47" d="M442.796 151.872H392.641V156.407H442.796V151.872Z" fill="#253956"/>
<path d="M442.796 149.379H392.641V151.872H442.796V149.379Z" fill="#253956"/>
<path d="M298.969 202.257H263.355V241.453H298.969V202.257Z" fill="#00B1C9"/>
<path d="M281.825 241.453H278.941L286.734 202.257H289.618L281.825 241.453Z" fill="#0CDFEF"/>
<path d="M275.59 241.453H269.59L277.383 202.257H283.383L275.59 241.453Z" fill="#0CDFEF"/>
<path d="M435.175 199.265H394.106V244.461H435.175V199.265Z" fill="white"/>
<path opacity="0.51" d="M437.513 246.954H387.357V251.489H437.513V246.954Z" fill="#DD764D"/>
<path d="M437.513 244.46H387.357V246.954H437.513V244.46Z" fill="#354C70"/>
<path d="M432.447 202.257H396.833V241.453H432.447V202.257Z" fill="#00B1C9"/>
<path d="M510.985 199.265H478.332V244.461H510.985V199.265Z" fill="white"/>
<path d="M507.961 202.257H481.699V241.453H507.961V202.257Z" fill="#00939E"/>
<path d="M489.757 241.453H482.946L491.253 202.257H498.282L489.757 241.453Z" fill="#008184"/>
<path d="M494.775 241.453H492.624L500.932 202.257H503.301L494.775 241.453Z" fill="#008184"/>
<path d="M142.627 225.213H123.191V252.112H142.627V225.213Z" fill="white"/>
<path d="M140.834 227.006H125.202V250.336H140.834V227.006Z" fill="#00939E"/>
<path d="M130.002 250.336H125.934L130.875 227.006H135.068L130.002 250.336Z" fill="#008184"/>
<path d="M132.979 250.336H131.701L136.642 227.006H138.06L132.979 250.336Z" fill="#008184"/>
<path d="M170.494 225.213H151.059V252.112H170.494V225.213Z" fill="white"/>
<path d="M168.702 227.006H153.069V250.336H168.702V227.006Z" fill="#00939E"/>
<path d="M157.87 250.336H153.802L158.743 227.006H162.935L157.87 250.336Z" fill="#008184"/>
<path d="M160.847 250.336H159.569L164.509 227.006H165.928L160.847 250.336Z" fill="#008184"/>
<path d="M142.627 259.204H123.191V286.103H142.627V259.204Z" fill="white"/>
<path d="M140.834 260.996H125.202V284.326H140.834V260.996Z" fill="#00939E"/>
<path d="M130.002 284.326H125.934L130.875 260.996H135.068L130.002 284.326Z" fill="#008184"/>
<path d="M132.979 284.326H131.701L136.642 260.996H138.06L132.979 284.326Z" fill="#008184"/>
<path d="M170.494 259.204H151.059V286.103H170.494V259.204Z" fill="white"/>
<path d="M168.702 260.996H153.069V284.326H168.702V260.996Z" fill="#00939E"/>
<path d="M157.87 284.326H153.802L158.743 260.996H162.935L157.87 284.326Z" fill="#008184"/>
<path d="M160.847 284.326H159.569L164.509 260.996H165.928L160.847 284.326Z" fill="#008184"/>
<path d="M559.395 199.265H526.742V244.461H559.395V199.265Z" fill="white"/>
<path d="M556.199 202.257H529.937V241.453H556.199V202.257Z" fill="#00939E"/>
<path d="M526.384 140.417H513.213V160.818H526.384V140.417Z" fill="white"/>
<path d="M525.105 141.773H514.507V159.478H525.105V141.773Z" fill="#00939E"/>
<path d="M520.43 159.478H517.624L520.741 141.773H523.547L520.43 159.478Z" fill="#008184"/>
<path d="M559.395 257.365H526.742V302.56H559.395V257.365Z" fill="white"/>
<path d="M556.199 260.326H529.937V299.521H556.199V260.326Z" fill="#00939E"/>
<path d="M507.961 260.747H481.699V299.942H507.961V260.747Z" fill="#00939E"/>
<path d="M415.318 241.453H412.419L420.212 202.257H423.111L415.318 241.453Z" fill="#0CDFEF"/>
<path d="M409.068 241.453H403.068L410.861 202.257H416.861L409.068 241.453Z" fill="#0CDFEF"/>
<path d="M435.175 257.333H394.106V302.529H435.175V257.333Z" fill="white"/>
<path opacity="0.51" d="M437.513 305.022H387.357V309.558H437.513V305.022Z" fill="#DD764D"/>
<path d="M437.513 302.529H387.357V305.022H437.513V302.529Z" fill="#354C70"/>
<path d="M432.447 260.326H396.833V299.521H432.447V260.326Z" fill="#00B1C9"/>
<path d="M415.318 299.521H412.419L420.212 260.326H423.111L415.318 299.521Z" fill="#0CDFEF"/>
<path d="M409.068 299.521H403.068L410.861 260.326H416.861L409.068 299.521Z" fill="#0CDFEF"/>
<path d="M301.697 257.333H260.628V302.529H301.697V257.333Z" fill="white"/>
<path opacity="0.51" d="M304.019 305.022H253.864V309.558H304.019V305.022Z" fill="#DD764D"/>
<path d="M304.019 302.529H253.864V305.022H304.019V302.529Z" fill="#354C70"/>
<path d="M298.969 260.326H263.355V299.521H298.969V260.326Z" fill="#00B1C9"/>
<path d="M281.825 299.521H278.941L286.734 260.326H289.618L281.825 299.521Z" fill="#0CDFEF"/>
<path d="M275.59 299.521H269.59L277.383 260.326H283.383L275.59 299.521Z" fill="#0CDFEF"/>
<path d="M369.449 257.333H328.38V302.529H369.449V257.333Z" fill="white"/>
<path opacity="0.51" d="M371.771 305.022H321.616V309.558H371.771V305.022Z" fill="#DD764D"/>
<path d="M371.771 302.529H321.616V305.022H371.771V302.529Z" fill="#354C70"/>
<path d="M366.721 260.326H331.107V299.521H366.721V260.326Z" fill="#00B1C9"/>
<path d="M349.577 299.521H346.693L354.486 260.326H357.37L349.577 299.521Z" fill="#0CDFEF"/>
<path d="M343.342 299.521H337.326L345.119 260.326H351.135L343.342 299.521Z" fill="#0CDFEF"/>
<path d="M288.153 115.965H287.373V143.394H288.153V115.965Z" fill="#00848E"/>
<path d="M295.992 123.274H279.721V124.054H295.992V123.274Z" fill="#00848E"/>
<path d="M295.992 131.441H279.721V132.22H295.992V131.441Z" fill="#00848E"/>
<path d="M295.992 139.623H279.721V140.402H295.992V139.623Z" fill="#00848E"/>
<path d="M353.878 115.965H353.099V143.394H353.878V115.965Z" fill="#00848E"/>
<path d="M361.703 123.274H345.431V124.054H361.703V123.274Z" fill="#00848E"/>
<path d="M361.703 131.441H345.431V132.22H361.703V131.441Z" fill="#00848E"/>
<path d="M361.703 139.623H345.431V140.402H361.703V139.623Z" fill="#00848E"/>
<path d="M419.667 115.965H418.887V143.394H419.667V115.965Z" fill="#00848E"/>
<path d="M427.506 123.274H411.235V124.054H427.506V123.274Z" fill="#00848E"/>
<path d="M427.506 131.441H411.235V132.22H427.506V131.441Z" fill="#00848E"/>
<path d="M427.506 139.623H411.235V140.402H427.506V139.623Z" fill="#00848E"/>
<path opacity="0.4" d="M297.379 123.664V144.937H278.162L294.106 116.464C294.274 116.59 294.431 116.731 294.574 116.885C295.465 117.774 296.172 118.831 296.654 119.994C297.135 121.158 297.382 122.405 297.379 123.664Z" fill="#00848E"/>
<path opacity="0.4" d="M363.152 123.664V144.937H343.95L359.895 116.62C360.056 116.742 360.207 116.877 360.347 117.025C362.113 118.787 363.12 121.169 363.152 123.664Z" fill="#00848E"/>
<path opacity="0.4" d="M428.972 123.664V144.937H409.754L425.698 116.62C425.86 116.742 426.011 116.877 426.15 117.025C427.922 118.784 428.935 121.167 428.972 123.664Z" fill="#00848E"/>
<path d="M565.847 176.371L518.996 102.079L475.994 176.2L466.565 170.73L518.622 81.0088L575.074 170.558L565.847 176.371Z" fill="#B7502C"/>
<path d="M513.213 79.9492L459.224 173.457H471.287L523.859 79.9492H513.213Z" fill="#253956"/>
<path d="M523.859 79.9492L582.524 173.457H570.461L513.213 79.9492H523.859Z" fill="#253956"/>
<path d="M462.933 182.372H456.325V318.955H462.933V182.372Z" fill="#CED3DB"/>
<path d="M475.979 325.22H467.297C464.847 325.216 462.499 324.241 460.766 322.509C459.034 320.777 458.059 318.428 458.055 315.978V309.558H461.172V315.978C461.176 317.602 461.823 319.157 462.971 320.305C464.118 321.453 465.674 322.099 467.297 322.103H475.979V325.22Z" fill="#939CAA"/>
<path opacity="0.44" d="M457.665 292.82C457.355 292.82 457.058 292.696 456.839 292.477C456.619 292.258 456.496 291.961 456.496 291.651V282.393C456.496 282.083 456.619 281.786 456.839 281.567C457.058 281.348 457.355 281.225 457.665 281.225C457.975 281.225 458.272 281.348 458.492 281.567C458.711 281.786 458.834 282.083 458.834 282.393V291.651C458.83 291.959 458.706 292.254 458.487 292.473C458.269 292.691 457.974 292.816 457.665 292.82Z" fill="#F7F7F7"/>
<path opacity="0.36" d="M461.453 305.677C461.039 305.677 460.643 305.513 460.35 305.221C460.058 304.928 459.894 304.532 459.894 304.119V296.404C459.894 295.991 460.058 295.594 460.35 295.302C460.643 295.01 461.039 294.846 461.453 294.846C461.866 294.846 462.262 295.01 462.555 295.302C462.847 295.594 463.011 295.991 463.011 296.404V304.119C463.011 304.532 462.847 304.928 462.555 305.221C462.262 305.513 461.866 305.677 461.453 305.677Z" fill="#939CAA"/>
<path opacity="0.44" d="M461.811 242.621C461.502 242.617 461.207 242.493 460.989 242.275C460.771 242.056 460.646 241.761 460.642 241.453V232.211C460.642 231.901 460.765 231.604 460.985 231.384C461.204 231.165 461.501 231.042 461.811 231.042C462.121 231.042 462.418 231.165 462.638 231.384C462.857 231.604 462.98 231.901 462.98 232.211V241.468C462.976 241.775 462.851 242.069 462.632 242.285C462.413 242.5 462.118 242.621 461.811 242.621Z" fill="#F7F7F7"/>
<path opacity="0.65" d="M457.665 204.393C457.355 204.393 457.058 204.269 456.839 204.05C456.619 203.831 456.496 203.534 456.496 203.224V193.873C456.496 193.563 456.619 193.266 456.839 193.046C457.058 192.827 457.355 192.704 457.665 192.704C457.975 192.704 458.272 192.827 458.492 193.046C458.711 193.266 458.834 193.563 458.834 193.873V203.224C458.83 203.532 458.706 203.827 458.487 204.046C458.269 204.264 457.974 204.389 457.665 204.393Z" fill="#F7F7F7"/>
<path opacity="0.65" d="M457.665 258.799C457.355 258.799 457.058 258.675 456.839 258.456C456.619 258.237 456.496 257.94 456.496 257.63V248.357C456.496 248.047 456.619 247.75 456.839 247.53C457.058 247.311 457.355 247.188 457.665 247.188C457.975 247.188 458.272 247.311 458.492 247.53C458.711 247.75 458.834 248.047 458.834 248.357V257.63C458.83 257.938 458.706 258.233 458.487 258.452C458.269 258.67 457.974 258.794 457.665 258.799Z" fill="#F7F7F7"/>
<path d="M228.225 312.737L227.835 312.721L228.256 302.513L228.646 302.529L228.225 312.737Z" fill="#6B251F"/>
<path d="M229.3 319.703L228.911 319.687L229.316 309.479L229.705 309.495L229.3 319.703Z" fill="#6B251F"/>
<path d="M228.879 293.786L228.49 293.77L228.911 283.562L229.3 283.578L228.879 293.786Z" fill="#6B251F"/>
<path d="M232.449 314.591H232.059V320.934H232.449V314.591Z" fill="#6B251F"/>
<path d="M232.449 292.586H232.059V298.929H232.449V292.586Z" fill="#6B251F"/>
<path d="M226.744 324.893L226.354 324.877L226.573 318.939L226.962 318.955L226.744 324.893Z" fill="#6B251F"/>
<path d="M613.867 164.449H591.159C590.745 164.449 590.349 164.285 590.057 163.992C589.764 163.7 589.6 163.304 589.6 162.89C589.6 162.477 589.764 162.081 590.057 161.789C590.349 161.496 590.745 161.332 591.159 161.332H613.867C614.281 161.332 614.677 161.496 614.969 161.789C615.262 162.081 615.426 162.477 615.426 162.89C615.426 163.304 615.262 163.7 614.969 163.992C614.677 164.285 614.281 164.449 613.867 164.449Z" fill="#E9FFA4"/>
<path d="M604.033 257.458H603.643V264.175H604.033V257.458Z" fill="#6B251F"/>
<path d="M590.847 274.305H590.457V281.022H590.847V274.305Z" fill="#6B251F"/>
<path d="M602.193 247.546H601.804V254.263H602.193V247.546Z" fill="#6B251F"/>
<path d="M595.351 229.889H594.962V236.606H595.351V229.889Z" fill="#6B251F"/>
<path d="M601.523 255.931H601.134V258.783H601.523V255.931Z" fill="#6B251F"/>
<path d="M602.334 260.591H601.944V267.308H602.334V260.591Z" fill="#6B251F"/>
<path d="M596.458 233.754H596.068V236.606H596.458V233.754Z" fill="#6B251F"/>
<path d="M597.284 238.398H596.894V245.115H597.284V238.398Z" fill="#6B251F"/>
<path d="M587.73 278.154H587.34V281.006H587.73V278.154Z" fill="#6B251F"/>
<path d="M588.556 282.814H588.166V289.531H588.556V282.814Z" fill="#6B251F"/>
<path d="M598.905 226.616H592.67V229.889H598.905V226.616Z" fill="#6B251F"/>
<path d="M595.164 322.197C595.792 322.197 596.395 322.446 596.839 322.891C597.284 323.335 597.533 323.937 597.533 324.566V339.511H592.857V324.566C592.857 323.948 593.098 323.355 593.529 322.912C593.96 322.47 594.547 322.213 595.164 322.197Z" fill="#88B206"/>
<path d="M581.012 310.882C581.64 310.882 582.243 311.132 582.687 311.576C583.132 312.02 583.381 312.623 583.381 313.251V328.197H578.705V313.251C578.705 312.623 578.955 312.02 579.399 311.576C579.844 311.132 580.446 310.882 581.075 310.882H581.012Z" fill="#769103"/>
<path d="M602.755 311.334C603.776 311.334 604.755 311.74 605.477 312.461C606.199 313.183 606.604 314.162 606.604 315.183V339.495H598.905V315.183C598.905 314.162 599.31 313.183 600.032 312.461C600.754 311.74 601.734 311.334 602.755 311.334Z" fill="#88B206"/>
<path d="M612.371 322.197C612.999 322.197 613.602 322.446 614.046 322.891C614.491 323.335 614.74 323.937 614.74 324.566V339.511H610.064V324.566C610.064 323.937 610.314 323.335 610.758 322.891C611.203 322.446 611.805 322.197 612.433 322.197H612.371Z" fill="#88B206"/>
<path d="M606.293 324.565C606.834 324.565 607.353 324.781 607.736 325.163C608.119 325.546 608.334 326.066 608.334 326.607V339.511H604.251V326.607C604.251 326.066 604.466 325.546 604.849 325.163C605.232 324.781 605.751 324.565 606.293 324.565Z" fill="#769103"/>
<path d="M592.795 324.565C593.337 324.565 593.856 324.781 594.239 325.163C594.622 325.546 594.837 326.066 594.837 326.607V339.511H590.707V326.607C590.707 326.066 590.922 325.546 591.305 325.163C591.688 324.781 592.207 324.565 592.748 324.565H592.795Z" fill="#769103"/>
<path d="M608.709 285.068C609.222 285.309 609.617 285.745 609.808 286.278C609.999 286.811 609.97 287.398 609.728 287.91L603.991 300.057L600.101 298.221L605.839 286.073C606.08 285.561 606.516 285.166 607.049 284.975C607.582 284.784 608.169 284.813 608.681 285.054L608.709 285.068Z" fill="#88B206"/>
<path d="M610.943 292.772C611.257 292.921 611.499 293.188 611.616 293.514C611.733 293.841 611.716 294.201 611.567 294.515L608.04 301.984L605.672 300.866L609.2 293.397C609.273 293.242 609.376 293.102 609.504 292.987C609.631 292.871 609.78 292.782 609.942 292.724C610.104 292.666 610.275 292.64 610.447 292.649C610.619 292.657 610.787 292.699 610.943 292.772Z" fill="#88B206"/>
<path d="M607.335 292.51C607.604 292.638 607.812 292.866 607.912 293.146C608.012 293.427 607.997 293.735 607.87 294.004L604.829 300.444L602.799 299.486L605.841 293.046C605.968 292.777 606.197 292.569 606.477 292.469C606.757 292.368 607.066 292.383 607.335 292.51Z" fill="#769103"/>
<path d="M600.602 289.327C600.871 289.454 601.079 289.683 601.179 289.963C601.279 290.243 601.264 290.552 601.137 290.821L598.096 297.261L596.052 296.296L599.094 289.856C599.157 289.722 599.247 289.601 599.357 289.502C599.468 289.402 599.597 289.325 599.737 289.276C599.878 289.227 600.026 289.206 600.175 289.215C600.323 289.224 600.468 289.262 600.602 289.327Z" fill="#769103"/>
<path d="M623.063 239.879C625.697 242.793 624.622 248.014 624.622 248.014C624.622 248.014 619.322 248.513 616.688 245.598C614.054 242.684 615.13 237.463 615.13 237.463C615.13 237.463 620.429 236.964 623.063 239.879Z" fill="#88B206"/>
<path d="M591.533 234.564C594.167 237.479 593.091 242.7 593.091 242.7C593.091 242.7 587.792 243.198 585.158 240.3C582.524 237.401 583.599 232.164 583.599 232.164C583.599 232.164 588.899 231.65 591.533 234.564Z" fill="#A4CF3A"/>
<path d="M654.438 229.671C656.277 231.728 655.544 235.421 655.544 235.421C655.544 235.421 651.803 235.764 649.949 233.723C648.094 231.681 648.842 227.972 648.842 227.972C648.842 227.972 652.583 227.629 654.438 229.671Z" fill="#88B206"/>
<path d="M644.057 242.668C642.655 245.053 638.929 245.474 638.929 245.474C638.929 245.474 637.464 242.014 638.852 239.614C640.239 237.214 643.995 236.824 643.995 236.824C643.995 236.824 645.46 240.284 644.057 242.668Z" fill="#A4CF3A"/>
<path d="M635.766 271.297C634.378 273.697 630.638 274.103 630.638 274.103C630.638 274.103 629.173 270.643 630.638 268.258C632.103 265.874 635.766 265.453 635.766 265.453C635.766 265.453 637.168 268.913 635.766 271.297Z" fill="#A4CF3A"/>
<path d="M651.289 273.152C649.886 275.536 646.161 275.941 646.161 275.941C646.161 275.941 644.696 272.482 646.161 270.097C647.626 267.713 651.289 267.292 651.289 267.292C651.289 267.292 652.692 270.752 651.289 273.152Z" fill="#A4CF3A"/>
<path d="M634.441 260.357C631.931 261.526 628.627 259.733 628.627 259.733C628.627 259.733 629.391 256.055 631.916 254.887C634.441 253.718 637.729 255.526 637.729 255.526C637.729 255.526 636.95 259.204 634.441 260.357Z" fill="#E9FFA4"/>
<path d="M626.118 280.399C623.609 281.552 620.304 279.76 620.304 279.76C620.304 279.76 621.084 276.082 623.593 274.928C626.102 273.775 629.406 275.552 629.406 275.552C629.406 275.552 628.627 279.23 626.118 280.399Z" fill="#E9FFA4"/>
<path d="M710.064 338.233H25.6545C18.5099 338.233 12.7181 344.025 12.7181 351.169C12.7181 358.313 18.5099 364.104 25.6545 364.104H710.064C717.208 364.104 723 358.313 723 351.169C723 344.025 717.208 338.233 710.064 338.233Z" fill="#A4CF3A"/>
<path d="M405.546 343.61H381.216C379.727 343.61 378.52 344.817 378.52 346.306V346.322C378.52 347.811 379.727 349.018 381.216 349.018H405.546C407.035 349.018 408.242 347.811 408.242 346.322V346.306C408.242 344.817 407.035 343.61 405.546 343.61Z" fill="#E9FFA4"/>
<path d="M573.812 342.659H549.482C547.993 342.659 546.786 343.866 546.786 345.355V345.371C546.786 346.86 547.993 348.067 549.482 348.067H573.812C575.301 348.067 576.508 346.86 576.508 345.371V345.355C576.508 343.866 575.301 342.659 573.812 342.659Z" fill="#E9FFA4"/>
<path d="M491.066 336.207H466.736C465.247 336.207 464.04 337.414 464.04 338.903V338.919C464.04 340.408 465.247 341.615 466.736 341.615H491.066C492.555 341.615 493.762 340.408 493.762 338.919V338.903C493.762 337.414 492.555 336.207 491.066 336.207Z" fill="#E9FFA4"/>
<path d="M522.752 360.862H498.422C496.933 360.862 495.726 362.069 495.726 363.558V363.574C495.726 365.063 496.933 366.27 498.422 366.27H522.752C524.241 366.27 525.448 365.063 525.448 363.574V363.558C525.448 362.069 524.241 360.862 522.752 360.862Z" fill="#A4CF3A"/>
<path d="M58.4317 349.018H40.9754C39.9081 349.018 39.0428 349.883 39.0428 350.95V350.966C39.0428 352.033 39.9081 352.898 40.9754 352.898H58.4317C59.4991 352.898 60.3643 352.033 60.3643 350.966V350.95C60.3643 349.883 59.4991 349.018 58.4317 349.018Z" fill="#E9FFA4"/>
<path d="M113.434 346.665H95.9781C94.9108 346.665 94.0455 347.53 94.0455 348.597V348.613C94.0455 349.68 94.9108 350.545 95.9781 350.545H113.434C114.502 350.545 115.367 349.68 115.367 348.613V348.597C115.367 347.53 114.502 346.665 113.434 346.665Z" fill="#E9FFA4"/>
<path opacity="0.59" d="M165.819 354.083H151.854C150.993 354.083 150.295 354.777 150.295 355.634C150.295 356.49 150.993 357.184 151.854 357.184H165.819C166.679 357.184 167.377 356.49 167.377 355.634C167.377 354.777 166.679 354.083 165.819 354.083Z" fill="#E9FFA4"/>
<path d="M245.899 349.018H228.443C227.376 349.018 226.51 349.883 226.51 350.95V350.966C226.51 352.033 227.376 352.898 228.443 352.898H245.899C246.967 352.898 247.832 352.033 247.832 350.966V350.95C247.832 349.883 246.967 349.018 245.899 349.018Z" fill="#E9FFA4"/>
<path d="M300.902 346.665H283.446C282.378 346.665 281.513 347.53 281.513 348.597V348.613C281.513 349.68 282.378 350.545 283.446 350.545H300.902C301.969 350.545 302.835 349.68 302.835 348.613V348.597C302.835 347.53 301.969 346.665 300.902 346.665Z" fill="#E9FFA4"/>
<path opacity="0.59" d="M265.787 355.501H251.822C250.961 355.501 250.263 356.195 250.263 357.052C250.263 357.908 250.961 358.602 251.822 358.602H265.787C266.648 358.602 267.345 357.908 267.345 357.052C267.345 356.195 266.648 355.501 265.787 355.501Z" fill="#E9FFA4"/>
<path opacity="0.59" d="M320.603 353.678H306.638C305.777 353.678 305.079 354.372 305.079 355.228C305.079 356.085 305.777 356.779 306.638 356.779H320.603C321.463 356.779 322.161 356.085 322.161 355.228C322.161 354.372 321.463 353.678 320.603 353.678Z" fill="#E9FFA4"/>
<path opacity="0.59" d="M355.328 348.94H341.363C340.502 348.94 339.804 349.634 339.804 350.491C339.804 351.347 340.502 352.041 341.363 352.041H355.328C356.189 352.041 356.887 351.347 356.887 350.491C356.887 349.634 356.189 348.94 355.328 348.94Z" fill="#E9FFA4"/>
<path d="M640.722 325.672C641.178 325.672 641.548 325.302 641.548 324.846C641.548 324.39 641.178 324.02 640.722 324.02C640.266 324.02 639.896 324.39 639.896 324.846C639.896 325.302 640.266 325.672 640.722 325.672Z" fill="#738E02"/>
<path d="M642.997 318.113C643.514 318.113 643.933 317.695 643.933 317.178C643.933 316.662 643.514 316.243 642.997 316.243C642.481 316.243 642.062 316.662 642.062 317.178C642.062 317.695 642.481 318.113 642.997 318.113Z" fill="#738E02"/>
<path d="M636.576 304.648C637.093 304.648 637.511 304.23 637.511 303.713C637.511 303.197 637.093 302.778 636.576 302.778C636.06 302.778 635.641 303.197 635.641 303.713C635.641 304.23 636.06 304.648 636.576 304.648Z" fill="#738E02"/>
<path d="M636.327 315.947C637.101 315.947 637.729 315.319 637.729 314.545C637.729 313.77 637.101 313.142 636.327 313.142C635.552 313.142 634.924 313.77 634.924 314.545C634.924 315.319 635.552 315.947 636.327 315.947Z" fill="#738E02"/>
<path d="M639.537 320.28C640.019 320.28 640.41 319.889 640.41 319.407C640.41 318.925 640.019 318.534 639.537 318.534C639.055 318.534 638.665 318.925 638.665 319.407C638.665 319.889 639.055 320.28 639.537 320.28Z" fill="#738E02"/>
<path d="M642.592 322.773C642.936 322.773 643.216 322.494 643.216 322.15C643.216 321.805 642.936 321.526 642.592 321.526C642.248 321.526 641.969 321.805 641.969 322.15C641.969 322.494 642.248 322.773 642.592 322.773Z" fill="#738E02"/>
<path d="M645.07 324.753C645.475 324.753 645.803 324.425 645.803 324.02C645.803 323.616 645.475 323.288 645.07 323.288C644.666 323.288 644.338 323.616 644.338 324.02C644.338 324.425 644.666 324.753 645.07 324.753Z" fill="#738E02"/>
<path d="M580.217 300.425C580.674 300.425 581.043 300.055 581.043 299.599C581.043 299.143 580.674 298.773 580.217 298.773C579.761 298.773 579.391 299.143 579.391 299.599C579.391 300.055 579.761 300.425 580.217 300.425Z" fill="#E9FFA4"/>
<path d="M582.493 292.882C583.009 292.882 583.428 292.463 583.428 291.947C583.428 291.43 583.009 291.012 582.493 291.012C581.976 291.012 581.558 291.43 581.558 291.947C581.558 292.463 581.976 292.882 582.493 292.882Z" fill="#E9FFA4"/>
<path d="M576.071 279.417C576.588 279.417 577.007 278.998 577.007 278.482C577.007 277.966 576.588 277.547 576.071 277.547C575.555 277.547 575.136 277.966 575.136 278.482C575.136 278.998 575.555 279.417 576.071 279.417Z" fill="#E9FFA4"/>
<path d="M575.806 290.7C576.581 290.7 577.209 290.072 577.209 289.298C577.209 288.523 576.581 287.895 575.806 287.895C575.032 287.895 574.404 288.523 574.404 289.298C574.404 290.072 575.032 290.7 575.806 290.7Z" fill="#E9FFA4"/>
<path d="M579.017 295.048C579.499 295.048 579.89 294.657 579.89 294.175C579.89 293.693 579.499 293.303 579.017 293.303C578.535 293.303 578.144 293.693 578.144 294.175C578.144 294.657 578.535 295.048 579.017 295.048Z" fill="#E9FFA4"/>
<path d="M582.072 297.542C582.416 297.542 582.695 297.263 582.695 296.918C582.695 296.574 582.416 296.295 582.072 296.295C581.728 296.295 581.449 296.574 581.449 296.918C581.449 297.263 581.728 297.542 582.072 297.542Z" fill="#E9FFA4"/>
<path d="M584.566 299.505C584.97 299.505 585.298 299.178 585.298 298.773C585.298 298.368 584.97 298.041 584.566 298.041C584.161 298.041 583.833 298.368 583.833 298.773C583.833 299.178 584.161 299.505 584.566 299.505Z" fill="#E9FFA4"/>
<path d="M669.914 365.117C670.371 365.117 670.74 364.747 670.74 364.291C670.74 363.835 670.371 363.465 669.914 363.465C669.458 363.465 669.088 363.835 669.088 364.291C669.088 364.747 669.458 365.117 669.914 365.117Z" fill="#E9FFA4"/>
<path d="M672.19 357.574C672.706 357.574 673.125 357.155 673.125 356.639C673.125 356.122 672.706 355.704 672.19 355.704C671.673 355.704 671.255 356.122 671.255 356.639C671.255 357.155 671.673 357.574 672.19 357.574Z" fill="#E9FFA4"/>
<path d="M665.768 344.108C666.285 344.108 666.704 343.69 666.704 343.173C666.704 342.657 666.285 342.238 665.768 342.238C665.252 342.238 664.833 342.657 664.833 343.173C664.833 343.69 665.252 344.108 665.768 344.108Z" fill="#E9FFA4"/>
<path d="M665.519 355.392C666.294 355.392 666.922 354.764 666.922 353.99C666.922 353.215 666.294 352.587 665.519 352.587C664.744 352.587 664.116 353.215 664.116 353.99C664.116 354.764 664.744 355.392 665.519 355.392Z" fill="#E9FFA4"/>
<path d="M668.73 359.74C669.212 359.74 669.603 359.349 669.603 358.867C669.603 358.385 669.212 357.995 668.73 357.995C668.248 357.995 667.857 358.385 667.857 358.867C667.857 359.349 668.248 359.74 668.73 359.74Z" fill="#E9FFA4"/>
<path d="M671.785 362.234C672.129 362.234 672.408 361.954 672.408 361.61C672.408 361.266 672.129 360.987 671.785 360.987C671.44 360.987 671.161 361.266 671.161 361.61C671.161 361.954 671.44 362.234 671.785 362.234Z" fill="#E9FFA4"/>
<path d="M674.263 364.197C674.667 364.197 674.995 363.869 674.995 363.465C674.995 363.06 674.667 362.732 674.263 362.732C673.858 362.732 673.53 363.06 673.53 363.465C673.53 363.869 673.858 364.197 674.263 364.197Z" fill="#E9FFA4"/>
<path d="M587.247 192.829H571.146V197.114H587.247V192.829Z" fill="#DD764D"/>
<path d="M579.75 201.354H567.53V205.639H579.75V201.354Z" fill="#DD764D"/>
<path d="M582.072 197.114H572.97V201.4H582.072V197.114Z" fill="#B7502C"/>
<path d="M228.318 216.626H244.419V212.341H228.318V216.626Z" fill="#DD764D"/>
<path d="M235.831 225.229H248.05V220.943H235.831V225.229Z" fill="#DD764D"/>
<path d="M233.493 220.928H242.595V216.642H233.493V220.928Z" fill="#FEB06D"/>
<path d="M582.228 299.911H566.128V304.196H582.228V299.911Z" fill="#DD764D"/>
<path d="M574.715 308.436H562.496V312.721H574.715V308.436Z" fill="#DD764D"/>
<path d="M577.053 304.212H567.951V308.498H577.053V304.212Z" fill="#B7502C"/>
<path d="M715.955 222.455C719.037 222.455 721.535 219.957 721.535 216.876C721.535 213.794 719.037 211.296 715.955 211.296C712.873 211.296 710.375 213.794 710.375 216.876C710.375 219.957 712.873 222.455 715.955 222.455Z" fill="#E4F0F9"/>
<path d="M155.314 93.3832C158.395 93.3832 160.894 90.8853 160.894 87.8039C160.894 84.7225 158.395 82.2246 155.314 82.2246C152.232 82.2246 149.734 84.7225 149.734 87.8039C149.734 90.8853 152.232 93.3832 155.314 93.3832Z" fill="#E4F0F9"/>
<path d="M376.525 45.8034H374.281C373.683 42.8832 372.093 40.2599 369.78 38.3792C367.467 36.4984 364.575 35.4763 361.594 35.4864C359.595 35.4855 357.625 35.9553 355.842 36.8579C354.247 34.421 352.16 32.3434 349.717 30.7577C347.273 29.1719 344.526 28.1129 341.65 27.648C338.774 27.1832 335.833 27.3228 333.014 28.0579C330.195 28.793 327.561 30.1075 325.278 31.9175C321.982 27.6558 317.481 24.4833 312.359 22.8117C307.237 21.1402 301.731 21.047 296.556 22.5441C291.38 24.0412 286.774 27.0595 283.336 31.2072C279.897 35.3549 277.785 40.4404 277.274 45.8034H276.978C276.396 45.8034 275.821 45.9179 275.284 46.1404C274.747 46.3628 274.259 46.6888 273.848 47.0998C273.437 47.5108 273.111 47.9987 272.888 48.5357C272.666 49.0727 272.551 49.6482 272.551 50.2295C272.551 50.8107 272.666 51.3863 272.888 51.9233C273.111 52.4602 273.437 52.9482 273.848 53.3592C274.259 53.7702 274.747 54.0962 275.284 54.3186C275.821 54.541 276.396 54.6555 276.978 54.6555H376.478C377.649 54.6514 378.771 54.1833 379.598 53.3537C380.425 52.5241 380.889 51.4006 380.889 50.2295C380.889 49.0663 380.431 47.9499 379.615 47.1216C378.798 46.2934 377.688 45.8198 376.525 45.8034Z" fill="#E4F0F9"/>
<path d="M329.393 23.2054C331.967 23.2054 334.053 21.1191 334.053 18.5455C334.053 15.972 331.967 13.8857 329.393 13.8857C326.819 13.8857 324.733 15.972 324.733 18.5455C324.733 21.1191 326.819 23.2054 329.393 23.2054Z" fill="#E4F0F9"/>
<path d="M359.614 28.3642C361.646 28.3642 363.292 26.7176 363.292 24.6863C363.292 22.655 361.646 21.0083 359.614 21.0083C357.583 21.0083 355.936 22.655 355.936 24.6863C355.936 26.7176 357.583 28.3642 359.614 28.3642Z" fill="#E4F0F9"/>
<path d="M681.931 166.116C684.358 166.116 686.326 164.149 686.326 161.722C686.326 159.294 684.358 157.327 681.931 157.327C679.504 157.327 677.536 159.294 677.536 161.722C677.536 164.149 679.504 166.116 681.931 166.116Z" fill="#E4F0F9"/>
<path d="M154.394 190.195H141.224V210.595H154.394V190.195Z" fill="white"/>
<path d="M153.101 191.551H142.502V209.255H153.101V191.551Z" fill="#00939E"/>
<path d="M148.425 209.255H145.619L148.737 191.551H151.542L148.425 209.255Z" fill="#008184"/>
<path d="M111.736 136.49C114.163 136.49 116.131 134.523 116.131 132.096C116.131 129.668 114.163 127.701 111.736 127.701C109.308 127.701 107.34 129.668 107.34 132.096C107.34 134.523 109.308 136.49 111.736 136.49Z" fill="#E4F0F9"/>
<path d="M650.666 360.862H626.336C624.847 360.862 623.64 362.069 623.64 363.558V363.574C623.64 365.063 624.847 366.27 626.336 366.27H650.666C652.155 366.27 653.362 365.063 653.362 363.574V363.558C653.362 362.069 652.155 360.862 650.666 360.862Z" fill="#88B206"/>
<path d="M702.302 361.439H677.972C676.483 361.439 675.276 362.646 675.276 364.135V364.151C675.276 365.64 676.483 366.847 677.972 366.847H702.302C703.791 366.847 704.998 365.64 704.998 364.151V364.135C704.998 362.646 703.791 361.439 702.302 361.439Z" fill="#88B206"/>
<path d="M539.351 241.453H532.524L540.832 202.257H547.877L539.351 241.453Z" fill="#008184"/>
<path d="M544.354 241.453H542.203L550.511 202.257H552.88L544.354 241.453Z" fill="#008184"/>
<path d="M490.349 300.129H483.522L491.83 260.934H498.874L490.349 300.129Z" fill="#008184"/>
<path d="M495.352 300.129H493.217L501.508 260.934H503.877L495.352 300.129Z" fill="#008184"/>
<path d="M540.364 299.568H533.553L541.86 260.373H548.905L540.364 299.568Z" fill="#008184"/>
<path d="M545.383 299.568H543.232L551.539 260.373H553.908L545.383 299.568Z" fill="#008184"/>
</svg>
