<svg width="452" height="412" viewBox="0 0 452 412" fill="none" xmlns="http://www.w3.org/2000/svg">
<path d="M38.4764 401.996C55.2445 401.452 67.4688 358.856 65.7802 306.857C64.0915 254.858 49.1294 213.146 32.3613 213.69C15.5932 214.235 3.36892 256.83 5.05757 308.829C6.74622 360.828 21.7084 402.541 38.4764 401.996Z" fill="#FB8A51"/>
<path d="M66.237 329.521C64.305 370.687 53.3392 401.506 39.0922 401.97C32.9455 402.17 26.5884 396.261 24.624 390.902C34.149 387.713 41.2185 383.131 46.8525 374.47C55.541 361.129 62.8641 345.101 66.237 329.521Z" fill="#DC7948"/>
<path d="M38.4764 401.996C55.2445 401.452 67.4688 358.856 65.7802 306.857C64.0915 254.858 49.1294 213.146 32.3613 213.69C15.5932 214.235 3.36892 256.83 5.05757 308.829C6.74622 360.828 21.7084 402.541 38.4764 401.996Z" stroke="#314E5D" stroke-width="8" stroke-miterlimit="10"/>
<path d="M26.2353 327.481C32.1633 327.289 36.5452 314.088 36.0226 297.996C35.5 281.904 30.2709 269.015 24.3429 269.208C18.4149 269.4 14.033 282.601 14.5556 298.693C15.0782 314.785 20.3074 327.674 26.2353 327.481Z" fill="#FFC4A5"/>
<path d="M26.6115 339.13C28.4733 339.07 29.9336 337.511 29.8731 335.65C29.8127 333.788 28.2544 332.328 26.3926 332.388C24.5308 332.449 23.0705 334.007 23.131 335.869C23.1914 337.73 24.7497 339.191 26.6115 339.13Z" fill="#FFC4A5"/>
<path d="M44.564 240.981C50.8456 251.272 52.2865 262.524 53.6248 274.278C54.9955 286.317 56.0587 298.422 54.8606 310.521C54.7581 311.557 56.3771 311.552 56.4796 310.521C57.7478 297.704 56.4796 284.893 55.0009 272.151C53.6896 260.819 52.0005 250.052 45.9617 240.166C45.422 239.275 44.0189 240.09 44.564 240.981Z" fill="#314E5D"/>
<path d="M6.43758 191.968C7.61943 168.828 39.3567 128.672 39.3567 128.672C39.3567 128.672 66.6633 171.844 65.4815 194.985C64.2996 218.125 48.9626 225.794 32.6649 224.963C16.3673 224.132 5.25573 215.109 6.43758 191.968Z" fill="#BC7947"/>
<path d="M39.3458 128.672C39.3458 128.672 37.9697 130.41 35.7895 133.367C43.2368 146.189 59.0487 175.676 58.1475 193.404C56.9657 216.544 41.6448 224.213 25.3417 223.382C24.4675 223.339 23.6094 223.263 22.7676 223.171C25.9669 224.227 29.2983 224.831 32.6649 224.963C48.9679 225.794 64.2888 218.125 65.4707 194.985C66.6525 171.844 39.3458 128.672 39.3458 128.672Z" fill="#9D653D"/>
<path d="M39.2665 128.667L16.6279 162.665C16.6279 162.665 23.7406 178.154 41.8785 169.746C41.8785 169.746 51.9701 162.773 62.2074 175.844C62.2074 175.844 58.3596 163.907 39.2665 128.667Z" fill="#42EFE2"/>
<path d="M28.9788 160.742C30.7605 158.283 31.3674 155.682 30.3344 154.934C29.3013 154.186 27.0195 155.573 25.2378 158.032C23.4561 160.492 22.8492 163.093 23.8822 163.841C24.9153 164.589 27.1971 163.202 28.9788 160.742Z" fill="#FCFCFC"/>
<path d="M33.8324 152.46C34.6734 151.299 34.9599 150.072 34.4724 149.718C33.9848 149.365 32.9078 150.02 32.0668 151.181C31.2257 152.342 30.9392 153.57 31.4267 153.923C31.9143 154.276 32.9914 153.621 33.8324 152.46Z" fill="#FCFCFC"/>
<path d="M15.1595 164.457C16.2764 166.728 17.8385 168.752 19.7529 170.408C21.6672 172.063 23.8949 173.317 26.3034 174.095C31.1603 175.601 36.2924 174.77 40.9335 172.913C41.8887 172.53 42.7144 172.055 43.6318 171.618C43.8476 171.516 44.0689 171.424 44.2902 171.327C44.3657 171.295 44.7705 171.143 44.4413 171.262L44.9054 171.106C45.6241 170.88 46.3607 170.716 47.1072 170.615C52.6656 169.859 57.5981 173.712 60.971 177.965C62.2446 179.584 64.5975 177.425 63.3293 175.833C59.897 171.532 55.2938 167.835 49.6436 167.398C46.8001 167.181 43.9551 167.798 41.457 169.174C37.873 171.175 33.7604 172.027 29.6762 171.613C26.4077 171.161 23.3839 169.63 21.0849 167.263C20.564 166.736 20.0739 166.179 19.617 165.596C19.4282 165.353 19.2447 165.105 19.0774 164.856C18.9101 164.608 19.2069 165.061 18.9964 164.738L18.8022 164.441C18.4953 163.973 18.2212 163.484 17.9819 162.978C17.1238 161.122 14.3014 162.584 15.1595 164.441V164.457Z" fill="#314E5D"/>
<path d="M6.962 191.748C8.14385 168.607 39.8811 128.451 39.8811 128.451C39.8811 128.451 67.1877 171.624 66.0059 194.764C64.824 217.905 49.487 225.579 33.1893 224.742C16.8917 223.906 5.78015 214.888 6.962 191.748Z" stroke="#314E5D" stroke-width="8" stroke-miterlimit="10"/>
<path d="M31.5498 190.051C32.3871 183.674 31.1619 178.255 28.8131 177.947C26.4644 177.638 23.8817 182.557 23.0444 188.934C22.2071 195.31 23.4323 200.729 25.781 201.037C28.1297 201.346 30.7125 196.427 31.5498 190.051Z" fill="#D0A07B"/>
<path d="M53.2151 208.702L14.7346 209.131C8.92307 209.196 4.26454 213.96 4.32946 219.772L4.36171 222.659C4.42663 228.47 9.19041 233.129 15.0019 233.064L53.4825 232.634C59.294 232.569 63.9525 227.805 63.8876 221.994L63.8553 219.107C63.7904 213.295 59.0266 208.637 53.2151 208.702Z" fill="#D8D9D9"/>
<path d="M46.4647 211.488L20.0215 211.779C20.0342 212.94 20.2754 214.087 20.7314 215.155C21.1874 216.222 21.8492 217.19 22.6791 218.001C23.5089 218.813 24.4906 219.454 25.568 219.886C26.6454 220.319 27.7974 220.534 28.9582 220.522L37.7438 220.425C40.0845 220.393 42.3172 219.435 43.9521 217.759C45.587 216.084 46.4906 213.829 46.4647 211.488Z" fill="white"/>
<path d="M14.9655 233.065L53.4461 232.636C59.2576 232.571 63.9161 227.807 63.8512 221.995L63.819 219.108C63.754 213.297 58.9903 208.638 53.1788 208.703L14.6982 209.133C8.8867 209.198 4.22817 213.962 4.29309 219.773L4.32534 222.66C4.39026 228.472 9.15404 233.13 14.9655 233.065Z" stroke="#314E5D" stroke-width="8" stroke-miterlimit="10"/>
<path d="M17.5824 203.453C16.806 200.748 16.7269 197.892 17.3525 195.148C17.9781 192.405 19.2881 189.865 21.1603 187.765C21.8511 186.988 20.707 185.838 20.0163 186.621C17.9462 188.928 16.4943 191.721 15.796 194.741C15.0977 197.761 15.1757 200.908 16.0228 203.89C16.085 204.091 16.223 204.26 16.4077 204.361C16.5925 204.462 16.8093 204.487 17.0122 204.431C17.2151 204.375 17.3881 204.242 17.4946 204.06C17.601 203.879 17.6325 203.663 17.5824 203.458V203.453Z" fill="#314E5D"/>
<path d="M20.6203 197.543C20.3994 196.421 20.492 195.26 20.8881 194.187C21.2841 193.114 21.9682 192.171 22.8652 191.461C23.6693 190.798 22.5199 189.659 21.7212 190.317C20.6216 191.23 19.7926 192.426 19.3236 193.775C18.8547 195.125 18.7638 196.577 19.0606 197.975C19.2657 198.995 20.8253 198.563 20.6203 197.543Z" fill="#314E5D"/>
<path d="M49.9397 199.675C51.7138 198.174 52.8946 196.089 53.2705 193.796C53.6463 191.502 53.1925 189.15 51.9904 187.16C51.4508 186.27 50.0531 187.085 50.5927 187.975C51.6147 189.655 51.9957 191.648 51.6655 193.586C51.3353 195.525 50.3162 197.279 48.7957 198.526C47.997 199.195 49.1464 200.333 49.9397 199.67V199.675Z" fill="#314E5D"/>
<path d="M374.014 171.175L395.833 154.883C398.078 153.211 400.895 152.499 403.665 152.903C406.435 153.308 408.93 154.797 410.603 157.042L443.873 201.563C445.545 203.808 446.257 206.626 445.852 209.396C445.448 212.166 443.959 214.661 441.714 216.334L372.098 268.341C369.975 269.929 368.568 272.296 368.189 274.921C367.809 277.546 368.488 280.214 370.075 282.339" stroke="#314E5D" stroke-width="11" stroke-miterlimit="10"/>
<path d="M229.242 -3.97861e-05L125.142 83.6392L271.585 265.909L375.686 182.27L229.242 -3.97861e-05Z" fill="#FFE48D"/>
<path d="M442.439 352.042L418.769 369.711C416.884 371.115 414.519 371.715 412.193 371.379C409.866 371.043 407.768 369.799 406.357 367.919L363.411 300.527C362.007 298.642 361.407 296.277 361.743 293.95C362.078 291.624 363.323 289.525 365.203 288.114L379.374 277.532C381.259 276.127 383.624 275.527 385.95 275.863C388.277 276.199 390.375 277.443 391.786 279.323L444.23 339.646C445.63 341.53 446.227 343.891 445.891 346.214C445.555 348.536 444.314 350.632 442.439 352.042Z" fill="#F65020"/>
<path d="M415.369 362.598L372.385 295.194C370.981 293.309 370.381 290.945 370.717 288.618C371.053 286.292 372.297 284.193 374.177 282.782L365.882 289.021C364.002 290.431 362.758 292.53 362.422 294.857C362.086 297.183 362.686 299.548 364.091 301.433L407.058 368.809C408.469 370.689 410.568 371.933 412.894 372.269C415.221 372.605 417.585 372.005 419.47 370.601L427.781 364.389C425.896 365.794 423.531 366.394 421.205 366.058C418.878 365.722 416.78 364.478 415.369 362.598Z" fill="#FF7B52"/>
<path d="M339.066 167.969L266.099 222.496C255.435 230.465 253.25 245.571 261.219 256.236L265.18 261.536C273.149 272.201 288.256 274.386 298.92 266.416L371.887 211.89C382.551 203.92 384.736 188.814 376.767 178.149L372.806 172.85C364.837 162.185 349.73 160 339.066 167.969Z" fill="#FFE48D"/>
<path d="M371.603 201.494L290.195 262.318C286.187 265.297 281.162 266.568 276.22 265.852C271.278 265.136 266.82 262.492 263.822 258.498L266.704 262.356C269.703 266.348 274.16 268.99 279.101 269.705C284.042 270.42 289.065 269.149 293.072 266.172L374.484 205.352C378.475 202.353 381.116 197.895 381.83 192.954C382.544 188.014 381.273 182.991 378.294 178.985L375.413 175.126C378.391 179.132 379.662 184.155 378.948 189.096C378.234 194.037 375.593 198.494 371.603 201.494Z" fill="#F9C441"/>
<path d="M342.584 165.828L262.591 225.579C254.437 231.672 252.834 243.452 259.04 251.752L260.119 253.193C258.96 249.535 258.961 245.609 260.12 241.951C261.279 238.294 263.541 235.084 266.595 232.762L346.589 173.011C354.743 166.918 366.491 168.721 372.697 177.02L381.871 189.319C381.229 187.252 380.238 185.31 378.941 183.577L368.688 169.838C362.487 161.538 350.739 159.741 342.584 165.828Z" fill="#FFF2CF"/>
<path d="M265.436 255.94C300.584 229.685 336.007 203.82 371.155 177.549C373.254 175.984 374.328 173.351 372.898 170.906C371.689 168.839 368.365 167.587 366.255 169.163C331.112 195.417 295.678 221.283 260.536 247.537C258.437 249.102 257.363 251.736 258.793 254.181C260.002 256.247 263.326 257.499 265.436 255.924V255.94Z" fill="#FFF2CF"/>
<path d="M338.842 166.19L265.971 220.843C255.32 228.831 253.161 243.941 261.149 254.592L265.119 259.885C273.107 270.536 288.217 272.695 298.868 264.707L371.739 210.053C382.39 202.065 384.549 186.955 376.561 176.304L372.591 171.011C364.603 160.36 349.493 158.202 338.842 166.19Z" stroke="#314E5D" stroke-width="9" stroke-miterlimit="10"/>
<path d="M442.217 351.745L418.57 369.419C416.685 370.823 414.32 371.423 411.993 371.087C409.667 370.752 407.568 369.507 406.158 367.627L363.185 300.229C361.78 298.344 361.18 295.98 361.516 293.653C361.852 291.327 363.096 289.228 364.976 287.817L379.164 277.213C381.049 275.808 383.414 275.208 385.74 275.544C388.067 275.88 390.165 277.124 391.576 279.005L444.02 339.327C445.425 341.214 446.024 343.581 445.686 345.909C445.348 348.237 444.101 350.336 442.217 351.745V351.745Z" stroke="#314E5D" stroke-width="9" stroke-miterlimit="10"/>
<path d="M423.524 331.627C425.415 334.332 427.51 336.891 429.789 339.279C430.895 340.499 432.023 341.718 433.027 343.057C433.599 343.817 434.376 344.557 433.858 345.614C433.545 346.251 432.239 346.834 431.662 347.169C428.963 348.788 431.424 352.975 434.112 351.362C438.078 348.982 440.668 345.728 437.765 341.357C434.862 336.985 430.642 333.575 427.717 329.193C425.995 326.597 421.78 329.031 423.524 331.643V331.627Z" fill="white"/>
<path d="M295.937 197.684V387.346C295.937 393.057 293.669 398.534 289.63 402.572C285.592 406.61 280.116 408.878 274.405 408.878H106.28C100.569 408.878 95.0924 406.61 91.0543 402.572C87.0162 398.534 84.7477 393.057 84.7477 387.346V263.581C84.2956 263.648 83.8393 263.682 83.3823 263.684C80.9678 263.684 78.6522 262.725 76.9448 261.017C75.2375 259.31 74.2783 256.994 74.2783 254.58C74.2783 252.165 75.2375 249.849 76.9448 248.142C78.6522 246.435 80.9678 245.476 83.3823 245.476C83.8393 245.477 84.2956 245.512 84.7477 245.578V197.684H295.937Z" fill="#E8F0F9"/>
<path d="M299.472 179.022H76.6526C73.0761 179.022 70.1768 181.922 70.1768 185.498V189.843C70.1768 193.419 73.0761 196.318 76.6526 196.318H299.472C303.048 196.318 305.948 193.419 305.948 189.843V185.498C305.948 181.922 303.048 179.022 299.472 179.022Z" fill="#B8F9F5"/>
<path d="M239.431 249.658C239.301 256.517 243.316 263.209 249.684 265.966C251.686 266.835 254.002 266.56 255.221 264.515C256.22 262.804 255.761 259.852 253.769 258.978C249.895 257.299 247.461 253.948 247.542 249.658C247.644 244.445 239.55 244.445 239.447 249.658H239.431Z" fill="#F2F0E7"/>
<path d="M221.033 199.054C220.569 212.546 220.1 226.145 221.746 239.588C222.285 244.067 222.609 251.504 227.785 253.468C232.172 255.136 235.34 250.77 236.419 247.035C238.659 239.291 237.196 230.846 238.427 222.956C238.756 220.83 239.425 218.487 241.292 217.408C242.992 216.426 245.226 216.868 246.851 217.948C250.229 220.225 251.292 224.742 251.249 228.816C251.109 241.768 250.823 254.752 250.682 267.731C250.634 272.351 251.19 277.985 255.388 279.906C259.036 281.579 263.483 279.091 265.42 275.589C267.358 272.086 267.374 267.855 267.363 263.846L267.196 197.252" fill="#FFE48D"/>
<path d="M171.498 163.086C182.344 163.086 191.137 154.294 191.137 143.448C191.137 132.602 182.344 123.81 171.498 123.81C160.653 123.81 151.86 132.602 151.86 143.448C151.86 154.294 160.653 163.086 171.498 163.086Z" fill="#FFE48D"/>
<path d="M171.498 123.81C167.386 123.804 163.376 125.096 160.041 127.501H160.451C164.608 127.499 168.659 128.816 172.02 131.263C175.381 133.71 177.878 137.16 179.152 141.117C180.426 145.074 180.411 149.334 179.109 153.282C177.807 157.23 175.286 160.663 171.908 163.086C174.486 163.059 177.034 162.525 179.406 161.513C181.777 160.502 183.926 159.033 185.73 157.191C187.534 155.349 188.958 153.17 189.92 150.777C190.882 148.385 191.363 145.827 191.336 143.249C191.309 140.67 190.774 138.123 189.763 135.751C188.751 133.379 187.283 131.23 185.44 129.426C183.598 127.622 181.419 126.199 179.027 125.237C176.634 124.275 174.076 123.794 171.498 123.821V123.81Z" fill="#F6C240"/>
<path d="M171.806 164.624C182.652 164.624 191.444 155.832 191.444 144.986C191.444 134.14 182.652 125.348 171.806 125.348C160.96 125.348 152.168 134.14 152.168 144.986C152.168 155.832 160.96 164.624 171.806 164.624Z" stroke="#314E5D" stroke-width="7" stroke-miterlimit="10"/>
<path d="M299.579 177.204H279.536C280.983 177.208 282.37 177.785 283.393 178.808C284.416 179.831 284.993 181.218 284.997 182.665V189.038C284.993 190.485 284.416 191.872 283.393 192.895C282.37 193.919 280.983 194.495 279.536 194.5H299.563C301.01 194.495 302.397 193.919 303.42 192.895C304.443 191.872 305.02 190.485 305.024 189.038V182.665C305.02 181.221 304.445 179.836 303.426 178.814C302.406 177.791 301.023 177.212 299.579 177.204Z" fill="#3CD8D6"/>
<path d="M97.4899 189.961V183.577C97.487 182.125 98.0606 180.731 99.0847 179.702C100.109 178.673 101.499 178.093 102.951 178.088H76.5512C75.1041 178.093 73.7174 178.669 72.6942 179.693C71.6709 180.716 71.0941 182.103 71.0898 183.55V189.961C71.0941 191.408 71.6709 192.795 72.6942 193.818C73.7174 194.841 75.1041 195.418 76.5512 195.422H102.951C101.504 195.418 100.117 194.841 99.0942 193.818C98.0709 192.795 97.4941 191.408 97.4899 189.961Z" fill="#42EFE2"/>
<path d="M100.22 385.522V261.735C99.7683 261.802 99.3121 261.836 98.8551 261.838C96.4406 261.838 94.1249 260.879 92.4176 259.171C90.7103 257.464 89.7511 255.148 89.7511 252.734C89.7511 250.319 90.7103 248.004 92.4176 246.296C94.1249 244.589 96.4406 243.63 98.8551 243.63C99.3121 243.632 99.7683 243.666 100.22 243.732V195.865H82.9244V243.759C82.4723 243.693 82.0161 243.659 81.5591 243.657C79.1446 243.657 76.8289 244.616 75.1216 246.323C73.4142 248.031 72.4551 250.346 72.4551 252.761C72.4551 255.175 73.4142 257.491 75.1216 259.198C76.8289 260.906 79.1446 261.865 81.5591 261.865C82.0161 261.863 82.4723 261.829 82.9244 261.762V385.522C82.9244 391.233 85.193 396.709 89.2311 400.748C93.2692 404.786 98.746 407.054 104.457 407.054H121.753C116.042 407.054 110.565 404.786 106.527 400.748C102.489 396.709 100.22 391.233 100.22 385.522Z" fill="white"/>
<path d="M106.086 199.049V394.767C106.086 400.703 115.292 400.703 115.292 394.767V199.049C115.292 193.113 106.086 193.113 106.086 199.049Z" fill="white"/>
<path d="M73.388 254.58C73.388 267.289 73.388 279.997 73.307 292.701C73.1667 312.517 83.9491 331.265 101.866 340.266C117.699 348.221 137.1 347.622 152.939 340.007C167.877 332.83 176.964 314.406 176.964 298.297V255.519" stroke="#314E5D" stroke-width="8" stroke-miterlimit="10"/>
<path d="M274.092 198.596V388.259C274.092 393.969 271.823 399.446 267.785 403.484C263.747 407.522 258.27 409.791 252.56 409.791H272.586C278.297 409.791 283.774 407.522 287.812 403.484C291.85 399.446 294.119 393.969 294.119 388.259V198.596H274.092Z" fill="#BCD9EA"/>
<path d="M212.615 116.443C218.037 116.443 222.432 112.048 222.432 106.627C222.432 101.205 218.037 96.8105 212.615 96.8105C207.194 96.8105 202.799 101.205 202.799 106.627C202.799 112.048 207.194 116.443 212.615 116.443Z" fill="#FFE48D"/>
<path d="M212.62 96.8106C210.565 96.8084 208.562 97.4542 206.895 98.6562H207.1C209.182 98.6506 211.213 99.3075 212.897 100.532C214.582 101.757 215.834 103.485 216.471 105.468C217.109 107.451 217.099 109.585 216.444 111.562C215.788 113.538 214.521 115.256 212.825 116.465C215.429 116.438 217.915 115.377 219.737 113.517C221.558 111.657 222.566 109.149 222.539 106.546C222.512 103.943 221.452 101.456 219.592 99.6348C217.731 97.8131 215.224 96.8049 212.62 96.8321V96.8106Z" fill="#F6C240"/>
<path d="M209.856 119.822C217.313 119.822 223.358 113.777 223.358 106.32C223.358 98.8625 217.313 92.8174 209.856 92.8174C202.399 92.8174 196.354 98.8625 196.354 106.32C196.354 113.777 202.399 119.822 209.856 119.822Z" stroke="#314E5D" stroke-width="7" stroke-miterlimit="10"/>
<path d="M183.027 74.5103C183.149 68.4094 178.303 63.3646 172.202 63.2426C166.101 63.1206 161.056 67.9675 160.934 74.0685C160.812 80.1694 165.659 85.2142 171.76 85.3362C177.861 85.4582 182.905 80.6113 183.027 74.5103Z" fill="#FFE48D"/>
<path d="M171.692 63.0609C169.38 63.0185 167.114 63.7058 165.216 65.0253H165.448C167.785 65.0666 170.048 65.848 171.913 67.257C173.777 68.666 175.147 70.6301 175.825 72.8667C176.502 75.1033 176.453 77.4973 175.684 79.7043C174.916 81.9113 173.467 83.8177 171.546 85.1491C174.435 85.1081 177.194 83.9367 179.229 81.886C181.265 79.8353 182.416 77.0685 182.436 74.179C182.456 71.2895 181.342 68.5073 179.335 66.4289C177.327 64.3505 174.586 63.1414 171.697 63.0609H171.692Z" fill="#F6C240"/>
<path d="M171.498 84.8412C177.429 84.8412 182.237 80.0331 182.237 74.102C182.237 68.1709 177.429 63.3628 171.498 63.3628C165.567 63.3628 160.759 68.1709 160.759 74.102C160.759 80.0331 165.567 84.8412 171.498 84.8412Z" stroke="#314E5D" stroke-width="7" stroke-miterlimit="10"/>
<path d="M176.458 263.457C183.497 263.457 189.204 257.75 189.204 250.711C189.204 243.671 183.497 237.964 176.458 237.964C169.418 237.964 163.711 243.671 163.711 250.711C163.711 257.75 169.418 263.457 176.458 263.457Z" fill="#B8F9F5"/>
<path d="M177.369 262.545C184.409 262.545 190.115 256.838 190.115 249.798C190.115 242.759 184.409 237.052 177.369 237.052C170.329 237.052 164.622 242.759 164.622 249.798C164.622 256.838 170.329 262.545 177.369 262.545Z" stroke="#314E5D" stroke-width="14" stroke-miterlimit="10"/>
<path d="M294.798 196.545V386.208C294.798 391.919 292.53 397.396 288.492 401.434C284.454 405.472 278.977 407.74 273.266 407.74H105.141C99.4306 407.74 93.9538 405.472 89.9157 401.434C85.8776 397.396 83.609 391.919 83.609 386.208V262.443C83.1569 262.509 82.7006 262.544 82.2437 262.545C79.8291 262.545 77.5135 261.586 75.8062 259.879C74.0988 258.172 73.1396 255.856 73.1396 253.441C73.1396 251.027 74.0988 248.711 75.8062 247.004C77.5135 245.297 79.8291 244.337 82.2437 244.337C82.7006 244.339 83.1569 244.374 83.609 244.44V196.545H294.798Z" stroke="#314E5D" stroke-width="8" stroke-miterlimit="10"/>
<path d="M299.245 178.796H76.4261C72.8496 178.796 69.9502 181.695 69.9502 185.272V189.616C69.9502 193.193 72.8496 196.092 76.4261 196.092H299.245C302.822 196.092 305.721 193.193 305.721 189.616V185.272C305.721 181.695 302.822 178.796 299.245 178.796Z" stroke="#314E5D" stroke-width="8" stroke-miterlimit="10"/>
</svg>
