<svg width="33" height="32" viewBox="0 0 33 32" fill="none" xmlns="http://www.w3.org/2000/svg">
<g clip-path="url(#clip0_1167_57564)">
<path d="M1.18295 15.809C1.1822 18.4977 1.8902 21.1229 3.23645 23.4368L1.0542 31.3428L9.2082 29.2214C11.4635 30.4396 13.9904 31.078 16.5582 31.0781H16.565C25.0418 31.0781 31.9422 24.2337 31.9458 15.8211C31.9475 11.7445 30.349 7.91125 27.4447 5.02728C24.541 2.14356 20.6791 0.554595 16.5643 0.552734C8.08645 0.552734 1.18657 7.39677 1.18307 15.809" fill="url(#paint0_linear_1167_57564)"/>
<path d="M0.63375 15.8035C0.632875 18.5889 1.36625 21.308 2.7605 23.7048L0.5 31.8942L8.94637 29.6967C11.2736 30.9558 13.8939 31.6196 16.5601 31.6206H16.567C25.348 31.6206 32.4963 24.53 32.5 15.8162C32.5015 11.5932 30.8455 7.62208 27.8375 4.63479C24.8291 1.64788 20.8291 0.00173643 16.567 0C7.7845 0 0.637375 7.08961 0.633875 15.8035H0.63375ZM5.66375 23.292L5.34837 22.7953C4.02262 20.7036 3.32288 18.2865 3.32387 15.8045C3.32675 8.56174 9.26725 2.66915 16.572 2.66915C20.1095 2.67064 23.434 4.03895 25.9345 6.52155C28.4349 9.0044 29.8108 12.3049 29.8099 15.8152C29.8066 23.058 23.866 28.9513 16.567 28.9513H16.5618C14.1851 28.9501 11.8542 28.3168 9.8215 27.12L9.33775 26.8354L4.3255 28.1393L5.66375 23.2919V23.292Z" fill="url(#paint1_linear_1167_57564)"/>
<path d="M12.5847 9.19759C12.2864 8.53986 11.9726 8.52658 11.6889 8.51505C11.4567 8.50513 11.1912 8.50587 10.9259 8.50587C10.6604 8.50587 10.2291 8.60497 9.86445 9.00001C9.49945 9.39542 8.47095 10.351 8.47095 12.2944C8.47095 14.238 9.89757 16.1162 10.0964 16.38C10.2956 16.6433 12.8506 20.7591 16.8971 22.3425C20.2601 23.6584 20.9444 23.3967 21.6743 23.3307C22.4043 23.2649 24.0298 22.3754 24.3614 21.453C24.6933 20.5307 24.6933 19.7401 24.5938 19.5749C24.4943 19.4103 24.2288 19.3115 23.8307 19.114C23.4324 18.9164 21.4752 17.9608 21.1103 17.8289C20.7453 17.6972 20.4799 17.6315 20.2144 18.027C19.9489 18.4219 19.1866 19.3115 18.9542 19.5749C18.7221 19.839 18.4897 19.8718 18.0917 19.6742C17.6933 19.476 16.4112 19.0594 14.8901 17.7138C13.7066 16.6667 12.9076 15.3737 12.6753 14.9782C12.4431 14.5833 12.6504 14.3692 12.8501 14.1724C13.0289 13.9954 13.2483 13.7111 13.4476 13.4805C13.6461 13.2498 13.7123 13.0852 13.8451 12.8218C13.9779 12.5581 13.9114 12.3274 13.8121 12.1298C13.7123 11.9322 12.9387 9.97874 12.5847 9.19772" fill="white"/>
</g>
<defs>
<linearGradient id="paint0_linear_1167_57564" x1="16.5" y1="31.3428" x2="16.5" y2="0.552734" gradientUnits="userSpaceOnUse">
<stop stop-color="#1FAF38"/>
<stop offset="1" stop-color="#60D669"/>
</linearGradient>
<linearGradient id="paint1_linear_1167_57564" x1="16.5" y1="31.8942" x2="16.5" y2="0" gradientUnits="userSpaceOnUse">
<stop stop-color="#F9F9F9"/>
<stop offset="1" stop-color="white"/>
</linearGradient>
<clipPath id="clip0_1167_57564">
<rect width="32" height="32" fill="white" transform="translate(0.5)"/>
</clipPath>
</defs>
</svg>
