<svg width="1440" height="170" viewBox="0 0 1440 170" fill="none" xmlns="http://www.w3.org/2000/svg">
<path fill-rule="evenodd" clip-rule="evenodd" d="M0 99.2433H34.8C68.4 99.2433 136.8 99.2433 205.2 86.8379C274.8 74.4325 343.2 49.6216 411.6 53.7568C480 57.8919 548.4 90.973 616.8 99.2433C685.2 107.514 754.8 90.973 823.2 86.8379C891.6 82.7027 960 90.973 1028.4 111.649C1096.8 132.324 1165.2 165.405 1234.8 169.541C1303.2 173.676 1371.6 148.865 1405.2 136.46L1440 124.054V0H1405.2C1371.6 0 1303.2 0 1234.8 0C1165.2 0 1096.8 0 1028.4 0C960 0 891.6 0 823.2 0C754.8 0 685.2 0 616.8 0C548.4 0 480 0 411.6 0C343.2 0 274.8 0 205.2 0C136.8 0 68.4 0 34.8 0H0V99.2433Z" fill="#288E66"/>
</svg>
