<svg width="1440" height="81" viewBox="0 0 1440 81" fill="none" xmlns="http://www.w3.org/2000/svg">
<path d="M0 67.1364L40 60.4227C80 53.7091 160 40.2818 240 33.5682C320 26.8545 400 26.8545 480 35.7921C560 44.8974 640 62.5207 720 64.9125C800 67.1364 880 53.7091 960 53.7091C1040 53.7091 1120 67.1364 1200 60.4227C1280 53.7091 1360 26.8545 1400 13.4273L1440 0V80.5636H1400C1360 80.5636 1280 80.5636 1200 80.5636C1120 80.5636 1040 80.5636 960 80.5636C880 80.5636 800 80.5636 720 80.5636C640 80.5636 560 80.5636 480 80.5636C400 80.5636 320 80.5636 240 80.5636C160 80.5636 80 80.5636 40 80.5636H0V67.1364Z" fill="#154633"/>
</svg>
