<svg width="596" height="345" viewBox="0 0 596 345" fill="none" xmlns="http://www.w3.org/2000/svg">
<path d="M564.462 208.265C543.402 262.794 503.808 310.567 448.811 331.562C441.658 334.288 434.354 336.601 426.936 338.489C387.698 348.493 344.772 345.013 308.601 326.785C293.25 319.042 279.252 308.811 263.845 301.179C248.438 293.547 230.844 288.552 214.075 292.32C199.636 295.563 187.454 304.858 175.189 313.138C146.275 332.66 111.509 348.109 77.2709 341.404C61.5165 338.322 46.003 329.787 38.6865 315.52C22.5151 283.979 53.0138 246.479 46.8371 211.597C42.8846 189.272 24.8319 172.554 13.6092 152.851C-5.59729 119.151 -3.32681 74.385 19.1927 42.8067C41.7123 11.2284 83.2854 -5.52229 121.402 1.64133C167.882 10.3804 203.024 49.7155 248.22 63.635C276.486 72.3323 307.174 69.7375 334.17 58.2831C377.786 39.7716 437.709 11.3813 486.793 16.0057C512.894 18.4661 538.495 30.0502 555.723 49.8313C577.501 74.802 584.03 110.254 580.397 143.181C577.904 165.47 572.548 187.345 564.462 208.265Z" fill="url(#paint0_linear_619_6621)"/>
<path d="M578.474 251.395C577.506 251.394 576.542 251.277 575.601 251.047C572.628 250.316 570.045 248.478 568.381 245.907C566.717 243.336 566.097 240.227 566.647 237.215C567.197 234.202 568.877 231.514 571.343 229.697C573.808 227.881 576.874 227.075 579.914 227.442C582.955 227.81 585.74 229.325 587.701 231.676C589.663 234.028 590.653 237.04 590.469 240.096C590.285 243.153 588.942 246.025 586.712 248.125C584.483 250.224 581.537 251.394 578.474 251.395ZM578.474 232.777C576.881 232.783 575.345 233.371 574.156 234.431C572.967 235.491 572.206 236.949 572.017 238.531C571.828 240.112 572.223 241.709 573.129 243.019C574.035 244.329 575.389 245.263 576.936 245.645C577.831 245.86 578.762 245.883 579.668 245.713C580.573 245.542 581.431 245.182 582.187 244.656C582.943 244.13 583.579 243.45 584.054 242.66C584.528 241.871 584.83 240.99 584.939 240.076C585.048 239.161 584.963 238.234 584.688 237.355C584.413 236.476 583.955 235.665 583.345 234.975C582.734 234.286 581.984 233.733 581.145 233.355C580.305 232.976 579.395 232.779 578.474 232.777Z" fill="#E7F6FF"/>
<path d="M567.505 264.143C568.188 261.325 566.458 258.487 563.64 257.804C560.822 257.12 557.984 258.851 557.301 261.668C556.617 264.486 558.348 267.324 561.166 268.008C563.983 268.691 566.822 266.961 567.505 264.143Z" fill="#E7F6FF"/>
<path d="M25.5736 250.251C22.391 250.181 19.3643 248.859 17.1505 246.572C14.9367 244.284 13.7145 241.216 13.7493 238.032C13.784 234.849 15.073 231.808 17.3362 229.569C19.5994 227.331 22.6544 226.075 25.8377 226.075C29.0211 226.075 32.076 227.331 34.3393 229.569C36.6025 231.808 37.8914 234.849 37.9262 238.032C37.961 241.216 36.7388 244.284 34.525 246.572C32.3112 248.859 29.2845 250.181 26.1018 250.251H25.5736ZM25.5736 231.637H25.3002C23.5813 231.675 21.9465 232.388 20.7506 233.624C19.5548 234.859 18.8945 236.516 18.9131 238.235C18.9317 239.954 19.6277 241.597 20.85 242.806C22.0723 244.015 23.7222 244.693 25.4416 244.693C27.1609 244.693 28.8108 244.015 30.0331 242.806C31.2554 241.597 31.9514 239.954 31.97 238.235C31.9886 236.516 31.3283 234.859 30.1325 233.624C28.9366 232.388 27.3018 231.675 25.5829 231.637H25.5736Z" fill="#E7F6FF"/>
<path d="M16.9539 270.538C19.8507 270.413 22.0977 267.963 21.9727 265.066C21.8477 262.17 19.3982 259.923 16.5014 260.048C13.6046 260.173 11.3576 262.622 11.4826 265.519C11.6076 268.416 14.0571 270.663 16.9539 270.538Z" fill="#E7F6FF"/>
<path d="M328.563 54.7985C325.678 54.8011 322.888 53.7708 320.697 51.8942C318.506 50.0175 317.059 47.4185 316.619 44.5676C316.178 41.7167 316.773 38.8022 318.295 36.3517C319.817 33.9011 322.166 32.0765 324.917 31.2081C327.668 30.3397 330.639 30.4848 333.292 31.6172C335.946 32.7496 338.106 34.7944 339.382 37.3816C340.658 39.9688 340.966 42.9274 340.249 45.7218C339.533 48.5162 337.84 50.9619 335.477 52.6161C333.45 54.0342 331.037 54.796 328.563 54.7985ZM328.526 36.1898C326.838 36.188 325.215 36.8378 323.994 38.0036C322.773 39.1694 322.05 40.7613 321.974 42.4475C321.898 44.1337 322.476 45.7841 323.587 47.0547C324.698 48.3254 326.257 49.1182 327.938 49.2679C329.619 49.4177 331.293 48.9128 332.612 47.8585C333.93 46.8043 334.79 45.282 335.014 43.6089C335.237 41.9358 334.806 40.2411 333.811 38.8779C332.815 37.5148 331.332 36.5883 329.671 36.2917C329.293 36.2244 328.91 36.1903 328.526 36.1898Z" fill="#E7F6FF"/>
<path d="M303.914 54.1382C306.288 52.4735 306.863 49.1995 305.198 46.8256C303.534 44.4516 300.26 43.8767 297.886 45.5414C295.512 47.2061 294.937 50.4801 296.602 52.854C298.266 55.228 301.54 55.8029 303.914 54.1382Z" fill="#E7F6FF"/>
<path d="M595.888 117.075C595.888 111.98 593.864 107.093 590.261 103.491C586.658 99.8878 581.772 97.8638 576.677 97.8638C576.251 97.8638 575.829 97.8638 575.412 97.9055C575.44 97.4884 575.454 97.0668 575.454 96.6405C575.453 93.91 574.87 91.2111 573.745 88.7235C572.619 86.236 570.976 84.017 568.925 82.2144C566.874 80.4119 564.463 79.0672 561.851 78.27C559.24 77.4729 556.488 77.2416 553.78 77.5915C551.072 77.9415 548.47 78.8646 546.147 80.2995C543.824 81.7343 541.833 83.6479 540.308 85.9125C538.783 88.1772 537.758 90.741 537.302 93.4331C536.845 96.1251 536.968 98.8835 537.661 101.524C535.34 99.8405 532.67 98.698 529.849 98.1805C527.028 97.663 524.127 97.7838 521.359 98.5339C518.59 99.284 516.025 100.644 513.851 102.515C511.677 104.386 509.95 106.72 508.796 109.346C507.642 111.972 507.09 114.822 507.182 117.689C507.273 120.556 508.005 123.366 509.325 125.912C510.644 128.459 512.516 130.678 514.805 132.407C517.094 134.135 519.741 135.329 522.551 135.901C523.699 138.945 525.6 141.647 528.077 143.755C530.554 145.862 533.526 147.307 536.714 147.952C539.902 148.598 543.201 148.423 546.303 147.445C549.405 146.467 552.208 144.718 554.449 142.361C556.742 144.092 559.395 145.286 562.21 145.856C565.026 146.427 567.934 146.358 570.72 145.655C573.506 144.953 576.099 143.635 578.308 141.797C580.517 139.96 582.285 137.651 583.484 135.04C587.13 133.657 590.269 131.199 592.485 127.99C594.7 124.781 595.887 120.974 595.888 117.075Z" fill="white"/>
<path d="M88.7114 70.8957C88.7138 68.3717 88.2188 65.8719 87.2548 63.5393C86.2907 61.2066 84.8764 59.0868 83.0928 57.301C81.3091 55.5152 79.191 54.0984 76.8595 53.1315C74.528 52.1646 72.0289 51.6666 69.5049 51.666C69.0786 51.666 68.6569 51.666 68.2399 51.7077C68.2677 51.2907 68.2816 50.869 68.2816 50.4427C68.2811 47.7123 67.6985 45.0133 66.5728 42.5258C65.447 40.0382 63.8039 37.8192 61.753 36.0166C59.7022 34.2141 57.2906 32.8694 54.6791 32.0723C52.0676 31.2752 49.3162 31.0438 46.6083 31.3938C43.9004 31.7437 41.2982 32.6669 38.9751 34.1017C36.6521 35.5366 34.6616 37.4501 33.1363 39.7148C31.611 41.9795 30.586 44.5433 30.1296 47.2353C29.6732 49.9273 29.7959 52.6857 30.4895 55.3266C28.1677 53.6428 25.4983 52.5002 22.6772 51.9827C19.8562 51.4653 16.955 51.586 14.1867 52.3361C11.4184 53.0862 8.85322 54.4467 6.67933 56.3176C4.50545 58.1886 2.77807 60.5225 1.62396 63.1482C0.469848 65.7739 -0.0817054 68.6247 0.00977548 71.4913C0.101256 74.358 0.83345 77.1678 2.15262 79.7146C3.4718 82.2613 5.34447 84.4804 7.63322 86.2089C9.92197 87.9375 12.5687 89.1316 15.3792 89.7037C16.5278 92.7443 18.429 95.4438 20.9051 97.5495C23.3811 99.6552 26.3508 101.098 29.5364 101.744C32.722 102.389 36.0193 102.216 39.1196 101.239C42.2199 100.263 45.0219 98.5168 47.2634 96.163C49.5565 97.8939 52.2087 99.0884 55.0246 99.6586C57.8405 100.229 60.7485 100.16 63.5344 99.4576C66.3203 98.7552 68.9131 97.4368 71.122 95.5996C73.3309 93.7623 75.0996 91.4531 76.2978 88.8418C79.9427 87.4622 83.082 85.0069 85.2991 81.8017C87.5162 78.5965 88.7062 74.7929 88.7114 70.8957Z" fill="white"/>
<path d="M442.134 344.249H165.737V338.225H442.134C442.933 338.225 443.699 338.542 444.264 339.107C444.829 339.672 445.146 340.438 445.146 341.237C445.146 342.036 444.829 342.802 444.264 343.367C443.699 343.932 442.933 344.249 442.134 344.249Z" fill="#426572"/>
<path d="M153.374 344.249H136.475C135.676 344.249 134.91 343.932 134.346 343.367C133.781 342.802 133.463 342.036 133.463 341.237C133.463 340.438 133.781 339.672 134.346 339.107C134.91 338.542 135.676 338.225 136.475 338.225H153.374C154.173 338.225 154.939 338.542 155.504 339.107C156.069 339.672 156.386 340.438 156.386 341.237C156.386 342.036 156.069 342.802 155.504 343.367C154.939 343.932 154.173 344.249 153.374 344.249Z" fill="#426572"/>
<path d="M125.507 344.249H120.123C119.324 344.249 118.558 343.932 117.993 343.367C117.429 342.802 117.111 342.036 117.111 341.237C117.111 340.438 117.429 339.672 117.993 339.107C118.558 338.542 119.324 338.225 120.123 338.225H125.507C126.306 338.225 127.072 338.542 127.637 339.107C128.202 339.672 128.519 340.438 128.519 341.237C128.519 342.036 128.202 342.802 127.637 343.367C127.072 343.932 126.306 344.249 125.507 344.249Z" fill="#426572"/>
<path d="M539.051 344.249H454.098V338.225H539.051C539.85 338.225 540.616 338.542 541.181 339.107C541.746 339.672 542.063 340.438 542.063 341.237C542.063 342.036 541.746 342.802 541.181 343.367C540.616 343.932 539.85 344.249 539.051 344.249Z" fill="#426572"/>
<path d="M104.72 344.249H19.7622V338.225H104.72C105.519 338.225 106.285 338.542 106.85 339.107C107.415 339.672 107.732 340.438 107.732 341.237C107.732 342.036 107.415 342.802 106.85 343.367C106.285 343.932 105.519 344.249 104.72 344.249Z" fill="#426572"/>
<path d="M326.783 250.908H254.498C251.427 250.908 248.938 253.398 248.938 256.469V325.973C248.938 329.044 251.427 331.534 254.498 331.534H326.783C329.854 331.534 332.344 329.044 332.344 325.973V256.469C332.344 253.398 329.854 250.908 326.783 250.908Z" fill="#E8EDF7"/>
<path d="M332.344 284.271H248.938V309.756H332.344V284.271Z" fill="#C1CEDE"/>
<path d="M325.63 335.241H253.345C251.133 335.241 249.011 334.362 247.447 332.798C245.883 331.234 245.004 329.113 245.004 326.901V257.396C245.004 255.184 245.883 253.062 247.447 251.498C249.011 249.934 251.133 249.055 253.345 249.055H325.63C327.842 249.055 329.963 249.934 331.528 251.498C333.092 253.062 333.97 255.184 333.97 257.396V326.901C333.97 329.113 333.092 331.234 331.528 332.798C329.963 334.362 327.842 335.241 325.63 335.241ZM253.345 254.616C252.608 254.616 251.9 254.908 251.379 255.43C250.858 255.951 250.565 256.658 250.565 257.396V326.901C250.565 327.638 250.858 328.345 251.379 328.866C251.9 329.388 252.608 329.681 253.345 329.681H325.63C326.367 329.681 327.074 329.388 327.596 328.866C328.117 328.345 328.41 327.638 328.41 326.901V257.396C328.41 256.658 328.117 255.951 327.596 255.43C327.074 254.908 326.367 254.616 325.63 254.616H253.345Z" fill="#426572"/>
<path d="M501.704 59.5296V273.604C501.703 278.713 500.014 283.678 496.899 287.728C493.784 291.777 489.418 294.683 484.481 295.994C482.547 296.504 480.554 296.761 478.554 296.759H103.196C97.0515 296.759 91.1586 294.318 86.8137 289.973C82.4688 285.628 80.0279 279.735 80.0279 273.59V59.5157C80.0212 55.2362 81.2052 51.0392 83.4475 47.3941C83.7394 46.9307 84.0499 46.4673 84.3742 46.004C86.9262 42.45 90.4313 39.6902 94.4848 38.0434C97.2438 36.9215 100.195 36.3471 103.173 36.3521L478.522 36.3521C481.566 36.3503 484.581 36.9485 487.394 38.1126C490.207 39.2766 492.764 40.9837 494.916 43.1363C497.069 45.2888 498.777 47.8446 499.942 50.6574C501.106 53.4703 501.705 56.4852 501.704 59.5296Z" fill="#E8EDF7"/>
<path d="M475.77 300.489H100.444C93.5621 300.489 86.962 297.755 82.0957 292.889C77.2295 288.022 74.4956 281.422 74.4956 274.54V60.4656C74.4886 53.9108 76.9731 47.5983 81.4461 42.8067C81.7427 42.4824 82.0763 42.1441 82.484 41.7503C87.3078 37.105 93.7473 34.5149 100.444 34.5264L475.77 34.5264C482.652 34.5264 489.252 37.2602 494.118 42.1265C498.984 46.9928 501.718 53.5929 501.718 60.4748V274.549C501.722 277.958 501.053 281.334 499.75 284.484C498.448 287.634 496.537 290.496 494.126 292.906C491.716 295.316 488.854 297.227 485.704 298.53C482.554 299.833 479.178 300.502 475.77 300.498V300.489ZM100.444 40.0775C95.1818 40.0676 90.1219 42.1049 86.3346 45.7584C86.0149 46.0642 85.76 46.3237 85.533 46.5693C82.0107 50.3401 80.0557 55.3102 80.0653 60.4702V274.545C80.0653 279.952 82.2133 285.138 86.0368 288.961C89.8603 292.785 95.0461 294.933 100.453 294.933H475.779C478.457 294.937 481.11 294.412 483.586 293.388C486.061 292.365 488.31 290.863 490.204 288.97C492.098 287.076 493.599 284.827 494.623 282.351C495.646 279.876 496.171 277.223 496.167 274.545V60.4702C496.167 55.063 494.019 49.8772 490.196 46.0537C486.372 42.2302 481.186 40.0822 475.779 40.0822L100.444 40.0775Z" fill="#426572"/>
<path d="M471.423 51.1982L105.708 51.1982C98.0639 51.1982 91.8672 57.3949 91.8672 65.039V270.894C91.8672 278.538 98.0639 284.734 105.708 284.734H471.423C479.067 284.734 485.264 278.538 485.264 270.894V65.039C485.264 57.3949 479.067 51.1982 471.423 51.1982Z" fill="#C1CEDE"/>
<path d="M107.788 58.6118L469.333 58.6118C471.403 58.6118 473.387 59.4339 474.851 60.8973C476.314 62.3606 477.136 64.3454 477.136 66.4149V247.201H99.9849V66.4149C99.9849 64.3454 100.807 62.3606 102.27 60.8973C103.734 59.4339 105.718 58.6118 107.788 58.6118Z" fill="#F1F6FE"/>
<path d="M484.337 246.275V269.967C484.336 273.637 482.878 277.157 480.282 279.752C477.687 282.348 474.167 283.806 470.497 283.807H104.781C101.11 283.807 97.5899 282.349 94.9943 279.754C92.3986 277.158 90.9404 273.638 90.9404 269.967V246.275H99.0632V247.202H476.215V246.275H484.337Z" fill="#E8EDF7"/>
<path d="M484.555 245.348H92.085V253.689H484.555V245.348Z" fill="#C1CEDE"/>
<path d="M484.106 243.495H93.0254V249.055H484.106V243.495Z" fill="#426572"/>
<path d="M428.024 74.8296L144.445 74.8296C141.374 74.8296 138.884 77.3191 138.884 80.39V223.106C138.884 226.177 141.374 228.667 144.445 228.667H428.024C431.095 228.667 433.584 226.177 433.584 223.106V80.39C433.584 77.3191 431.095 74.8296 428.024 74.8296Z" fill="white"/>
<path d="M143.518 101.705H434.511V82.16L428.951 74.8296L174.1 74.8296H149.078L139.811 82.16V101.705H143.518Z" fill="#E2F2FF"/>
<path d="M428.951 231.447H145.372C143.16 231.447 141.038 230.569 139.474 229.004C137.91 227.44 137.031 225.319 137.031 223.107V80.3904C137.031 78.1783 137.91 76.0569 139.474 74.4927C141.038 72.9285 143.16 72.0498 145.372 72.0498L428.951 72.0498C431.163 72.0498 433.285 72.9285 434.849 74.4927C436.413 76.0569 437.292 78.1783 437.292 80.3904V223.107C437.292 225.319 436.413 227.44 434.849 229.004C433.285 230.569 431.163 231.447 428.951 231.447ZM145.372 77.6102C144.634 77.6102 143.927 77.9031 143.406 78.4245C142.885 78.9459 142.592 79.653 142.592 80.3904V223.107C142.592 223.844 142.885 224.551 143.406 225.073C143.927 225.594 144.634 225.887 145.372 225.887H428.951C429.689 225.887 430.396 225.594 430.917 225.073C431.439 224.551 431.731 223.844 431.731 223.107V80.3904C431.731 79.653 431.439 78.9459 430.917 78.4245C430.396 77.9031 429.689 77.6102 428.951 77.6102L145.372 77.6102Z" fill="#426572"/>
<path d="M356.754 321.804H221.6C218.529 321.804 216.04 324.293 216.04 327.364V333.388C216.04 336.459 218.529 338.948 221.6 338.948H356.754C359.825 338.948 362.315 336.459 362.315 333.388V327.364C362.315 324.293 359.825 321.804 356.754 321.804Z" fill="#E8EDF7"/>
<path d="M357.366 342.191H222.212C220 342.191 217.878 341.312 216.314 339.748C214.75 338.184 213.871 336.063 213.871 333.851V327.827C213.871 325.615 214.75 323.493 216.314 321.929C217.878 320.365 220 319.486 222.212 319.486H357.366C359.578 319.486 361.7 320.365 363.264 321.929C364.828 323.493 365.707 325.615 365.707 327.827V333.851C365.707 336.063 364.828 338.184 363.264 339.748C361.7 341.312 359.578 342.191 357.366 342.191ZM222.212 325.047C221.474 325.047 220.767 325.34 220.246 325.861C219.724 326.382 219.431 327.09 219.431 327.827V333.851C219.431 334.588 219.724 335.295 220.246 335.817C220.767 336.338 221.474 336.631 222.212 336.631H357.366C358.103 336.631 358.811 336.338 359.332 335.817C359.853 335.295 360.146 334.588 360.146 333.851V327.827C360.146 327.09 359.853 326.382 359.332 325.861C358.811 325.34 358.103 325.047 357.366 325.047H222.212Z" fill="#426572"/>
<path d="M156.729 93.0169C158.776 93.0169 160.436 91.3572 160.436 89.3099C160.436 87.2627 158.776 85.603 156.729 85.603C154.682 85.603 153.022 87.2627 153.022 89.3099C153.022 91.3572 154.682 93.0169 156.729 93.0169Z" fill="#CADCE8"/>
<path d="M167.85 93.0169C169.897 93.0169 171.557 91.3572 171.557 89.3099C171.557 87.2627 169.897 85.603 167.85 85.603C165.803 85.603 164.143 87.2627 164.143 89.3099C164.143 91.3572 165.803 93.0169 167.85 93.0169Z" fill="#CADCE8"/>
<path d="M178.971 93.0169C181.018 93.0169 182.678 91.3572 182.678 89.3099C182.678 87.2627 181.018 85.603 178.971 85.603C176.923 85.603 175.264 87.2627 175.264 89.3099C175.264 91.3572 176.923 93.0169 178.971 93.0169Z" fill="#CADCE8"/>
<path d="M420.152 85.603H194.493C192.829 85.603 191.481 86.9515 191.481 88.6149V90.005C191.481 91.6684 192.829 93.0169 194.493 93.0169H420.152C421.815 93.0169 423.164 91.6684 423.164 90.005V88.6149C423.164 86.9515 421.815 85.603 420.152 85.603Z" fill="#CADCE8"/>
<path d="M414.823 113.753L161.826 113.753C158.755 113.753 156.265 116.242 156.265 119.313V161.016C156.265 164.087 158.755 166.577 161.826 166.577H414.823C417.894 166.577 420.383 164.087 420.383 161.016V119.313C420.383 116.242 417.894 113.753 414.823 113.753Z" fill="#87D6FE"/>
<path d="M414.36 170.283H161.363C159.15 170.283 157.029 169.404 155.465 167.84C153.901 166.276 153.022 164.154 153.022 161.942V120.239C153.022 118.027 153.901 115.906 155.465 114.342C157.029 112.778 159.15 111.899 161.363 111.899L414.36 111.899C416.572 111.899 418.693 112.778 420.258 114.342C421.822 115.906 422.7 118.027 422.7 120.239V161.942C422.7 164.154 421.822 166.276 420.258 167.84C418.693 169.404 416.572 170.283 414.36 170.283ZM161.363 117.459C160.625 117.459 159.918 117.752 159.397 118.274C158.875 118.795 158.582 119.502 158.582 120.239V161.942C158.582 162.68 158.875 163.387 159.397 163.908C159.918 164.43 160.625 164.723 161.363 164.723H414.36C415.097 164.723 415.804 164.43 416.326 163.908C416.847 163.387 417.14 162.68 417.14 161.942V120.239C417.14 119.502 416.847 118.795 416.326 118.274C415.804 117.752 415.097 117.459 414.36 117.459H161.363Z" fill="#426572"/>
<path d="M231.775 182.794H163.749C160.678 182.794 158.188 185.283 158.188 188.354V206.426C158.188 209.496 160.678 211.986 163.749 211.986H231.775C234.846 211.986 237.336 209.496 237.336 206.426V188.354C237.336 185.283 234.846 182.794 231.775 182.794Z" fill="#A8EF9E"/>
<path d="M230.783 215.229H162.752C160.54 215.229 158.419 214.351 156.855 212.787C155.29 211.222 154.412 209.101 154.412 206.889V188.818C154.412 186.606 155.29 184.484 156.855 182.92C158.419 181.356 160.54 180.477 162.752 180.477H230.783C232.996 180.477 235.117 181.356 236.681 182.92C238.245 184.484 239.124 186.606 239.124 188.818V206.889C239.124 209.101 238.245 211.222 236.681 212.787C235.117 214.351 232.996 215.229 230.783 215.229ZM162.757 186.037C162.019 186.037 161.312 186.33 160.791 186.852C160.27 187.373 159.977 188.08 159.977 188.818V206.889C159.977 207.626 160.27 208.333 160.791 208.855C161.312 209.376 162.019 209.669 162.757 209.669H230.783C231.521 209.669 232.228 209.376 232.749 208.855C233.271 208.333 233.564 207.626 233.564 206.889V188.818C233.564 188.08 233.271 187.373 232.749 186.852C232.228 186.33 231.521 186.037 230.783 186.037H162.757Z" fill="#426572"/>
<path d="M322.372 182.794H254.346C251.275 182.794 248.785 185.283 248.785 188.354V206.426C248.785 209.496 251.275 211.986 254.346 211.986H322.372C325.443 211.986 327.933 209.496 327.933 206.426V188.354C327.933 185.283 325.443 182.794 322.372 182.794Z" fill="#A8EF9E"/>
<path d="M321.381 215.229H253.349C251.137 215.229 249.016 214.351 247.452 212.787C245.888 211.222 245.009 209.101 245.009 206.889V188.818C245.009 186.606 245.888 184.484 247.452 182.92C249.016 181.356 251.137 180.477 253.349 180.477H321.381C323.593 180.477 325.714 181.356 327.278 182.92C328.842 184.484 329.721 186.606 329.721 188.818V206.889C329.721 209.101 328.842 211.222 327.278 212.787C325.714 214.351 323.593 215.229 321.381 215.229ZM253.354 186.037C252.617 186.037 251.909 186.33 251.388 186.852C250.867 187.373 250.574 188.08 250.574 188.818V206.889C250.574 207.626 250.867 208.333 251.388 208.855C251.909 209.376 252.617 209.669 253.354 209.669H321.381C322.118 209.669 322.825 209.376 323.347 208.855C323.868 208.333 324.161 207.626 324.161 206.889V188.818C324.161 188.08 323.868 187.373 323.347 186.852C322.825 186.33 322.118 186.037 321.381 186.037H253.354Z" fill="#426572"/>
<path d="M412.969 182.794H344.943C341.872 182.794 339.382 185.283 339.382 188.354V206.426C339.382 209.496 341.872 211.986 344.943 211.986H412.969C416.04 211.986 418.53 209.496 418.53 206.426V188.354C418.53 185.283 416.04 182.794 412.969 182.794Z" fill="#A8EF9E"/>
<path d="M411.978 215.229H343.947C341.735 215.229 339.613 214.351 338.049 212.787C336.485 211.222 335.606 209.101 335.606 206.889V188.818C335.606 186.606 336.485 184.484 338.049 182.92C339.613 181.356 341.735 180.477 343.947 180.477H411.978C414.19 180.477 416.312 181.356 417.876 182.92C419.44 184.484 420.319 186.606 420.319 188.818V206.889C420.319 209.101 419.44 211.222 417.876 212.787C416.312 214.351 414.19 215.229 411.978 215.229ZM343.952 186.037C343.214 186.037 342.507 186.33 341.986 186.852C341.464 187.373 341.171 188.08 341.171 188.818V206.889C341.171 207.626 341.464 208.333 341.986 208.855C342.507 209.376 343.214 209.669 343.952 209.669H411.978C412.716 209.669 413.423 209.376 413.944 208.855C414.466 208.333 414.758 207.626 414.758 206.889V188.818C414.758 188.08 414.466 187.373 413.944 186.852C413.423 186.33 412.716 186.037 411.978 186.037H343.952Z" fill="#426572"/>
<path d="M471.419 286.587H105.708C101.301 286.582 97.0764 284.83 93.9605 281.714C90.8445 278.598 89.0918 274.373 89.0869 269.966V64.1116C89.0918 59.705 90.8445 55.4803 93.9605 52.3643C97.0764 49.2483 101.301 47.4956 105.708 47.4907L471.419 47.4907C475.825 47.4956 480.05 49.2483 483.166 52.3643C486.282 55.4803 488.035 59.705 488.04 64.1116V269.962C488.036 274.369 486.284 278.595 483.168 281.712C480.052 284.829 475.826 286.582 471.419 286.587ZM105.708 53.0511C102.776 53.0548 99.9644 54.2213 97.8909 56.2947C95.8175 58.3682 94.651 61.1793 94.6473 64.1116V269.962C94.651 272.894 95.8175 275.705 97.8909 277.778C99.9644 279.852 102.776 281.018 105.708 281.022H471.419C474.351 281.018 477.162 279.852 479.236 277.778C481.309 275.705 482.476 272.894 482.479 269.962V64.1116C482.476 61.1793 481.309 58.3682 479.236 56.2947C477.162 54.2213 474.351 53.0548 471.419 53.0511L105.708 53.0511Z" fill="#426572"/>
<path opacity="0.1" d="M51.4893 89.1479C52.2149 89.4854 53.0058 89.6593 53.8061 89.6577H51.4893V89.1479Z" fill="#606060"/>
<path d="M169.647 80.6221H83.9243V85.7191H169.647V80.6221Z" fill="#DEE6F1"/>
<path d="M456.934 197.529V312.383C456.934 315.454 459.424 317.944 462.494 317.944H526.958C530.029 317.944 532.518 315.454 532.518 312.383V197.529C532.518 194.458 530.029 191.969 526.958 191.969H462.494C459.424 191.969 456.934 194.458 456.934 197.529Z" fill="white"/>
<path d="M532.518 199.674V313.328C532.513 314.956 531.866 316.516 530.717 317.669C529.568 318.822 528.011 319.475 526.383 319.486H463.097C461.465 319.481 459.901 318.831 458.748 317.677C457.594 316.523 456.943 314.96 456.938 313.328V309.223H515.072C516.708 309.218 518.275 308.564 519.429 307.405C520.584 306.246 521.232 304.677 521.23 303.041V193.516H526.383C528.011 193.527 529.568 194.18 530.717 195.333C531.866 196.486 532.513 198.046 532.518 199.674Z" fill="#DEE6F1"/>
<path d="M526.22 320.784H461.247C459.565 320.78 457.926 320.247 456.563 319.26C455.513 318.512 454.658 317.526 454.066 316.381C453.475 315.237 453.164 313.968 453.162 312.68V197.302C453.16 196.168 453.4 195.046 453.866 194.012C454.502 192.586 455.538 191.373 456.847 190.522C458.157 189.671 459.685 189.218 461.247 189.216H526.225C527.84 189.225 529.416 189.715 530.752 190.623C532.088 191.53 533.124 192.815 533.727 194.313L533.954 194.777V194.939C534.191 195.704 534.311 196.501 534.311 197.302V312.68C534.302 314.625 533.596 316.502 532.321 317.971C531.045 319.439 529.285 320.402 527.36 320.682C526.983 320.744 526.602 320.778 526.22 320.784ZM461.247 194.809C460.757 194.808 460.277 194.95 459.865 195.218C459.454 195.485 459.129 195.866 458.931 196.315C458.786 196.635 458.712 196.983 458.713 197.334V312.712C458.715 313.115 458.814 313.511 459 313.868C459.186 314.225 459.455 314.533 459.783 314.765C460.208 315.068 460.717 315.23 461.238 315.228H526.216C526.327 315.237 526.438 315.237 526.549 315.228C527.155 315.145 527.709 314.846 528.112 314.386C528.515 313.927 528.738 313.337 528.741 312.726V197.348C528.742 197.071 528.695 196.795 528.602 196.533L528.384 196.069C528.161 195.693 527.843 195.381 527.463 195.163C527.083 194.946 526.654 194.83 526.216 194.828L461.247 194.809Z" fill="#426572"/>
<path d="M517.324 233.106H471.136V238.667H517.324V233.106Z" fill="#426572"/>
<path d="M517.324 217.709H471.136V223.269H517.324V217.709Z" fill="#426572"/>
<path d="M517.324 250.556H471.136V256.117H517.324V250.556Z" fill="#426572"/>
<path d="M377.137 262.029H448.648C450.437 262.029 450.441 259.249 448.648 259.249H377.137C375.349 259.249 375.344 262.029 377.137 262.029Z" fill="white"/>
<path d="M349.489 262.029H368.102C369.891 262.029 369.895 259.249 368.102 259.249H349.489C347.7 259.249 347.695 262.029 349.489 262.029Z" fill="white"/>
<defs>
<linearGradient id="paint0_linear_619_6621" x1="0.611797" y1="171.998" x2="581.338" y2="171.998" gradientUnits="userSpaceOnUse">
<stop stop-color="#C5E9FA"/>
<stop offset="1" stop-color="#C4F4EA"/>
</linearGradient>
</defs>
</svg>
